M48
; DRILL file KiCad 10.0.3-10.0.3~ubuntu24.04.1 date 2026-06-16T17:38:18
; FORMAT={-:-/ absolute / metric / decimal}
; #@! TF.CreationDate,2026-06-16T17:38:18+03:00
; #@! TF.GenerationSoftware,Kicad,Pcbnew,10.0.3-10.0.3~ubuntu24.04.1
; #@! TF.FileFunction,MixedPlating,1,2
FMAT,2
METRIC
; #@! TA.AperFunction,Plated,PTH,ComponentDrill
T1C0.800
; #@! TA.AperFunction,Plated,PTH,ComponentDrill
T2C0.900
; #@! TA.AperFunction,Plated,PTH,ComponentDrill
T3C1.000
; #@! TA.AperFunction,Plated,PTH,ComponentDrill
T4C1.100
%
G90
G05
T1
X29.555Y-41.605
X34.555Y-41.605
X39.975Y-41.605
X44.855Y-41.605
X52.555Y-41.405
X57.555Y-41.405
X61.05Y-27.48
X61.05Y-30.02
X61.05Y-32.56
X61.05Y-35.1
X61.05Y-37.64
X61.05Y-40.18
X61.05Y-42.72
X61.05Y-45.26
X61.05Y-47.8
X61.05Y-50.34
X61.05Y-52.88
X61.05Y-55.42
X61.05Y-57.96
X61.05Y-60.5
X61.05Y-63.04
X61.05Y-65.58
X61.05Y-68.12
X61.05Y-70.66
X61.05Y-73.2
X61.05Y-75.74
X76.29Y-27.48
X76.29Y-30.02
X76.29Y-32.56
X76.29Y-35.1
X76.29Y-37.64
X76.29Y-40.18
X76.29Y-42.72
X76.29Y-45.26
X76.29Y-47.8
X76.29Y-50.34
X76.29Y-52.88
X76.29Y-55.42
X76.29Y-57.96
X76.29Y-60.5
X76.29Y-63.04
X76.29Y-65.58
X76.29Y-68.12
X76.29Y-70.66
X76.29Y-73.2
X76.29Y-75.74
X79.55Y-75.35
X80.845Y-24.605
X81.235Y-31.405
X81.235Y-38.205
X81.435Y-45.805
X81.835Y-52.205
X82.035Y-59.205
X84.55Y-75.35
X88.465Y-24.605
X88.55Y-75.6
X88.855Y-31.405
X88.855Y-38.205
X89.055Y-45.805
X89.455Y-52.205
X89.655Y-59.205
X93.55Y-75.6
X97.55Y-76.35
X102.55Y-76.35
T2
X98.165Y-56.105
X98.415Y-64.105
X100.705Y-56.105
X100.955Y-64.105
T3
X33.655Y-72.665
X33.655Y-75.205
X33.655Y-77.745
T4
X30.55Y-57.35
X30.55Y-61.85
X33.155Y-24.905
X33.155Y-29.405
X37.05Y-57.35
X37.05Y-61.85
X39.655Y-24.905
X39.655Y-29.405
X41.3Y-57.6
X41.3Y-62.1
X47.8Y-57.6
X47.8Y-62.1
X51.3Y-57.6
X51.3Y-62.1
X57.8Y-57.6
X57.8Y-62.1
M30
