M48
; DRILL file KiCad 10.0.3-10.0.3~ubuntu24.04.1 date 2026-06-16T10:42:02
; FORMAT={-:-/ absolute / metric / decimal}
; #@! TF.CreationDate,2026-06-16T10:42:02+03:00
; #@! TF.GenerationSoftware,Kicad,Pcbnew,10.0.3-10.0.3~ubuntu24.04.1
; #@! TF.FileFunction,MixedPlating,1,2
FMAT,2
METRIC
; #@! TA.AperFunction,Plated,PTH,ComponentDrill
T1C0.700
; #@! TA.AperFunction,Plated,PTH,ComponentDrill
T2C0.800
; #@! TA.AperFunction,Plated,PTH,ComponentDrill
T3C0.900
; #@! TA.AperFunction,Plated,PTH,ComponentDrill
T4C1.000
%
G90
G05
T1
X14.0Y-28.0
X15.56Y-24.0
X16.5Y-28.0
X20.44Y-24.0
X22.0Y-28.0
X24.5Y-28.0
X27.0Y-14.0
X29.5Y-14.0
X42.0Y-14.0
X44.5Y-14.0
T2
X10.0Y-34.0
X20.16Y-34.0
X35.0Y-30.0
X35.0Y-32.54
X35.0Y-35.08
X35.0Y-37.62
X35.0Y-40.16
X35.0Y-42.7
X35.0Y-45.24
X35.0Y-47.78
X35.0Y-50.32
X35.0Y-52.86
X35.0Y-55.4
X35.0Y-57.94
X35.0Y-60.48
X35.0Y-63.02
X35.0Y-65.56
X35.0Y-68.1
X35.0Y-70.64
X35.0Y-73.18
X35.0Y-75.72
X35.0Y-78.26
X50.24Y-30.0
X50.24Y-32.54
X50.24Y-35.08
X50.24Y-37.62
X50.24Y-40.16
X50.24Y-42.7
X50.24Y-45.24
X50.24Y-47.78
X50.24Y-50.32
X50.24Y-52.86
X50.24Y-55.4
X50.24Y-57.94
X50.24Y-60.48
X50.24Y-63.02
X50.24Y-65.56
X50.24Y-68.1
X50.24Y-70.64
X50.24Y-73.18
X50.24Y-75.72
X50.24Y-78.26
X56.0Y-42.0
X58.0Y-10.0
X66.0Y-10.0
X66.16Y-42.0
X68.16Y-10.0
X73.0Y-42.0
X76.16Y-10.0
X83.16Y-42.0
X88.0Y-42.0
X98.16Y-42.0
T3
X62.0Y-6.0
X64.54Y-6.0
X70.0Y-6.0
X72.54Y-6.0
T4
X8.0Y-50.0
X8.0Y-52.54
X8.0Y-55.08
X10.54Y-50.0
X10.54Y-52.54
X10.54Y-55.08
X12.0Y-40.0
X18.5Y-40.0
X58.0Y-50.0
X64.5Y-50.0
X74.0Y-28.0
X74.0Y-30.54
X75.0Y-50.0
X81.5Y-50.0
X90.0Y-50.0
X96.5Y-50.0
M30
