%TF.GenerationSoftware,KiCad,Pcbnew,10.0.3-10.0.3~ubuntu24.04.1*%
%TF.CreationDate,2026-06-16T17:38:17+03:00*%
%TF.ProjectId,ATmega32_Clock,41546d65-6761-4333-925f-436c6f636b2e,rev?*%
%TF.SameCoordinates,Original*%
%TF.FileFunction,Copper,L2,Bot*%
%TF.FilePolarity,Positive*%
%FSLAX46Y46*%
G04 Gerber Fmt 4.6, Leading zero omitted, Abs format (unit mm)*
G04 Created by KiCad (PCBNEW 10.0.3-10.0.3~ubuntu24.04.1) date 2026-06-16 17:38:17*
%MOMM*%
%LPD*%
G01*
G04 APERTURE LIST*
G04 Aperture macros list*
%AMRoundRect*
0 Rectangle with rounded corners*
0 $1 Rounding radius*
0 $2 $3 $4 $5 $6 $7 $8 $9 X,Y pos of 4 corners*
0 Add a 4 corners polygon primitive as box body*
4,1,4,$2,$3,$4,$5,$6,$7,$8,$9,$2,$3,0*
0 Add four circle primitives for the rounded corners*
1,1,$1+$1,$2,$3*
1,1,$1+$1,$4,$5*
1,1,$1+$1,$6,$7*
1,1,$1+$1,$8,$9*
0 Add four rect primitives between the rounded corners*
20,1,$1+$1,$2,$3,$4,$5,0*
20,1,$1+$1,$4,$5,$6,$7,0*
20,1,$1+$1,$6,$7,$8,$9,0*
20,1,$1+$1,$8,$9,$2,$3,0*%
G04 Aperture macros list end*
%TA.AperFunction,ComponentPad*%
%ADD10C,1.600000*%
%TD*%
%TA.AperFunction,ComponentPad*%
%ADD11R,1.700000X1.700000*%
%TD*%
%TA.AperFunction,ComponentPad*%
%ADD12C,1.700000*%
%TD*%
%TA.AperFunction,ComponentPad*%
%ADD13C,2.000000*%
%TD*%
%TA.AperFunction,ComponentPad*%
%ADD14R,1.800000X1.800000*%
%TD*%
%TA.AperFunction,ComponentPad*%
%ADD15C,1.800000*%
%TD*%
%TA.AperFunction,ComponentPad*%
%ADD16C,1.500000*%
%TD*%
%TA.AperFunction,ComponentPad*%
%ADD17RoundRect,0.250000X-0.550000X-0.550000X0.550000X-0.550000X0.550000X0.550000X-0.550000X0.550000X0*%
%TD*%
%TA.AperFunction,Conductor*%
%ADD18C,0.250000*%
%TD*%
G04 APERTURE END LIST*
D10*
%TO.P,C4,1*%
%TO.N,GND*%
X52555000Y-41405000D03*
%TO.P,C4,2*%
%TO.N,Net-(U1-XTAL2)*%
X57555000Y-41405000D03*
%TD*%
%TO.P,R2,1*%
%TO.N,+5V*%
X81235000Y-31405000D03*
%TO.P,R2,2*%
%TO.N,/SET_BTN*%
X88855000Y-31405000D03*
%TD*%
%TO.P,R4,1*%
%TO.N,+5V*%
X81435000Y-45805000D03*
%TO.P,R4,2*%
%TO.N,/INC_BTN*%
X89055000Y-45805000D03*
%TD*%
D11*
%TO.P,J1,1,Pin_1_1*%
%TO.N,GND*%
X33655000Y-72665000D03*
D12*
%TO.P,J1,2,Pin_2_2*%
%TO.N,Net-(J1-Pin_2)*%
X33655000Y-75205000D03*
%TO.P,J1,3,Pin_3_3*%
%TO.N,Net-(J1-Pin_3)*%
X33655000Y-77745000D03*
%TD*%
D13*
%TO.P,SW2,1,1_1*%
%TO.N,GND*%
X41300000Y-57600000D03*
X47800000Y-57600000D03*
%TO.P,SW2,2,2_2*%
%TO.N,/SET_BTN*%
X41300000Y-62100000D03*
X47800000Y-62100000D03*
%TD*%
D14*
%TO.P,D1,1,K_1*%
%TO.N,GND*%
X98165000Y-56105000D03*
D15*
%TO.P,D1,2,A_2*%
%TO.N,Net-(D1-A)*%
X100705000Y-56105000D03*
%TD*%
D10*
%TO.P,C2,1*%
%TO.N,+5V*%
X79550000Y-75350000D03*
%TO.P,C2,2*%
%TO.N,GND*%
X84550000Y-75350000D03*
%TD*%
%TO.P,R6,1*%
%TO.N,+5V*%
X82035000Y-59205000D03*
%TO.P,R6,2*%
%TO.N,/CLOCK_RESET*%
X89655000Y-59205000D03*
%TD*%
%TO.P,C5,1*%
%TO.N,Net-(U1-AREF)*%
X88550000Y-75600000D03*
%TO.P,C5,2*%
%TO.N,GND*%
X93550000Y-75600000D03*
%TD*%
D16*
%TO.P,Y1,1,1_1*%
%TO.N,Net-(U1-XTAL2)*%
X39975000Y-41605000D03*
%TO.P,Y1,2,2_2*%
%TO.N,Net-(U1-XTAL1)*%
X44855000Y-41605000D03*
%TD*%
D13*
%TO.P,SW3,1,1_1*%
%TO.N,GND*%
X51300000Y-57600000D03*
X57800000Y-57600000D03*
%TO.P,SW3,2,2_2*%
%TO.N,/INC_BTN*%
X51300000Y-62100000D03*
X57800000Y-62100000D03*
%TD*%
%TO.P,SW4,1,1_1*%
%TO.N,GND*%
X33155000Y-24905000D03*
X39655000Y-24905000D03*
%TO.P,SW4,2,2_2*%
%TO.N,/CLOCK_RESET*%
X33155000Y-29405000D03*
X39655000Y-29405000D03*
%TD*%
D10*
%TO.P,C1,1*%
%TO.N,+5V*%
X97550000Y-76350000D03*
%TO.P,C1,2*%
%TO.N,GND*%
X102550000Y-76350000D03*
%TD*%
%TO.P,C3,1*%
%TO.N,GND*%
X29555000Y-41605000D03*
%TO.P,C3,2*%
%TO.N,Net-(U1-XTAL1)*%
X34555000Y-41605000D03*
%TD*%
D13*
%TO.P,SW1,1,1_1*%
%TO.N,GND*%
X30550000Y-57350000D03*
X37050000Y-57350000D03*
%TO.P,SW1,2,2_2*%
%TO.N,+5V*%
X30550000Y-61850000D03*
X37050000Y-61850000D03*
%TD*%
D10*
%TO.P,R5,1*%
%TO.N,/LED-STATUS*%
X81835000Y-52205000D03*
%TO.P,R5,2*%
%TO.N,Net-(D2-A)*%
X89455000Y-52205000D03*
%TD*%
D14*
%TO.P,D2,1,K_1*%
%TO.N,GND*%
X98415000Y-64105000D03*
D15*
%TO.P,D2,2,A_2*%
%TO.N,Net-(D2-A)*%
X100955000Y-64105000D03*
%TD*%
D10*
%TO.P,R1,1*%
%TO.N,+5V*%
X80845000Y-24605000D03*
%TO.P,R1,2*%
X88465000Y-24605000D03*
%TD*%
D17*
%TO.P,U1,1,PB0_1*%
%TO.N,/LED-STATUS*%
X61050000Y-27480000D03*
D10*
%TO.P,U1,2,PB1_2*%
%TO.N,/LED-TASK*%
X61050000Y-30020000D03*
%TO.P,U1,3,PB2_3*%
%TO.N,unconnected-(U1-PB2-Pad3)*%
X61050000Y-32560000D03*
%TO.P,U1,4,PB3_4*%
%TO.N,unconnected-(U1-PB3-Pad4)*%
X61050000Y-35100000D03*
%TO.P,U1,5,PB4_5*%
%TO.N,unconnected-(U1-PB4-Pad5)*%
X61050000Y-37640000D03*
%TO.P,U1,6,PB5_6*%
%TO.N,unconnected-(U1-PB5-Pad6)*%
X61050000Y-40180000D03*
%TO.P,U1,7,PB6_7*%
%TO.N,unconnected-(U1-PB6-Pad7)*%
X61050000Y-42720000D03*
%TO.P,U1,8,PB7_8*%
%TO.N,unconnected-(U1-PB7-Pad8)*%
X61050000Y-45260000D03*
%TO.P,U1,9,~{RESET}_9*%
%TO.N,+5V*%
X61050000Y-47800000D03*
%TO.P,U1,10,VCC_10*%
X61050000Y-50340000D03*
%TO.P,U1,11,GND_11*%
%TO.N,GND*%
X61050000Y-52880000D03*
%TO.P,U1,12,XTAL2_12*%
%TO.N,Net-(U1-XTAL2)*%
X61050000Y-55420000D03*
%TO.P,U1,13,XTAL1_13*%
%TO.N,Net-(U1-XTAL1)*%
X61050000Y-57960000D03*
%TO.P,U1,14,PD0_14*%
%TO.N,Net-(J1-Pin_3)*%
X61050000Y-60500000D03*
%TO.P,U1,15,PD1_15*%
%TO.N,Net-(J1-Pin_2)*%
X61050000Y-63040000D03*
%TO.P,U1,16,PD2_16*%
%TO.N,unconnected-(U1-PD2-Pad16)*%
X61050000Y-65580000D03*
%TO.P,U1,17,PD3_17*%
%TO.N,unconnected-(U1-PD3-Pad17)*%
X61050000Y-68120000D03*
%TO.P,U1,18,PD4_18*%
%TO.N,unconnected-(U1-PD4-Pad18)*%
X61050000Y-70660000D03*
%TO.P,U1,19,PD5_19*%
%TO.N,unconnected-(U1-PD5-Pad19)*%
X61050000Y-73200000D03*
%TO.P,U1,20,PD6_20*%
%TO.N,unconnected-(U1-PD6-Pad20)*%
X61050000Y-75740000D03*
%TO.P,U1,21,PD7_21*%
%TO.N,unconnected-(U1-PD7-Pad21)*%
X76290000Y-75740000D03*
%TO.P,U1,22,PC0_22*%
%TO.N,unconnected-(U1-PC0-Pad22)*%
X76290000Y-73200000D03*
%TO.P,U1,23,PC1_23*%
%TO.N,unconnected-(U1-PC1-Pad23)*%
X76290000Y-70660000D03*
%TO.P,U1,24,PC2_24*%
%TO.N,unconnected-(U1-PC2-Pad24)*%
X76290000Y-68120000D03*
%TO.P,U1,25,PC3_25*%
%TO.N,unconnected-(U1-PC3-Pad25)*%
X76290000Y-65580000D03*
%TO.P,U1,26,PC4_26*%
%TO.N,unconnected-(U1-PC4-Pad26)*%
X76290000Y-63040000D03*
%TO.P,U1,27,PC5_27*%
%TO.N,unconnected-(U1-PC5-Pad27)*%
X76290000Y-60500000D03*
%TO.P,U1,28,PC6_28*%
%TO.N,unconnected-(U1-PC6-Pad28)*%
X76290000Y-57960000D03*
%TO.P,U1,29,PC7_29*%
%TO.N,unconnected-(U1-PC7-Pad29)*%
X76290000Y-55420000D03*
%TO.P,U1,30,AVCC_30*%
%TO.N,+5V*%
X76290000Y-52880000D03*
%TO.P,U1,31,GND_31*%
%TO.N,GND*%
X76290000Y-50340000D03*
%TO.P,U1,32,AREF_32*%
%TO.N,Net-(U1-AREF)*%
X76290000Y-47800000D03*
%TO.P,U1,33,PA7_33*%
%TO.N,unconnected-(U1-PA7-Pad33)*%
X76290000Y-45260000D03*
%TO.P,U1,34,PA6_34*%
%TO.N,unconnected-(U1-PA6-Pad34)*%
X76290000Y-42720000D03*
%TO.P,U1,35,PA5_35*%
%TO.N,unconnected-(U1-PA5-Pad35)*%
X76290000Y-40180000D03*
%TO.P,U1,36,PA4_36*%
%TO.N,unconnected-(U1-PA4-Pad36)*%
X76290000Y-37640000D03*
%TO.P,U1,37,PA3_37*%
%TO.N,unconnected-(U1-PA3-Pad37)*%
X76290000Y-35100000D03*
%TO.P,U1,38,PA2_38*%
%TO.N,/CLOCK_RESET*%
X76290000Y-32560000D03*
%TO.P,U1,39,PA1_39*%
%TO.N,/INC_BTN*%
X76290000Y-30020000D03*
%TO.P,U1,40,PA0_40*%
%TO.N,/SET_BTN*%
X76290000Y-27480000D03*
%TD*%
%TO.P,R3,1*%
%TO.N,/LED-TASK*%
X81235000Y-38205000D03*
%TO.P,R3,2*%
%TO.N,Net-(D1-A)*%
X88855000Y-38205000D03*
%TD*%
%TO.N,+5V*%
D18*
X61050000Y-47800000D02*
X40150000Y-26900000D01*
X40150000Y-26900000D02*
X36300000Y-26900000D01*
%TO.N,GND*%
X39655000Y-24905000D02*
X75305991Y-24905000D01*
X77036370Y-66705000D02*
X84400000Y-74068630D01*
X84400000Y-74068630D02*
X84400000Y-76300000D01*
X101425000Y-75225000D02*
X102550000Y-76350000D01*
X74875000Y-66705000D02*
X77036370Y-66705000D01*
X77030496Y-29169505D02*
X77415000Y-29554009D01*
X92425000Y-74475000D02*
X93550000Y-75600000D01*
X61050000Y-52880000D02*
X74875000Y-66705000D01*
X90305000Y-64105000D02*
X98415000Y-64105000D01*
X83740000Y-50340000D02*
X85800000Y-52400000D01*
X84400000Y-76300000D02*
X86225000Y-74475000D01*
X85800000Y-52400000D02*
X85800000Y-59400000D01*
X85800000Y-59400000D02*
X85700000Y-59500000D01*
X77415000Y-28785001D02*
X77030496Y-29169505D01*
X76755991Y-33685000D02*
X76300000Y-33685000D01*
X77415000Y-33025991D02*
X76755991Y-33685000D01*
X86225000Y-74475000D02*
X92425000Y-74475000D01*
X96464009Y-75225000D02*
X101425000Y-75225000D01*
X85700000Y-59500000D02*
X90305000Y-64105000D01*
X77415000Y-29554009D02*
X77415000Y-33025991D01*
X75305991Y-24905000D02*
X77415000Y-27014009D01*
X67255000Y-59085000D02*
X80324009Y-59085000D01*
X61050000Y-52880000D02*
X67255000Y-59085000D01*
X76290000Y-50340000D02*
X83740000Y-50340000D01*
X77415000Y-27014009D02*
X77415000Y-28785001D01*
X80324009Y-59085000D02*
X96464009Y-75225000D01*
%TO.N,Net-(U1-AREF)*%
X96430000Y-57330000D02*
X99390000Y-57330000D01*
X85300000Y-38790000D02*
X85300000Y-46200000D01*
X85300000Y-46200000D02*
X96430000Y-57330000D01*
X76290000Y-47800000D02*
X85300000Y-38790000D01*
X99390000Y-57330000D02*
X99390000Y-56000000D01*
%TO.N,unconnected-(U1-PC5-Pad27)*%
X38446701Y-72075000D02*
X36681701Y-73840000D01*
X93990991Y-76750000D02*
X84213604Y-76750000D01*
X94675000Y-75134009D02*
X94675000Y-76065991D01*
X36681701Y-73840000D02*
X34250000Y-73840000D01*
X84213604Y-76750000D02*
X79538604Y-72075000D01*
X79538604Y-72075000D02*
X38446701Y-72075000D01*
X76290000Y-60500000D02*
X80040991Y-60500000D01*
X80040991Y-60500000D02*
X94675000Y-75134009D01*
X94675000Y-76065991D02*
X93990991Y-76750000D01*
%TO.N,unconnected-(U1-PC6-Pad28)*%
X70085000Y-51755000D02*
X49771167Y-51755000D01*
X76290000Y-57960000D02*
X70085000Y-51755000D01*
X32480000Y-69046167D02*
X32480000Y-73840000D01*
X49771167Y-51755000D02*
X32480000Y-69046167D01*
X32480000Y-73840000D02*
X33800000Y-73840000D01*
%TD*%
%TA.AperFunction,Conductor*%
%TO.N,GND*%
G36*
X79797578Y-61145185D02*
G01*
X79818220Y-61161819D01*
X92930734Y-74274333D01*
X92964219Y-74335656D01*
X92959235Y-74405348D01*
X92917363Y-74461281D01*
X92899350Y-74472498D01*
X92868644Y-74488143D01*
X92824077Y-74520523D01*
X92824077Y-74520524D01*
X93503553Y-75200000D01*
X93497339Y-75200000D01*
X93395606Y-75227259D01*
X93304394Y-75279920D01*
X93229920Y-75354394D01*
X93177259Y-75445606D01*
X93150000Y-75547339D01*
X93150000Y-75553553D01*
X92470524Y-74874077D01*
X92470523Y-74874077D01*
X92438143Y-74918644D01*
X92345244Y-75100968D01*
X92282009Y-75295582D01*
X92250000Y-75497682D01*
X92250000Y-75702317D01*
X92282009Y-75904417D01*
X92300779Y-75962181D01*
X92302775Y-76032022D01*
X92266695Y-76091855D01*
X92203994Y-76122684D01*
X92182848Y-76124500D01*
X89917678Y-76124500D01*
X89850639Y-76104815D01*
X89804884Y-76052011D01*
X89794940Y-75982853D01*
X89799747Y-75962182D01*
X89818476Y-75904538D01*
X89818476Y-75904537D01*
X89818477Y-75904534D01*
X89850500Y-75702352D01*
X89850500Y-75497648D01*
X89828386Y-75358028D01*
X89818477Y-75295465D01*
X89787458Y-75200000D01*
X89755220Y-75100781D01*
X89755218Y-75100778D01*
X89755218Y-75100776D01*
X89719114Y-75029920D01*
X89662287Y-74918390D01*
X89622236Y-74863264D01*
X89541971Y-74752786D01*
X89397213Y-74608028D01*
X89231613Y-74487715D01*
X89231612Y-74487714D01*
X89231610Y-74487713D01*
X89156613Y-74449500D01*
X89049223Y-74394781D01*
X88854534Y-74331522D01*
X88679995Y-74303878D01*
X88652352Y-74299500D01*
X88447648Y-74299500D01*
X88423329Y-74303351D01*
X88245465Y-74331522D01*
X88050776Y-74394781D01*
X87868386Y-74487715D01*
X87702786Y-74608028D01*
X87558028Y-74752786D01*
X87437715Y-74918386D01*
X87344781Y-75100776D01*
X87281522Y-75295465D01*
X87256680Y-75452317D01*
X87249500Y-75497648D01*
X87249500Y-75702352D01*
X87252704Y-75722580D01*
X87281523Y-75904535D01*
X87281523Y-75904538D01*
X87300253Y-75962182D01*
X87302248Y-76032024D01*
X87266167Y-76091856D01*
X87203466Y-76122684D01*
X87182322Y-76124500D01*
X85816747Y-76124500D01*
X85749708Y-76104815D01*
X85703953Y-76052011D01*
X85694009Y-75982853D01*
X85706262Y-75944206D01*
X85754754Y-75849034D01*
X85817990Y-75654417D01*
X85850000Y-75452317D01*
X85850000Y-75247682D01*
X85817990Y-75045582D01*
X85754755Y-74850968D01*
X85661859Y-74668650D01*
X85629474Y-74624077D01*
X85629474Y-74624076D01*
X84950000Y-75303551D01*
X84950000Y-75297339D01*
X84922741Y-75195606D01*
X84870080Y-75104394D01*
X84795606Y-75029920D01*
X84704394Y-74977259D01*
X84602661Y-74950000D01*
X84596446Y-74950000D01*
X85275922Y-74270524D01*
X85275921Y-74270523D01*
X85231359Y-74238147D01*
X85231350Y-74238141D01*
X85049031Y-74145244D01*
X84854417Y-74082009D01*
X84652317Y-74050000D01*
X84447683Y-74050000D01*
X84245582Y-74082009D01*
X84050968Y-74145244D01*
X83868644Y-74238143D01*
X83824077Y-74270523D01*
X83824077Y-74270524D01*
X84503554Y-74950000D01*
X84497339Y-74950000D01*
X84395606Y-74977259D01*
X84304394Y-75029920D01*
X84229920Y-75104394D01*
X84177259Y-75195606D01*
X84150000Y-75297339D01*
X84150000Y-75303553D01*
X83470524Y-74624077D01*
X83470523Y-74624077D01*
X83438143Y-74668644D01*
X83373419Y-74795673D01*
X83325444Y-74846469D01*
X83257623Y-74863264D01*
X83191488Y-74840726D01*
X83175257Y-74827062D01*
X80024463Y-71676269D01*
X80024462Y-71676267D01*
X79937337Y-71589142D01*
X79886113Y-71554915D01*
X79834890Y-71520688D01*
X79834887Y-71520686D01*
X79834884Y-71520685D01*
X79761781Y-71490405D01*
X79761774Y-71490403D01*
X79754396Y-71487347D01*
X79721056Y-71473537D01*
X79643009Y-71458013D01*
X79638907Y-71457197D01*
X79638892Y-71457193D01*
X79600215Y-71449500D01*
X79600211Y-71449500D01*
X79600210Y-71449500D01*
X77549664Y-71449500D01*
X77482625Y-71429815D01*
X77436870Y-71377011D01*
X77426926Y-71307853D01*
X77439179Y-71269205D01*
X77452781Y-71242511D01*
X77495220Y-71159219D01*
X77558477Y-70964534D01*
X77590500Y-70762352D01*
X77590500Y-70557648D01*
X77558477Y-70355466D01*
X77495220Y-70160781D01*
X77495218Y-70160778D01*
X77495218Y-70160776D01*
X77461503Y-70094607D01*
X77402287Y-69978390D01*
X77394556Y-69967749D01*
X77281971Y-69812786D01*
X77137213Y-69668028D01*
X76971614Y-69547715D01*
X76965006Y-69544348D01*
X76878917Y-69500483D01*
X76828123Y-69452511D01*
X76811328Y-69384690D01*
X76833865Y-69318555D01*
X76878917Y-69279516D01*
X76971610Y-69232287D01*
X76992770Y-69216913D01*
X77137213Y-69111971D01*
X77137215Y-69111968D01*
X77137219Y-69111966D01*
X77281966Y-68967219D01*
X77281968Y-68967215D01*
X77281971Y-68967213D01*
X77357165Y-68863715D01*
X77402287Y-68801610D01*
X77495220Y-68619219D01*
X77558477Y-68424534D01*
X77590500Y-68222352D01*
X77590500Y-68017648D01*
X77558477Y-67815466D01*
X77495220Y-67620781D01*
X77495218Y-67620778D01*
X77495218Y-67620776D01*
X77461503Y-67554607D01*
X77402287Y-67438390D01*
X77394556Y-67427749D01*
X77281971Y-67272786D01*
X77137213Y-67128028D01*
X76971614Y-67007715D01*
X76965006Y-67004348D01*
X76878917Y-66960483D01*
X76828123Y-66912511D01*
X76811328Y-66844690D01*
X76833865Y-66778555D01*
X76878917Y-66739516D01*
X76971610Y-66692287D01*
X76992770Y-66676913D01*
X77137213Y-66571971D01*
X77137215Y-66571968D01*
X77137219Y-66571966D01*
X77281966Y-66427219D01*
X77281968Y-66427215D01*
X77281971Y-66427213D01*
X77334732Y-66354590D01*
X77402287Y-66261610D01*
X77495220Y-66079219D01*
X77558477Y-65884534D01*
X77590500Y-65682352D01*
X77590500Y-65477648D01*
X77572213Y-65362190D01*
X77558477Y-65275465D01*
X77505487Y-65112379D01*
X77495220Y-65080781D01*
X77495218Y-65080778D01*
X77495218Y-65080776D01*
X77461503Y-65014607D01*
X77402287Y-64898390D01*
X77394556Y-64887749D01*
X77281971Y-64732786D01*
X77137213Y-64588028D01*
X76971614Y-64467715D01*
X76965006Y-64464348D01*
X76878917Y-64420483D01*
X76828123Y-64372511D01*
X76811328Y-64304690D01*
X76833865Y-64238555D01*
X76878917Y-64199516D01*
X76971610Y-64152287D01*
X77118239Y-64045756D01*
X77137213Y-64031971D01*
X77137215Y-64031968D01*
X77137219Y-64031966D01*
X77281966Y-63887219D01*
X77281968Y-63887215D01*
X77281971Y-63887213D01*
X77334732Y-63814590D01*
X77402287Y-63721610D01*
X77495220Y-63539219D01*
X77558477Y-63344534D01*
X77590500Y-63142352D01*
X77590500Y-62937648D01*
X77562624Y-62761649D01*
X77558477Y-62735465D01*
X77526299Y-62636433D01*
X77495220Y-62540781D01*
X77495218Y-62540778D01*
X77495218Y-62540776D01*
X77436732Y-62425992D01*
X77402287Y-62358390D01*
X77394556Y-62347749D01*
X77281971Y-62192786D01*
X77137213Y-62048028D01*
X76971614Y-61927715D01*
X76965006Y-61924348D01*
X76878917Y-61880483D01*
X76828123Y-61832511D01*
X76811328Y-61764690D01*
X76833865Y-61698555D01*
X76878917Y-61659516D01*
X76971610Y-61612287D01*
X77093117Y-61524008D01*
X77137213Y-61491971D01*
X77137215Y-61491968D01*
X77137219Y-61491966D01*
X77281966Y-61347219D01*
X77281968Y-61347215D01*
X77281971Y-61347213D01*
X77405151Y-61177669D01*
X77406823Y-61178884D01*
X77452208Y-61137831D01*
X77506115Y-61125500D01*
X79730539Y-61125500D01*
X79797578Y-61145185D01*
G37*
%TD.AperFunction*%
%TA.AperFunction,Conductor*%
G36*
X59741763Y-52400185D02*
G01*
X59787518Y-52452989D01*
X59797462Y-52522147D01*
X59792655Y-52542817D01*
X59782011Y-52575574D01*
X59782010Y-52575581D01*
X59750000Y-52777682D01*
X59750000Y-52982317D01*
X59782009Y-53184417D01*
X59845244Y-53379031D01*
X59938141Y-53561350D01*
X59938147Y-53561359D01*
X59970523Y-53605921D01*
X59970524Y-53605922D01*
X60650000Y-52926446D01*
X60650000Y-52932661D01*
X60677259Y-53034394D01*
X60729920Y-53125606D01*
X60804394Y-53200080D01*
X60895606Y-53252741D01*
X60997339Y-53280000D01*
X61003553Y-53280000D01*
X60324076Y-53959474D01*
X60368652Y-53991861D01*
X60461628Y-54039234D01*
X60512425Y-54087208D01*
X60529220Y-54155029D01*
X60506683Y-54221164D01*
X60461630Y-54260203D01*
X60368388Y-54307713D01*
X60202786Y-54428028D01*
X60058028Y-54572786D01*
X59937715Y-54738386D01*
X59844781Y-54920776D01*
X59781522Y-55115465D01*
X59749500Y-55317648D01*
X59749500Y-55522351D01*
X59781522Y-55724534D01*
X59844781Y-55919223D01*
X59937715Y-56101613D01*
X60058028Y-56267213D01*
X60202786Y-56411971D01*
X60357442Y-56524333D01*
X60368390Y-56532287D01*
X60451750Y-56574761D01*
X60461080Y-56579515D01*
X60511876Y-56627490D01*
X60528671Y-56695311D01*
X60506134Y-56761446D01*
X60461080Y-56800485D01*
X60368386Y-56847715D01*
X60202786Y-56968028D01*
X60058028Y-57112786D01*
X59937715Y-57278386D01*
X59844781Y-57460776D01*
X59781522Y-57655465D01*
X59749500Y-57857648D01*
X59749500Y-58062351D01*
X59781522Y-58264534D01*
X59844781Y-58459223D01*
X59902580Y-58572658D01*
X59933284Y-58632918D01*
X59937715Y-58641613D01*
X60058028Y-58807213D01*
X60202786Y-58951971D01*
X60355697Y-59063065D01*
X60368390Y-59072287D01*
X60427977Y-59102648D01*
X60461080Y-59119515D01*
X60511876Y-59167490D01*
X60528671Y-59235311D01*
X60506134Y-59301446D01*
X60461080Y-59340485D01*
X60368386Y-59387715D01*
X60202786Y-59508028D01*
X60058028Y-59652786D01*
X59937715Y-59818386D01*
X59844781Y-60000776D01*
X59781522Y-60195465D01*
X59749500Y-60397648D01*
X59749500Y-60602351D01*
X59781522Y-60804534D01*
X59844781Y-60999223D01*
X59907588Y-61122487D01*
X59915406Y-61137831D01*
X59937715Y-61181613D01*
X60058028Y-61347213D01*
X60202786Y-61491971D01*
X60357749Y-61604556D01*
X60368390Y-61612287D01*
X60459840Y-61658883D01*
X60461080Y-61659515D01*
X60511876Y-61707490D01*
X60528671Y-61775311D01*
X60506134Y-61841446D01*
X60461080Y-61880485D01*
X60368386Y-61927715D01*
X60202786Y-62048028D01*
X60058028Y-62192786D01*
X59937715Y-62358386D01*
X59844781Y-62540776D01*
X59781522Y-62735465D01*
X59749500Y-62937648D01*
X59749500Y-63142351D01*
X59781522Y-63344534D01*
X59844781Y-63539223D01*
X59937715Y-63721613D01*
X60058028Y-63887213D01*
X60202786Y-64031971D01*
X60357749Y-64144556D01*
X60368390Y-64152287D01*
X60459840Y-64198883D01*
X60461080Y-64199515D01*
X60511876Y-64247490D01*
X60528671Y-64315311D01*
X60506134Y-64381446D01*
X60461080Y-64420485D01*
X60368386Y-64467715D01*
X60202786Y-64588028D01*
X60058028Y-64732786D01*
X59937715Y-64898386D01*
X59844781Y-65080776D01*
X59781522Y-65275465D01*
X59749500Y-65477648D01*
X59749500Y-65682351D01*
X59781522Y-65884534D01*
X59844781Y-66079223D01*
X59937715Y-66261613D01*
X60058028Y-66427213D01*
X60202786Y-66571971D01*
X60357749Y-66684556D01*
X60368390Y-66692287D01*
X60459840Y-66738883D01*
X60461080Y-66739515D01*
X60511876Y-66787490D01*
X60528671Y-66855311D01*
X60506134Y-66921446D01*
X60461080Y-66960485D01*
X60368386Y-67007715D01*
X60202786Y-67128028D01*
X60058028Y-67272786D01*
X59937715Y-67438386D01*
X59844781Y-67620776D01*
X59781522Y-67815465D01*
X59749500Y-68017648D01*
X59749500Y-68222351D01*
X59781522Y-68424534D01*
X59844781Y-68619223D01*
X59937715Y-68801613D01*
X60058028Y-68967213D01*
X60202786Y-69111971D01*
X60357749Y-69224556D01*
X60368390Y-69232287D01*
X60440320Y-69268937D01*
X60461080Y-69279515D01*
X60511876Y-69327490D01*
X60528671Y-69395311D01*
X60506134Y-69461446D01*
X60461080Y-69500485D01*
X60368386Y-69547715D01*
X60202786Y-69668028D01*
X60058028Y-69812786D01*
X59937715Y-69978386D01*
X59844781Y-70160776D01*
X59781522Y-70355465D01*
X59749500Y-70557648D01*
X59749500Y-70762351D01*
X59781522Y-70964534D01*
X59844781Y-71159223D01*
X59900821Y-71269205D01*
X59913717Y-71337874D01*
X59887441Y-71402614D01*
X59830335Y-71442872D01*
X59790336Y-71449500D01*
X38508308Y-71449500D01*
X38385094Y-71449500D01*
X38342296Y-71458013D01*
X38342295Y-71458012D01*
X38264255Y-71473535D01*
X38264242Y-71473539D01*
X38231963Y-71486909D01*
X38217098Y-71493067D01*
X38194870Y-71502274D01*
X38150414Y-71520688D01*
X38140258Y-71527475D01*
X38140150Y-71527547D01*
X38047969Y-71589140D01*
X38004406Y-71632703D01*
X37960843Y-71676267D01*
X37960840Y-71676270D01*
X36458930Y-73178181D01*
X36397607Y-73211666D01*
X36371249Y-73214500D01*
X35129000Y-73214500D01*
X35061961Y-73194815D01*
X35016206Y-73142011D01*
X35005000Y-73090500D01*
X35005000Y-72915000D01*
X34088012Y-72915000D01*
X34120925Y-72857993D01*
X34155000Y-72730826D01*
X34155000Y-72599174D01*
X34120925Y-72472007D01*
X34088012Y-72415000D01*
X35005000Y-72415000D01*
X35005000Y-71767172D01*
X35004999Y-71767155D01*
X34998598Y-71707627D01*
X34998596Y-71707620D01*
X34948354Y-71572913D01*
X34948350Y-71572906D01*
X34862190Y-71457812D01*
X34862187Y-71457809D01*
X34747093Y-71371649D01*
X34747086Y-71371645D01*
X34612379Y-71321403D01*
X34612372Y-71321401D01*
X34552844Y-71315000D01*
X33905000Y-71315000D01*
X33905000Y-72231988D01*
X33847993Y-72199075D01*
X33720826Y-72165000D01*
X33589174Y-72165000D01*
X33462007Y-72199075D01*
X33405000Y-72231988D01*
X33405000Y-71315000D01*
X33229500Y-71315000D01*
X33162461Y-71295315D01*
X33116706Y-71242511D01*
X33105500Y-71191000D01*
X33105500Y-69356618D01*
X33125185Y-69289579D01*
X33141814Y-69268942D01*
X39729793Y-62680962D01*
X39791114Y-62647479D01*
X39860806Y-62652463D01*
X39916739Y-62694335D01*
X39927957Y-62712350D01*
X39953074Y-62761645D01*
X40016657Y-62886433D01*
X40155483Y-63077510D01*
X40322490Y-63244517D01*
X40513567Y-63383343D01*
X40591377Y-63422989D01*
X40724003Y-63490566D01*
X40724005Y-63490566D01*
X40724008Y-63490568D01*
X40844412Y-63529689D01*
X40948631Y-63563553D01*
X41181903Y-63600500D01*
X41181908Y-63600500D01*
X41418097Y-63600500D01*
X41651368Y-63563553D01*
X41675528Y-63555703D01*
X41875992Y-63490568D01*
X42086433Y-63383343D01*
X42277510Y-63244517D01*
X42444517Y-63077510D01*
X42583343Y-62886433D01*
X42690568Y-62675992D01*
X42763553Y-62451368D01*
X42800500Y-62218097D01*
X42800500Y-61981902D01*
X46299500Y-61981902D01*
X46299500Y-62218097D01*
X46336446Y-62451368D01*
X46409433Y-62675996D01*
X46516657Y-62886433D01*
X46655483Y-63077510D01*
X46822490Y-63244517D01*
X47013567Y-63383343D01*
X47091377Y-63422989D01*
X47224003Y-63490566D01*
X47224005Y-63490566D01*
X47224008Y-63490568D01*
X47344412Y-63529689D01*
X47448631Y-63563553D01*
X47681903Y-63600500D01*
X47681908Y-63600500D01*
X47918097Y-63600500D01*
X48151368Y-63563553D01*
X48175528Y-63555703D01*
X48375992Y-63490568D01*
X48586433Y-63383343D01*
X48777510Y-63244517D01*
X48944517Y-63077510D01*
X49083343Y-62886433D01*
X49190568Y-62675992D01*
X49263553Y-62451368D01*
X49300500Y-62218097D01*
X49300500Y-61981902D01*
X49799500Y-61981902D01*
X49799500Y-62218097D01*
X49836446Y-62451368D01*
X49909433Y-62675996D01*
X50016657Y-62886433D01*
X50155483Y-63077510D01*
X50322490Y-63244517D01*
X50513567Y-63383343D01*
X50591377Y-63422989D01*
X50724003Y-63490566D01*
X50724005Y-63490566D01*
X50724008Y-63490568D01*
X50844412Y-63529689D01*
X50948631Y-63563553D01*
X51181903Y-63600500D01*
X51181908Y-63600500D01*
X51418097Y-63600500D01*
X51651368Y-63563553D01*
X51675528Y-63555703D01*
X51875992Y-63490568D01*
X52086433Y-63383343D01*
X52277510Y-63244517D01*
X52444517Y-63077510D01*
X52583343Y-62886433D01*
X52690568Y-62675992D01*
X52763553Y-62451368D01*
X52800500Y-62218097D01*
X52800500Y-61981902D01*
X56299500Y-61981902D01*
X56299500Y-62218097D01*
X56336446Y-62451368D01*
X56409433Y-62675996D01*
X56516657Y-62886433D01*
X56655483Y-63077510D01*
X56822490Y-63244517D01*
X57013567Y-63383343D01*
X57091377Y-63422989D01*
X57224003Y-63490566D01*
X57224005Y-63490566D01*
X57224008Y-63490568D01*
X57344412Y-63529689D01*
X57448631Y-63563553D01*
X57681903Y-63600500D01*
X57681908Y-63600500D01*
X57918097Y-63600500D01*
X58151368Y-63563553D01*
X58175528Y-63555703D01*
X58375992Y-63490568D01*
X58586433Y-63383343D01*
X58777510Y-63244517D01*
X58944517Y-63077510D01*
X59083343Y-62886433D01*
X59190568Y-62675992D01*
X59263553Y-62451368D01*
X59300500Y-62218097D01*
X59300500Y-61981902D01*
X59263553Y-61748631D01*
X59190566Y-61524003D01*
X59134002Y-61412991D01*
X59083343Y-61313567D01*
X58944517Y-61122490D01*
X58777510Y-60955483D01*
X58586433Y-60816657D01*
X58562640Y-60804534D01*
X58375996Y-60709433D01*
X58151368Y-60636446D01*
X57918097Y-60599500D01*
X57918092Y-60599500D01*
X57681908Y-60599500D01*
X57681903Y-60599500D01*
X57448631Y-60636446D01*
X57224003Y-60709433D01*
X57013566Y-60816657D01*
X56904550Y-60895862D01*
X56822490Y-60955483D01*
X56822488Y-60955485D01*
X56822487Y-60955485D01*
X56655485Y-61122487D01*
X56655485Y-61122488D01*
X56655483Y-61122490D01*
X56595862Y-61204550D01*
X56516657Y-61313566D01*
X56409433Y-61524003D01*
X56336446Y-61748631D01*
X56299500Y-61981902D01*
X52800500Y-61981902D01*
X52763553Y-61748631D01*
X52690566Y-61524003D01*
X52634002Y-61412991D01*
X52583343Y-61313567D01*
X52444517Y-61122490D01*
X52277510Y-60955483D01*
X52086433Y-60816657D01*
X52062640Y-60804534D01*
X51875996Y-60709433D01*
X51651368Y-60636446D01*
X51418097Y-60599500D01*
X51418092Y-60599500D01*
X51181908Y-60599500D01*
X51181903Y-60599500D01*
X50948631Y-60636446D01*
X50724003Y-60709433D01*
X50513566Y-60816657D01*
X50404550Y-60895862D01*
X50322490Y-60955483D01*
X50322488Y-60955485D01*
X50322487Y-60955485D01*
X50155485Y-61122487D01*
X50155485Y-61122488D01*
X50155483Y-61122490D01*
X50095862Y-61204550D01*
X50016657Y-61313566D01*
X49909433Y-61524003D01*
X49836446Y-61748631D01*
X49799500Y-61981902D01*
X49300500Y-61981902D01*
X49263553Y-61748631D01*
X49190566Y-61524003D01*
X49134002Y-61412991D01*
X49083343Y-61313567D01*
X48944517Y-61122490D01*
X48777510Y-60955483D01*
X48586433Y-60816657D01*
X48562640Y-60804534D01*
X48375996Y-60709433D01*
X48151368Y-60636446D01*
X47918097Y-60599500D01*
X47918092Y-60599500D01*
X47681908Y-60599500D01*
X47681903Y-60599500D01*
X47448631Y-60636446D01*
X47224003Y-60709433D01*
X47013566Y-60816657D01*
X46904550Y-60895862D01*
X46822490Y-60955483D01*
X46822488Y-60955485D01*
X46822487Y-60955485D01*
X46655485Y-61122487D01*
X46655485Y-61122488D01*
X46655483Y-61122490D01*
X46595862Y-61204550D01*
X46516657Y-61313566D01*
X46409433Y-61524003D01*
X46336446Y-61748631D01*
X46299500Y-61981902D01*
X42800500Y-61981902D01*
X42763553Y-61748631D01*
X42690566Y-61524003D01*
X42634002Y-61412991D01*
X42583343Y-61313567D01*
X42444517Y-61122490D01*
X42277510Y-60955483D01*
X42086433Y-60816657D01*
X42062640Y-60804534D01*
X41912350Y-60727957D01*
X41861554Y-60679982D01*
X41844759Y-60612161D01*
X41867296Y-60546026D01*
X41880958Y-60529797D01*
X44928809Y-57481947D01*
X46300000Y-57481947D01*
X46300000Y-57718052D01*
X46336934Y-57951247D01*
X46409897Y-58175802D01*
X46517087Y-58386174D01*
X46577338Y-58469104D01*
X46577340Y-58469105D01*
X47276212Y-57770233D01*
X47287482Y-57812292D01*
X47359890Y-57937708D01*
X47462292Y-58040110D01*
X47587708Y-58112518D01*
X47629765Y-58123787D01*
X46930893Y-58822658D01*
X47013828Y-58882914D01*
X47224197Y-58990102D01*
X47448752Y-59063065D01*
X47448751Y-59063065D01*
X47681948Y-59100000D01*
X47918052Y-59100000D01*
X48151247Y-59063065D01*
X48375802Y-58990102D01*
X48586163Y-58882918D01*
X48586169Y-58882914D01*
X48669104Y-58822658D01*
X48669105Y-58822658D01*
X47970233Y-58123787D01*
X48012292Y-58112518D01*
X48137708Y-58040110D01*
X48240110Y-57937708D01*
X48312518Y-57812292D01*
X48323787Y-57770234D01*
X49022658Y-58469105D01*
X49022658Y-58469104D01*
X49082914Y-58386169D01*
X49082918Y-58386163D01*
X49190102Y-58175802D01*
X49263065Y-57951247D01*
X49300000Y-57718052D01*
X49300000Y-57481947D01*
X49800000Y-57481947D01*
X49800000Y-57718052D01*
X49836934Y-57951247D01*
X49909897Y-58175802D01*
X50017087Y-58386174D01*
X50077338Y-58469104D01*
X50077340Y-58469105D01*
X50776212Y-57770233D01*
X50787482Y-57812292D01*
X50859890Y-57937708D01*
X50962292Y-58040110D01*
X51087708Y-58112518D01*
X51129765Y-58123787D01*
X50430893Y-58822658D01*
X50513828Y-58882914D01*
X50724197Y-58990102D01*
X50948752Y-59063065D01*
X50948751Y-59063065D01*
X51181948Y-59100000D01*
X51418052Y-59100000D01*
X51651247Y-59063065D01*
X51875802Y-58990102D01*
X52086163Y-58882918D01*
X52086169Y-58882914D01*
X52169104Y-58822658D01*
X52169105Y-58822658D01*
X51470233Y-58123787D01*
X51512292Y-58112518D01*
X51637708Y-58040110D01*
X51740110Y-57937708D01*
X51812518Y-57812292D01*
X51823787Y-57770234D01*
X52522658Y-58469105D01*
X52522658Y-58469104D01*
X52582914Y-58386169D01*
X52582918Y-58386163D01*
X52690102Y-58175802D01*
X52763065Y-57951247D01*
X52800000Y-57718052D01*
X52800000Y-57481947D01*
X56300000Y-57481947D01*
X56300000Y-57718052D01*
X56336934Y-57951247D01*
X56409897Y-58175802D01*
X56517087Y-58386174D01*
X56577338Y-58469104D01*
X56577340Y-58469105D01*
X57276212Y-57770233D01*
X57287482Y-57812292D01*
X57359890Y-57937708D01*
X57462292Y-58040110D01*
X57587708Y-58112518D01*
X57629765Y-58123787D01*
X56930893Y-58822658D01*
X57013828Y-58882914D01*
X57224197Y-58990102D01*
X57448752Y-59063065D01*
X57448751Y-59063065D01*
X57681948Y-59100000D01*
X57918052Y-59100000D01*
X58151247Y-59063065D01*
X58375802Y-58990102D01*
X58586163Y-58882918D01*
X58586169Y-58882914D01*
X58669104Y-58822658D01*
X58669105Y-58822658D01*
X57970233Y-58123787D01*
X58012292Y-58112518D01*
X58137708Y-58040110D01*
X58240110Y-57937708D01*
X58312518Y-57812292D01*
X58323787Y-57770233D01*
X59022658Y-58469105D01*
X59022658Y-58469104D01*
X59082914Y-58386169D01*
X59082918Y-58386163D01*
X59190102Y-58175802D01*
X59263065Y-57951247D01*
X59300000Y-57718052D01*
X59300000Y-57481947D01*
X59263065Y-57248752D01*
X59190102Y-57024197D01*
X59082914Y-56813828D01*
X59022658Y-56730894D01*
X59022658Y-56730893D01*
X58323787Y-57429765D01*
X58312518Y-57387708D01*
X58240110Y-57262292D01*
X58137708Y-57159890D01*
X58012292Y-57087482D01*
X57970234Y-57076212D01*
X58669105Y-56377340D01*
X58669104Y-56377338D01*
X58586174Y-56317087D01*
X58375802Y-56209897D01*
X58151247Y-56136934D01*
X58151248Y-56136934D01*
X57918052Y-56100000D01*
X57681948Y-56100000D01*
X57448752Y-56136934D01*
X57224197Y-56209897D01*
X57013830Y-56317084D01*
X56930894Y-56377340D01*
X57629766Y-57076212D01*
X57587708Y-57087482D01*
X57462292Y-57159890D01*
X57359890Y-57262292D01*
X57287482Y-57387708D01*
X57276212Y-57429766D01*
X56577340Y-56730894D01*
X56517084Y-56813830D01*
X56409897Y-57024197D01*
X56336934Y-57248752D01*
X56300000Y-57481947D01*
X52800000Y-57481947D01*
X52763065Y-57248752D01*
X52690102Y-57024197D01*
X52582914Y-56813828D01*
X52522658Y-56730894D01*
X52522658Y-56730893D01*
X51823787Y-57429765D01*
X51812518Y-57387708D01*
X51740110Y-57262292D01*
X51637708Y-57159890D01*
X51512292Y-57087482D01*
X51470234Y-57076212D01*
X52169105Y-56377340D01*
X52169104Y-56377339D01*
X52086174Y-56317087D01*
X51875802Y-56209897D01*
X51651247Y-56136934D01*
X51651248Y-56136934D01*
X51418052Y-56100000D01*
X51181948Y-56100000D01*
X50948752Y-56136934D01*
X50724197Y-56209897D01*
X50513830Y-56317084D01*
X50430894Y-56377340D01*
X51129766Y-57076212D01*
X51087708Y-57087482D01*
X50962292Y-57159890D01*
X50859890Y-57262292D01*
X50787482Y-57387708D01*
X50776212Y-57429766D01*
X50077340Y-56730894D01*
X50017084Y-56813830D01*
X49909897Y-57024197D01*
X49836934Y-57248752D01*
X49800000Y-57481947D01*
X49300000Y-57481947D01*
X49263065Y-57248752D01*
X49190102Y-57024197D01*
X49082914Y-56813828D01*
X49022658Y-56730894D01*
X49022658Y-56730893D01*
X48323787Y-57429765D01*
X48312518Y-57387708D01*
X48240110Y-57262292D01*
X48137708Y-57159890D01*
X48012292Y-57087482D01*
X47970234Y-57076212D01*
X48669105Y-56377340D01*
X48669104Y-56377339D01*
X48586174Y-56317087D01*
X48375802Y-56209897D01*
X48151247Y-56136934D01*
X48151248Y-56136934D01*
X47918052Y-56100000D01*
X47681948Y-56100000D01*
X47448752Y-56136934D01*
X47224197Y-56209897D01*
X47013830Y-56317084D01*
X46930894Y-56377340D01*
X47629766Y-57076212D01*
X47587708Y-57087482D01*
X47462292Y-57159890D01*
X47359890Y-57262292D01*
X47287482Y-57387708D01*
X47276212Y-57429766D01*
X46577340Y-56730894D01*
X46517084Y-56813830D01*
X46409897Y-57024197D01*
X46336934Y-57248752D01*
X46300000Y-57481947D01*
X44928809Y-57481947D01*
X49993938Y-52416819D01*
X50055261Y-52383334D01*
X50081619Y-52380500D01*
X59674724Y-52380500D01*
X59741763Y-52400185D01*
G37*
%TD.AperFunction*%
%TA.AperFunction,Conductor*%
G36*
X69841587Y-52400185D02*
G01*
X69862229Y-52416819D01*
X74987781Y-57542371D01*
X75021266Y-57603694D01*
X75020785Y-57650416D01*
X75022285Y-57650654D01*
X74989500Y-57857648D01*
X74989500Y-58062351D01*
X75021522Y-58264534D01*
X75084781Y-58459223D01*
X75142580Y-58572658D01*
X75173284Y-58632918D01*
X75177715Y-58641613D01*
X75298028Y-58807213D01*
X75442786Y-58951971D01*
X75595697Y-59063065D01*
X75608390Y-59072287D01*
X75667977Y-59102648D01*
X75701080Y-59119515D01*
X75751876Y-59167490D01*
X75768671Y-59235311D01*
X75746134Y-59301446D01*
X75701080Y-59340485D01*
X75608386Y-59387715D01*
X75442786Y-59508028D01*
X75298028Y-59652786D01*
X75177715Y-59818386D01*
X75084781Y-60000776D01*
X75021522Y-60195465D01*
X74989500Y-60397648D01*
X74989500Y-60602351D01*
X75021522Y-60804534D01*
X75084781Y-60999223D01*
X75147588Y-61122487D01*
X75155406Y-61137831D01*
X75177715Y-61181613D01*
X75298028Y-61347213D01*
X75442786Y-61491971D01*
X75597749Y-61604556D01*
X75608390Y-61612287D01*
X75699840Y-61658883D01*
X75701080Y-61659515D01*
X75751876Y-61707490D01*
X75768671Y-61775311D01*
X75746134Y-61841446D01*
X75701080Y-61880485D01*
X75608386Y-61927715D01*
X75442786Y-62048028D01*
X75298028Y-62192786D01*
X75177715Y-62358386D01*
X75084781Y-62540776D01*
X75021522Y-62735465D01*
X74989500Y-62937648D01*
X74989500Y-63142351D01*
X75021522Y-63344534D01*
X75084781Y-63539223D01*
X75177715Y-63721613D01*
X75298028Y-63887213D01*
X75442786Y-64031971D01*
X75597749Y-64144556D01*
X75608390Y-64152287D01*
X75699840Y-64198883D01*
X75701080Y-64199515D01*
X75751876Y-64247490D01*
X75768671Y-64315311D01*
X75746134Y-64381446D01*
X75701080Y-64420485D01*
X75608386Y-64467715D01*
X75442786Y-64588028D01*
X75298028Y-64732786D01*
X75177715Y-64898386D01*
X75084781Y-65080776D01*
X75021522Y-65275465D01*
X74989500Y-65477648D01*
X74989500Y-65682351D01*
X75021522Y-65884534D01*
X75084781Y-66079223D01*
X75177715Y-66261613D01*
X75298028Y-66427213D01*
X75442786Y-66571971D01*
X75597749Y-66684556D01*
X75608390Y-66692287D01*
X75699840Y-66738883D01*
X75701080Y-66739515D01*
X75751876Y-66787490D01*
X75768671Y-66855311D01*
X75746134Y-66921446D01*
X75701080Y-66960485D01*
X75608386Y-67007715D01*
X75442786Y-67128028D01*
X75298028Y-67272786D01*
X75177715Y-67438386D01*
X75084781Y-67620776D01*
X75021522Y-67815465D01*
X74989500Y-68017648D01*
X74989500Y-68222351D01*
X75021522Y-68424534D01*
X75084781Y-68619223D01*
X75177715Y-68801613D01*
X75298028Y-68967213D01*
X75442786Y-69111971D01*
X75597749Y-69224556D01*
X75608390Y-69232287D01*
X75680320Y-69268937D01*
X75701080Y-69279515D01*
X75751876Y-69327490D01*
X75768671Y-69395311D01*
X75746134Y-69461446D01*
X75701080Y-69500485D01*
X75608386Y-69547715D01*
X75442786Y-69668028D01*
X75298028Y-69812786D01*
X75177715Y-69978386D01*
X75084781Y-70160776D01*
X75021522Y-70355465D01*
X74989500Y-70557648D01*
X74989500Y-70762351D01*
X75021522Y-70964534D01*
X75084781Y-71159223D01*
X75140821Y-71269205D01*
X75153717Y-71337874D01*
X75127441Y-71402614D01*
X75070335Y-71442872D01*
X75030336Y-71449500D01*
X62309664Y-71449500D01*
X62242625Y-71429815D01*
X62196870Y-71377011D01*
X62186926Y-71307853D01*
X62199179Y-71269205D01*
X62212781Y-71242511D01*
X62255220Y-71159219D01*
X62318477Y-70964534D01*
X62350500Y-70762352D01*
X62350500Y-70557648D01*
X62318477Y-70355466D01*
X62255220Y-70160781D01*
X62255218Y-70160778D01*
X62255218Y-70160776D01*
X62221503Y-70094607D01*
X62162287Y-69978390D01*
X62154556Y-69967749D01*
X62041971Y-69812786D01*
X61897213Y-69668028D01*
X61731614Y-69547715D01*
X61725006Y-69544348D01*
X61638917Y-69500483D01*
X61588123Y-69452511D01*
X61571328Y-69384690D01*
X61593865Y-69318555D01*
X61638917Y-69279516D01*
X61731610Y-69232287D01*
X61752770Y-69216913D01*
X61897213Y-69111971D01*
X61897215Y-69111968D01*
X61897219Y-69111966D01*
X62041966Y-68967219D01*
X62041968Y-68967215D01*
X62041971Y-68967213D01*
X62117165Y-68863715D01*
X62162287Y-68801610D01*
X62255220Y-68619219D01*
X62318477Y-68424534D01*
X62350500Y-68222352D01*
X62350500Y-68017648D01*
X62318477Y-67815466D01*
X62255220Y-67620781D01*
X62255218Y-67620778D01*
X62255218Y-67620776D01*
X62221503Y-67554607D01*
X62162287Y-67438390D01*
X62154556Y-67427749D01*
X62041971Y-67272786D01*
X61897213Y-67128028D01*
X61731614Y-67007715D01*
X61725006Y-67004348D01*
X61638917Y-66960483D01*
X61588123Y-66912511D01*
X61571328Y-66844690D01*
X61593865Y-66778555D01*
X61638917Y-66739516D01*
X61731610Y-66692287D01*
X61752770Y-66676913D01*
X61897213Y-66571971D01*
X61897215Y-66571968D01*
X61897219Y-66571966D01*
X62041966Y-66427219D01*
X62041968Y-66427215D01*
X62041971Y-66427213D01*
X62094732Y-66354590D01*
X62162287Y-66261610D01*
X62255220Y-66079219D01*
X62318477Y-65884534D01*
X62350500Y-65682352D01*
X62350500Y-65477648D01*
X62332213Y-65362190D01*
X62318477Y-65275465D01*
X62265487Y-65112379D01*
X62255220Y-65080781D01*
X62255218Y-65080778D01*
X62255218Y-65080776D01*
X62221503Y-65014607D01*
X62162287Y-64898390D01*
X62154556Y-64887749D01*
X62041971Y-64732786D01*
X61897213Y-64588028D01*
X61731614Y-64467715D01*
X61725006Y-64464348D01*
X61638917Y-64420483D01*
X61588123Y-64372511D01*
X61571328Y-64304690D01*
X61593865Y-64238555D01*
X61638917Y-64199516D01*
X61731610Y-64152287D01*
X61878239Y-64045756D01*
X61897213Y-64031971D01*
X61897215Y-64031968D01*
X61897219Y-64031966D01*
X62041966Y-63887219D01*
X62041968Y-63887215D01*
X62041971Y-63887213D01*
X62094732Y-63814590D01*
X62162287Y-63721610D01*
X62255220Y-63539219D01*
X62318477Y-63344534D01*
X62350500Y-63142352D01*
X62350500Y-62937648D01*
X62322624Y-62761649D01*
X62318477Y-62735465D01*
X62286299Y-62636433D01*
X62255220Y-62540781D01*
X62255218Y-62540778D01*
X62255218Y-62540776D01*
X62196732Y-62425992D01*
X62162287Y-62358390D01*
X62154556Y-62347749D01*
X62041971Y-62192786D01*
X61897213Y-62048028D01*
X61731614Y-61927715D01*
X61725006Y-61924348D01*
X61638917Y-61880483D01*
X61588123Y-61832511D01*
X61571328Y-61764690D01*
X61593865Y-61698555D01*
X61638917Y-61659516D01*
X61731610Y-61612287D01*
X61853117Y-61524008D01*
X61897213Y-61491971D01*
X61897215Y-61491968D01*
X61897219Y-61491966D01*
X62041966Y-61347219D01*
X62041968Y-61347215D01*
X62041971Y-61347213D01*
X62095160Y-61274003D01*
X62162287Y-61181610D01*
X62255220Y-60999219D01*
X62318477Y-60804534D01*
X62350500Y-60602352D01*
X62350500Y-60397648D01*
X62337771Y-60317284D01*
X62318477Y-60195465D01*
X62255218Y-60000776D01*
X62211598Y-59915168D01*
X62162287Y-59818390D01*
X62154556Y-59807749D01*
X62041971Y-59652786D01*
X61897213Y-59508028D01*
X61731614Y-59387715D01*
X61725006Y-59384348D01*
X61638917Y-59340483D01*
X61588123Y-59292511D01*
X61571328Y-59224690D01*
X61593865Y-59158555D01*
X61638917Y-59119516D01*
X61731610Y-59072287D01*
X61834600Y-58997461D01*
X61897213Y-58951971D01*
X61897215Y-58951968D01*
X61897219Y-58951966D01*
X62041966Y-58807219D01*
X62041968Y-58807215D01*
X62041971Y-58807213D01*
X62115668Y-58705776D01*
X62162287Y-58641610D01*
X62255220Y-58459219D01*
X62318477Y-58264534D01*
X62350500Y-58062352D01*
X62350500Y-57857648D01*
X62318477Y-57655466D01*
X62316913Y-57650654D01*
X62276928Y-57527591D01*
X62255220Y-57460781D01*
X62255218Y-57460778D01*
X62255218Y-57460776D01*
X62221503Y-57394607D01*
X62162287Y-57278390D01*
X62139079Y-57246446D01*
X62041971Y-57112786D01*
X61897213Y-56968028D01*
X61731614Y-56847715D01*
X61714553Y-56839022D01*
X61638917Y-56800483D01*
X61588123Y-56752511D01*
X61571328Y-56684690D01*
X61593865Y-56618555D01*
X61638917Y-56579516D01*
X61731610Y-56532287D01*
X61802347Y-56480894D01*
X61897213Y-56411971D01*
X61897215Y-56411968D01*
X61897219Y-56411966D01*
X62041966Y-56267219D01*
X62041968Y-56267215D01*
X62041971Y-56267213D01*
X62116781Y-56164244D01*
X62162287Y-56101610D01*
X62255220Y-55919219D01*
X62318477Y-55724534D01*
X62350500Y-55522352D01*
X62350500Y-55317648D01*
X62319322Y-55120801D01*
X62318477Y-55115465D01*
X62289127Y-55025137D01*
X62255220Y-54920781D01*
X62255218Y-54920778D01*
X62255218Y-54920776D01*
X62197299Y-54807105D01*
X62162287Y-54738390D01*
X62137665Y-54704500D01*
X62041971Y-54572786D01*
X61897213Y-54428028D01*
X61731611Y-54307713D01*
X61638369Y-54260203D01*
X61587574Y-54212229D01*
X61570779Y-54144407D01*
X61593317Y-54078273D01*
X61638371Y-54039234D01*
X61731346Y-53991861D01*
X61731347Y-53991861D01*
X61775921Y-53959474D01*
X61096447Y-53280000D01*
X61102661Y-53280000D01*
X61204394Y-53252741D01*
X61295606Y-53200080D01*
X61370080Y-53125606D01*
X61422741Y-53034394D01*
X61450000Y-52932661D01*
X61450000Y-52926447D01*
X62129474Y-53605921D01*
X62161859Y-53561349D01*
X62254755Y-53379031D01*
X62317990Y-53184417D01*
X62350000Y-52982317D01*
X62350000Y-52777682D01*
X62317989Y-52575581D01*
X62317988Y-52575574D01*
X62307345Y-52542817D01*
X62305350Y-52472976D01*
X62341431Y-52413143D01*
X62404132Y-52382316D01*
X62425276Y-52380500D01*
X69774548Y-52380500D01*
X69841587Y-52400185D01*
G37*
%TD.AperFunction*%
%TA.AperFunction,Conductor*%
G36*
X107142539Y-21420185D02*
G01*
X107188294Y-21472989D01*
X107199500Y-21524500D01*
X107199500Y-80275500D01*
X107179815Y-80342539D01*
X107127011Y-80388294D01*
X107075500Y-80399500D01*
X28324500Y-80399500D01*
X28257461Y-80379815D01*
X28211706Y-80327011D01*
X28200500Y-80275500D01*
X28200500Y-68984561D01*
X31854500Y-68984561D01*
X31854500Y-68993247D01*
X31854500Y-73901610D01*
X31878535Y-74022444D01*
X31878538Y-74022454D01*
X31925687Y-74136283D01*
X31925692Y-74136292D01*
X31994141Y-74238732D01*
X31994144Y-74238736D01*
X32081263Y-74325855D01*
X32081267Y-74325858D01*
X32183707Y-74394307D01*
X32183716Y-74394312D01*
X32193960Y-74398555D01*
X32297548Y-74441463D01*
X32346441Y-74451188D01*
X32408350Y-74483572D01*
X32442925Y-74544287D01*
X32439186Y-74614057D01*
X32432734Y-74629099D01*
X32403445Y-74686582D01*
X32403443Y-74686587D01*
X32403443Y-74686588D01*
X32381934Y-74752786D01*
X32337753Y-74888760D01*
X32304500Y-75098713D01*
X32304500Y-75311286D01*
X32334830Y-75502786D01*
X32337754Y-75521243D01*
X32401553Y-75717596D01*
X32403444Y-75723414D01*
X32499951Y-75912820D01*
X32624890Y-76084786D01*
X32775213Y-76235109D01*
X32947182Y-76360050D01*
X32955946Y-76364516D01*
X33006742Y-76412491D01*
X33023536Y-76480312D01*
X33000998Y-76546447D01*
X32955946Y-76585484D01*
X32947182Y-76589949D01*
X32775213Y-76714890D01*
X32624890Y-76865213D01*
X32499951Y-77037179D01*
X32403444Y-77226585D01*
X32337753Y-77428760D01*
X32304500Y-77638713D01*
X32304500Y-77851286D01*
X32337753Y-78061239D01*
X32403444Y-78263414D01*
X32499951Y-78452820D01*
X32624890Y-78624786D01*
X32775213Y-78775109D01*
X32947179Y-78900048D01*
X32947181Y-78900049D01*
X32947184Y-78900051D01*
X33136588Y-78996557D01*
X33338757Y-79062246D01*
X33548713Y-79095500D01*
X33548714Y-79095500D01*
X33761286Y-79095500D01*
X33761287Y-79095500D01*
X33971243Y-79062246D01*
X34173412Y-78996557D01*
X34362816Y-78900051D01*
X34384789Y-78884086D01*
X34534786Y-78775109D01*
X34534788Y-78775106D01*
X34534792Y-78775104D01*
X34685104Y-78624792D01*
X34685106Y-78624788D01*
X34685109Y-78624786D01*
X34810048Y-78452820D01*
X34810047Y-78452820D01*
X34810051Y-78452816D01*
X34906557Y-78263412D01*
X34972246Y-78061243D01*
X35005500Y-77851287D01*
X35005500Y-77638713D01*
X34972246Y-77428757D01*
X34906557Y-77226588D01*
X34810051Y-77037184D01*
X34810049Y-77037181D01*
X34810048Y-77037179D01*
X34685109Y-76865213D01*
X34534786Y-76714890D01*
X34362820Y-76589951D01*
X34357446Y-76587213D01*
X34354054Y-76585485D01*
X34303259Y-76537512D01*
X34286463Y-76469692D01*
X34308999Y-76403556D01*
X34354054Y-76364515D01*
X34362816Y-76360051D01*
X34387708Y-76341966D01*
X34534786Y-76235109D01*
X34534788Y-76235106D01*
X34534792Y-76235104D01*
X34685104Y-76084792D01*
X34685106Y-76084788D01*
X34685109Y-76084786D01*
X34810048Y-75912820D01*
X34810047Y-75912820D01*
X34810051Y-75912816D01*
X34906557Y-75723412D01*
X34972246Y-75521243D01*
X35005500Y-75311287D01*
X35005500Y-75098713D01*
X34972246Y-74888757D01*
X34906557Y-74686588D01*
X34885772Y-74645795D01*
X34872876Y-74577126D01*
X34899152Y-74512385D01*
X34956259Y-74472128D01*
X34996257Y-74465500D01*
X36743309Y-74465500D01*
X36743309Y-74465499D01*
X36823747Y-74449500D01*
X36864153Y-74441463D01*
X36897493Y-74427652D01*
X36977987Y-74394312D01*
X37032279Y-74358034D01*
X37080434Y-74325858D01*
X37167559Y-74238733D01*
X37167560Y-74238730D01*
X37174626Y-74231665D01*
X37174628Y-74231661D01*
X38669472Y-72736819D01*
X38730795Y-72703334D01*
X38757153Y-72700500D01*
X59674199Y-72700500D01*
X59741238Y-72720185D01*
X59786993Y-72772989D01*
X59796937Y-72842147D01*
X59792130Y-72862817D01*
X59781524Y-72895457D01*
X59781523Y-72895464D01*
X59749500Y-73097648D01*
X59749500Y-73302351D01*
X59781522Y-73504534D01*
X59844781Y-73699223D01*
X59937715Y-73881613D01*
X60058028Y-74047213D01*
X60202786Y-74191971D01*
X60316150Y-74274333D01*
X60368390Y-74312287D01*
X60458162Y-74358028D01*
X60461080Y-74359515D01*
X60511876Y-74407490D01*
X60528671Y-74475311D01*
X60506134Y-74541446D01*
X60461080Y-74580485D01*
X60368386Y-74627715D01*
X60202786Y-74748028D01*
X60058028Y-74892786D01*
X59937715Y-75058386D01*
X59844781Y-75240776D01*
X59781522Y-75435465D01*
X59756159Y-75595606D01*
X59749500Y-75637648D01*
X59749500Y-75842352D01*
X59750558Y-75849034D01*
X59781522Y-76044534D01*
X59844781Y-76239223D01*
X59937715Y-76421613D01*
X60058028Y-76587213D01*
X60202786Y-76731971D01*
X60357749Y-76844556D01*
X60368390Y-76852287D01*
X60484607Y-76911503D01*
X60550776Y-76945218D01*
X60550778Y-76945218D01*
X60550781Y-76945220D01*
X60655137Y-76979127D01*
X60745465Y-77008477D01*
X60846557Y-77024488D01*
X60947648Y-77040500D01*
X60947649Y-77040500D01*
X61152351Y-77040500D01*
X61152352Y-77040500D01*
X61354534Y-77008477D01*
X61549219Y-76945220D01*
X61731610Y-76852287D01*
X61824590Y-76784732D01*
X61897213Y-76731971D01*
X61897215Y-76731968D01*
X61897219Y-76731966D01*
X62041966Y-76587219D01*
X62041968Y-76587215D01*
X62041971Y-76587213D01*
X62123497Y-76475000D01*
X62162287Y-76421610D01*
X62255220Y-76239219D01*
X62318477Y-76044534D01*
X62350500Y-75842352D01*
X62350500Y-75637648D01*
X62328326Y-75497648D01*
X62318477Y-75435465D01*
X62264884Y-75270524D01*
X62255220Y-75240781D01*
X62255218Y-75240778D01*
X62255218Y-75240776D01*
X62185727Y-75104394D01*
X62162287Y-75058390D01*
X62141603Y-75029920D01*
X62041971Y-74892786D01*
X61897213Y-74748028D01*
X61731614Y-74627715D01*
X61724472Y-74624076D01*
X61638917Y-74580483D01*
X61588123Y-74532511D01*
X61571328Y-74464690D01*
X61593865Y-74398555D01*
X61638917Y-74359516D01*
X61731610Y-74312287D01*
X61783850Y-74274333D01*
X61897213Y-74191971D01*
X61897215Y-74191968D01*
X61897219Y-74191966D01*
X62041966Y-74047219D01*
X62041968Y-74047215D01*
X62041971Y-74047213D01*
X62147759Y-73901606D01*
X62162287Y-73881610D01*
X62255220Y-73699219D01*
X62318477Y-73504534D01*
X62350500Y-73302352D01*
X62350500Y-73097648D01*
X62318477Y-72895466D01*
X62318475Y-72895462D01*
X62318475Y-72895457D01*
X62307870Y-72862817D01*
X62305875Y-72792976D01*
X62341956Y-72733143D01*
X62404657Y-72702316D01*
X62425801Y-72700500D01*
X74914199Y-72700500D01*
X74981238Y-72720185D01*
X75026993Y-72772989D01*
X75036937Y-72842147D01*
X75032130Y-72862817D01*
X75021524Y-72895457D01*
X75021523Y-72895464D01*
X74989500Y-73097648D01*
X74989500Y-73302351D01*
X75021522Y-73504534D01*
X75084781Y-73699223D01*
X75177715Y-73881613D01*
X75298028Y-74047213D01*
X75442786Y-74191971D01*
X75556150Y-74274333D01*
X75608390Y-74312287D01*
X75698162Y-74358028D01*
X75701080Y-74359515D01*
X75751876Y-74407490D01*
X75768671Y-74475311D01*
X75746134Y-74541446D01*
X75701080Y-74580485D01*
X75608386Y-74627715D01*
X75442786Y-74748028D01*
X75298028Y-74892786D01*
X75177715Y-75058386D01*
X75084781Y-75240776D01*
X75021522Y-75435465D01*
X74996159Y-75595606D01*
X74989500Y-75637648D01*
X74989500Y-75842352D01*
X74990558Y-75849034D01*
X75021522Y-76044534D01*
X75084781Y-76239223D01*
X75177715Y-76421613D01*
X75298028Y-76587213D01*
X75442786Y-76731971D01*
X75597749Y-76844556D01*
X75608390Y-76852287D01*
X75724607Y-76911503D01*
X75790776Y-76945218D01*
X75790778Y-76945218D01*
X75790781Y-76945220D01*
X75895137Y-76979127D01*
X75985465Y-77008477D01*
X76086557Y-77024488D01*
X76187648Y-77040500D01*
X76187649Y-77040500D01*
X76392351Y-77040500D01*
X76392352Y-77040500D01*
X76594534Y-77008477D01*
X76789219Y-76945220D01*
X76971610Y-76852287D01*
X77064590Y-76784732D01*
X77137213Y-76731971D01*
X77137215Y-76731968D01*
X77137219Y-76731966D01*
X77281966Y-76587219D01*
X77281968Y-76587215D01*
X77281971Y-76587213D01*
X77363497Y-76475000D01*
X77402287Y-76421610D01*
X77495220Y-76239219D01*
X77558477Y-76044534D01*
X77590500Y-75842352D01*
X77590500Y-75637648D01*
X77568326Y-75497648D01*
X77558477Y-75435465D01*
X77530707Y-75350000D01*
X77497451Y-75247648D01*
X78249500Y-75247648D01*
X78249500Y-75452352D01*
X78252704Y-75472580D01*
X78281522Y-75654534D01*
X78344781Y-75849223D01*
X78437715Y-76031613D01*
X78558028Y-76197213D01*
X78702786Y-76341971D01*
X78857749Y-76454556D01*
X78868390Y-76462287D01*
X78951030Y-76504394D01*
X79050776Y-76555218D01*
X79050778Y-76555218D01*
X79050781Y-76555220D01*
X79143924Y-76585484D01*
X79245465Y-76618477D01*
X79346557Y-76634488D01*
X79447648Y-76650500D01*
X79447649Y-76650500D01*
X79652351Y-76650500D01*
X79652352Y-76650500D01*
X79854534Y-76618477D01*
X80049219Y-76555220D01*
X80231610Y-76462287D01*
X80324590Y-76394732D01*
X80397213Y-76341971D01*
X80397215Y-76341968D01*
X80397219Y-76341966D01*
X80541966Y-76197219D01*
X80541968Y-76197215D01*
X80541971Y-76197213D01*
X80609407Y-76104394D01*
X80662287Y-76031610D01*
X80755220Y-75849219D01*
X80818477Y-75654534D01*
X80850500Y-75452352D01*
X80850500Y-75247648D01*
X80834207Y-75144780D01*
X80818477Y-75045465D01*
X80768868Y-74892786D01*
X80755220Y-74850781D01*
X80755218Y-74850778D01*
X80755218Y-74850776D01*
X80705286Y-74752781D01*
X80662287Y-74668390D01*
X80647583Y-74648151D01*
X80541971Y-74502786D01*
X80397213Y-74358028D01*
X80231613Y-74237715D01*
X80231612Y-74237714D01*
X80231610Y-74237713D01*
X80174653Y-74208691D01*
X80049223Y-74144781D01*
X79854534Y-74081522D01*
X79679995Y-74053878D01*
X79652352Y-74049500D01*
X79447648Y-74049500D01*
X79423329Y-74053351D01*
X79245465Y-74081522D01*
X79050776Y-74144781D01*
X78868386Y-74237715D01*
X78702786Y-74358028D01*
X78702785Y-74358030D01*
X78558032Y-74502782D01*
X78558028Y-74502786D01*
X78437715Y-74668386D01*
X78344781Y-74850776D01*
X78281522Y-75045465D01*
X78257047Y-75200000D01*
X78249500Y-75247648D01*
X77497451Y-75247648D01*
X77495220Y-75240781D01*
X77402287Y-75058390D01*
X77381603Y-75029920D01*
X77281971Y-74892786D01*
X77137213Y-74748028D01*
X76971614Y-74627715D01*
X76964472Y-74624076D01*
X76878917Y-74580483D01*
X76828123Y-74532511D01*
X76811328Y-74464690D01*
X76833865Y-74398555D01*
X76878917Y-74359516D01*
X76971610Y-74312287D01*
X77023850Y-74274333D01*
X77137213Y-74191971D01*
X77137215Y-74191968D01*
X77137219Y-74191966D01*
X77281966Y-74047219D01*
X77281968Y-74047215D01*
X77281971Y-74047213D01*
X77387759Y-73901606D01*
X77402287Y-73881610D01*
X77495220Y-73699219D01*
X77558477Y-73504534D01*
X77590500Y-73302352D01*
X77590500Y-73097648D01*
X77558477Y-72895466D01*
X77558475Y-72895462D01*
X77558475Y-72895457D01*
X77547870Y-72862817D01*
X77545875Y-72792976D01*
X77581956Y-72733143D01*
X77644657Y-72702316D01*
X77665801Y-72700500D01*
X79228152Y-72700500D01*
X79295191Y-72720185D01*
X79315832Y-72736818D01*
X83727745Y-77148732D01*
X83727746Y-77148733D01*
X83776226Y-77197213D01*
X83814872Y-77235859D01*
X83917311Y-77304307D01*
X83917315Y-77304309D01*
X83917318Y-77304311D01*
X84031152Y-77351463D01*
X84151992Y-77375499D01*
X84151996Y-77375500D01*
X84151997Y-77375500D01*
X94052598Y-77375500D01*
X94113020Y-77363481D01*
X94173443Y-77351463D01*
X94206783Y-77337652D01*
X94287277Y-77304312D01*
X94338500Y-77270084D01*
X94389724Y-77235858D01*
X94476849Y-77148733D01*
X94476850Y-77148731D01*
X94483916Y-77141665D01*
X94483919Y-77141661D01*
X95073729Y-76551851D01*
X95073733Y-76551849D01*
X95160858Y-76464724D01*
X95229311Y-76362277D01*
X95229312Y-76362276D01*
X95269960Y-76264142D01*
X95276463Y-76248443D01*
X95276621Y-76247648D01*
X96249500Y-76247648D01*
X96249500Y-76452351D01*
X96281522Y-76654534D01*
X96344781Y-76849223D01*
X96393694Y-76945218D01*
X96437585Y-77031359D01*
X96437715Y-77031613D01*
X96558028Y-77197213D01*
X96702786Y-77341971D01*
X96823226Y-77429474D01*
X96868390Y-77462287D01*
X96984607Y-77521503D01*
X97050776Y-77555218D01*
X97050778Y-77555218D01*
X97050781Y-77555220D01*
X97155137Y-77589127D01*
X97245465Y-77618477D01*
X97346557Y-77634488D01*
X97447648Y-77650500D01*
X97447649Y-77650500D01*
X97652351Y-77650500D01*
X97652352Y-77650500D01*
X97854534Y-77618477D01*
X98049219Y-77555220D01*
X98231610Y-77462287D01*
X98351063Y-77375500D01*
X98397213Y-77341971D01*
X98397215Y-77341968D01*
X98397219Y-77341966D01*
X98541966Y-77197219D01*
X98541968Y-77197215D01*
X98541971Y-77197213D01*
X98594732Y-77124590D01*
X98662287Y-77031610D01*
X98755220Y-76849219D01*
X98818477Y-76654534D01*
X98850500Y-76452352D01*
X98850500Y-76247682D01*
X101250000Y-76247682D01*
X101250000Y-76452317D01*
X101282009Y-76654417D01*
X101345244Y-76849031D01*
X101438141Y-77031350D01*
X101438147Y-77031359D01*
X101470523Y-77075921D01*
X101470524Y-77075922D01*
X102150000Y-76396446D01*
X102150000Y-76402661D01*
X102177259Y-76504394D01*
X102229920Y-76595606D01*
X102304394Y-76670080D01*
X102395606Y-76722741D01*
X102497339Y-76750000D01*
X102503553Y-76750000D01*
X101824076Y-77429474D01*
X101868650Y-77461859D01*
X102050968Y-77554755D01*
X102245582Y-77617990D01*
X102447683Y-77650000D01*
X102652317Y-77650000D01*
X102854417Y-77617990D01*
X103049031Y-77554755D01*
X103231349Y-77461859D01*
X103275921Y-77429474D01*
X102596447Y-76750000D01*
X102602661Y-76750000D01*
X102704394Y-76722741D01*
X102795606Y-76670080D01*
X102870080Y-76595606D01*
X102922741Y-76504394D01*
X102950000Y-76402661D01*
X102950000Y-76396448D01*
X103629474Y-77075922D01*
X103629474Y-77075921D01*
X103661859Y-77031349D01*
X103754755Y-76849031D01*
X103817990Y-76654417D01*
X103850000Y-76452317D01*
X103850000Y-76247682D01*
X103817990Y-76045582D01*
X103754755Y-75850968D01*
X103661859Y-75668650D01*
X103629474Y-75624077D01*
X103629474Y-75624076D01*
X102950000Y-76303551D01*
X102950000Y-76297339D01*
X102922741Y-76195606D01*
X102870080Y-76104394D01*
X102795606Y-76029920D01*
X102704394Y-75977259D01*
X102602661Y-75950000D01*
X102596446Y-75950000D01*
X103275922Y-75270524D01*
X103275921Y-75270523D01*
X103231359Y-75238147D01*
X103231350Y-75238141D01*
X103049031Y-75145244D01*
X102854417Y-75082009D01*
X102652317Y-75050000D01*
X102447683Y-75050000D01*
X102245582Y-75082009D01*
X102050968Y-75145244D01*
X101868644Y-75238143D01*
X101824077Y-75270523D01*
X101824077Y-75270524D01*
X102503554Y-75950000D01*
X102497339Y-75950000D01*
X102395606Y-75977259D01*
X102304394Y-76029920D01*
X102229920Y-76104394D01*
X102177259Y-76195606D01*
X102150000Y-76297339D01*
X102150000Y-76303553D01*
X101470524Y-75624077D01*
X101470523Y-75624077D01*
X101438143Y-75668644D01*
X101345244Y-75850968D01*
X101282009Y-76045582D01*
X101250000Y-76247682D01*
X98850500Y-76247682D01*
X98850500Y-76247648D01*
X98831486Y-76127598D01*
X98818477Y-76045465D01*
X98785576Y-75944206D01*
X98755220Y-75850781D01*
X98755218Y-75850778D01*
X98755218Y-75850776D01*
X98689898Y-75722580D01*
X98662287Y-75668390D01*
X98630092Y-75624077D01*
X98541971Y-75502786D01*
X98397213Y-75358028D01*
X98231613Y-75237715D01*
X98231612Y-75237714D01*
X98231610Y-75237713D01*
X98157594Y-75200000D01*
X98049223Y-75144781D01*
X97854534Y-75081522D01*
X97679995Y-75053878D01*
X97652352Y-75049500D01*
X97447648Y-75049500D01*
X97423329Y-75053351D01*
X97245465Y-75081522D01*
X97050776Y-75144781D01*
X96868386Y-75237715D01*
X96702786Y-75358028D01*
X96558028Y-75502786D01*
X96437715Y-75668386D01*
X96344781Y-75850776D01*
X96281522Y-76045465D01*
X96249500Y-76247648D01*
X95276621Y-76247648D01*
X95300500Y-76127597D01*
X95300500Y-75072403D01*
X95295944Y-75049500D01*
X95276463Y-74951558D01*
X95276462Y-74951555D01*
X95276459Y-74951547D01*
X95229314Y-74837727D01*
X95229312Y-74837724D01*
X95229312Y-74837723D01*
X95195084Y-74786499D01*
X95160858Y-74735276D01*
X95073733Y-74648151D01*
X95073729Y-74648148D01*
X83582736Y-63157155D01*
X97015000Y-63157155D01*
X97015000Y-63855000D01*
X98039722Y-63855000D01*
X97995667Y-63931306D01*
X97965000Y-64045756D01*
X97965000Y-64164244D01*
X97995667Y-64278694D01*
X98039722Y-64355000D01*
X97015000Y-64355000D01*
X97015000Y-65052844D01*
X97021401Y-65112372D01*
X97021403Y-65112379D01*
X97071645Y-65247086D01*
X97071649Y-65247093D01*
X97157809Y-65362187D01*
X97157812Y-65362190D01*
X97272906Y-65448350D01*
X97272913Y-65448354D01*
X97407620Y-65498596D01*
X97407627Y-65498598D01*
X97467155Y-65504999D01*
X97467172Y-65505000D01*
X98165000Y-65505000D01*
X98165000Y-64480277D01*
X98241306Y-64524333D01*
X98355756Y-64555000D01*
X98474244Y-64555000D01*
X98588694Y-64524333D01*
X98665000Y-64480277D01*
X98665000Y-65505000D01*
X99362828Y-65505000D01*
X99362844Y-65504999D01*
X99422372Y-65498598D01*
X99422379Y-65498596D01*
X99557086Y-65448354D01*
X99557093Y-65448350D01*
X99672187Y-65362190D01*
X99672190Y-65362187D01*
X99758350Y-65247093D01*
X99758354Y-65247086D01*
X99788213Y-65167031D01*
X99830084Y-65111097D01*
X99895548Y-65086680D01*
X99963821Y-65101531D01*
X99992076Y-65122683D01*
X100042636Y-65173243D01*
X100042641Y-65173247D01*
X100183334Y-65275465D01*
X100220978Y-65302815D01*
X100337501Y-65362187D01*
X100417393Y-65402895D01*
X100417396Y-65402896D01*
X100522221Y-65436955D01*
X100627049Y-65471015D01*
X100844778Y-65505500D01*
X100844779Y-65505500D01*
X101065221Y-65505500D01*
X101065222Y-65505500D01*
X101282951Y-65471015D01*
X101492606Y-65402895D01*
X101689022Y-65302815D01*
X101867365Y-65173242D01*
X102023242Y-65017365D01*
X102152815Y-64839022D01*
X102252895Y-64642606D01*
X102321015Y-64432951D01*
X102355500Y-64215222D01*
X102355500Y-63994778D01*
X102321015Y-63777049D01*
X102286955Y-63672221D01*
X102252896Y-63567396D01*
X102252895Y-63567393D01*
X102179316Y-63422989D01*
X102152815Y-63370978D01*
X102111094Y-63313553D01*
X102023247Y-63192641D01*
X102023243Y-63192636D01*
X101867363Y-63036756D01*
X101867358Y-63036752D01*
X101689025Y-62907187D01*
X101689024Y-62907186D01*
X101689022Y-62907185D01*
X101626096Y-62875122D01*
X101492606Y-62807104D01*
X101492603Y-62807103D01*
X101282952Y-62738985D01*
X101174086Y-62721742D01*
X101065222Y-62704500D01*
X100844778Y-62704500D01*
X100772201Y-62715995D01*
X100627047Y-62738985D01*
X100417396Y-62807103D01*
X100417393Y-62807104D01*
X100220974Y-62907187D01*
X100042641Y-63036752D01*
X100042636Y-63036756D01*
X99992075Y-63087317D01*
X99930752Y-63120801D01*
X99861060Y-63115816D01*
X99805127Y-63073945D01*
X99788213Y-63042968D01*
X99758354Y-62962913D01*
X99758350Y-62962906D01*
X99672190Y-62847812D01*
X99672187Y-62847809D01*
X99557093Y-62761649D01*
X99557086Y-62761645D01*
X99422379Y-62711403D01*
X99422372Y-62711401D01*
X99362844Y-62705000D01*
X98665000Y-62705000D01*
X98665000Y-63729722D01*
X98588694Y-63685667D01*
X98474244Y-63655000D01*
X98355756Y-63655000D01*
X98241306Y-63685667D01*
X98165000Y-63729722D01*
X98165000Y-62705000D01*
X97467155Y-62705000D01*
X97407627Y-62711401D01*
X97407620Y-62711403D01*
X97272913Y-62761645D01*
X97272906Y-62761649D01*
X97157812Y-62847809D01*
X97157809Y-62847812D01*
X97071649Y-62962906D01*
X97071645Y-62962913D01*
X97021403Y-63097620D01*
X97021401Y-63097627D01*
X97015000Y-63157155D01*
X83582736Y-63157155D01*
X80526851Y-60101270D01*
X80526849Y-60101267D01*
X80439724Y-60014142D01*
X80388500Y-59979915D01*
X80337277Y-59945688D01*
X80337274Y-59945686D01*
X80337271Y-59945685D01*
X80263594Y-59915168D01*
X80263592Y-59915167D01*
X80256783Y-59912347D01*
X80223443Y-59898537D01*
X80163020Y-59886518D01*
X80158297Y-59885578D01*
X80158295Y-59885578D01*
X80102601Y-59874500D01*
X80102598Y-59874500D01*
X80102597Y-59874500D01*
X77506115Y-59874500D01*
X77439076Y-59854815D01*
X77406393Y-59821428D01*
X77405151Y-59822331D01*
X77281971Y-59652786D01*
X77137213Y-59508028D01*
X76971614Y-59387715D01*
X76965006Y-59384348D01*
X76878917Y-59340483D01*
X76828123Y-59292511D01*
X76811328Y-59224690D01*
X76833865Y-59158555D01*
X76878917Y-59119516D01*
X76912023Y-59102648D01*
X80734500Y-59102648D01*
X80734500Y-59307351D01*
X80766522Y-59509534D01*
X80829781Y-59704223D01*
X80887951Y-59818386D01*
X80922666Y-59886518D01*
X80922715Y-59886613D01*
X81043028Y-60052213D01*
X81187786Y-60196971D01*
X81342749Y-60309556D01*
X81353390Y-60317287D01*
X81469607Y-60376503D01*
X81535776Y-60410218D01*
X81535778Y-60410218D01*
X81535781Y-60410220D01*
X81640137Y-60444127D01*
X81730465Y-60473477D01*
X81831557Y-60489488D01*
X81932648Y-60505500D01*
X81932649Y-60505500D01*
X82137351Y-60505500D01*
X82137352Y-60505500D01*
X82339534Y-60473477D01*
X82534219Y-60410220D01*
X82716610Y-60317287D01*
X82809590Y-60249732D01*
X82882213Y-60196971D01*
X82882215Y-60196968D01*
X82882219Y-60196966D01*
X83026966Y-60052219D01*
X83026968Y-60052215D01*
X83026971Y-60052213D01*
X83104364Y-59945689D01*
X83147287Y-59886610D01*
X83240220Y-59704219D01*
X83303477Y-59509534D01*
X83335500Y-59307352D01*
X83335500Y-59102648D01*
X88354500Y-59102648D01*
X88354500Y-59307351D01*
X88386522Y-59509534D01*
X88449781Y-59704223D01*
X88507951Y-59818386D01*
X88542666Y-59886518D01*
X88542715Y-59886613D01*
X88663028Y-60052213D01*
X88807786Y-60196971D01*
X88962749Y-60309556D01*
X88973390Y-60317287D01*
X89089607Y-60376503D01*
X89155776Y-60410218D01*
X89155778Y-60410218D01*
X89155781Y-60410220D01*
X89260137Y-60444127D01*
X89350465Y-60473477D01*
X89451557Y-60489488D01*
X89552648Y-60505500D01*
X89552649Y-60505500D01*
X89757351Y-60505500D01*
X89757352Y-60505500D01*
X89959534Y-60473477D01*
X90154219Y-60410220D01*
X90336610Y-60317287D01*
X90429590Y-60249732D01*
X90502213Y-60196971D01*
X90502215Y-60196968D01*
X90502219Y-60196966D01*
X90646966Y-60052219D01*
X90646968Y-60052215D01*
X90646971Y-60052213D01*
X90724364Y-59945689D01*
X90767287Y-59886610D01*
X90860220Y-59704219D01*
X90923477Y-59509534D01*
X90955500Y-59307352D01*
X90955500Y-59102648D01*
X90923477Y-58900466D01*
X90917775Y-58882918D01*
X90893177Y-58807213D01*
X90860220Y-58705781D01*
X90860218Y-58705778D01*
X90860218Y-58705776D01*
X90792390Y-58572658D01*
X90767287Y-58523390D01*
X90727847Y-58469105D01*
X90646971Y-58357786D01*
X90502213Y-58213028D01*
X90336613Y-58092715D01*
X90336612Y-58092714D01*
X90336610Y-58092713D01*
X90277021Y-58062351D01*
X90154223Y-57999781D01*
X89959534Y-57936522D01*
X89784995Y-57908878D01*
X89757352Y-57904500D01*
X89552648Y-57904500D01*
X89528329Y-57908351D01*
X89350465Y-57936522D01*
X89155776Y-57999781D01*
X88973386Y-58092715D01*
X88807786Y-58213028D01*
X88663028Y-58357786D01*
X88542715Y-58523386D01*
X88449781Y-58705776D01*
X88386522Y-58900465D01*
X88354500Y-59102648D01*
X83335500Y-59102648D01*
X83303477Y-58900466D01*
X83297775Y-58882918D01*
X83273177Y-58807213D01*
X83240220Y-58705781D01*
X83240218Y-58705778D01*
X83240218Y-58705776D01*
X83172390Y-58572658D01*
X83147287Y-58523390D01*
X83107847Y-58469105D01*
X83026971Y-58357786D01*
X82882213Y-58213028D01*
X82716613Y-58092715D01*
X82716612Y-58092714D01*
X82716610Y-58092713D01*
X82657021Y-58062351D01*
X82534223Y-57999781D01*
X82339534Y-57936522D01*
X82164995Y-57908878D01*
X82137352Y-57904500D01*
X81932648Y-57904500D01*
X81908329Y-57908351D01*
X81730465Y-57936522D01*
X81535776Y-57999781D01*
X81353386Y-58092715D01*
X81187786Y-58213028D01*
X81043028Y-58357786D01*
X80922715Y-58523386D01*
X80829781Y-58705776D01*
X80766522Y-58900465D01*
X80734500Y-59102648D01*
X76912023Y-59102648D01*
X76971610Y-59072287D01*
X77137219Y-58951966D01*
X77281966Y-58807219D01*
X77281968Y-58807215D01*
X77281971Y-58807213D01*
X77355668Y-58705776D01*
X77402287Y-58641610D01*
X77495220Y-58459219D01*
X77558477Y-58264534D01*
X77590500Y-58062352D01*
X77590500Y-57857648D01*
X77558477Y-57655466D01*
X77556913Y-57650654D01*
X77516928Y-57527591D01*
X77495220Y-57460781D01*
X77495218Y-57460778D01*
X77495218Y-57460776D01*
X77461503Y-57394607D01*
X77402287Y-57278390D01*
X77379079Y-57246446D01*
X77281971Y-57112786D01*
X77137213Y-56968028D01*
X76971614Y-56847715D01*
X76954553Y-56839022D01*
X76878917Y-56800483D01*
X76828123Y-56752511D01*
X76811328Y-56684690D01*
X76833865Y-56618555D01*
X76878917Y-56579516D01*
X76971610Y-56532287D01*
X77042347Y-56480894D01*
X77137213Y-56411971D01*
X77137215Y-56411968D01*
X77137219Y-56411966D01*
X77281966Y-56267219D01*
X77281968Y-56267215D01*
X77281971Y-56267213D01*
X77356781Y-56164244D01*
X77402287Y-56101610D01*
X77495220Y-55919219D01*
X77558477Y-55724534D01*
X77590500Y-55522352D01*
X77590500Y-55317648D01*
X77559322Y-55120801D01*
X77558477Y-55115465D01*
X77529127Y-55025137D01*
X77495220Y-54920781D01*
X77495218Y-54920778D01*
X77495218Y-54920776D01*
X77437299Y-54807105D01*
X77402287Y-54738390D01*
X77377665Y-54704500D01*
X77281971Y-54572786D01*
X77137213Y-54428028D01*
X76971614Y-54307715D01*
X76965006Y-54304348D01*
X76878917Y-54260483D01*
X76828123Y-54212511D01*
X76811328Y-54144690D01*
X76833865Y-54078555D01*
X76878917Y-54039516D01*
X76971610Y-53992287D01*
X77016774Y-53959474D01*
X77137213Y-53871971D01*
X77137215Y-53871968D01*
X77137219Y-53871966D01*
X77281966Y-53727219D01*
X77281968Y-53727215D01*
X77281971Y-53727213D01*
X77334732Y-53654590D01*
X77402287Y-53561610D01*
X77495220Y-53379219D01*
X77558477Y-53184534D01*
X77590500Y-52982352D01*
X77590500Y-52777648D01*
X77569205Y-52643198D01*
X77558477Y-52575465D01*
X77505735Y-52413143D01*
X77495220Y-52380781D01*
X77495218Y-52380778D01*
X77495218Y-52380776D01*
X77402285Y-52198387D01*
X77382141Y-52170660D01*
X77382140Y-52170659D01*
X77332728Y-52102648D01*
X80534500Y-52102648D01*
X80534500Y-52307351D01*
X80566522Y-52509534D01*
X80629781Y-52704223D01*
X80722715Y-52886613D01*
X80843028Y-53052213D01*
X80987786Y-53196971D01*
X81102068Y-53280000D01*
X81153390Y-53317287D01*
X81269607Y-53376503D01*
X81335776Y-53410218D01*
X81335778Y-53410218D01*
X81335781Y-53410220D01*
X81440137Y-53444127D01*
X81530465Y-53473477D01*
X81631557Y-53489488D01*
X81732648Y-53505500D01*
X81732649Y-53505500D01*
X81937351Y-53505500D01*
X81937352Y-53505500D01*
X82139534Y-53473477D01*
X82334219Y-53410220D01*
X82516610Y-53317287D01*
X82631861Y-53233553D01*
X82682213Y-53196971D01*
X82682215Y-53196968D01*
X82682219Y-53196966D01*
X82826966Y-53052219D01*
X82826968Y-53052215D01*
X82826971Y-53052213D01*
X82913829Y-52932661D01*
X82947287Y-52886610D01*
X83040220Y-52704219D01*
X83103477Y-52509534D01*
X83135500Y-52307352D01*
X83135500Y-52102648D01*
X83103477Y-51900466D01*
X83040220Y-51705781D01*
X83040218Y-51705778D01*
X83040218Y-51705776D01*
X82988567Y-51604407D01*
X82947287Y-51523390D01*
X82895319Y-51451861D01*
X82826971Y-51357786D01*
X82682213Y-51213028D01*
X82516613Y-51092715D01*
X82516612Y-51092714D01*
X82516610Y-51092713D01*
X82446541Y-51057011D01*
X82334223Y-50999781D01*
X82139534Y-50936522D01*
X81964995Y-50908878D01*
X81937352Y-50904500D01*
X81732648Y-50904500D01*
X81708329Y-50908351D01*
X81530465Y-50936522D01*
X81335776Y-50999781D01*
X81153386Y-51092715D01*
X80987786Y-51213028D01*
X80843028Y-51357786D01*
X80722715Y-51523386D01*
X80629781Y-51705776D01*
X80566522Y-51900465D01*
X80534500Y-52102648D01*
X77332728Y-52102648D01*
X77281971Y-52032787D01*
X77281967Y-52032782D01*
X77137213Y-51888028D01*
X76971611Y-51767713D01*
X76878369Y-51720203D01*
X76827574Y-51672229D01*
X76810779Y-51604407D01*
X76833317Y-51538273D01*
X76878371Y-51499234D01*
X76971346Y-51451861D01*
X76971347Y-51451861D01*
X77015921Y-51419474D01*
X76336447Y-50740000D01*
X76342661Y-50740000D01*
X76444394Y-50712741D01*
X76535606Y-50660080D01*
X76610080Y-50585606D01*
X76662741Y-50494394D01*
X76690000Y-50392661D01*
X76690000Y-50386447D01*
X77369474Y-51065921D01*
X77401859Y-51021349D01*
X77494755Y-50839031D01*
X77557990Y-50644417D01*
X77590000Y-50442317D01*
X77590000Y-50237682D01*
X77557990Y-50035582D01*
X77494755Y-49840968D01*
X77401859Y-49658650D01*
X77369474Y-49614077D01*
X77369474Y-49614076D01*
X76690000Y-50293551D01*
X76690000Y-50287339D01*
X76662741Y-50185606D01*
X76610080Y-50094394D01*
X76535606Y-50019920D01*
X76444394Y-49967259D01*
X76342661Y-49940000D01*
X76336446Y-49940000D01*
X77015922Y-49260524D01*
X77015921Y-49260523D01*
X76971359Y-49228147D01*
X76971350Y-49228141D01*
X76878369Y-49180765D01*
X76827573Y-49132790D01*
X76810778Y-49064969D01*
X76833315Y-48998835D01*
X76878370Y-48959795D01*
X76878920Y-48959515D01*
X76971610Y-48912287D01*
X77021144Y-48876298D01*
X77137213Y-48791971D01*
X77137215Y-48791968D01*
X77137219Y-48791966D01*
X77281966Y-48647219D01*
X77281968Y-48647215D01*
X77281971Y-48647213D01*
X77334732Y-48574590D01*
X77402287Y-48481610D01*
X77495220Y-48299219D01*
X77558477Y-48104534D01*
X77590500Y-47902352D01*
X77590500Y-47697648D01*
X77558477Y-47495466D01*
X77558477Y-47495465D01*
X77557715Y-47490654D01*
X77559777Y-47490327D01*
X77562784Y-47429304D01*
X77592215Y-47382373D01*
X79271940Y-45702648D01*
X80134500Y-45702648D01*
X80134500Y-45907351D01*
X80166522Y-46109534D01*
X80229781Y-46304223D01*
X80288526Y-46419515D01*
X80311814Y-46465220D01*
X80322715Y-46486613D01*
X80443028Y-46652213D01*
X80587786Y-46796971D01*
X80742749Y-46909556D01*
X80753390Y-46917287D01*
X80823061Y-46952786D01*
X80935776Y-47010218D01*
X80935778Y-47010218D01*
X80935781Y-47010220D01*
X81040137Y-47044127D01*
X81130465Y-47073477D01*
X81231557Y-47089488D01*
X81332648Y-47105500D01*
X81332649Y-47105500D01*
X81537351Y-47105500D01*
X81537352Y-47105500D01*
X81739534Y-47073477D01*
X81934219Y-47010220D01*
X82116610Y-46917287D01*
X82209590Y-46849732D01*
X82282213Y-46796971D01*
X82282215Y-46796968D01*
X82282219Y-46796966D01*
X82426966Y-46652219D01*
X82426968Y-46652215D01*
X82426971Y-46652213D01*
X82479732Y-46579590D01*
X82547287Y-46486610D01*
X82640220Y-46304219D01*
X82703477Y-46109534D01*
X82735500Y-45907352D01*
X82735500Y-45702648D01*
X82703477Y-45500466D01*
X82640220Y-45305781D01*
X82640218Y-45305778D01*
X82640218Y-45305776D01*
X82564742Y-45157648D01*
X82547287Y-45123390D01*
X82539556Y-45112749D01*
X82426971Y-44957786D01*
X82282213Y-44813028D01*
X82116613Y-44692715D01*
X82116612Y-44692714D01*
X82116610Y-44692713D01*
X82059653Y-44663691D01*
X81934223Y-44599781D01*
X81739534Y-44536522D01*
X81564995Y-44508878D01*
X81537352Y-44504500D01*
X81332648Y-44504500D01*
X81308329Y-44508351D01*
X81130465Y-44536522D01*
X80935776Y-44599781D01*
X80753386Y-44692715D01*
X80587786Y-44813028D01*
X80443028Y-44957786D01*
X80322715Y-45123386D01*
X80229781Y-45305776D01*
X80166522Y-45500465D01*
X80134500Y-45702648D01*
X79271940Y-45702648D01*
X84462821Y-40511768D01*
X84524142Y-40478285D01*
X84593834Y-40483269D01*
X84649767Y-40525141D01*
X84674184Y-40590605D01*
X84674500Y-40599451D01*
X84674500Y-46261606D01*
X84697857Y-46379035D01*
X84697859Y-46379044D01*
X84697858Y-46379044D01*
X84698535Y-46382444D01*
X84698539Y-46382458D01*
X84745685Y-46496280D01*
X84745687Y-46496283D01*
X84745688Y-46496286D01*
X84779915Y-46547509D01*
X84814142Y-46598733D01*
X84901267Y-46685858D01*
X84901270Y-46685860D01*
X84908554Y-46693144D01*
X89008490Y-50793080D01*
X89041975Y-50854403D01*
X89036991Y-50924095D01*
X88995119Y-50980028D01*
X88959142Y-50998687D01*
X88955782Y-50999778D01*
X88773386Y-51092715D01*
X88607786Y-51213028D01*
X88463028Y-51357786D01*
X88342715Y-51523386D01*
X88249781Y-51705776D01*
X88186522Y-51900465D01*
X88154500Y-52102648D01*
X88154500Y-52307351D01*
X88186522Y-52509534D01*
X88249781Y-52704223D01*
X88342715Y-52886613D01*
X88463028Y-53052213D01*
X88607786Y-53196971D01*
X88722068Y-53280000D01*
X88773390Y-53317287D01*
X88889607Y-53376503D01*
X88955776Y-53410218D01*
X88955778Y-53410218D01*
X88955781Y-53410220D01*
X89060137Y-53444127D01*
X89150465Y-53473477D01*
X89251557Y-53489488D01*
X89352648Y-53505500D01*
X89352649Y-53505500D01*
X89557351Y-53505500D01*
X89557352Y-53505500D01*
X89759534Y-53473477D01*
X89954219Y-53410220D01*
X90136610Y-53317287D01*
X90251861Y-53233553D01*
X90302213Y-53196971D01*
X90302215Y-53196968D01*
X90302219Y-53196966D01*
X90446966Y-53052219D01*
X90446968Y-53052215D01*
X90446971Y-53052213D01*
X90533829Y-52932661D01*
X90567287Y-52886610D01*
X90660220Y-52704219D01*
X90661307Y-52700871D01*
X90662065Y-52699762D01*
X90662081Y-52699726D01*
X90662088Y-52699729D01*
X90700742Y-52643198D01*
X90765100Y-52615999D01*
X90833947Y-52627911D01*
X90866919Y-52651509D01*
X95944139Y-57728729D01*
X95944142Y-57728733D01*
X96031267Y-57815858D01*
X96093810Y-57857648D01*
X96133715Y-57884312D01*
X96182454Y-57904500D01*
X96247548Y-57931463D01*
X96307971Y-57943481D01*
X96368393Y-57955500D01*
X99451607Y-57955500D01*
X99451608Y-57955499D01*
X99572452Y-57931463D01*
X99686286Y-57884311D01*
X99788733Y-57815858D01*
X99875858Y-57728733D01*
X99944311Y-57626286D01*
X99991463Y-57512452D01*
X99995511Y-57492099D01*
X100027893Y-57430190D01*
X100088608Y-57395614D01*
X100158378Y-57399352D01*
X100164594Y-57401735D01*
X100167389Y-57402892D01*
X100167394Y-57402895D01*
X100377049Y-57471015D01*
X100594778Y-57505500D01*
X100594779Y-57505500D01*
X100815221Y-57505500D01*
X100815222Y-57505500D01*
X101032951Y-57471015D01*
X101242606Y-57402895D01*
X101439022Y-57302815D01*
X101617365Y-57173242D01*
X101773242Y-57017365D01*
X101902815Y-56839022D01*
X102002895Y-56642606D01*
X102071015Y-56432951D01*
X102105500Y-56215222D01*
X102105500Y-55994778D01*
X102071015Y-55777049D01*
X102036955Y-55672221D01*
X102002896Y-55567396D01*
X102002895Y-55567393D01*
X101968237Y-55499375D01*
X101902815Y-55370978D01*
X101864069Y-55317648D01*
X101773247Y-55192641D01*
X101773243Y-55192636D01*
X101617363Y-55036756D01*
X101617358Y-55036752D01*
X101439025Y-54907187D01*
X101439024Y-54907186D01*
X101439022Y-54907185D01*
X101376096Y-54875122D01*
X101242606Y-54807104D01*
X101242603Y-54807103D01*
X101032952Y-54738985D01*
X100924086Y-54721742D01*
X100815222Y-54704500D01*
X100594778Y-54704500D01*
X100522201Y-54715995D01*
X100377047Y-54738985D01*
X100167396Y-54807103D01*
X100167393Y-54807104D01*
X99970974Y-54907187D01*
X99792641Y-55036752D01*
X99792636Y-55036756D01*
X99742075Y-55087317D01*
X99680752Y-55120801D01*
X99611060Y-55115816D01*
X99555127Y-55073945D01*
X99538213Y-55042968D01*
X99508354Y-54962913D01*
X99508350Y-54962906D01*
X99422190Y-54847812D01*
X99422187Y-54847809D01*
X99307093Y-54761649D01*
X99307086Y-54761645D01*
X99172379Y-54711403D01*
X99172372Y-54711401D01*
X99112844Y-54705000D01*
X98415000Y-54705000D01*
X98415000Y-55729722D01*
X98338694Y-55685667D01*
X98224244Y-55655000D01*
X98105756Y-55655000D01*
X97991306Y-55685667D01*
X97915000Y-55729722D01*
X97915000Y-54705000D01*
X97217155Y-54705000D01*
X97157627Y-54711401D01*
X97157620Y-54711403D01*
X97022913Y-54761645D01*
X97022906Y-54761649D01*
X96907812Y-54847809D01*
X96907809Y-54847812D01*
X96821649Y-54962906D01*
X96821645Y-54962913D01*
X96771403Y-55097620D01*
X96771401Y-55097627D01*
X96765000Y-55157155D01*
X96765000Y-55855000D01*
X97789722Y-55855000D01*
X97745667Y-55931306D01*
X97715000Y-56045756D01*
X97715000Y-56164244D01*
X97745667Y-56278694D01*
X97789722Y-56355000D01*
X96765000Y-56355000D01*
X96765000Y-56481048D01*
X96745315Y-56548087D01*
X96692511Y-56593842D01*
X96623353Y-56603786D01*
X96559797Y-56574761D01*
X96553319Y-56568729D01*
X85961819Y-45977229D01*
X85947115Y-45950301D01*
X85930523Y-45924483D01*
X85929631Y-45918282D01*
X85928334Y-45915906D01*
X85925500Y-45889548D01*
X85925500Y-45702648D01*
X87754500Y-45702648D01*
X87754500Y-45907351D01*
X87786522Y-46109534D01*
X87849781Y-46304223D01*
X87908526Y-46419515D01*
X87931814Y-46465220D01*
X87942715Y-46486613D01*
X88063028Y-46652213D01*
X88207786Y-46796971D01*
X88362749Y-46909556D01*
X88373390Y-46917287D01*
X88443061Y-46952786D01*
X88555776Y-47010218D01*
X88555778Y-47010218D01*
X88555781Y-47010220D01*
X88660137Y-47044127D01*
X88750465Y-47073477D01*
X88851557Y-47089488D01*
X88952648Y-47105500D01*
X88952649Y-47105500D01*
X89157351Y-47105500D01*
X89157352Y-47105500D01*
X89359534Y-47073477D01*
X89554219Y-47010220D01*
X89736610Y-46917287D01*
X89829590Y-46849732D01*
X89902213Y-46796971D01*
X89902215Y-46796968D01*
X89902219Y-46796966D01*
X90046966Y-46652219D01*
X90046968Y-46652215D01*
X90046971Y-46652213D01*
X90099732Y-46579590D01*
X90167287Y-46486610D01*
X90260220Y-46304219D01*
X90323477Y-46109534D01*
X90355500Y-45907352D01*
X90355500Y-45702648D01*
X90323477Y-45500466D01*
X90260220Y-45305781D01*
X90260218Y-45305778D01*
X90260218Y-45305776D01*
X90184742Y-45157648D01*
X90167287Y-45123390D01*
X90159556Y-45112749D01*
X90046971Y-44957786D01*
X89902213Y-44813028D01*
X89736613Y-44692715D01*
X89736612Y-44692714D01*
X89736610Y-44692713D01*
X89679653Y-44663691D01*
X89554223Y-44599781D01*
X89359534Y-44536522D01*
X89184995Y-44508878D01*
X89157352Y-44504500D01*
X88952648Y-44504500D01*
X88928329Y-44508351D01*
X88750465Y-44536522D01*
X88555776Y-44599781D01*
X88373386Y-44692715D01*
X88207786Y-44813028D01*
X88063028Y-44957786D01*
X87942715Y-45123386D01*
X87849781Y-45305776D01*
X87786522Y-45500465D01*
X87754500Y-45702648D01*
X85925500Y-45702648D01*
X85925500Y-38728393D01*
X85920691Y-38704220D01*
X85920690Y-38704215D01*
X85906320Y-38631965D01*
X85906320Y-38631964D01*
X85901464Y-38607553D01*
X85901463Y-38607552D01*
X85901463Y-38607548D01*
X85854311Y-38493714D01*
X85854310Y-38493713D01*
X85854307Y-38493707D01*
X85785858Y-38391267D01*
X85785855Y-38391263D01*
X85698736Y-38304144D01*
X85698732Y-38304141D01*
X85596292Y-38235692D01*
X85596282Y-38235687D01*
X85545518Y-38214659D01*
X85545508Y-38214656D01*
X85482452Y-38188537D01*
X85422029Y-38176518D01*
X85416029Y-38175324D01*
X85416024Y-38175323D01*
X85361610Y-38164500D01*
X85361607Y-38164500D01*
X85238393Y-38164500D01*
X85238389Y-38164500D01*
X85183979Y-38175323D01*
X85177971Y-38176518D01*
X85134743Y-38185116D01*
X85117546Y-38188537D01*
X85003716Y-38235687D01*
X85003707Y-38235692D01*
X84901268Y-38304140D01*
X84857705Y-38347703D01*
X84814142Y-38391267D01*
X77802181Y-45403228D01*
X77740858Y-45436713D01*
X77671166Y-45431729D01*
X77615233Y-45389857D01*
X77590816Y-45324393D01*
X77590500Y-45315547D01*
X77590500Y-45157648D01*
X77558477Y-44955465D01*
X77495218Y-44760776D01*
X77460538Y-44692713D01*
X77402287Y-44578390D01*
X77371869Y-44536523D01*
X77281971Y-44412786D01*
X77137213Y-44268028D01*
X76971614Y-44147715D01*
X76965006Y-44144348D01*
X76878917Y-44100483D01*
X76828123Y-44052511D01*
X76811328Y-43984690D01*
X76833865Y-43918555D01*
X76878917Y-43879516D01*
X76971610Y-43832287D01*
X76992770Y-43816913D01*
X77137213Y-43711971D01*
X77137215Y-43711968D01*
X77137219Y-43711966D01*
X77281966Y-43567219D01*
X77281968Y-43567215D01*
X77281971Y-43567213D01*
X77334732Y-43494590D01*
X77402287Y-43401610D01*
X77495220Y-43219219D01*
X77558477Y-43024534D01*
X77590500Y-42822352D01*
X77590500Y-42617648D01*
X77564297Y-42452213D01*
X77558477Y-42415465D01*
X77516609Y-42286610D01*
X77495220Y-42220781D01*
X77495218Y-42220778D01*
X77495218Y-42220776D01*
X77449434Y-42130921D01*
X77402287Y-42038390D01*
X77374135Y-41999642D01*
X77281971Y-41872786D01*
X77137213Y-41728028D01*
X76971614Y-41607715D01*
X76965006Y-41604348D01*
X76878917Y-41560483D01*
X76828123Y-41512511D01*
X76811328Y-41444690D01*
X76833865Y-41378555D01*
X76878917Y-41339516D01*
X76971610Y-41292287D01*
X77027823Y-41251446D01*
X77137213Y-41171971D01*
X77137215Y-41171968D01*
X77137219Y-41171966D01*
X77281966Y-41027219D01*
X77281968Y-41027215D01*
X77281971Y-41027213D01*
X77352603Y-40929995D01*
X77402287Y-40861610D01*
X77495220Y-40679219D01*
X77558477Y-40484534D01*
X77590500Y-40282352D01*
X77590500Y-40077648D01*
X77588209Y-40063182D01*
X77558477Y-39875465D01*
X77495218Y-39680776D01*
X77461503Y-39614607D01*
X77402287Y-39498390D01*
X77384187Y-39473477D01*
X77281971Y-39332786D01*
X77137213Y-39188028D01*
X76971614Y-39067715D01*
X76941201Y-39052219D01*
X76878917Y-39020483D01*
X76828123Y-38972511D01*
X76811328Y-38904690D01*
X76833865Y-38838555D01*
X76878917Y-38799516D01*
X76971610Y-38752287D01*
X77037769Y-38704220D01*
X77137213Y-38631971D01*
X77137220Y-38631965D01*
X77161638Y-38607547D01*
X77281966Y-38487219D01*
X77281968Y-38487215D01*
X77281971Y-38487213D01*
X77351676Y-38391270D01*
X77402287Y-38321610D01*
X77495220Y-38139219D01*
X77507103Y-38102648D01*
X79934500Y-38102648D01*
X79934500Y-38307351D01*
X79966522Y-38509534D01*
X80029781Y-38704223D01*
X80122715Y-38886613D01*
X80243028Y-39052213D01*
X80387786Y-39196971D01*
X80542749Y-39309556D01*
X80553390Y-39317287D01*
X80669607Y-39376503D01*
X80735776Y-39410218D01*
X80735778Y-39410218D01*
X80735781Y-39410220D01*
X80840137Y-39444127D01*
X80930465Y-39473477D01*
X81031557Y-39489488D01*
X81132648Y-39505500D01*
X81132649Y-39505500D01*
X81337351Y-39505500D01*
X81337352Y-39505500D01*
X81539534Y-39473477D01*
X81734219Y-39410220D01*
X81916610Y-39317287D01*
X82009590Y-39249732D01*
X82082213Y-39196971D01*
X82082215Y-39196968D01*
X82082219Y-39196966D01*
X82226966Y-39052219D01*
X82226968Y-39052215D01*
X82226971Y-39052213D01*
X82284877Y-38972511D01*
X82347287Y-38886610D01*
X82440220Y-38704219D01*
X82503477Y-38509534D01*
X82535500Y-38307352D01*
X82535500Y-38102648D01*
X87554500Y-38102648D01*
X87554500Y-38307351D01*
X87586522Y-38509534D01*
X87649781Y-38704223D01*
X87742715Y-38886613D01*
X87863028Y-39052213D01*
X88007786Y-39196971D01*
X88162749Y-39309556D01*
X88173390Y-39317287D01*
X88289607Y-39376503D01*
X88355776Y-39410218D01*
X88355778Y-39410218D01*
X88355781Y-39410220D01*
X88460137Y-39444127D01*
X88550465Y-39473477D01*
X88651557Y-39489488D01*
X88752648Y-39505500D01*
X88752649Y-39505500D01*
X88957351Y-39505500D01*
X88957352Y-39505500D01*
X89159534Y-39473477D01*
X89354219Y-39410220D01*
X89536610Y-39317287D01*
X89629590Y-39249732D01*
X89702213Y-39196971D01*
X89702215Y-39196968D01*
X89702219Y-39196966D01*
X89846966Y-39052219D01*
X89846968Y-39052215D01*
X89846971Y-39052213D01*
X89904877Y-38972511D01*
X89967287Y-38886610D01*
X90060220Y-38704219D01*
X90123477Y-38509534D01*
X90155500Y-38307352D01*
X90155500Y-38102648D01*
X90123477Y-37900466D01*
X90060220Y-37705781D01*
X90060218Y-37705778D01*
X90060218Y-37705776D01*
X90026503Y-37639607D01*
X89967287Y-37523390D01*
X89959556Y-37512749D01*
X89846971Y-37357786D01*
X89702213Y-37213028D01*
X89536613Y-37092715D01*
X89536612Y-37092714D01*
X89536610Y-37092713D01*
X89479653Y-37063691D01*
X89354223Y-36999781D01*
X89159534Y-36936522D01*
X88984995Y-36908878D01*
X88957352Y-36904500D01*
X88752648Y-36904500D01*
X88728329Y-36908351D01*
X88550465Y-36936522D01*
X88355776Y-36999781D01*
X88173386Y-37092715D01*
X88007786Y-37213028D01*
X87863028Y-37357786D01*
X87742715Y-37523386D01*
X87649781Y-37705776D01*
X87586522Y-37900465D01*
X87554500Y-38102648D01*
X82535500Y-38102648D01*
X82503477Y-37900466D01*
X82440220Y-37705781D01*
X82440218Y-37705778D01*
X82440218Y-37705776D01*
X82406503Y-37639607D01*
X82347287Y-37523390D01*
X82339556Y-37512749D01*
X82226971Y-37357786D01*
X82082213Y-37213028D01*
X81916613Y-37092715D01*
X81916612Y-37092714D01*
X81916610Y-37092713D01*
X81859653Y-37063691D01*
X81734223Y-36999781D01*
X81539534Y-36936522D01*
X81364995Y-36908878D01*
X81337352Y-36904500D01*
X81132648Y-36904500D01*
X81108329Y-36908351D01*
X80930465Y-36936522D01*
X80735776Y-36999781D01*
X80553386Y-37092715D01*
X80387786Y-37213028D01*
X80243028Y-37357786D01*
X80122715Y-37523386D01*
X80029781Y-37705776D01*
X79966522Y-37900465D01*
X79934500Y-38102648D01*
X77507103Y-38102648D01*
X77558477Y-37944534D01*
X77590500Y-37742352D01*
X77590500Y-37537648D01*
X77562012Y-37357786D01*
X77558477Y-37335465D01*
X77495218Y-37140776D01*
X77461503Y-37074607D01*
X77402287Y-36958390D01*
X77363134Y-36904500D01*
X77281971Y-36792786D01*
X77137213Y-36648028D01*
X76971614Y-36527715D01*
X76965006Y-36524348D01*
X76878917Y-36480483D01*
X76828123Y-36432511D01*
X76811328Y-36364690D01*
X76833865Y-36298555D01*
X76878917Y-36259516D01*
X76971610Y-36212287D01*
X76992770Y-36196913D01*
X77137213Y-36091971D01*
X77137215Y-36091968D01*
X77137219Y-36091966D01*
X77281966Y-35947219D01*
X77281968Y-35947215D01*
X77281971Y-35947213D01*
X77334732Y-35874590D01*
X77402287Y-35781610D01*
X77495220Y-35599219D01*
X77558477Y-35404534D01*
X77590500Y-35202352D01*
X77590500Y-34997648D01*
X77558477Y-34795466D01*
X77495220Y-34600781D01*
X77495218Y-34600778D01*
X77495218Y-34600776D01*
X77461503Y-34534607D01*
X77402287Y-34418390D01*
X77394556Y-34407749D01*
X77281971Y-34252786D01*
X77137213Y-34108028D01*
X76971614Y-33987715D01*
X76965006Y-33984348D01*
X76878917Y-33940483D01*
X76828123Y-33892511D01*
X76811328Y-33824690D01*
X76833865Y-33758555D01*
X76878917Y-33719516D01*
X76971610Y-33672287D01*
X76992770Y-33656913D01*
X77137213Y-33551971D01*
X77137215Y-33551968D01*
X77137219Y-33551966D01*
X77281966Y-33407219D01*
X77281968Y-33407215D01*
X77281971Y-33407213D01*
X77334732Y-33334590D01*
X77402287Y-33241610D01*
X77495220Y-33059219D01*
X77558477Y-32864534D01*
X77590500Y-32662352D01*
X77590500Y-32457648D01*
X77558477Y-32255466D01*
X77495220Y-32060781D01*
X77495218Y-32060778D01*
X77495218Y-32060776D01*
X77461503Y-31994607D01*
X77402287Y-31878390D01*
X77394556Y-31867749D01*
X77281971Y-31712786D01*
X77137213Y-31568028D01*
X76971611Y-31447713D01*
X76894181Y-31408261D01*
X76894179Y-31408260D01*
X76878918Y-31400484D01*
X76828123Y-31352510D01*
X76815775Y-31302648D01*
X79934500Y-31302648D01*
X79934500Y-31507351D01*
X79966522Y-31709534D01*
X80029781Y-31904223D01*
X80093691Y-32029653D01*
X80109552Y-32060781D01*
X80122715Y-32086613D01*
X80243028Y-32252213D01*
X80387786Y-32396971D01*
X80542749Y-32509556D01*
X80553390Y-32517287D01*
X80669607Y-32576503D01*
X80735776Y-32610218D01*
X80735778Y-32610218D01*
X80735781Y-32610220D01*
X80840137Y-32644127D01*
X80930465Y-32673477D01*
X81031557Y-32689488D01*
X81132648Y-32705500D01*
X81132649Y-32705500D01*
X81337351Y-32705500D01*
X81337352Y-32705500D01*
X81539534Y-32673477D01*
X81734219Y-32610220D01*
X81916610Y-32517287D01*
X82009590Y-32449732D01*
X82082213Y-32396971D01*
X82082215Y-32396968D01*
X82082219Y-32396966D01*
X82226966Y-32252219D01*
X82226968Y-32252215D01*
X82226971Y-32252213D01*
X82279732Y-32179590D01*
X82347287Y-32086610D01*
X82440220Y-31904219D01*
X82503477Y-31709534D01*
X82535500Y-31507352D01*
X82535500Y-31302648D01*
X87554500Y-31302648D01*
X87554500Y-31507351D01*
X87586522Y-31709534D01*
X87649781Y-31904223D01*
X87713691Y-32029653D01*
X87729552Y-32060781D01*
X87742715Y-32086613D01*
X87863028Y-32252213D01*
X88007786Y-32396971D01*
X88162749Y-32509556D01*
X88173390Y-32517287D01*
X88289607Y-32576503D01*
X88355776Y-32610218D01*
X88355778Y-32610218D01*
X88355781Y-32610220D01*
X88460137Y-32644127D01*
X88550465Y-32673477D01*
X88651557Y-32689488D01*
X88752648Y-32705500D01*
X88752649Y-32705500D01*
X88957351Y-32705500D01*
X88957352Y-32705500D01*
X89159534Y-32673477D01*
X89354219Y-32610220D01*
X89536610Y-32517287D01*
X89629590Y-32449732D01*
X89702213Y-32396971D01*
X89702215Y-32396968D01*
X89702219Y-32396966D01*
X89846966Y-32252219D01*
X89846968Y-32252215D01*
X89846971Y-32252213D01*
X89899732Y-32179590D01*
X89967287Y-32086610D01*
X90060220Y-31904219D01*
X90123477Y-31709534D01*
X90155500Y-31507352D01*
X90155500Y-31302648D01*
X90153497Y-31290000D01*
X90123477Y-31100465D01*
X90060218Y-30905776D01*
X90026503Y-30839607D01*
X89967287Y-30723390D01*
X89941824Y-30688343D01*
X89846971Y-30557786D01*
X89702213Y-30413028D01*
X89536613Y-30292715D01*
X89536612Y-30292714D01*
X89536610Y-30292713D01*
X89479653Y-30263691D01*
X89354223Y-30199781D01*
X89159534Y-30136522D01*
X88984995Y-30108878D01*
X88957352Y-30104500D01*
X88752648Y-30104500D01*
X88728329Y-30108351D01*
X88550465Y-30136522D01*
X88355776Y-30199781D01*
X88173386Y-30292715D01*
X88007786Y-30413028D01*
X87863028Y-30557786D01*
X87742715Y-30723386D01*
X87649781Y-30905776D01*
X87586522Y-31100465D01*
X87554500Y-31302648D01*
X82535500Y-31302648D01*
X82533497Y-31290000D01*
X82503477Y-31100465D01*
X82440218Y-30905776D01*
X82406503Y-30839607D01*
X82347287Y-30723390D01*
X82321824Y-30688343D01*
X82226971Y-30557786D01*
X82082213Y-30413028D01*
X81916613Y-30292715D01*
X81916612Y-30292714D01*
X81916610Y-30292713D01*
X81859653Y-30263691D01*
X81734223Y-30199781D01*
X81539534Y-30136522D01*
X81364995Y-30108878D01*
X81337352Y-30104500D01*
X81132648Y-30104500D01*
X81108329Y-30108351D01*
X80930465Y-30136522D01*
X80735776Y-30199781D01*
X80553386Y-30292715D01*
X80387786Y-30413028D01*
X80243028Y-30557786D01*
X80122715Y-30723386D01*
X80029781Y-30905776D01*
X79966522Y-31100465D01*
X79934500Y-31302648D01*
X76815775Y-31302648D01*
X76811328Y-31284689D01*
X76833866Y-31218554D01*
X76878917Y-31179516D01*
X76971610Y-31132287D01*
X77015410Y-31100465D01*
X77137213Y-31011971D01*
X77137215Y-31011968D01*
X77137219Y-31011966D01*
X77281966Y-30867219D01*
X77281968Y-30867215D01*
X77281971Y-30867213D01*
X77334732Y-30794590D01*
X77402287Y-30701610D01*
X77495220Y-30519219D01*
X77558477Y-30324534D01*
X77590500Y-30122352D01*
X77590500Y-29917648D01*
X77558477Y-29715466D01*
X77495220Y-29520781D01*
X77495218Y-29520778D01*
X77495218Y-29520776D01*
X77461503Y-29454607D01*
X77402287Y-29338390D01*
X77394556Y-29327749D01*
X77281971Y-29172786D01*
X77137213Y-29028028D01*
X76971614Y-28907715D01*
X76965006Y-28904348D01*
X76878917Y-28860483D01*
X76828123Y-28812511D01*
X76811328Y-28744690D01*
X76833865Y-28678555D01*
X76878917Y-28639516D01*
X76971610Y-28592287D01*
X77100482Y-28498657D01*
X77137213Y-28471971D01*
X77137215Y-28471968D01*
X77137219Y-28471966D01*
X77281966Y-28327219D01*
X77281968Y-28327215D01*
X77281971Y-28327213D01*
X77386892Y-28182799D01*
X77402287Y-28161610D01*
X77495220Y-27979219D01*
X77558477Y-27784534D01*
X77590500Y-27582352D01*
X77590500Y-27377648D01*
X77558477Y-27175466D01*
X77495220Y-26980781D01*
X77495218Y-26980778D01*
X77495218Y-26980776D01*
X77443865Y-26879991D01*
X77402287Y-26798390D01*
X77386892Y-26777200D01*
X77281971Y-26632786D01*
X77137213Y-26488028D01*
X76971613Y-26367715D01*
X76971612Y-26367714D01*
X76971610Y-26367713D01*
X76911898Y-26337288D01*
X76789223Y-26274781D01*
X76594534Y-26211522D01*
X76419995Y-26183878D01*
X76392352Y-26179500D01*
X76187648Y-26179500D01*
X76163329Y-26183351D01*
X75985465Y-26211522D01*
X75790776Y-26274781D01*
X75608386Y-26367715D01*
X75442786Y-26488028D01*
X75298028Y-26632786D01*
X75177715Y-26798386D01*
X75084781Y-26980776D01*
X75021522Y-27175465D01*
X74989500Y-27377648D01*
X74989500Y-27582351D01*
X75021522Y-27784534D01*
X75084781Y-27979223D01*
X75177715Y-28161613D01*
X75298028Y-28327213D01*
X75442786Y-28471971D01*
X75597749Y-28584556D01*
X75608390Y-28592287D01*
X75699840Y-28638883D01*
X75701080Y-28639515D01*
X75751876Y-28687490D01*
X75768671Y-28755311D01*
X75746134Y-28821446D01*
X75701080Y-28860485D01*
X75608386Y-28907715D01*
X75442786Y-29028028D01*
X75298028Y-29172786D01*
X75177715Y-29338386D01*
X75084781Y-29520776D01*
X75021522Y-29715465D01*
X74989500Y-29917648D01*
X74989500Y-30122351D01*
X75021522Y-30324534D01*
X75084781Y-30519223D01*
X75177715Y-30701613D01*
X75298028Y-30867213D01*
X75442786Y-31011971D01*
X75597749Y-31124556D01*
X75608390Y-31132287D01*
X75699840Y-31178883D01*
X75701080Y-31179515D01*
X75751876Y-31227490D01*
X75768671Y-31295311D01*
X75746134Y-31361446D01*
X75701080Y-31400485D01*
X75608386Y-31447715D01*
X75442786Y-31568028D01*
X75298028Y-31712786D01*
X75177715Y-31878386D01*
X75084781Y-32060776D01*
X75021522Y-32255465D01*
X74989500Y-32457648D01*
X74989500Y-32662351D01*
X75021522Y-32864534D01*
X75084781Y-33059223D01*
X75177715Y-33241613D01*
X75298028Y-33407213D01*
X75442786Y-33551971D01*
X75597749Y-33664556D01*
X75608390Y-33672287D01*
X75699840Y-33718883D01*
X75701080Y-33719515D01*
X75751876Y-33767490D01*
X75768671Y-33835311D01*
X75746134Y-33901446D01*
X75701080Y-33940485D01*
X75608386Y-33987715D01*
X75442786Y-34108028D01*
X75298028Y-34252786D01*
X75177715Y-34418386D01*
X75084781Y-34600776D01*
X75021522Y-34795465D01*
X74989500Y-34997648D01*
X74989500Y-35202351D01*
X75021522Y-35404534D01*
X75084781Y-35599223D01*
X75177715Y-35781613D01*
X75298028Y-35947213D01*
X75442786Y-36091971D01*
X75597749Y-36204556D01*
X75608390Y-36212287D01*
X75699840Y-36258883D01*
X75701080Y-36259515D01*
X75751876Y-36307490D01*
X75768671Y-36375311D01*
X75746134Y-36441446D01*
X75701080Y-36480485D01*
X75608386Y-36527715D01*
X75442786Y-36648028D01*
X75298028Y-36792786D01*
X75177715Y-36958386D01*
X75084781Y-37140776D01*
X75021522Y-37335465D01*
X74989500Y-37537648D01*
X74989500Y-37742351D01*
X75021522Y-37944534D01*
X75084781Y-38139223D01*
X75148691Y-38264653D01*
X75170448Y-38307352D01*
X75177715Y-38321613D01*
X75298028Y-38487213D01*
X75442786Y-38631971D01*
X75575502Y-38728393D01*
X75608390Y-38752287D01*
X75699840Y-38798883D01*
X75701080Y-38799515D01*
X75751876Y-38847490D01*
X75768671Y-38915311D01*
X75746134Y-38981446D01*
X75701080Y-39020485D01*
X75608386Y-39067715D01*
X75442786Y-39188028D01*
X75298028Y-39332786D01*
X75177715Y-39498386D01*
X75084781Y-39680776D01*
X75021522Y-39875465D01*
X74991791Y-40063182D01*
X74989500Y-40077648D01*
X74989500Y-40282352D01*
X74993008Y-40304500D01*
X75021522Y-40484534D01*
X75084781Y-40679223D01*
X75177715Y-40861613D01*
X75298028Y-41027213D01*
X75442786Y-41171971D01*
X75597749Y-41284556D01*
X75608390Y-41292287D01*
X75699840Y-41338883D01*
X75701080Y-41339515D01*
X75751876Y-41387490D01*
X75768671Y-41455311D01*
X75746134Y-41521446D01*
X75701080Y-41560485D01*
X75608386Y-41607715D01*
X75442786Y-41728028D01*
X75298028Y-41872786D01*
X75177715Y-42038386D01*
X75084781Y-42220776D01*
X75021522Y-42415465D01*
X74989500Y-42617648D01*
X74989500Y-42822351D01*
X75021522Y-43024534D01*
X75084781Y-43219223D01*
X75177715Y-43401613D01*
X75298028Y-43567213D01*
X75442786Y-43711971D01*
X75597749Y-43824556D01*
X75608390Y-43832287D01*
X75699840Y-43878883D01*
X75701080Y-43879515D01*
X75751876Y-43927490D01*
X75768671Y-43995311D01*
X75746134Y-44061446D01*
X75701080Y-44100485D01*
X75608386Y-44147715D01*
X75442786Y-44268028D01*
X75298028Y-44412786D01*
X75177715Y-44578386D01*
X75084781Y-44760776D01*
X75021522Y-44955465D01*
X74989500Y-45157648D01*
X74989500Y-45362351D01*
X75021522Y-45564534D01*
X75084781Y-45759223D01*
X75148691Y-45884653D01*
X75177356Y-45940910D01*
X75177715Y-45941613D01*
X75298028Y-46107213D01*
X75442786Y-46251971D01*
X75597749Y-46364556D01*
X75608390Y-46372287D01*
X75699840Y-46418883D01*
X75701080Y-46419515D01*
X75751876Y-46467490D01*
X75768671Y-46535311D01*
X75746134Y-46601446D01*
X75701080Y-46640485D01*
X75608386Y-46687715D01*
X75442786Y-46808028D01*
X75298028Y-46952786D01*
X75177715Y-47118386D01*
X75084781Y-47300776D01*
X75021522Y-47495465D01*
X74989500Y-47697648D01*
X74989500Y-47902351D01*
X75021522Y-48104534D01*
X75084781Y-48299223D01*
X75177715Y-48481613D01*
X75298028Y-48647213D01*
X75442786Y-48791971D01*
X75608385Y-48912284D01*
X75608387Y-48912285D01*
X75608390Y-48912287D01*
X75701080Y-48959515D01*
X75701630Y-48959795D01*
X75752426Y-49007770D01*
X75769221Y-49075591D01*
X75746684Y-49141725D01*
X75701630Y-49180765D01*
X75608644Y-49228143D01*
X75564077Y-49260523D01*
X75564077Y-49260524D01*
X76243554Y-49940000D01*
X76237339Y-49940000D01*
X76135606Y-49967259D01*
X76044394Y-50019920D01*
X75969920Y-50094394D01*
X75917259Y-50185606D01*
X75890000Y-50287339D01*
X75890000Y-50293553D01*
X75210524Y-49614077D01*
X75210523Y-49614077D01*
X75178143Y-49658644D01*
X75085244Y-49840968D01*
X75022009Y-50035582D01*
X74990000Y-50237682D01*
X74990000Y-50442317D01*
X75022009Y-50644417D01*
X75085244Y-50839031D01*
X75178141Y-51021350D01*
X75178147Y-51021359D01*
X75210523Y-51065921D01*
X75210524Y-51065922D01*
X75890000Y-50386446D01*
X75890000Y-50392661D01*
X75917259Y-50494394D01*
X75969920Y-50585606D01*
X76044394Y-50660080D01*
X76135606Y-50712741D01*
X76237339Y-50740000D01*
X76243553Y-50740000D01*
X75564076Y-51419474D01*
X75608652Y-51451861D01*
X75701628Y-51499234D01*
X75752425Y-51547208D01*
X75769220Y-51615029D01*
X75746683Y-51681164D01*
X75701630Y-51720203D01*
X75608388Y-51767713D01*
X75442786Y-51888028D01*
X75298028Y-52032786D01*
X75177715Y-52198386D01*
X75084781Y-52380776D01*
X75021522Y-52575465D01*
X74989500Y-52777648D01*
X74989500Y-52982351D01*
X75021522Y-53184534D01*
X75084781Y-53379223D01*
X75132807Y-53473477D01*
X75177585Y-53561359D01*
X75177715Y-53561613D01*
X75298028Y-53727213D01*
X75442786Y-53871971D01*
X75563226Y-53959474D01*
X75608390Y-53992287D01*
X75699840Y-54038883D01*
X75701080Y-54039515D01*
X75751876Y-54087490D01*
X75768671Y-54155311D01*
X75746134Y-54221446D01*
X75701080Y-54260485D01*
X75608386Y-54307715D01*
X75442786Y-54428028D01*
X75298028Y-54572786D01*
X75177715Y-54738386D01*
X75084781Y-54920776D01*
X75021522Y-55115465D01*
X74989500Y-55317648D01*
X74989500Y-55475548D01*
X74969815Y-55542587D01*
X74917011Y-55588342D01*
X74847853Y-55598286D01*
X74784297Y-55569261D01*
X74777819Y-55563229D01*
X70578150Y-51363560D01*
X70570860Y-51356270D01*
X70570858Y-51356267D01*
X70483733Y-51269142D01*
X70432509Y-51234915D01*
X70381286Y-51200688D01*
X70381283Y-51200686D01*
X70381280Y-51200685D01*
X70308177Y-51170405D01*
X70308170Y-51170403D01*
X70300792Y-51167347D01*
X70267452Y-51153537D01*
X70189405Y-51138013D01*
X70185303Y-51137197D01*
X70185288Y-51137193D01*
X70146611Y-51129500D01*
X70146607Y-51129500D01*
X70146606Y-51129500D01*
X62309664Y-51129500D01*
X62242625Y-51109815D01*
X62196870Y-51057011D01*
X62186926Y-50987853D01*
X62199179Y-50949205D01*
X62205642Y-50936522D01*
X62255220Y-50839219D01*
X62318477Y-50644534D01*
X62350500Y-50442352D01*
X62350500Y-50237648D01*
X62342257Y-50185606D01*
X62318477Y-50035465D01*
X62287458Y-49940000D01*
X62255220Y-49840781D01*
X62255218Y-49840778D01*
X62255218Y-49840776D01*
X62162419Y-49658650D01*
X62162287Y-49658390D01*
X62130092Y-49614077D01*
X62041971Y-49492786D01*
X61897213Y-49348028D01*
X61731614Y-49227715D01*
X61725006Y-49224348D01*
X61638917Y-49180483D01*
X61588123Y-49132511D01*
X61571328Y-49064690D01*
X61593865Y-48998555D01*
X61638917Y-48959516D01*
X61731610Y-48912287D01*
X61752770Y-48896913D01*
X61897213Y-48791971D01*
X61897215Y-48791968D01*
X61897219Y-48791966D01*
X62041966Y-48647219D01*
X62041968Y-48647215D01*
X62041971Y-48647213D01*
X62094732Y-48574590D01*
X62162287Y-48481610D01*
X62255220Y-48299219D01*
X62318477Y-48104534D01*
X62350500Y-47902352D01*
X62350500Y-47697648D01*
X62318477Y-47495466D01*
X62316913Y-47490654D01*
X62289127Y-47405137D01*
X62255220Y-47300781D01*
X62255218Y-47300778D01*
X62255218Y-47300776D01*
X62221503Y-47234607D01*
X62162287Y-47118390D01*
X62083698Y-47010220D01*
X62041971Y-46952786D01*
X61897213Y-46808028D01*
X61731614Y-46687715D01*
X61725006Y-46684348D01*
X61638917Y-46640483D01*
X61588123Y-46592511D01*
X61571328Y-46524690D01*
X61593865Y-46458555D01*
X61638917Y-46419516D01*
X61731610Y-46372287D01*
X61825293Y-46304223D01*
X61897213Y-46251971D01*
X61897215Y-46251968D01*
X61897219Y-46251966D01*
X62041966Y-46107219D01*
X62041968Y-46107215D01*
X62041971Y-46107213D01*
X62136408Y-45977229D01*
X62162287Y-45941610D01*
X62255220Y-45759219D01*
X62318477Y-45564534D01*
X62350500Y-45362352D01*
X62350500Y-45157648D01*
X62345073Y-45123386D01*
X62318477Y-44955465D01*
X62255218Y-44760776D01*
X62220538Y-44692713D01*
X62162287Y-44578390D01*
X62131869Y-44536523D01*
X62041971Y-44412786D01*
X61897213Y-44268028D01*
X61731614Y-44147715D01*
X61725006Y-44144348D01*
X61638917Y-44100483D01*
X61588123Y-44052511D01*
X61571328Y-43984690D01*
X61593865Y-43918555D01*
X61638917Y-43879516D01*
X61731610Y-43832287D01*
X61752770Y-43816913D01*
X61897213Y-43711971D01*
X61897215Y-43711968D01*
X61897219Y-43711966D01*
X62041966Y-43567219D01*
X62041968Y-43567215D01*
X62041971Y-43567213D01*
X62094732Y-43494590D01*
X62162287Y-43401610D01*
X62255220Y-43219219D01*
X62318477Y-43024534D01*
X62350500Y-42822352D01*
X62350500Y-42617648D01*
X62324297Y-42452213D01*
X62318477Y-42415465D01*
X62276609Y-42286610D01*
X62255220Y-42220781D01*
X62255218Y-42220778D01*
X62255218Y-42220776D01*
X62209434Y-42130921D01*
X62162287Y-42038390D01*
X62134135Y-41999642D01*
X62041971Y-41872786D01*
X61897213Y-41728028D01*
X61731614Y-41607715D01*
X61725006Y-41604348D01*
X61638917Y-41560483D01*
X61588123Y-41512511D01*
X61571328Y-41444690D01*
X61593865Y-41378555D01*
X61638917Y-41339516D01*
X61731610Y-41292287D01*
X61787823Y-41251446D01*
X61897213Y-41171971D01*
X61897215Y-41171968D01*
X61897219Y-41171966D01*
X62041966Y-41027219D01*
X62041968Y-41027215D01*
X62041971Y-41027213D01*
X62112603Y-40929995D01*
X62162287Y-40861610D01*
X62255220Y-40679219D01*
X62318477Y-40484534D01*
X62350500Y-40282352D01*
X62350500Y-40077648D01*
X62348209Y-40063182D01*
X62318477Y-39875465D01*
X62255218Y-39680776D01*
X62221503Y-39614607D01*
X62162287Y-39498390D01*
X62144187Y-39473477D01*
X62041971Y-39332786D01*
X61897213Y-39188028D01*
X61731614Y-39067715D01*
X61701201Y-39052219D01*
X61638917Y-39020483D01*
X61588123Y-38972511D01*
X61571328Y-38904690D01*
X61593865Y-38838555D01*
X61638917Y-38799516D01*
X61731610Y-38752287D01*
X61797769Y-38704220D01*
X61897213Y-38631971D01*
X61897220Y-38631965D01*
X61921638Y-38607547D01*
X62041966Y-38487219D01*
X62041968Y-38487215D01*
X62041971Y-38487213D01*
X62111676Y-38391270D01*
X62162287Y-38321610D01*
X62255220Y-38139219D01*
X62318477Y-37944534D01*
X62350500Y-37742352D01*
X62350500Y-37537648D01*
X62322012Y-37357786D01*
X62318477Y-37335465D01*
X62255218Y-37140776D01*
X62221503Y-37074607D01*
X62162287Y-36958390D01*
X62123134Y-36904500D01*
X62041971Y-36792786D01*
X61897213Y-36648028D01*
X61731614Y-36527715D01*
X61725006Y-36524348D01*
X61638917Y-36480483D01*
X61588123Y-36432511D01*
X61571328Y-36364690D01*
X61593865Y-36298555D01*
X61638917Y-36259516D01*
X61731610Y-36212287D01*
X61752770Y-36196913D01*
X61897213Y-36091971D01*
X61897215Y-36091968D01*
X61897219Y-36091966D01*
X62041966Y-35947219D01*
X62041968Y-35947215D01*
X62041971Y-35947213D01*
X62094732Y-35874590D01*
X62162287Y-35781610D01*
X62255220Y-35599219D01*
X62318477Y-35404534D01*
X62350500Y-35202352D01*
X62350500Y-34997648D01*
X62318477Y-34795466D01*
X62255220Y-34600781D01*
X62255218Y-34600778D01*
X62255218Y-34600776D01*
X62221503Y-34534607D01*
X62162287Y-34418390D01*
X62154556Y-34407749D01*
X62041971Y-34252786D01*
X61897213Y-34108028D01*
X61731614Y-33987715D01*
X61725006Y-33984348D01*
X61638917Y-33940483D01*
X61588123Y-33892511D01*
X61571328Y-33824690D01*
X61593865Y-33758555D01*
X61638917Y-33719516D01*
X61731610Y-33672287D01*
X61752770Y-33656913D01*
X61897213Y-33551971D01*
X61897215Y-33551968D01*
X61897219Y-33551966D01*
X62041966Y-33407219D01*
X62041968Y-33407215D01*
X62041971Y-33407213D01*
X62094732Y-33334590D01*
X62162287Y-33241610D01*
X62255220Y-33059219D01*
X62318477Y-32864534D01*
X62350500Y-32662352D01*
X62350500Y-32457648D01*
X62318477Y-32255466D01*
X62255220Y-32060781D01*
X62255218Y-32060778D01*
X62255218Y-32060776D01*
X62221503Y-31994607D01*
X62162287Y-31878390D01*
X62154556Y-31867749D01*
X62041971Y-31712786D01*
X61897213Y-31568028D01*
X61731614Y-31447715D01*
X61725006Y-31444348D01*
X61638917Y-31400483D01*
X61588123Y-31352511D01*
X61571328Y-31284690D01*
X61593865Y-31218555D01*
X61638917Y-31179516D01*
X61731610Y-31132287D01*
X61775410Y-31100465D01*
X61897213Y-31011971D01*
X61897215Y-31011968D01*
X61897219Y-31011966D01*
X62041966Y-30867219D01*
X62041968Y-30867215D01*
X62041971Y-30867213D01*
X62094732Y-30794590D01*
X62162287Y-30701610D01*
X62255220Y-30519219D01*
X62318477Y-30324534D01*
X62350500Y-30122352D01*
X62350500Y-29917648D01*
X62318477Y-29715466D01*
X62255220Y-29520781D01*
X62255218Y-29520778D01*
X62255218Y-29520776D01*
X62221503Y-29454607D01*
X62162287Y-29338390D01*
X62154556Y-29327749D01*
X62041971Y-29172786D01*
X61897219Y-29028034D01*
X61812452Y-28966448D01*
X61803547Y-28959978D01*
X61760882Y-28904649D01*
X61754903Y-28835036D01*
X61787508Y-28773240D01*
X61837426Y-28741955D01*
X61919334Y-28714814D01*
X62068656Y-28622712D01*
X62192712Y-28498656D01*
X62284814Y-28349334D01*
X62339999Y-28182797D01*
X62350500Y-28080009D01*
X62350499Y-26879992D01*
X62339999Y-26777203D01*
X62284814Y-26610666D01*
X62192712Y-26461344D01*
X62068656Y-26337288D01*
X61919334Y-26245186D01*
X61752797Y-26190001D01*
X61752795Y-26190000D01*
X61650010Y-26179500D01*
X60449998Y-26179500D01*
X60449981Y-26179501D01*
X60347203Y-26190000D01*
X60347200Y-26190001D01*
X60180668Y-26245185D01*
X60180663Y-26245187D01*
X60031342Y-26337289D01*
X59907289Y-26461342D01*
X59815187Y-26610663D01*
X59815186Y-26610666D01*
X59760001Y-26777203D01*
X59760001Y-26777204D01*
X59760000Y-26777204D01*
X59749500Y-26879983D01*
X59749500Y-28080001D01*
X59749501Y-28080018D01*
X59760000Y-28182796D01*
X59760001Y-28182799D01*
X59785744Y-28260485D01*
X59815186Y-28349334D01*
X59907288Y-28498656D01*
X60031344Y-28622712D01*
X60180666Y-28714814D01*
X60262570Y-28741954D01*
X60320015Y-28781727D01*
X60346838Y-28846243D01*
X60334523Y-28915018D01*
X60296451Y-28959978D01*
X60202787Y-29028028D01*
X60202782Y-29028032D01*
X60058028Y-29172786D01*
X59937715Y-29338386D01*
X59844781Y-29520776D01*
X59781522Y-29715465D01*
X59749500Y-29917648D01*
X59749500Y-30122351D01*
X59781522Y-30324534D01*
X59844781Y-30519223D01*
X59937715Y-30701613D01*
X60058028Y-30867213D01*
X60202786Y-31011971D01*
X60357749Y-31124556D01*
X60368390Y-31132287D01*
X60459840Y-31178883D01*
X60461080Y-31179515D01*
X60511876Y-31227490D01*
X60528671Y-31295311D01*
X60506134Y-31361446D01*
X60461080Y-31400485D01*
X60368386Y-31447715D01*
X60202786Y-31568028D01*
X60058028Y-31712786D01*
X59937715Y-31878386D01*
X59844781Y-32060776D01*
X59781522Y-32255465D01*
X59749500Y-32457648D01*
X59749500Y-32662351D01*
X59781522Y-32864534D01*
X59844781Y-33059223D01*
X59937715Y-33241613D01*
X60058028Y-33407213D01*
X60202786Y-33551971D01*
X60357749Y-33664556D01*
X60368390Y-33672287D01*
X60459840Y-33718883D01*
X60461080Y-33719515D01*
X60511876Y-33767490D01*
X60528671Y-33835311D01*
X60506134Y-33901446D01*
X60461080Y-33940485D01*
X60368386Y-33987715D01*
X60202786Y-34108028D01*
X60058028Y-34252786D01*
X59937715Y-34418386D01*
X59844781Y-34600776D01*
X59781522Y-34795465D01*
X59749500Y-34997648D01*
X59749500Y-35202351D01*
X59781522Y-35404534D01*
X59844781Y-35599223D01*
X59937715Y-35781613D01*
X60058028Y-35947213D01*
X60202786Y-36091971D01*
X60357749Y-36204556D01*
X60368390Y-36212287D01*
X60459840Y-36258883D01*
X60461080Y-36259515D01*
X60511876Y-36307490D01*
X60528671Y-36375311D01*
X60506134Y-36441446D01*
X60461080Y-36480485D01*
X60368386Y-36527715D01*
X60202786Y-36648028D01*
X60058028Y-36792786D01*
X59937715Y-36958386D01*
X59844781Y-37140776D01*
X59781522Y-37335465D01*
X59749500Y-37537648D01*
X59749500Y-37742351D01*
X59781522Y-37944534D01*
X59844781Y-38139223D01*
X59908691Y-38264653D01*
X59930448Y-38307352D01*
X59937715Y-38321613D01*
X60058028Y-38487213D01*
X60202786Y-38631971D01*
X60335502Y-38728393D01*
X60368390Y-38752287D01*
X60459840Y-38798883D01*
X60461080Y-38799515D01*
X60511876Y-38847490D01*
X60528671Y-38915311D01*
X60506134Y-38981446D01*
X60461080Y-39020485D01*
X60368386Y-39067715D01*
X60202786Y-39188028D01*
X60058028Y-39332786D01*
X59937715Y-39498386D01*
X59844781Y-39680776D01*
X59781522Y-39875465D01*
X59751791Y-40063182D01*
X59749500Y-40077648D01*
X59749500Y-40282352D01*
X59753008Y-40304500D01*
X59781522Y-40484534D01*
X59844781Y-40679223D01*
X59937715Y-40861613D01*
X60058028Y-41027213D01*
X60202786Y-41171971D01*
X60357749Y-41284556D01*
X60368390Y-41292287D01*
X60459840Y-41338883D01*
X60461080Y-41339515D01*
X60511876Y-41387490D01*
X60528671Y-41455311D01*
X60506134Y-41521446D01*
X60461080Y-41560485D01*
X60368386Y-41607715D01*
X60202786Y-41728028D01*
X60058028Y-41872786D01*
X59937715Y-42038386D01*
X59844781Y-42220776D01*
X59781522Y-42415465D01*
X59749500Y-42617648D01*
X59749500Y-42822351D01*
X59781522Y-43024534D01*
X59844781Y-43219223D01*
X59937715Y-43401613D01*
X60058028Y-43567213D01*
X60202786Y-43711971D01*
X60357749Y-43824556D01*
X60368390Y-43832287D01*
X60459840Y-43878883D01*
X60461080Y-43879515D01*
X60511876Y-43927490D01*
X60528671Y-43995311D01*
X60506134Y-44061446D01*
X60461080Y-44100485D01*
X60368386Y-44147715D01*
X60202786Y-44268028D01*
X60058028Y-44412786D01*
X59937715Y-44578386D01*
X59844781Y-44760776D01*
X59781522Y-44955465D01*
X59749500Y-45157648D01*
X59749500Y-45315547D01*
X59729815Y-45382586D01*
X59677011Y-45428341D01*
X59607853Y-45438285D01*
X59544297Y-45409260D01*
X59537819Y-45403228D01*
X56960357Y-42825766D01*
X56926872Y-42764443D01*
X56931856Y-42694751D01*
X56973728Y-42638818D01*
X57039192Y-42614401D01*
X57086353Y-42620153D01*
X57200675Y-42657299D01*
X57250465Y-42673477D01*
X57319897Y-42684474D01*
X57452648Y-42705500D01*
X57452649Y-42705500D01*
X57657351Y-42705500D01*
X57657352Y-42705500D01*
X57859534Y-42673477D01*
X58054219Y-42610220D01*
X58236610Y-42517287D01*
X58371000Y-42419648D01*
X58402213Y-42396971D01*
X58402215Y-42396968D01*
X58402219Y-42396966D01*
X58546966Y-42252219D01*
X58546968Y-42252215D01*
X58546971Y-42252213D01*
X58599732Y-42179590D01*
X58667287Y-42086610D01*
X58760220Y-41904219D01*
X58823477Y-41709534D01*
X58855500Y-41507352D01*
X58855500Y-41302648D01*
X58840034Y-41205000D01*
X58823477Y-41100465D01*
X58787732Y-40990453D01*
X58760220Y-40905781D01*
X58760218Y-40905778D01*
X58760218Y-40905776D01*
X58701407Y-40790354D01*
X58667287Y-40723390D01*
X58635092Y-40679077D01*
X58546971Y-40557786D01*
X58402213Y-40413028D01*
X58236613Y-40292715D01*
X58236612Y-40292714D01*
X58236610Y-40292713D01*
X58179653Y-40263691D01*
X58054223Y-40199781D01*
X57859534Y-40136522D01*
X57684995Y-40108878D01*
X57657352Y-40104500D01*
X57452648Y-40104500D01*
X57428329Y-40108351D01*
X57250465Y-40136522D01*
X57055776Y-40199781D01*
X56873386Y-40292715D01*
X56707786Y-40413028D01*
X56563028Y-40557786D01*
X56442715Y-40723386D01*
X56349781Y-40905776D01*
X56286522Y-41100465D01*
X56256141Y-41292287D01*
X56254500Y-41302648D01*
X56254500Y-41507352D01*
X56256732Y-41521446D01*
X56286523Y-41709535D01*
X56286523Y-41709538D01*
X56339845Y-41873643D01*
X56341840Y-41943484D01*
X56305760Y-42003317D01*
X56243059Y-42034145D01*
X56173645Y-42026180D01*
X56134233Y-41999642D01*
X40643150Y-26508560D01*
X40635860Y-26501270D01*
X40635858Y-26501267D01*
X40548733Y-26414142D01*
X40497509Y-26379915D01*
X40478428Y-26367165D01*
X40433624Y-26313553D01*
X40424917Y-26244228D01*
X40455072Y-26181201D01*
X40474435Y-26163746D01*
X40524104Y-26127658D01*
X40524105Y-26127658D01*
X39825233Y-25428787D01*
X39867292Y-25417518D01*
X39992708Y-25345110D01*
X40095110Y-25242708D01*
X40167518Y-25117292D01*
X40178787Y-25075233D01*
X40877658Y-25774105D01*
X40877658Y-25774104D01*
X40937914Y-25691169D01*
X40937918Y-25691163D01*
X41045102Y-25480802D01*
X41118065Y-25256247D01*
X41155000Y-25023052D01*
X41155000Y-24786947D01*
X41118065Y-24553754D01*
X41112328Y-24536095D01*
X41112327Y-24536093D01*
X41101460Y-24502648D01*
X79544500Y-24502648D01*
X79544500Y-24707351D01*
X79576522Y-24909534D01*
X79639781Y-25104223D01*
X79732715Y-25286613D01*
X79853028Y-25452213D01*
X79997786Y-25596971D01*
X80127433Y-25691163D01*
X80163390Y-25717287D01*
X80279607Y-25776503D01*
X80345776Y-25810218D01*
X80345778Y-25810218D01*
X80345781Y-25810220D01*
X80450137Y-25844127D01*
X80540465Y-25873477D01*
X80641557Y-25889488D01*
X80742648Y-25905500D01*
X80742649Y-25905500D01*
X80947351Y-25905500D01*
X80947352Y-25905500D01*
X81149534Y-25873477D01*
X81344219Y-25810220D01*
X81526610Y-25717287D01*
X81619590Y-25649732D01*
X81692213Y-25596971D01*
X81692215Y-25596968D01*
X81692219Y-25596966D01*
X81836966Y-25452219D01*
X81836968Y-25452215D01*
X81836971Y-25452213D01*
X81889732Y-25379590D01*
X81957287Y-25286610D01*
X82050220Y-25104219D01*
X82113477Y-24909534D01*
X82145500Y-24707352D01*
X82145500Y-24502648D01*
X87164500Y-24502648D01*
X87164500Y-24707351D01*
X87196522Y-24909534D01*
X87259781Y-25104223D01*
X87352715Y-25286613D01*
X87473028Y-25452213D01*
X87617786Y-25596971D01*
X87747433Y-25691163D01*
X87783390Y-25717287D01*
X87899607Y-25776503D01*
X87965776Y-25810218D01*
X87965778Y-25810218D01*
X87965781Y-25810220D01*
X88070137Y-25844127D01*
X88160465Y-25873477D01*
X88261557Y-25889488D01*
X88362648Y-25905500D01*
X88362649Y-25905500D01*
X88567351Y-25905500D01*
X88567352Y-25905500D01*
X88769534Y-25873477D01*
X88964219Y-25810220D01*
X89146610Y-25717287D01*
X89239590Y-25649732D01*
X89312213Y-25596971D01*
X89312215Y-25596968D01*
X89312219Y-25596966D01*
X89456966Y-25452219D01*
X89456968Y-25452215D01*
X89456971Y-25452213D01*
X89509732Y-25379590D01*
X89577287Y-25286610D01*
X89670220Y-25104219D01*
X89733477Y-24909534D01*
X89765500Y-24707352D01*
X89765500Y-24502648D01*
X89748051Y-24392482D01*
X89733477Y-24300465D01*
X89670218Y-24105776D01*
X89634610Y-24035893D01*
X89577287Y-23923390D01*
X89569556Y-23912749D01*
X89456971Y-23757786D01*
X89312213Y-23613028D01*
X89146613Y-23492715D01*
X89146612Y-23492714D01*
X89146610Y-23492713D01*
X89046951Y-23441934D01*
X88964223Y-23399781D01*
X88769534Y-23336522D01*
X88594995Y-23308878D01*
X88567352Y-23304500D01*
X88362648Y-23304500D01*
X88338329Y-23308351D01*
X88160465Y-23336522D01*
X87965776Y-23399781D01*
X87783386Y-23492715D01*
X87617786Y-23613028D01*
X87473028Y-23757786D01*
X87352715Y-23923386D01*
X87259781Y-24105776D01*
X87196522Y-24300465D01*
X87164500Y-24502648D01*
X82145500Y-24502648D01*
X82128051Y-24392482D01*
X82113477Y-24300465D01*
X82050218Y-24105776D01*
X82014610Y-24035893D01*
X81957287Y-23923390D01*
X81949556Y-23912749D01*
X81836971Y-23757786D01*
X81692213Y-23613028D01*
X81526613Y-23492715D01*
X81526612Y-23492714D01*
X81526610Y-23492713D01*
X81426951Y-23441934D01*
X81344223Y-23399781D01*
X81149534Y-23336522D01*
X80974995Y-23308878D01*
X80947352Y-23304500D01*
X80742648Y-23304500D01*
X80718329Y-23308351D01*
X80540465Y-23336522D01*
X80345776Y-23399781D01*
X80163386Y-23492715D01*
X79997786Y-23613028D01*
X79853028Y-23757786D01*
X79732715Y-23923386D01*
X79639781Y-24105776D01*
X79576522Y-24300465D01*
X79544500Y-24502648D01*
X41101460Y-24502648D01*
X41045102Y-24329197D01*
X40937914Y-24118828D01*
X40877658Y-24035894D01*
X40877658Y-24035893D01*
X40178787Y-24734765D01*
X40167518Y-24692708D01*
X40095110Y-24567292D01*
X39992708Y-24464890D01*
X39867292Y-24392482D01*
X39825234Y-24381212D01*
X40524105Y-23682340D01*
X40524104Y-23682338D01*
X40441174Y-23622087D01*
X40230802Y-23514897D01*
X40006247Y-23441934D01*
X40006248Y-23441934D01*
X39773052Y-23405000D01*
X39536948Y-23405000D01*
X39303752Y-23441934D01*
X39079197Y-23514897D01*
X38868830Y-23622084D01*
X38785894Y-23682340D01*
X39484766Y-24381212D01*
X39442708Y-24392482D01*
X39317292Y-24464890D01*
X39214890Y-24567292D01*
X39142482Y-24692708D01*
X39131212Y-24734766D01*
X38432340Y-24035894D01*
X38372084Y-24118830D01*
X38264897Y-24329197D01*
X38191934Y-24553752D01*
X38155000Y-24786947D01*
X38155000Y-25023052D01*
X38191934Y-25256247D01*
X38264897Y-25480802D01*
X38372087Y-25691174D01*
X38432338Y-25774104D01*
X38432340Y-25774105D01*
X39131212Y-25075233D01*
X39142482Y-25117292D01*
X39214890Y-25242708D01*
X39317292Y-25345110D01*
X39442708Y-25417518D01*
X39484766Y-25428787D01*
X38785894Y-26127658D01*
X38786926Y-26140771D01*
X38772562Y-26209148D01*
X38723510Y-26258905D01*
X38663308Y-26274500D01*
X36238389Y-26274500D01*
X36117555Y-26298535D01*
X36117545Y-26298538D01*
X36003716Y-26345687D01*
X36003707Y-26345692D01*
X35901267Y-26414141D01*
X35901263Y-26414144D01*
X35814144Y-26501263D01*
X35814141Y-26501267D01*
X35745692Y-26603707D01*
X35745687Y-26603716D01*
X35698538Y-26717545D01*
X35698535Y-26717555D01*
X35674500Y-26838389D01*
X35674500Y-26961610D01*
X35698535Y-27082444D01*
X35698538Y-27082454D01*
X35745687Y-27196283D01*
X35745692Y-27196292D01*
X35814141Y-27298732D01*
X35814144Y-27298736D01*
X35901263Y-27385855D01*
X35901267Y-27385858D01*
X36003707Y-27454307D01*
X36003713Y-27454310D01*
X36003714Y-27454311D01*
X36117548Y-27501463D01*
X36238389Y-27525499D01*
X36238393Y-27525500D01*
X36238394Y-27525500D01*
X39839548Y-27525500D01*
X39906587Y-27545185D01*
X39927229Y-27561819D01*
X40093551Y-27728141D01*
X40127036Y-27789464D01*
X40122052Y-27859156D01*
X40080180Y-27915089D01*
X40014716Y-27939506D01*
X39986472Y-27938295D01*
X39773097Y-27904500D01*
X39773092Y-27904500D01*
X39536908Y-27904500D01*
X39536903Y-27904500D01*
X39303631Y-27941446D01*
X39079003Y-28014433D01*
X38868566Y-28121657D01*
X38759550Y-28200862D01*
X38677490Y-28260483D01*
X38677488Y-28260485D01*
X38677487Y-28260485D01*
X38510485Y-28427487D01*
X38510485Y-28427488D01*
X38510483Y-28427490D01*
X38492903Y-28451687D01*
X38371657Y-28618566D01*
X38264433Y-28829003D01*
X38191446Y-29053631D01*
X38154500Y-29286902D01*
X38154500Y-29523097D01*
X38191446Y-29756368D01*
X38264433Y-29980996D01*
X38327362Y-30104500D01*
X38371657Y-30191433D01*
X38510483Y-30382510D01*
X38677490Y-30549517D01*
X38868567Y-30688343D01*
X38937343Y-30723386D01*
X39079003Y-30795566D01*
X39079005Y-30795566D01*
X39079008Y-30795568D01*
X39199412Y-30834689D01*
X39303631Y-30868553D01*
X39536903Y-30905500D01*
X39536908Y-30905500D01*
X39773097Y-30905500D01*
X40006368Y-30868553D01*
X40010492Y-30867213D01*
X40230992Y-30795568D01*
X40441433Y-30688343D01*
X40632510Y-30549517D01*
X40799517Y-30382510D01*
X40938343Y-30191433D01*
X41045568Y-29980992D01*
X41118553Y-29756368D01*
X41125031Y-29715465D01*
X41155500Y-29523097D01*
X41155500Y-29286902D01*
X41121704Y-29073527D01*
X41130658Y-29004234D01*
X41175655Y-28950782D01*
X41242406Y-28930142D01*
X41309720Y-28948867D01*
X41331858Y-28966448D01*
X52297576Y-39932167D01*
X52331061Y-39993490D01*
X52326077Y-40063182D01*
X52284205Y-40119115D01*
X52248214Y-40137779D01*
X52055968Y-40200244D01*
X51873644Y-40293143D01*
X51829077Y-40325523D01*
X51829077Y-40325524D01*
X52508554Y-41005000D01*
X52502339Y-41005000D01*
X52400606Y-41032259D01*
X52309394Y-41084920D01*
X52234920Y-41159394D01*
X52182259Y-41250606D01*
X52155000Y-41352339D01*
X52155000Y-41358553D01*
X51475524Y-40679077D01*
X51475523Y-40679077D01*
X51443143Y-40723644D01*
X51350244Y-40905968D01*
X51287009Y-41100582D01*
X51255000Y-41302682D01*
X51255000Y-41507317D01*
X51287009Y-41709417D01*
X51350244Y-41904031D01*
X51443141Y-42086350D01*
X51443147Y-42086359D01*
X51475523Y-42130921D01*
X51475524Y-42130922D01*
X52155000Y-41451446D01*
X52155000Y-41457661D01*
X52182259Y-41559394D01*
X52234920Y-41650606D01*
X52309394Y-41725080D01*
X52400606Y-41777741D01*
X52502339Y-41805000D01*
X52508553Y-41805000D01*
X51829076Y-42484474D01*
X51873650Y-42516859D01*
X52055968Y-42609755D01*
X52250582Y-42672990D01*
X52452683Y-42705000D01*
X52657317Y-42705000D01*
X52859417Y-42672990D01*
X53054031Y-42609755D01*
X53236349Y-42516859D01*
X53280921Y-42484474D01*
X52601447Y-41805000D01*
X52607661Y-41805000D01*
X52709394Y-41777741D01*
X52800606Y-41725080D01*
X52875080Y-41650606D01*
X52927741Y-41559394D01*
X52955000Y-41457661D01*
X52955000Y-41451446D01*
X53634474Y-42130921D01*
X53666859Y-42086349D01*
X53759755Y-41904029D01*
X53822220Y-41711785D01*
X53861658Y-41654109D01*
X53926016Y-41626911D01*
X53994862Y-41638826D01*
X54027829Y-41662420D01*
X56901931Y-44536522D01*
X59747781Y-47382372D01*
X59781266Y-47443695D01*
X59780780Y-47490415D01*
X59782285Y-47490654D01*
X59749500Y-47697648D01*
X59749500Y-47902351D01*
X59781522Y-48104534D01*
X59844781Y-48299223D01*
X59937715Y-48481613D01*
X60058028Y-48647213D01*
X60202786Y-48791971D01*
X60357749Y-48904556D01*
X60368390Y-48912287D01*
X60459840Y-48958883D01*
X60461080Y-48959515D01*
X60511876Y-49007490D01*
X60528671Y-49075311D01*
X60506134Y-49141446D01*
X60461080Y-49180485D01*
X60368386Y-49227715D01*
X60202786Y-49348028D01*
X60058028Y-49492786D01*
X59937715Y-49658386D01*
X59844781Y-49840776D01*
X59781522Y-50035465D01*
X59749500Y-50237648D01*
X59749500Y-50442351D01*
X59781522Y-50644534D01*
X59844781Y-50839223D01*
X59878042Y-50904500D01*
X59894358Y-50936522D01*
X59900821Y-50949205D01*
X59913717Y-51017874D01*
X59887441Y-51082614D01*
X59830335Y-51122872D01*
X59790336Y-51129500D01*
X49832774Y-51129500D01*
X49709560Y-51129500D01*
X49666762Y-51138013D01*
X49666761Y-51138012D01*
X49588721Y-51153535D01*
X49588708Y-51153539D01*
X49556429Y-51166909D01*
X49541564Y-51173067D01*
X49519336Y-51182274D01*
X49474880Y-51200688D01*
X49464724Y-51207475D01*
X49464616Y-51207547D01*
X49372435Y-51269140D01*
X49328872Y-51312703D01*
X49285309Y-51356267D01*
X49285306Y-51356270D01*
X43011681Y-57629894D01*
X42950358Y-57663379D01*
X42880666Y-57658395D01*
X42824733Y-57616523D01*
X42800316Y-57551059D01*
X42800000Y-57542213D01*
X42800000Y-57481947D01*
X42763065Y-57248752D01*
X42690102Y-57024197D01*
X42582914Y-56813828D01*
X42522658Y-56730894D01*
X42522658Y-56730893D01*
X41823787Y-57429765D01*
X41812518Y-57387708D01*
X41740110Y-57262292D01*
X41637708Y-57159890D01*
X41512292Y-57087482D01*
X41470234Y-57076212D01*
X42169105Y-56377340D01*
X42169104Y-56377338D01*
X42086174Y-56317087D01*
X41875802Y-56209897D01*
X41651247Y-56136934D01*
X41651248Y-56136934D01*
X41418052Y-56100000D01*
X41181948Y-56100000D01*
X40948752Y-56136934D01*
X40724197Y-56209897D01*
X40513830Y-56317084D01*
X40430894Y-56377340D01*
X41129766Y-57076212D01*
X41087708Y-57087482D01*
X40962292Y-57159890D01*
X40859890Y-57262292D01*
X40787482Y-57387708D01*
X40776212Y-57429766D01*
X40077340Y-56730894D01*
X40017084Y-56813830D01*
X39909897Y-57024197D01*
X39836934Y-57248752D01*
X39800000Y-57481947D01*
X39800000Y-57718052D01*
X39836934Y-57951247D01*
X39909897Y-58175802D01*
X40017087Y-58386174D01*
X40077338Y-58469104D01*
X40077340Y-58469105D01*
X40776212Y-57770233D01*
X40787482Y-57812292D01*
X40859890Y-57937708D01*
X40962292Y-58040110D01*
X41087708Y-58112518D01*
X41129765Y-58123787D01*
X40430893Y-58822658D01*
X40513828Y-58882914D01*
X40724197Y-58990102D01*
X40948752Y-59063065D01*
X40948751Y-59063065D01*
X41181948Y-59100000D01*
X41242213Y-59100000D01*
X41309252Y-59119685D01*
X41355007Y-59172489D01*
X41364951Y-59241647D01*
X41335926Y-59305203D01*
X41329894Y-59311681D01*
X38762181Y-61879394D01*
X38700858Y-61912879D01*
X38631166Y-61907895D01*
X38575233Y-61866023D01*
X38550816Y-61800559D01*
X38550500Y-61791713D01*
X38550500Y-61731902D01*
X38513553Y-61498631D01*
X38464354Y-61347213D01*
X38440568Y-61274008D01*
X38440566Y-61274005D01*
X38440566Y-61274003D01*
X38333342Y-61063566D01*
X38194517Y-60872490D01*
X38027510Y-60705483D01*
X37836433Y-60566657D01*
X37625996Y-60459433D01*
X37401368Y-60386446D01*
X37168097Y-60349500D01*
X37168092Y-60349500D01*
X36931908Y-60349500D01*
X36931903Y-60349500D01*
X36698631Y-60386446D01*
X36474003Y-60459433D01*
X36263566Y-60566657D01*
X36154550Y-60645862D01*
X36072490Y-60705483D01*
X36072488Y-60705485D01*
X36072487Y-60705485D01*
X35905485Y-60872487D01*
X35905485Y-60872488D01*
X35905483Y-60872490D01*
X35845862Y-60954550D01*
X35766657Y-61063566D01*
X35659433Y-61274003D01*
X35586446Y-61498631D01*
X35549500Y-61731902D01*
X35549500Y-61968097D01*
X35586446Y-62201368D01*
X35659433Y-62425996D01*
X35719641Y-62544159D01*
X35766657Y-62636433D01*
X35905483Y-62827510D01*
X36072490Y-62994517D01*
X36263567Y-63133343D01*
X36310301Y-63157155D01*
X36474003Y-63240566D01*
X36474005Y-63240566D01*
X36474008Y-63240568D01*
X36594412Y-63279689D01*
X36698631Y-63313553D01*
X36931903Y-63350500D01*
X36991714Y-63350500D01*
X37058753Y-63370185D01*
X37104508Y-63422989D01*
X37114452Y-63492147D01*
X37085427Y-63555703D01*
X37079395Y-63562181D01*
X32084151Y-68557424D01*
X32084143Y-68557432D01*
X32081270Y-68560306D01*
X32081267Y-68560309D01*
X31994142Y-68647434D01*
X31963004Y-68694035D01*
X31925688Y-68749881D01*
X31925684Y-68749887D01*
X31896042Y-68821451D01*
X31896040Y-68821456D01*
X31892347Y-68830374D01*
X31878537Y-68863715D01*
X31854500Y-68984561D01*
X28200500Y-68984561D01*
X28200500Y-61731902D01*
X29049500Y-61731902D01*
X29049500Y-61968097D01*
X29086446Y-62201368D01*
X29159433Y-62425996D01*
X29219641Y-62544159D01*
X29266657Y-62636433D01*
X29405483Y-62827510D01*
X29572490Y-62994517D01*
X29763567Y-63133343D01*
X29810301Y-63157155D01*
X29974003Y-63240566D01*
X29974005Y-63240566D01*
X29974008Y-63240568D01*
X30094412Y-63279689D01*
X30198631Y-63313553D01*
X30431903Y-63350500D01*
X30431908Y-63350500D01*
X30668097Y-63350500D01*
X30901368Y-63313553D01*
X31125992Y-63240568D01*
X31336433Y-63133343D01*
X31527510Y-62994517D01*
X31694517Y-62827510D01*
X31833343Y-62636433D01*
X31940568Y-62425992D01*
X32013553Y-62201368D01*
X32037839Y-62048034D01*
X32050500Y-61968097D01*
X32050500Y-61731902D01*
X32013553Y-61498631D01*
X31964354Y-61347213D01*
X31940568Y-61274008D01*
X31940566Y-61274005D01*
X31940566Y-61274003D01*
X31833342Y-61063566D01*
X31694517Y-60872490D01*
X31527510Y-60705483D01*
X31336433Y-60566657D01*
X31125996Y-60459433D01*
X30901368Y-60386446D01*
X30668097Y-60349500D01*
X30668092Y-60349500D01*
X30431908Y-60349500D01*
X30431903Y-60349500D01*
X30198631Y-60386446D01*
X29974003Y-60459433D01*
X29763566Y-60566657D01*
X29654550Y-60645862D01*
X29572490Y-60705483D01*
X29572488Y-60705485D01*
X29572487Y-60705485D01*
X29405485Y-60872487D01*
X29405485Y-60872488D01*
X29405483Y-60872490D01*
X29345862Y-60954550D01*
X29266657Y-61063566D01*
X29159433Y-61274003D01*
X29086446Y-61498631D01*
X29049500Y-61731902D01*
X28200500Y-61731902D01*
X28200500Y-57231947D01*
X29050000Y-57231947D01*
X29050000Y-57468052D01*
X29086934Y-57701247D01*
X29159897Y-57925802D01*
X29267087Y-58136174D01*
X29327338Y-58219104D01*
X29327340Y-58219105D01*
X30026212Y-57520233D01*
X30037482Y-57562292D01*
X30109890Y-57687708D01*
X30212292Y-57790110D01*
X30337708Y-57862518D01*
X30379765Y-57873787D01*
X29680893Y-58572658D01*
X29763828Y-58632914D01*
X29974197Y-58740102D01*
X30198752Y-58813065D01*
X30198751Y-58813065D01*
X30431948Y-58850000D01*
X30668052Y-58850000D01*
X30901247Y-58813065D01*
X31125802Y-58740102D01*
X31336163Y-58632918D01*
X31336169Y-58632914D01*
X31419104Y-58572658D01*
X31419105Y-58572658D01*
X30720233Y-57873787D01*
X30762292Y-57862518D01*
X30887708Y-57790110D01*
X30990110Y-57687708D01*
X31062518Y-57562292D01*
X31073787Y-57520234D01*
X31772658Y-58219105D01*
X31772658Y-58219104D01*
X31832914Y-58136169D01*
X31832918Y-58136163D01*
X31940102Y-57925802D01*
X32013065Y-57701247D01*
X32050000Y-57468052D01*
X32050000Y-57231947D01*
X35550000Y-57231947D01*
X35550000Y-57468052D01*
X35586934Y-57701247D01*
X35659897Y-57925802D01*
X35767087Y-58136174D01*
X35827338Y-58219104D01*
X35827340Y-58219105D01*
X36526212Y-57520233D01*
X36537482Y-57562292D01*
X36609890Y-57687708D01*
X36712292Y-57790110D01*
X36837708Y-57862518D01*
X36879765Y-57873787D01*
X36180893Y-58572658D01*
X36263828Y-58632914D01*
X36474197Y-58740102D01*
X36698752Y-58813065D01*
X36698751Y-58813065D01*
X36931948Y-58850000D01*
X37168052Y-58850000D01*
X37401247Y-58813065D01*
X37625802Y-58740102D01*
X37836163Y-58632918D01*
X37836169Y-58632914D01*
X37919104Y-58572658D01*
X37919105Y-58572658D01*
X37220233Y-57873787D01*
X37262292Y-57862518D01*
X37387708Y-57790110D01*
X37490110Y-57687708D01*
X37562518Y-57562292D01*
X37573787Y-57520233D01*
X38272658Y-58219105D01*
X38272658Y-58219104D01*
X38332914Y-58136169D01*
X38332918Y-58136163D01*
X38440102Y-57925802D01*
X38513065Y-57701247D01*
X38549998Y-57468061D01*
X38550000Y-57468042D01*
X38550000Y-57231947D01*
X38513065Y-56998752D01*
X38440102Y-56774197D01*
X38332914Y-56563828D01*
X38284713Y-56497485D01*
X38272658Y-56480894D01*
X38272658Y-56480893D01*
X37573787Y-57179765D01*
X37562518Y-57137708D01*
X37490110Y-57012292D01*
X37387708Y-56909890D01*
X37262292Y-56837482D01*
X37220234Y-56826212D01*
X37919105Y-56127340D01*
X37919104Y-56127338D01*
X37836174Y-56067087D01*
X37625802Y-55959897D01*
X37401247Y-55886934D01*
X37401248Y-55886934D01*
X37168052Y-55850000D01*
X36931948Y-55850000D01*
X36698752Y-55886934D01*
X36474197Y-55959897D01*
X36263830Y-56067084D01*
X36180894Y-56127340D01*
X36879766Y-56826212D01*
X36837708Y-56837482D01*
X36712292Y-56909890D01*
X36609890Y-57012292D01*
X36537482Y-57137708D01*
X36526212Y-57179766D01*
X35827340Y-56480894D01*
X35767084Y-56563830D01*
X35659897Y-56774197D01*
X35586934Y-56998752D01*
X35550000Y-57231947D01*
X32050000Y-57231947D01*
X32013065Y-56998752D01*
X31940102Y-56774197D01*
X31832914Y-56563828D01*
X31772658Y-56480894D01*
X31772658Y-56480893D01*
X31073787Y-57179765D01*
X31062518Y-57137708D01*
X30990110Y-57012292D01*
X30887708Y-56909890D01*
X30762292Y-56837482D01*
X30720234Y-56826212D01*
X31419105Y-56127340D01*
X31419104Y-56127339D01*
X31336174Y-56067087D01*
X31125802Y-55959897D01*
X30901247Y-55886934D01*
X30901248Y-55886934D01*
X30668052Y-55850000D01*
X30431948Y-55850000D01*
X30198752Y-55886934D01*
X29974197Y-55959897D01*
X29763830Y-56067084D01*
X29680894Y-56127340D01*
X30379766Y-56826212D01*
X30337708Y-56837482D01*
X30212292Y-56909890D01*
X30109890Y-57012292D01*
X30037482Y-57137708D01*
X30026212Y-57179766D01*
X29327340Y-56480894D01*
X29267084Y-56563830D01*
X29159897Y-56774197D01*
X29086934Y-56998752D01*
X29050000Y-57231947D01*
X28200500Y-57231947D01*
X28200500Y-42326637D01*
X28220185Y-42259598D01*
X28272989Y-42213843D01*
X28342147Y-42203899D01*
X28405703Y-42232924D01*
X28434985Y-42270344D01*
X28443135Y-42286341D01*
X28443147Y-42286359D01*
X28475523Y-42330921D01*
X28475524Y-42330922D01*
X29155000Y-41651446D01*
X29155000Y-41657661D01*
X29182259Y-41759394D01*
X29234920Y-41850606D01*
X29309394Y-41925080D01*
X29400606Y-41977741D01*
X29502339Y-42005000D01*
X29508553Y-42005000D01*
X28829076Y-42684474D01*
X28873650Y-42716859D01*
X29055968Y-42809755D01*
X29250582Y-42872990D01*
X29452683Y-42905000D01*
X29657317Y-42905000D01*
X29859417Y-42872990D01*
X30054031Y-42809755D01*
X30236349Y-42716859D01*
X30280921Y-42684474D01*
X29601447Y-42005000D01*
X29607661Y-42005000D01*
X29709394Y-41977741D01*
X29800606Y-41925080D01*
X29875080Y-41850606D01*
X29927741Y-41759394D01*
X29955000Y-41657661D01*
X29955000Y-41651448D01*
X30634474Y-42330922D01*
X30634474Y-42330921D01*
X30666859Y-42286349D01*
X30759755Y-42104031D01*
X30822990Y-41909417D01*
X30855000Y-41707317D01*
X30855000Y-41502682D01*
X30854995Y-41502648D01*
X33254500Y-41502648D01*
X33254500Y-41707351D01*
X33286522Y-41909534D01*
X33349781Y-42104223D01*
X33405636Y-42213843D01*
X33442585Y-42286359D01*
X33442715Y-42286613D01*
X33563028Y-42452213D01*
X33707786Y-42596971D01*
X33856478Y-42705000D01*
X33873390Y-42717287D01*
X33964838Y-42763882D01*
X34055776Y-42810218D01*
X34055778Y-42810218D01*
X34055781Y-42810220D01*
X34100374Y-42824709D01*
X34250465Y-42873477D01*
X34351557Y-42889488D01*
X34452648Y-42905500D01*
X34452649Y-42905500D01*
X34657351Y-42905500D01*
X34657352Y-42905500D01*
X34859534Y-42873477D01*
X35054219Y-42810220D01*
X35236610Y-42717287D01*
X35344614Y-42638818D01*
X35402213Y-42596971D01*
X35402215Y-42596968D01*
X35402219Y-42596966D01*
X35546966Y-42452219D01*
X35546968Y-42452215D01*
X35546971Y-42452213D01*
X35610821Y-42364329D01*
X35667287Y-42286610D01*
X35760220Y-42104219D01*
X35823477Y-41909534D01*
X35855500Y-41707352D01*
X35855500Y-41506577D01*
X38724500Y-41506577D01*
X38724500Y-41703422D01*
X38755290Y-41897826D01*
X38816117Y-42085029D01*
X38891474Y-42232924D01*
X38905476Y-42260405D01*
X39021172Y-42419646D01*
X39160354Y-42558828D01*
X39319595Y-42674524D01*
X39359293Y-42694751D01*
X39494970Y-42763882D01*
X39494972Y-42763882D01*
X39494975Y-42763884D01*
X39595317Y-42796487D01*
X39682173Y-42824709D01*
X39876578Y-42855500D01*
X39876583Y-42855500D01*
X40073422Y-42855500D01*
X40267826Y-42824709D01*
X40313849Y-42809755D01*
X40455025Y-42763884D01*
X40630405Y-42674524D01*
X40789646Y-42558828D01*
X40928828Y-42419646D01*
X41044524Y-42260405D01*
X41133884Y-42085025D01*
X41194709Y-41897826D01*
X41209411Y-41805000D01*
X41225500Y-41703422D01*
X41225500Y-41506577D01*
X43604500Y-41506577D01*
X43604500Y-41703422D01*
X43635290Y-41897826D01*
X43696117Y-42085029D01*
X43771474Y-42232924D01*
X43785476Y-42260405D01*
X43901172Y-42419646D01*
X44040354Y-42558828D01*
X44199595Y-42674524D01*
X44239293Y-42694751D01*
X44374970Y-42763882D01*
X44374972Y-42763882D01*
X44374975Y-42763884D01*
X44475317Y-42796487D01*
X44562173Y-42824709D01*
X44756578Y-42855500D01*
X44756583Y-42855500D01*
X44953422Y-42855500D01*
X45147826Y-42824709D01*
X45193849Y-42809755D01*
X45335025Y-42763884D01*
X45510405Y-42674524D01*
X45669646Y-42558828D01*
X45808828Y-42419646D01*
X45924524Y-42260405D01*
X46013884Y-42085025D01*
X46074709Y-41897826D01*
X46089411Y-41805000D01*
X46105500Y-41703422D01*
X46105500Y-41506577D01*
X46075507Y-41317214D01*
X46075507Y-41317212D01*
X46075506Y-41317209D01*
X46074708Y-41312173D01*
X46070904Y-41300465D01*
X46013882Y-41124970D01*
X45924523Y-40949594D01*
X45917304Y-40939658D01*
X45808828Y-40790354D01*
X45669646Y-40651172D01*
X45510405Y-40535476D01*
X45490871Y-40525523D01*
X45335029Y-40446117D01*
X45147826Y-40385290D01*
X44953422Y-40354500D01*
X44953417Y-40354500D01*
X44756583Y-40354500D01*
X44756578Y-40354500D01*
X44562173Y-40385290D01*
X44374970Y-40446117D01*
X44199594Y-40535476D01*
X44123717Y-40590605D01*
X44040354Y-40651172D01*
X44040352Y-40651174D01*
X44040351Y-40651174D01*
X43901174Y-40790351D01*
X43901174Y-40790352D01*
X43901172Y-40790354D01*
X43851485Y-40858741D01*
X43785476Y-40949594D01*
X43696117Y-41124970D01*
X43635290Y-41312173D01*
X43604500Y-41506577D01*
X41225500Y-41506577D01*
X41194709Y-41312173D01*
X41133882Y-41124970D01*
X41044523Y-40949594D01*
X41037304Y-40939658D01*
X40928828Y-40790354D01*
X40789646Y-40651172D01*
X40630405Y-40535476D01*
X40610871Y-40525523D01*
X40455029Y-40446117D01*
X40267826Y-40385290D01*
X40073422Y-40354500D01*
X40073417Y-40354500D01*
X39876583Y-40354500D01*
X39876578Y-40354500D01*
X39682173Y-40385290D01*
X39494970Y-40446117D01*
X39319594Y-40535476D01*
X39243717Y-40590605D01*
X39160354Y-40651172D01*
X39160352Y-40651174D01*
X39160351Y-40651174D01*
X39021174Y-40790351D01*
X39021174Y-40790352D01*
X39021172Y-40790354D01*
X38971485Y-40858741D01*
X38905476Y-40949594D01*
X38816117Y-41124970D01*
X38755290Y-41312173D01*
X38724500Y-41506577D01*
X35855500Y-41506577D01*
X35855500Y-41502648D01*
X35848002Y-41455311D01*
X35823477Y-41300465D01*
X35777640Y-41159394D01*
X35760220Y-41105781D01*
X35760218Y-41105778D01*
X35760218Y-41105776D01*
X35722759Y-41032259D01*
X35667287Y-40923390D01*
X35635092Y-40879077D01*
X35546971Y-40757786D01*
X35402213Y-40613028D01*
X35236613Y-40492715D01*
X35236612Y-40492714D01*
X35236610Y-40492713D01*
X35179653Y-40463691D01*
X35054223Y-40399781D01*
X34859534Y-40336522D01*
X34684995Y-40308878D01*
X34657352Y-40304500D01*
X34452648Y-40304500D01*
X34428329Y-40308351D01*
X34250465Y-40336522D01*
X34055776Y-40399781D01*
X33873386Y-40492715D01*
X33707786Y-40613028D01*
X33563028Y-40757786D01*
X33442715Y-40923386D01*
X33349781Y-41105776D01*
X33286522Y-41300465D01*
X33254500Y-41502648D01*
X30854995Y-41502648D01*
X30822990Y-41300582D01*
X30759755Y-41105968D01*
X30666859Y-40923650D01*
X30634474Y-40879077D01*
X30634474Y-40879076D01*
X29955000Y-41558551D01*
X29955000Y-41552339D01*
X29927741Y-41450606D01*
X29875080Y-41359394D01*
X29800606Y-41284920D01*
X29709394Y-41232259D01*
X29607661Y-41205000D01*
X29601446Y-41205000D01*
X30280922Y-40525524D01*
X30280921Y-40525523D01*
X30236359Y-40493147D01*
X30236350Y-40493141D01*
X30054031Y-40400244D01*
X29859417Y-40337009D01*
X29657317Y-40305000D01*
X29452683Y-40305000D01*
X29250582Y-40337009D01*
X29055968Y-40400244D01*
X28873644Y-40493143D01*
X28829077Y-40525523D01*
X28829077Y-40525524D01*
X29508554Y-41205000D01*
X29502339Y-41205000D01*
X29400606Y-41232259D01*
X29309394Y-41284920D01*
X29234920Y-41359394D01*
X29182259Y-41450606D01*
X29155000Y-41552339D01*
X29155000Y-41558553D01*
X28475524Y-40879077D01*
X28475523Y-40879077D01*
X28443143Y-40923645D01*
X28443141Y-40923648D01*
X28434984Y-40939658D01*
X28387010Y-40990453D01*
X28319189Y-41007248D01*
X28253054Y-40984710D01*
X28209603Y-40929995D01*
X28200500Y-40883362D01*
X28200500Y-29286902D01*
X31654500Y-29286902D01*
X31654500Y-29523097D01*
X31691446Y-29756368D01*
X31764433Y-29980996D01*
X31827362Y-30104500D01*
X31871657Y-30191433D01*
X32010483Y-30382510D01*
X32177490Y-30549517D01*
X32368567Y-30688343D01*
X32437343Y-30723386D01*
X32579003Y-30795566D01*
X32579005Y-30795566D01*
X32579008Y-30795568D01*
X32699412Y-30834689D01*
X32803631Y-30868553D01*
X33036903Y-30905500D01*
X33036908Y-30905500D01*
X33273097Y-30905500D01*
X33506368Y-30868553D01*
X33510492Y-30867213D01*
X33730992Y-30795568D01*
X33941433Y-30688343D01*
X34132510Y-30549517D01*
X34299517Y-30382510D01*
X34438343Y-30191433D01*
X34545568Y-29980992D01*
X34618553Y-29756368D01*
X34625031Y-29715465D01*
X34655500Y-29523097D01*
X34655500Y-29286902D01*
X34618553Y-29053631D01*
X34584513Y-28948867D01*
X34545568Y-28829008D01*
X34545566Y-28829005D01*
X34545566Y-28829003D01*
X34468908Y-28678555D01*
X34438343Y-28618567D01*
X34299517Y-28427490D01*
X34132510Y-28260483D01*
X33941433Y-28121657D01*
X33730996Y-28014433D01*
X33506368Y-27941446D01*
X33273097Y-27904500D01*
X33273092Y-27904500D01*
X33036908Y-27904500D01*
X33036903Y-27904500D01*
X32803631Y-27941446D01*
X32579003Y-28014433D01*
X32368566Y-28121657D01*
X32259550Y-28200862D01*
X32177490Y-28260483D01*
X32177488Y-28260485D01*
X32177487Y-28260485D01*
X32010485Y-28427487D01*
X32010485Y-28427488D01*
X32010483Y-28427490D01*
X31992903Y-28451687D01*
X31871657Y-28618566D01*
X31764433Y-28829003D01*
X31691446Y-29053631D01*
X31654500Y-29286902D01*
X28200500Y-29286902D01*
X28200500Y-24786947D01*
X31655000Y-24786947D01*
X31655000Y-25023052D01*
X31691934Y-25256247D01*
X31764897Y-25480802D01*
X31872087Y-25691174D01*
X31932338Y-25774104D01*
X31932340Y-25774105D01*
X32631212Y-25075233D01*
X32642482Y-25117292D01*
X32714890Y-25242708D01*
X32817292Y-25345110D01*
X32942708Y-25417518D01*
X32984765Y-25428787D01*
X32285893Y-26127658D01*
X32368828Y-26187914D01*
X32579197Y-26295102D01*
X32803752Y-26368065D01*
X32803751Y-26368065D01*
X33036948Y-26405000D01*
X33273052Y-26405000D01*
X33506247Y-26368065D01*
X33730802Y-26295102D01*
X33941163Y-26187918D01*
X33941169Y-26187914D01*
X34024104Y-26127658D01*
X34024105Y-26127658D01*
X33325233Y-25428787D01*
X33367292Y-25417518D01*
X33492708Y-25345110D01*
X33595110Y-25242708D01*
X33667518Y-25117292D01*
X33678787Y-25075233D01*
X34377658Y-25774105D01*
X34377658Y-25774104D01*
X34437914Y-25691169D01*
X34437918Y-25691163D01*
X34545102Y-25480802D01*
X34618065Y-25256247D01*
X34655000Y-25023052D01*
X34655000Y-24786947D01*
X34618065Y-24553752D01*
X34545102Y-24329197D01*
X34437914Y-24118828D01*
X34377658Y-24035894D01*
X34377658Y-24035893D01*
X33678787Y-24734765D01*
X33667518Y-24692708D01*
X33595110Y-24567292D01*
X33492708Y-24464890D01*
X33367292Y-24392482D01*
X33325234Y-24381212D01*
X34024105Y-23682340D01*
X34024104Y-23682339D01*
X33941174Y-23622087D01*
X33730802Y-23514897D01*
X33506247Y-23441934D01*
X33506248Y-23441934D01*
X33273052Y-23405000D01*
X33036948Y-23405000D01*
X32803752Y-23441934D01*
X32579197Y-23514897D01*
X32368830Y-23622084D01*
X32285894Y-23682340D01*
X32984766Y-24381212D01*
X32942708Y-24392482D01*
X32817292Y-24464890D01*
X32714890Y-24567292D01*
X32642482Y-24692708D01*
X32631212Y-24734766D01*
X31932340Y-24035894D01*
X31872084Y-24118830D01*
X31764897Y-24329197D01*
X31691934Y-24553752D01*
X31655000Y-24786947D01*
X28200500Y-24786947D01*
X28200500Y-21524500D01*
X28220185Y-21457461D01*
X28272989Y-21411706D01*
X28324500Y-21400500D01*
X107075500Y-21400500D01*
X107142539Y-21420185D01*
G37*
%TD.AperFunction*%
%TD*%
M02*
