%TF.GenerationSoftware,KiCad,Pcbnew,10.0.3-10.0.3~ubuntu24.04.1*%
%TF.CreationDate,2026-06-16T17:38:17+03:00*%
%TF.ProjectId,ATmega32_Clock,41546d65-6761-4333-925f-436c6f636b2e,rev?*%
%TF.SameCoordinates,Original*%
%TF.FileFunction,Other,User*%
%FSLAX46Y46*%
G04 Gerber Fmt 4.6, Leading zero omitted, Abs format (unit mm)*
G04 Created by KiCad (PCBNEW 10.0.3-10.0.3~ubuntu24.04.1) date 2026-06-16 17:38:17*
%MOMM*%
%LPD*%
G01*
G04 APERTURE LIST*
%ADD10C,0.050000*%
G04 APERTURE END LIST*
%TO.C,C4*%
D10*
X51505000Y-39905000D02*
X58605000Y-39905000D01*
X58605000Y-42905000D01*
X51505000Y-42905000D01*
X51505000Y-39905000D01*
%TO.C,R2*%
X80185000Y-29905000D02*
X89905000Y-29905000D01*
X89905000Y-32905000D01*
X80185000Y-32905000D01*
X80185000Y-29905000D01*
%TO.C,R4*%
X80385000Y-44305000D02*
X90105000Y-44305000D01*
X90105000Y-47305000D01*
X80385000Y-47305000D01*
X80385000Y-44305000D01*
%TO.C,J1*%
X31885000Y-70895000D02*
X35425000Y-70895000D01*
X35425000Y-79515000D01*
X31885000Y-79515000D01*
X31885000Y-70895000D01*
%TO.C,SW2*%
X39800000Y-56100000D02*
X40050000Y-56100000D01*
X39800000Y-56350000D02*
X39800000Y-56100000D01*
X39800000Y-63350000D02*
X39800000Y-56350000D01*
X39800000Y-63350000D02*
X39800000Y-63600000D01*
X39800000Y-63600000D02*
X40050000Y-63600000D01*
X40050000Y-56100000D02*
X49050000Y-56100000D01*
X49050000Y-56100000D02*
X49300000Y-56100000D01*
X49050000Y-63600000D02*
X40050000Y-63600000D01*
X49050000Y-63600000D02*
X49300000Y-63600000D01*
X49300000Y-56100000D02*
X49300000Y-56350000D01*
X49300000Y-56350000D02*
X49300000Y-63350000D01*
X49300000Y-63600000D02*
X49300000Y-63350000D01*
%TO.C,D1*%
X96225000Y-52895000D02*
X102655000Y-52895000D01*
X102655000Y-59315000D01*
X96225000Y-59315000D01*
X96225000Y-52895000D01*
%TO.C,C2*%
X78500000Y-73850000D02*
X85600000Y-73850000D01*
X85600000Y-76850000D01*
X78500000Y-76850000D01*
X78500000Y-73850000D01*
%TO.C,R6*%
X80985000Y-57705000D02*
X90705000Y-57705000D01*
X90705000Y-60705000D01*
X80985000Y-60705000D01*
X80985000Y-57705000D01*
%TO.C,C5*%
X87500000Y-74100000D02*
X94600000Y-74100000D01*
X94600000Y-77100000D01*
X87500000Y-77100000D01*
X87500000Y-74100000D01*
%TO.C,Y1*%
X39295000Y-38775000D02*
X45535000Y-38775000D01*
X45535000Y-44435000D02*
X39295000Y-44435000D01*
X39295000Y-44435000D02*
G75*
G02*
X39295000Y-38775000I0J2830000D01*
G01*
X45535000Y-38775000D02*
G75*
G02*
X45535000Y-44435000I0J-2830000D01*
G01*
%TO.C,SW3*%
X49800000Y-56100000D02*
X50050000Y-56100000D01*
X49800000Y-56350000D02*
X49800000Y-56100000D01*
X49800000Y-63350000D02*
X49800000Y-56350000D01*
X49800000Y-63350000D02*
X49800000Y-63600000D01*
X49800000Y-63600000D02*
X50050000Y-63600000D01*
X50050000Y-56100000D02*
X59050000Y-56100000D01*
X59050000Y-56100000D02*
X59300000Y-56100000D01*
X59050000Y-63600000D02*
X50050000Y-63600000D01*
X59050000Y-63600000D02*
X59300000Y-63600000D01*
X59300000Y-56100000D02*
X59300000Y-56350000D01*
X59300000Y-56350000D02*
X59300000Y-63350000D01*
X59300000Y-63600000D02*
X59300000Y-63350000D01*
%TO.C,SW4*%
X31655000Y-23405000D02*
X31905000Y-23405000D01*
X31655000Y-23655000D02*
X31655000Y-23405000D01*
X31655000Y-30655000D02*
X31655000Y-23655000D01*
X31655000Y-30655000D02*
X31655000Y-30905000D01*
X31655000Y-30905000D02*
X31905000Y-30905000D01*
X31905000Y-23405000D02*
X40905000Y-23405000D01*
X40905000Y-23405000D02*
X41155000Y-23405000D01*
X40905000Y-30905000D02*
X31905000Y-30905000D01*
X40905000Y-30905000D02*
X41155000Y-30905000D01*
X41155000Y-23405000D02*
X41155000Y-23655000D01*
X41155000Y-23655000D02*
X41155000Y-30655000D01*
X41155000Y-30905000D02*
X41155000Y-30655000D01*
%TO.C,C1*%
X96500000Y-74850000D02*
X103600000Y-74850000D01*
X103600000Y-77850000D01*
X96500000Y-77850000D01*
X96500000Y-74850000D01*
%TO.C,C3*%
X28505000Y-40105000D02*
X35605000Y-40105000D01*
X35605000Y-43105000D01*
X28505000Y-43105000D01*
X28505000Y-40105000D01*
%TO.C,SW1*%
X29050000Y-55850000D02*
X29300000Y-55850000D01*
X29050000Y-56100000D02*
X29050000Y-55850000D01*
X29050000Y-63100000D02*
X29050000Y-56100000D01*
X29050000Y-63100000D02*
X29050000Y-63350000D01*
X29050000Y-63350000D02*
X29300000Y-63350000D01*
X29300000Y-55850000D02*
X38300000Y-55850000D01*
X38300000Y-55850000D02*
X38550000Y-55850000D01*
X38300000Y-63350000D02*
X29300000Y-63350000D01*
X38300000Y-63350000D02*
X38550000Y-63350000D01*
X38550000Y-55850000D02*
X38550000Y-56100000D01*
X38550000Y-56100000D02*
X38550000Y-63100000D01*
X38550000Y-63350000D02*
X38550000Y-63100000D01*
%TO.C,R5*%
X80785000Y-50705000D02*
X90505000Y-50705000D01*
X90505000Y-53705000D01*
X80785000Y-53705000D01*
X80785000Y-50705000D01*
%TO.C,D2*%
X96475000Y-60895000D02*
X102905000Y-60895000D01*
X102905000Y-67315000D01*
X96475000Y-67315000D01*
X96475000Y-60895000D01*
%TO.C,R1*%
X79795000Y-23105000D02*
X89515000Y-23105000D01*
X89515000Y-26105000D01*
X79795000Y-26105000D01*
X79795000Y-23105000D01*
%TO.C,U1*%
X60000000Y-25950000D02*
X77340000Y-25950000D01*
X77340000Y-77260000D01*
X60000000Y-77260000D01*
X60000000Y-25950000D01*
%TO.C,R3*%
X80185000Y-36705000D02*
X89905000Y-36705000D01*
X89905000Y-39705000D01*
X80185000Y-39705000D01*
X80185000Y-36705000D01*
%TD*%
M02*
