%TF.GenerationSoftware,KiCad,Pcbnew,10.0.3-10.0.3~ubuntu24.04.1*%
%TF.CreationDate,2026-06-16T17:38:17+03:00*%
%TF.ProjectId,ATmega32_Clock,41546d65-6761-4333-925f-436c6f636b2e,rev?*%
%TF.SameCoordinates,Original*%
%TF.FileFunction,Legend,Top*%
%TF.FilePolarity,Positive*%
%FSLAX46Y46*%
G04 Gerber Fmt 4.6, Leading zero omitted, Abs format (unit mm)*
G04 Created by KiCad (PCBNEW 10.0.3-10.0.3~ubuntu24.04.1) date 2026-06-16 17:38:17*
%MOMM*%
%LPD*%
G01*
G04 APERTURE LIST*
%ADD10C,0.150000*%
%ADD11C,0.120000*%
G04 APERTURE END LIST*
D10*
X54888333Y-39264580D02*
X54840714Y-39312200D01*
X54840714Y-39312200D02*
X54697857Y-39359819D01*
X54697857Y-39359819D02*
X54602619Y-39359819D01*
X54602619Y-39359819D02*
X54459762Y-39312200D01*
X54459762Y-39312200D02*
X54364524Y-39216961D01*
X54364524Y-39216961D02*
X54316905Y-39121723D01*
X54316905Y-39121723D02*
X54269286Y-38931247D01*
X54269286Y-38931247D02*
X54269286Y-38788390D01*
X54269286Y-38788390D02*
X54316905Y-38597914D01*
X54316905Y-38597914D02*
X54364524Y-38502676D01*
X54364524Y-38502676D02*
X54459762Y-38407438D01*
X54459762Y-38407438D02*
X54602619Y-38359819D01*
X54602619Y-38359819D02*
X54697857Y-38359819D01*
X54697857Y-38359819D02*
X54840714Y-38407438D01*
X54840714Y-38407438D02*
X54888333Y-38455057D01*
X55745476Y-38693152D02*
X55745476Y-39359819D01*
X55507381Y-38312200D02*
X55269286Y-39026485D01*
X55269286Y-39026485D02*
X55888333Y-39026485D01*
X84878333Y-29489819D02*
X84545000Y-29013628D01*
X84306905Y-29489819D02*
X84306905Y-28489819D01*
X84306905Y-28489819D02*
X84687857Y-28489819D01*
X84687857Y-28489819D02*
X84783095Y-28537438D01*
X84783095Y-28537438D02*
X84830714Y-28585057D01*
X84830714Y-28585057D02*
X84878333Y-28680295D01*
X84878333Y-28680295D02*
X84878333Y-28823152D01*
X84878333Y-28823152D02*
X84830714Y-28918390D01*
X84830714Y-28918390D02*
X84783095Y-28966009D01*
X84783095Y-28966009D02*
X84687857Y-29013628D01*
X84687857Y-29013628D02*
X84306905Y-29013628D01*
X85259286Y-28585057D02*
X85306905Y-28537438D01*
X85306905Y-28537438D02*
X85402143Y-28489819D01*
X85402143Y-28489819D02*
X85640238Y-28489819D01*
X85640238Y-28489819D02*
X85735476Y-28537438D01*
X85735476Y-28537438D02*
X85783095Y-28585057D01*
X85783095Y-28585057D02*
X85830714Y-28680295D01*
X85830714Y-28680295D02*
X85830714Y-28775533D01*
X85830714Y-28775533D02*
X85783095Y-28918390D01*
X85783095Y-28918390D02*
X85211667Y-29489819D01*
X85211667Y-29489819D02*
X85830714Y-29489819D01*
X85078333Y-43889819D02*
X84745000Y-43413628D01*
X84506905Y-43889819D02*
X84506905Y-42889819D01*
X84506905Y-42889819D02*
X84887857Y-42889819D01*
X84887857Y-42889819D02*
X84983095Y-42937438D01*
X84983095Y-42937438D02*
X85030714Y-42985057D01*
X85030714Y-42985057D02*
X85078333Y-43080295D01*
X85078333Y-43080295D02*
X85078333Y-43223152D01*
X85078333Y-43223152D02*
X85030714Y-43318390D01*
X85030714Y-43318390D02*
X84983095Y-43366009D01*
X84983095Y-43366009D02*
X84887857Y-43413628D01*
X84887857Y-43413628D02*
X84506905Y-43413628D01*
X85935476Y-43223152D02*
X85935476Y-43889819D01*
X85697381Y-42842200D02*
X85459286Y-43556485D01*
X85459286Y-43556485D02*
X86078333Y-43556485D01*
X33321666Y-69739819D02*
X33321666Y-70454104D01*
X33321666Y-70454104D02*
X33274047Y-70596961D01*
X33274047Y-70596961D02*
X33178809Y-70692200D01*
X33178809Y-70692200D02*
X33035952Y-70739819D01*
X33035952Y-70739819D02*
X32940714Y-70739819D01*
X34321666Y-70739819D02*
X33750238Y-70739819D01*
X34035952Y-70739819D02*
X34035952Y-69739819D01*
X34035952Y-69739819D02*
X33940714Y-69882676D01*
X33940714Y-69882676D02*
X33845476Y-69977914D01*
X33845476Y-69977914D02*
X33750238Y-70025533D01*
X43216667Y-56007200D02*
X43359524Y-56054819D01*
X43359524Y-56054819D02*
X43597619Y-56054819D01*
X43597619Y-56054819D02*
X43692857Y-56007200D01*
X43692857Y-56007200D02*
X43740476Y-55959580D01*
X43740476Y-55959580D02*
X43788095Y-55864342D01*
X43788095Y-55864342D02*
X43788095Y-55769104D01*
X43788095Y-55769104D02*
X43740476Y-55673866D01*
X43740476Y-55673866D02*
X43692857Y-55626247D01*
X43692857Y-55626247D02*
X43597619Y-55578628D01*
X43597619Y-55578628D02*
X43407143Y-55531009D01*
X43407143Y-55531009D02*
X43311905Y-55483390D01*
X43311905Y-55483390D02*
X43264286Y-55435771D01*
X43264286Y-55435771D02*
X43216667Y-55340533D01*
X43216667Y-55340533D02*
X43216667Y-55245295D01*
X43216667Y-55245295D02*
X43264286Y-55150057D01*
X43264286Y-55150057D02*
X43311905Y-55102438D01*
X43311905Y-55102438D02*
X43407143Y-55054819D01*
X43407143Y-55054819D02*
X43645238Y-55054819D01*
X43645238Y-55054819D02*
X43788095Y-55102438D01*
X44121429Y-55054819D02*
X44359524Y-56054819D01*
X44359524Y-56054819D02*
X44550000Y-55340533D01*
X44550000Y-55340533D02*
X44740476Y-56054819D01*
X44740476Y-56054819D02*
X44978572Y-55054819D01*
X45311905Y-55150057D02*
X45359524Y-55102438D01*
X45359524Y-55102438D02*
X45454762Y-55054819D01*
X45454762Y-55054819D02*
X45692857Y-55054819D01*
X45692857Y-55054819D02*
X45788095Y-55102438D01*
X45788095Y-55102438D02*
X45835714Y-55150057D01*
X45835714Y-55150057D02*
X45883333Y-55245295D01*
X45883333Y-55245295D02*
X45883333Y-55340533D01*
X45883333Y-55340533D02*
X45835714Y-55483390D01*
X45835714Y-55483390D02*
X45264286Y-56054819D01*
X45264286Y-56054819D02*
X45883333Y-56054819D01*
X98696905Y-52599819D02*
X98696905Y-51599819D01*
X98696905Y-51599819D02*
X98935000Y-51599819D01*
X98935000Y-51599819D02*
X99077857Y-51647438D01*
X99077857Y-51647438D02*
X99173095Y-51742676D01*
X99173095Y-51742676D02*
X99220714Y-51837914D01*
X99220714Y-51837914D02*
X99268333Y-52028390D01*
X99268333Y-52028390D02*
X99268333Y-52171247D01*
X99268333Y-52171247D02*
X99220714Y-52361723D01*
X99220714Y-52361723D02*
X99173095Y-52456961D01*
X99173095Y-52456961D02*
X99077857Y-52552200D01*
X99077857Y-52552200D02*
X98935000Y-52599819D01*
X98935000Y-52599819D02*
X98696905Y-52599819D01*
X100220714Y-52599819D02*
X99649286Y-52599819D01*
X99935000Y-52599819D02*
X99935000Y-51599819D01*
X99935000Y-51599819D02*
X99839762Y-51742676D01*
X99839762Y-51742676D02*
X99744524Y-51837914D01*
X99744524Y-51837914D02*
X99649286Y-51885533D01*
X81883333Y-73209580D02*
X81835714Y-73257200D01*
X81835714Y-73257200D02*
X81692857Y-73304819D01*
X81692857Y-73304819D02*
X81597619Y-73304819D01*
X81597619Y-73304819D02*
X81454762Y-73257200D01*
X81454762Y-73257200D02*
X81359524Y-73161961D01*
X81359524Y-73161961D02*
X81311905Y-73066723D01*
X81311905Y-73066723D02*
X81264286Y-72876247D01*
X81264286Y-72876247D02*
X81264286Y-72733390D01*
X81264286Y-72733390D02*
X81311905Y-72542914D01*
X81311905Y-72542914D02*
X81359524Y-72447676D01*
X81359524Y-72447676D02*
X81454762Y-72352438D01*
X81454762Y-72352438D02*
X81597619Y-72304819D01*
X81597619Y-72304819D02*
X81692857Y-72304819D01*
X81692857Y-72304819D02*
X81835714Y-72352438D01*
X81835714Y-72352438D02*
X81883333Y-72400057D01*
X82264286Y-72400057D02*
X82311905Y-72352438D01*
X82311905Y-72352438D02*
X82407143Y-72304819D01*
X82407143Y-72304819D02*
X82645238Y-72304819D01*
X82645238Y-72304819D02*
X82740476Y-72352438D01*
X82740476Y-72352438D02*
X82788095Y-72400057D01*
X82788095Y-72400057D02*
X82835714Y-72495295D01*
X82835714Y-72495295D02*
X82835714Y-72590533D01*
X82835714Y-72590533D02*
X82788095Y-72733390D01*
X82788095Y-72733390D02*
X82216667Y-73304819D01*
X82216667Y-73304819D02*
X82835714Y-73304819D01*
X85678333Y-57289819D02*
X85345000Y-56813628D01*
X85106905Y-57289819D02*
X85106905Y-56289819D01*
X85106905Y-56289819D02*
X85487857Y-56289819D01*
X85487857Y-56289819D02*
X85583095Y-56337438D01*
X85583095Y-56337438D02*
X85630714Y-56385057D01*
X85630714Y-56385057D02*
X85678333Y-56480295D01*
X85678333Y-56480295D02*
X85678333Y-56623152D01*
X85678333Y-56623152D02*
X85630714Y-56718390D01*
X85630714Y-56718390D02*
X85583095Y-56766009D01*
X85583095Y-56766009D02*
X85487857Y-56813628D01*
X85487857Y-56813628D02*
X85106905Y-56813628D01*
X86535476Y-56289819D02*
X86345000Y-56289819D01*
X86345000Y-56289819D02*
X86249762Y-56337438D01*
X86249762Y-56337438D02*
X86202143Y-56385057D01*
X86202143Y-56385057D02*
X86106905Y-56527914D01*
X86106905Y-56527914D02*
X86059286Y-56718390D01*
X86059286Y-56718390D02*
X86059286Y-57099342D01*
X86059286Y-57099342D02*
X86106905Y-57194580D01*
X86106905Y-57194580D02*
X86154524Y-57242200D01*
X86154524Y-57242200D02*
X86249762Y-57289819D01*
X86249762Y-57289819D02*
X86440238Y-57289819D01*
X86440238Y-57289819D02*
X86535476Y-57242200D01*
X86535476Y-57242200D02*
X86583095Y-57194580D01*
X86583095Y-57194580D02*
X86630714Y-57099342D01*
X86630714Y-57099342D02*
X86630714Y-56861247D01*
X86630714Y-56861247D02*
X86583095Y-56766009D01*
X86583095Y-56766009D02*
X86535476Y-56718390D01*
X86535476Y-56718390D02*
X86440238Y-56670771D01*
X86440238Y-56670771D02*
X86249762Y-56670771D01*
X86249762Y-56670771D02*
X86154524Y-56718390D01*
X86154524Y-56718390D02*
X86106905Y-56766009D01*
X86106905Y-56766009D02*
X86059286Y-56861247D01*
X90883333Y-73459580D02*
X90835714Y-73507200D01*
X90835714Y-73507200D02*
X90692857Y-73554819D01*
X90692857Y-73554819D02*
X90597619Y-73554819D01*
X90597619Y-73554819D02*
X90454762Y-73507200D01*
X90454762Y-73507200D02*
X90359524Y-73411961D01*
X90359524Y-73411961D02*
X90311905Y-73316723D01*
X90311905Y-73316723D02*
X90264286Y-73126247D01*
X90264286Y-73126247D02*
X90264286Y-72983390D01*
X90264286Y-72983390D02*
X90311905Y-72792914D01*
X90311905Y-72792914D02*
X90359524Y-72697676D01*
X90359524Y-72697676D02*
X90454762Y-72602438D01*
X90454762Y-72602438D02*
X90597619Y-72554819D01*
X90597619Y-72554819D02*
X90692857Y-72554819D01*
X90692857Y-72554819D02*
X90835714Y-72602438D01*
X90835714Y-72602438D02*
X90883333Y-72650057D01*
X91788095Y-72554819D02*
X91311905Y-72554819D01*
X91311905Y-72554819D02*
X91264286Y-73031009D01*
X91264286Y-73031009D02*
X91311905Y-72983390D01*
X91311905Y-72983390D02*
X91407143Y-72935771D01*
X91407143Y-72935771D02*
X91645238Y-72935771D01*
X91645238Y-72935771D02*
X91740476Y-72983390D01*
X91740476Y-72983390D02*
X91788095Y-73031009D01*
X91788095Y-73031009D02*
X91835714Y-73126247D01*
X91835714Y-73126247D02*
X91835714Y-73364342D01*
X91835714Y-73364342D02*
X91788095Y-73459580D01*
X91788095Y-73459580D02*
X91740476Y-73507200D01*
X91740476Y-73507200D02*
X91645238Y-73554819D01*
X91645238Y-73554819D02*
X91407143Y-73554819D01*
X91407143Y-73554819D02*
X91311905Y-73507200D01*
X91311905Y-73507200D02*
X91264286Y-73459580D01*
X41938809Y-38063628D02*
X41938809Y-38539819D01*
X41605476Y-37539819D02*
X41938809Y-38063628D01*
X41938809Y-38063628D02*
X42272142Y-37539819D01*
X43129285Y-38539819D02*
X42557857Y-38539819D01*
X42843571Y-38539819D02*
X42843571Y-37539819D01*
X42843571Y-37539819D02*
X42748333Y-37682676D01*
X42748333Y-37682676D02*
X42653095Y-37777914D01*
X42653095Y-37777914D02*
X42557857Y-37825533D01*
X53216667Y-56007200D02*
X53359524Y-56054819D01*
X53359524Y-56054819D02*
X53597619Y-56054819D01*
X53597619Y-56054819D02*
X53692857Y-56007200D01*
X53692857Y-56007200D02*
X53740476Y-55959580D01*
X53740476Y-55959580D02*
X53788095Y-55864342D01*
X53788095Y-55864342D02*
X53788095Y-55769104D01*
X53788095Y-55769104D02*
X53740476Y-55673866D01*
X53740476Y-55673866D02*
X53692857Y-55626247D01*
X53692857Y-55626247D02*
X53597619Y-55578628D01*
X53597619Y-55578628D02*
X53407143Y-55531009D01*
X53407143Y-55531009D02*
X53311905Y-55483390D01*
X53311905Y-55483390D02*
X53264286Y-55435771D01*
X53264286Y-55435771D02*
X53216667Y-55340533D01*
X53216667Y-55340533D02*
X53216667Y-55245295D01*
X53216667Y-55245295D02*
X53264286Y-55150057D01*
X53264286Y-55150057D02*
X53311905Y-55102438D01*
X53311905Y-55102438D02*
X53407143Y-55054819D01*
X53407143Y-55054819D02*
X53645238Y-55054819D01*
X53645238Y-55054819D02*
X53788095Y-55102438D01*
X54121429Y-55054819D02*
X54359524Y-56054819D01*
X54359524Y-56054819D02*
X54550000Y-55340533D01*
X54550000Y-55340533D02*
X54740476Y-56054819D01*
X54740476Y-56054819D02*
X54978572Y-55054819D01*
X55264286Y-55054819D02*
X55883333Y-55054819D01*
X55883333Y-55054819D02*
X55550000Y-55435771D01*
X55550000Y-55435771D02*
X55692857Y-55435771D01*
X55692857Y-55435771D02*
X55788095Y-55483390D01*
X55788095Y-55483390D02*
X55835714Y-55531009D01*
X55835714Y-55531009D02*
X55883333Y-55626247D01*
X55883333Y-55626247D02*
X55883333Y-55864342D01*
X55883333Y-55864342D02*
X55835714Y-55959580D01*
X55835714Y-55959580D02*
X55788095Y-56007200D01*
X55788095Y-56007200D02*
X55692857Y-56054819D01*
X55692857Y-56054819D02*
X55407143Y-56054819D01*
X55407143Y-56054819D02*
X55311905Y-56007200D01*
X55311905Y-56007200D02*
X55264286Y-55959580D01*
X35071667Y-23312200D02*
X35214524Y-23359819D01*
X35214524Y-23359819D02*
X35452619Y-23359819D01*
X35452619Y-23359819D02*
X35547857Y-23312200D01*
X35547857Y-23312200D02*
X35595476Y-23264580D01*
X35595476Y-23264580D02*
X35643095Y-23169342D01*
X35643095Y-23169342D02*
X35643095Y-23074104D01*
X35643095Y-23074104D02*
X35595476Y-22978866D01*
X35595476Y-22978866D02*
X35547857Y-22931247D01*
X35547857Y-22931247D02*
X35452619Y-22883628D01*
X35452619Y-22883628D02*
X35262143Y-22836009D01*
X35262143Y-22836009D02*
X35166905Y-22788390D01*
X35166905Y-22788390D02*
X35119286Y-22740771D01*
X35119286Y-22740771D02*
X35071667Y-22645533D01*
X35071667Y-22645533D02*
X35071667Y-22550295D01*
X35071667Y-22550295D02*
X35119286Y-22455057D01*
X35119286Y-22455057D02*
X35166905Y-22407438D01*
X35166905Y-22407438D02*
X35262143Y-22359819D01*
X35262143Y-22359819D02*
X35500238Y-22359819D01*
X35500238Y-22359819D02*
X35643095Y-22407438D01*
X35976429Y-22359819D02*
X36214524Y-23359819D01*
X36214524Y-23359819D02*
X36405000Y-22645533D01*
X36405000Y-22645533D02*
X36595476Y-23359819D01*
X36595476Y-23359819D02*
X36833572Y-22359819D01*
X37643095Y-22693152D02*
X37643095Y-23359819D01*
X37405000Y-22312200D02*
X37166905Y-23026485D01*
X37166905Y-23026485D02*
X37785952Y-23026485D01*
X99883333Y-74209580D02*
X99835714Y-74257200D01*
X99835714Y-74257200D02*
X99692857Y-74304819D01*
X99692857Y-74304819D02*
X99597619Y-74304819D01*
X99597619Y-74304819D02*
X99454762Y-74257200D01*
X99454762Y-74257200D02*
X99359524Y-74161961D01*
X99359524Y-74161961D02*
X99311905Y-74066723D01*
X99311905Y-74066723D02*
X99264286Y-73876247D01*
X99264286Y-73876247D02*
X99264286Y-73733390D01*
X99264286Y-73733390D02*
X99311905Y-73542914D01*
X99311905Y-73542914D02*
X99359524Y-73447676D01*
X99359524Y-73447676D02*
X99454762Y-73352438D01*
X99454762Y-73352438D02*
X99597619Y-73304819D01*
X99597619Y-73304819D02*
X99692857Y-73304819D01*
X99692857Y-73304819D02*
X99835714Y-73352438D01*
X99835714Y-73352438D02*
X99883333Y-73400057D01*
X100835714Y-74304819D02*
X100264286Y-74304819D01*
X100550000Y-74304819D02*
X100550000Y-73304819D01*
X100550000Y-73304819D02*
X100454762Y-73447676D01*
X100454762Y-73447676D02*
X100359524Y-73542914D01*
X100359524Y-73542914D02*
X100264286Y-73590533D01*
X31888333Y-39464580D02*
X31840714Y-39512200D01*
X31840714Y-39512200D02*
X31697857Y-39559819D01*
X31697857Y-39559819D02*
X31602619Y-39559819D01*
X31602619Y-39559819D02*
X31459762Y-39512200D01*
X31459762Y-39512200D02*
X31364524Y-39416961D01*
X31364524Y-39416961D02*
X31316905Y-39321723D01*
X31316905Y-39321723D02*
X31269286Y-39131247D01*
X31269286Y-39131247D02*
X31269286Y-38988390D01*
X31269286Y-38988390D02*
X31316905Y-38797914D01*
X31316905Y-38797914D02*
X31364524Y-38702676D01*
X31364524Y-38702676D02*
X31459762Y-38607438D01*
X31459762Y-38607438D02*
X31602619Y-38559819D01*
X31602619Y-38559819D02*
X31697857Y-38559819D01*
X31697857Y-38559819D02*
X31840714Y-38607438D01*
X31840714Y-38607438D02*
X31888333Y-38655057D01*
X32221667Y-38559819D02*
X32840714Y-38559819D01*
X32840714Y-38559819D02*
X32507381Y-38940771D01*
X32507381Y-38940771D02*
X32650238Y-38940771D01*
X32650238Y-38940771D02*
X32745476Y-38988390D01*
X32745476Y-38988390D02*
X32793095Y-39036009D01*
X32793095Y-39036009D02*
X32840714Y-39131247D01*
X32840714Y-39131247D02*
X32840714Y-39369342D01*
X32840714Y-39369342D02*
X32793095Y-39464580D01*
X32793095Y-39464580D02*
X32745476Y-39512200D01*
X32745476Y-39512200D02*
X32650238Y-39559819D01*
X32650238Y-39559819D02*
X32364524Y-39559819D01*
X32364524Y-39559819D02*
X32269286Y-39512200D01*
X32269286Y-39512200D02*
X32221667Y-39464580D01*
X32466667Y-55757200D02*
X32609524Y-55804819D01*
X32609524Y-55804819D02*
X32847619Y-55804819D01*
X32847619Y-55804819D02*
X32942857Y-55757200D01*
X32942857Y-55757200D02*
X32990476Y-55709580D01*
X32990476Y-55709580D02*
X33038095Y-55614342D01*
X33038095Y-55614342D02*
X33038095Y-55519104D01*
X33038095Y-55519104D02*
X32990476Y-55423866D01*
X32990476Y-55423866D02*
X32942857Y-55376247D01*
X32942857Y-55376247D02*
X32847619Y-55328628D01*
X32847619Y-55328628D02*
X32657143Y-55281009D01*
X32657143Y-55281009D02*
X32561905Y-55233390D01*
X32561905Y-55233390D02*
X32514286Y-55185771D01*
X32514286Y-55185771D02*
X32466667Y-55090533D01*
X32466667Y-55090533D02*
X32466667Y-54995295D01*
X32466667Y-54995295D02*
X32514286Y-54900057D01*
X32514286Y-54900057D02*
X32561905Y-54852438D01*
X32561905Y-54852438D02*
X32657143Y-54804819D01*
X32657143Y-54804819D02*
X32895238Y-54804819D01*
X32895238Y-54804819D02*
X33038095Y-54852438D01*
X33371429Y-54804819D02*
X33609524Y-55804819D01*
X33609524Y-55804819D02*
X33800000Y-55090533D01*
X33800000Y-55090533D02*
X33990476Y-55804819D01*
X33990476Y-55804819D02*
X34228572Y-54804819D01*
X35133333Y-55804819D02*
X34561905Y-55804819D01*
X34847619Y-55804819D02*
X34847619Y-54804819D01*
X34847619Y-54804819D02*
X34752381Y-54947676D01*
X34752381Y-54947676D02*
X34657143Y-55042914D01*
X34657143Y-55042914D02*
X34561905Y-55090533D01*
X85478333Y-50289819D02*
X85145000Y-49813628D01*
X84906905Y-50289819D02*
X84906905Y-49289819D01*
X84906905Y-49289819D02*
X85287857Y-49289819D01*
X85287857Y-49289819D02*
X85383095Y-49337438D01*
X85383095Y-49337438D02*
X85430714Y-49385057D01*
X85430714Y-49385057D02*
X85478333Y-49480295D01*
X85478333Y-49480295D02*
X85478333Y-49623152D01*
X85478333Y-49623152D02*
X85430714Y-49718390D01*
X85430714Y-49718390D02*
X85383095Y-49766009D01*
X85383095Y-49766009D02*
X85287857Y-49813628D01*
X85287857Y-49813628D02*
X84906905Y-49813628D01*
X86383095Y-49289819D02*
X85906905Y-49289819D01*
X85906905Y-49289819D02*
X85859286Y-49766009D01*
X85859286Y-49766009D02*
X85906905Y-49718390D01*
X85906905Y-49718390D02*
X86002143Y-49670771D01*
X86002143Y-49670771D02*
X86240238Y-49670771D01*
X86240238Y-49670771D02*
X86335476Y-49718390D01*
X86335476Y-49718390D02*
X86383095Y-49766009D01*
X86383095Y-49766009D02*
X86430714Y-49861247D01*
X86430714Y-49861247D02*
X86430714Y-50099342D01*
X86430714Y-50099342D02*
X86383095Y-50194580D01*
X86383095Y-50194580D02*
X86335476Y-50242200D01*
X86335476Y-50242200D02*
X86240238Y-50289819D01*
X86240238Y-50289819D02*
X86002143Y-50289819D01*
X86002143Y-50289819D02*
X85906905Y-50242200D01*
X85906905Y-50242200D02*
X85859286Y-50194580D01*
X98946905Y-60599819D02*
X98946905Y-59599819D01*
X98946905Y-59599819D02*
X99185000Y-59599819D01*
X99185000Y-59599819D02*
X99327857Y-59647438D01*
X99327857Y-59647438D02*
X99423095Y-59742676D01*
X99423095Y-59742676D02*
X99470714Y-59837914D01*
X99470714Y-59837914D02*
X99518333Y-60028390D01*
X99518333Y-60028390D02*
X99518333Y-60171247D01*
X99518333Y-60171247D02*
X99470714Y-60361723D01*
X99470714Y-60361723D02*
X99423095Y-60456961D01*
X99423095Y-60456961D02*
X99327857Y-60552200D01*
X99327857Y-60552200D02*
X99185000Y-60599819D01*
X99185000Y-60599819D02*
X98946905Y-60599819D01*
X99899286Y-59695057D02*
X99946905Y-59647438D01*
X99946905Y-59647438D02*
X100042143Y-59599819D01*
X100042143Y-59599819D02*
X100280238Y-59599819D01*
X100280238Y-59599819D02*
X100375476Y-59647438D01*
X100375476Y-59647438D02*
X100423095Y-59695057D01*
X100423095Y-59695057D02*
X100470714Y-59790295D01*
X100470714Y-59790295D02*
X100470714Y-59885533D01*
X100470714Y-59885533D02*
X100423095Y-60028390D01*
X100423095Y-60028390D02*
X99851667Y-60599819D01*
X99851667Y-60599819D02*
X100470714Y-60599819D01*
X84488333Y-22689819D02*
X84155000Y-22213628D01*
X83916905Y-22689819D02*
X83916905Y-21689819D01*
X83916905Y-21689819D02*
X84297857Y-21689819D01*
X84297857Y-21689819D02*
X84393095Y-21737438D01*
X84393095Y-21737438D02*
X84440714Y-21785057D01*
X84440714Y-21785057D02*
X84488333Y-21880295D01*
X84488333Y-21880295D02*
X84488333Y-22023152D01*
X84488333Y-22023152D02*
X84440714Y-22118390D01*
X84440714Y-22118390D02*
X84393095Y-22166009D01*
X84393095Y-22166009D02*
X84297857Y-22213628D01*
X84297857Y-22213628D02*
X83916905Y-22213628D01*
X85440714Y-22689819D02*
X84869286Y-22689819D01*
X85155000Y-22689819D02*
X85155000Y-21689819D01*
X85155000Y-21689819D02*
X85059762Y-21832676D01*
X85059762Y-21832676D02*
X84964524Y-21927914D01*
X84964524Y-21927914D02*
X84869286Y-21975533D01*
X67788095Y-24934819D02*
X67788095Y-25744342D01*
X67788095Y-25744342D02*
X67835714Y-25839580D01*
X67835714Y-25839580D02*
X67883333Y-25887200D01*
X67883333Y-25887200D02*
X67978571Y-25934819D01*
X67978571Y-25934819D02*
X68169047Y-25934819D01*
X68169047Y-25934819D02*
X68264285Y-25887200D01*
X68264285Y-25887200D02*
X68311904Y-25839580D01*
X68311904Y-25839580D02*
X68359523Y-25744342D01*
X68359523Y-25744342D02*
X68359523Y-24934819D01*
X69359523Y-25934819D02*
X68788095Y-25934819D01*
X69073809Y-25934819D02*
X69073809Y-24934819D01*
X69073809Y-24934819D02*
X68978571Y-25077676D01*
X68978571Y-25077676D02*
X68883333Y-25172914D01*
X68883333Y-25172914D02*
X68788095Y-25220533D01*
X84878333Y-36289819D02*
X84545000Y-35813628D01*
X84306905Y-36289819D02*
X84306905Y-35289819D01*
X84306905Y-35289819D02*
X84687857Y-35289819D01*
X84687857Y-35289819D02*
X84783095Y-35337438D01*
X84783095Y-35337438D02*
X84830714Y-35385057D01*
X84830714Y-35385057D02*
X84878333Y-35480295D01*
X84878333Y-35480295D02*
X84878333Y-35623152D01*
X84878333Y-35623152D02*
X84830714Y-35718390D01*
X84830714Y-35718390D02*
X84783095Y-35766009D01*
X84783095Y-35766009D02*
X84687857Y-35813628D01*
X84687857Y-35813628D02*
X84306905Y-35813628D01*
X85211667Y-35289819D02*
X85830714Y-35289819D01*
X85830714Y-35289819D02*
X85497381Y-35670771D01*
X85497381Y-35670771D02*
X85640238Y-35670771D01*
X85640238Y-35670771D02*
X85735476Y-35718390D01*
X85735476Y-35718390D02*
X85783095Y-35766009D01*
X85783095Y-35766009D02*
X85830714Y-35861247D01*
X85830714Y-35861247D02*
X85830714Y-36099342D01*
X85830714Y-36099342D02*
X85783095Y-36194580D01*
X85783095Y-36194580D02*
X85735476Y-36242200D01*
X85735476Y-36242200D02*
X85640238Y-36289819D01*
X85640238Y-36289819D02*
X85354524Y-36289819D01*
X85354524Y-36289819D02*
X85259286Y-36242200D01*
X85259286Y-36242200D02*
X85211667Y-36194580D01*
%TO.C,C4*%
D11*
X52435000Y-40035000D02*
X57675000Y-40035000D01*
X52435000Y-40372000D02*
X52435000Y-40035000D01*
X52435000Y-42775000D02*
X52435000Y-42438000D01*
X57675000Y-40035000D02*
X57675000Y-40372000D01*
X57675000Y-42438000D02*
X57675000Y-42775000D01*
X57675000Y-42775000D02*
X52435000Y-42775000D01*
%TO.C,R2*%
X81775000Y-30035000D02*
X88315000Y-30035000D01*
X81775000Y-30365000D02*
X81775000Y-30035000D01*
X81775000Y-32445000D02*
X81775000Y-32775000D01*
X81775000Y-32775000D02*
X88315000Y-32775000D01*
X88315000Y-30035000D02*
X88315000Y-30365000D01*
X88315000Y-32775000D02*
X88315000Y-32445000D01*
%TO.C,R4*%
X81975000Y-44435000D02*
X88515000Y-44435000D01*
X81975000Y-44765000D02*
X81975000Y-44435000D01*
X81975000Y-46845000D02*
X81975000Y-47175000D01*
X81975000Y-47175000D02*
X88515000Y-47175000D01*
X88515000Y-44435000D02*
X88515000Y-44765000D01*
X88515000Y-47175000D02*
X88515000Y-46845000D01*
%TO.C,J1*%
X32275000Y-71285000D02*
X33655000Y-71285000D01*
X32275000Y-72665000D02*
X32275000Y-71285000D01*
X32275000Y-73935000D02*
X32275000Y-79125000D01*
X32275000Y-73935000D02*
X35035000Y-73935000D01*
X32275000Y-79125000D02*
X35035000Y-79125000D01*
X35035000Y-73935000D02*
X35035000Y-79125000D01*
%TO.C,SW2*%
X41050000Y-59100000D02*
X41050000Y-60600000D01*
X42300000Y-63100000D02*
X46800000Y-63100000D01*
X46800000Y-56600000D02*
X42300000Y-56600000D01*
X48050000Y-60600000D02*
X48050000Y-59100000D01*
%TO.C,D1*%
X96875000Y-54560000D02*
X96875000Y-57650000D01*
X96875000Y-54560170D02*
G75*
G02*
X102425000Y-56105000I2560000J-1544830D01*
G01*
X102425000Y-56105000D02*
G75*
G02*
X96875000Y-57649830I-2990000J0D01*
G01*
X101935000Y-56105000D02*
G75*
G02*
X96935000Y-56105000I-2500000J0D01*
G01*
X96935000Y-56105000D02*
G75*
G02*
X101935000Y-56105000I2500000J0D01*
G01*
%TO.C,C2*%
X79430000Y-73980000D02*
X84670000Y-73980000D01*
X79430000Y-74317000D02*
X79430000Y-73980000D01*
X79430000Y-76720000D02*
X79430000Y-76383000D01*
X84670000Y-73980000D02*
X84670000Y-74317000D01*
X84670000Y-76383000D02*
X84670000Y-76720000D01*
X84670000Y-76720000D02*
X79430000Y-76720000D01*
%TO.C,R6*%
X82575000Y-57835000D02*
X89115000Y-57835000D01*
X82575000Y-58165000D02*
X82575000Y-57835000D01*
X82575000Y-60245000D02*
X82575000Y-60575000D01*
X82575000Y-60575000D02*
X89115000Y-60575000D01*
X89115000Y-57835000D02*
X89115000Y-58165000D01*
X89115000Y-60575000D02*
X89115000Y-60245000D01*
%TO.C,C5*%
X88430000Y-74230000D02*
X93670000Y-74230000D01*
X88430000Y-74567000D02*
X88430000Y-74230000D01*
X88430000Y-76970000D02*
X88430000Y-76633000D01*
X93670000Y-74230000D02*
X93670000Y-74567000D01*
X93670000Y-76633000D02*
X93670000Y-76970000D01*
X93670000Y-76970000D02*
X88430000Y-76970000D01*
%TO.C,Y1*%
X39290000Y-39170000D02*
X45540000Y-39170000D01*
X45540000Y-44040000D02*
X39290000Y-44040000D01*
X39290000Y-44040000D02*
G75*
G02*
X39290000Y-39170000I0J2435000D01*
G01*
X45540000Y-39170000D02*
G75*
G02*
X45540000Y-44040000I0J-2435000D01*
G01*
%TO.C,SW3*%
X51050000Y-59100000D02*
X51050000Y-60600000D01*
X52300000Y-63100000D02*
X56800000Y-63100000D01*
X56800000Y-56600000D02*
X52300000Y-56600000D01*
X58050000Y-60600000D02*
X58050000Y-59100000D01*
%TO.C,SW4*%
X32905000Y-26405000D02*
X32905000Y-27905000D01*
X34155000Y-30405000D02*
X38655000Y-30405000D01*
X38655000Y-23905000D02*
X34155000Y-23905000D01*
X39905000Y-27905000D02*
X39905000Y-26405000D01*
%TO.C,C1*%
X97430000Y-74980000D02*
X102670000Y-74980000D01*
X97430000Y-75317000D02*
X97430000Y-74980000D01*
X97430000Y-77720000D02*
X97430000Y-77383000D01*
X102670000Y-74980000D02*
X102670000Y-75317000D01*
X102670000Y-77383000D02*
X102670000Y-77720000D01*
X102670000Y-77720000D02*
X97430000Y-77720000D01*
%TO.C,C3*%
X29435000Y-40235000D02*
X34675000Y-40235000D01*
X29435000Y-40572000D02*
X29435000Y-40235000D01*
X29435000Y-42975000D02*
X29435000Y-42638000D01*
X34675000Y-40235000D02*
X34675000Y-40572000D01*
X34675000Y-42638000D02*
X34675000Y-42975000D01*
X34675000Y-42975000D02*
X29435000Y-42975000D01*
%TO.C,SW1*%
X30300000Y-58850000D02*
X30300000Y-60350000D01*
X31550000Y-62850000D02*
X36050000Y-62850000D01*
X36050000Y-56350000D02*
X31550000Y-56350000D01*
X37300000Y-60350000D02*
X37300000Y-58850000D01*
%TO.C,R5*%
X82375000Y-50835000D02*
X88915000Y-50835000D01*
X82375000Y-51165000D02*
X82375000Y-50835000D01*
X82375000Y-53245000D02*
X82375000Y-53575000D01*
X82375000Y-53575000D02*
X88915000Y-53575000D01*
X88915000Y-50835000D02*
X88915000Y-51165000D01*
X88915000Y-53575000D02*
X88915000Y-53245000D01*
%TO.C,D2*%
X97125000Y-62560000D02*
X97125000Y-65650000D01*
X97125000Y-62560170D02*
G75*
G02*
X102675000Y-64105000I2560000J-1544830D01*
G01*
X102675000Y-64105000D02*
G75*
G02*
X97125000Y-65649830I-2990000J0D01*
G01*
X102185000Y-64105000D02*
G75*
G02*
X97185000Y-64105000I-2500000J0D01*
G01*
X97185000Y-64105000D02*
G75*
G02*
X102185000Y-64105000I2500000J0D01*
G01*
%TO.C,R1*%
X81385000Y-23235000D02*
X87925000Y-23235000D01*
X81385000Y-23565000D02*
X81385000Y-23235000D01*
X81385000Y-25645000D02*
X81385000Y-25975000D01*
X81385000Y-25975000D02*
X87925000Y-25975000D01*
X87925000Y-23235000D02*
X87925000Y-23565000D01*
X87925000Y-25975000D02*
X87925000Y-25645000D01*
%TO.C,U1*%
X62210000Y-26150000D02*
X62210000Y-77070000D01*
X62210000Y-77070000D02*
X75130000Y-77070000D01*
X67670000Y-26150000D02*
X62210000Y-26150000D01*
X75130000Y-26150000D02*
X69670000Y-26150000D01*
X75130000Y-77070000D02*
X75130000Y-26150000D01*
X69670000Y-26150000D02*
G75*
G02*
X67670000Y-26150000I-1000000J0D01*
G01*
%TO.C,R3*%
X81775000Y-36835000D02*
X88315000Y-36835000D01*
X81775000Y-37165000D02*
X81775000Y-36835000D01*
X81775000Y-39245000D02*
X81775000Y-39575000D01*
X81775000Y-39575000D02*
X88315000Y-39575000D01*
X88315000Y-36835000D02*
X88315000Y-37165000D01*
X88315000Y-39575000D02*
X88315000Y-39245000D01*
%TD*%
M02*
