%TF.GenerationSoftware,KiCad,Pcbnew,10.0.3-10.0.3~ubuntu24.04.1*%
%TF.CreationDate,2026-06-16T10:42:01+03:00*%
%TF.ProjectId,ATmega32_Clock,41546d65-6761-4333-925f-436c6f636b2e,1.0*%
%TF.SameCoordinates,Original*%
%TF.FileFunction,Copper,L2,Bot*%
%TF.FilePolarity,Positive*%
%FSLAX46Y46*%
G04 Gerber Fmt 4.6, Leading zero omitted, Abs format (unit mm)*
G04 Created by KiCad (PCBNEW 10.0.3-10.0.3~ubuntu24.04.1) date 2026-06-16 10:42:01*
%MOMM*%
%LPD*%
G01*
G04 APERTURE LIST*
%TA.AperFunction,ComponentPad*%
%ADD10R,1.600000X1.600000*%
%TD*%
%TA.AperFunction,ComponentPad*%
%ADD11O,1.600000X1.600000*%
%TD*%
%TA.AperFunction,ComponentPad*%
%ADD12C,1.500000*%
%TD*%
%TA.AperFunction,ComponentPad*%
%ADD13C,1.400000*%
%TD*%
%TA.AperFunction,ComponentPad*%
%ADD14C,1.600000*%
%TD*%
%TA.AperFunction,ComponentPad*%
%ADD15C,1.800000*%
%TD*%
%TA.AperFunction,ComponentPad*%
%ADD16R,1.700000X1.700000*%
%TD*%
%TA.AperFunction,ComponentPad*%
%ADD17O,1.700000X1.700000*%
%TD*%
G04 APERTURE END LIST*
D10*
%TO.P,U1,1*%
%TO.N,LED_STATUS*%
X35000000Y-30000000D03*
D11*
%TO.P,U1,2*%
%TO.N,LED_TASK*%
X35000000Y-32540000D03*
%TO.P,U1,3*%
%TO.N,N/C*%
X35000000Y-35080000D03*
%TO.P,U1,4*%
X35000000Y-37620000D03*
%TO.P,U1,5*%
X35000000Y-40160000D03*
%TO.P,U1,6*%
%TO.N,MOSI*%
X35000000Y-42700000D03*
%TO.P,U1,7*%
%TO.N,MISO*%
X35000000Y-45240000D03*
%TO.P,U1,8*%
%TO.N,SCK*%
X35000000Y-47780000D03*
%TO.P,U1,9*%
%TO.N,~{RESET}*%
X35000000Y-50320000D03*
%TO.P,U1,10*%
%TO.N,VCC*%
X35000000Y-52860000D03*
%TO.P,U1,11*%
%TO.N,GND*%
X35000000Y-55400000D03*
%TO.P,U1,12*%
%TO.N,XTAL2*%
X35000000Y-57940000D03*
%TO.P,U1,13*%
%TO.N,XTAL1*%
X35000000Y-60480000D03*
%TO.P,U1,14*%
%TO.N,USART_RXD*%
X35000000Y-63020000D03*
%TO.P,U1,15*%
%TO.N,USART_TXD*%
X35000000Y-65560000D03*
%TO.P,U1,16*%
%TO.N,N/C*%
X35000000Y-68100000D03*
%TO.P,U1,17*%
X35000000Y-70640000D03*
%TO.P,U1,18*%
X35000000Y-73180000D03*
%TO.P,U1,19*%
X35000000Y-75720000D03*
%TO.P,U1,20*%
X35000000Y-78260000D03*
%TO.P,U1,21*%
X50240000Y-78260000D03*
%TO.P,U1,22*%
X50240000Y-75720000D03*
%TO.P,U1,23*%
X50240000Y-73180000D03*
%TO.P,U1,24*%
X50240000Y-70640000D03*
%TO.P,U1,25*%
X50240000Y-68100000D03*
%TO.P,U1,26*%
X50240000Y-65560000D03*
%TO.P,U1,27*%
X50240000Y-63020000D03*
%TO.P,U1,28*%
X50240000Y-60480000D03*
%TO.P,U1,29*%
X50240000Y-57940000D03*
%TO.P,U1,30*%
%TO.N,VCC*%
X50240000Y-55400000D03*
%TO.P,U1,31*%
%TO.N,GND*%
X50240000Y-52860000D03*
%TO.P,U1,32*%
%TO.N,VCC*%
X50240000Y-50320000D03*
%TO.P,U1,33*%
%TO.N,N/C*%
X50240000Y-47780000D03*
%TO.P,U1,34*%
X50240000Y-45240000D03*
%TO.P,U1,35*%
X50240000Y-42700000D03*
%TO.P,U1,36*%
X50240000Y-40160000D03*
%TO.P,U1,37*%
X50240000Y-37620000D03*
%TO.P,U1,38*%
%TO.N,CLOCK_RESET*%
X50240000Y-35080000D03*
%TO.P,U1,39*%
%TO.N,INC_BTN*%
X50240000Y-32540000D03*
%TO.P,U1,40*%
%TO.N,SET_BTN*%
X50240000Y-30000000D03*
%TD*%
D12*
%TO.P,Y1,1*%
%TO.N,XTAL1*%
X15560000Y-24000000D03*
%TO.P,Y1,2*%
%TO.N,XTAL2*%
X20440000Y-24000000D03*
%TD*%
D13*
%TO.P,C1,1*%
%TO.N,XTAL1*%
X14000000Y-28000000D03*
%TO.P,C1,2*%
%TO.N,GND*%
X16500000Y-28000000D03*
%TD*%
%TO.P,C2,1*%
%TO.N,XTAL2*%
X22000000Y-28000000D03*
%TO.P,C2,2*%
%TO.N,GND*%
X24500000Y-28000000D03*
%TD*%
%TO.P,C3,1*%
%TO.N,VCC*%
X27000000Y-14000000D03*
%TO.P,C3,2*%
%TO.N,GND*%
X29500000Y-14000000D03*
%TD*%
%TO.P,C4,1*%
%TO.N,VCC*%
X42000000Y-14000000D03*
%TO.P,C4,2*%
%TO.N,GND*%
X44500000Y-14000000D03*
%TD*%
D14*
%TO.P,R1,1*%
%TO.N,VCC*%
X10000000Y-34000000D03*
D11*
%TO.P,R1,2*%
%TO.N,~{RESET}*%
X20160000Y-34000000D03*
%TD*%
D15*
%TO.P,SW1,1*%
%TO.N,~{RESET}*%
X12000000Y-40000000D03*
%TO.P,SW1,2*%
%TO.N,GND*%
X18500000Y-40000000D03*
%TD*%
D14*
%TO.P,R2,1*%
%TO.N,VCC*%
X56000000Y-42000000D03*
D11*
%TO.P,R2,2*%
%TO.N,Net-R2-1*%
X66160000Y-42000000D03*
%TD*%
D15*
%TO.P,SW2,1*%
%TO.N,SET_BTN*%
X58000000Y-50000000D03*
%TO.P,SW2,2*%
%TO.N,GND*%
X64500000Y-50000000D03*
%TD*%
D14*
%TO.P,R3,1*%
%TO.N,VCC*%
X73000000Y-42000000D03*
D11*
%TO.P,R3,2*%
%TO.N,Net-R3-1*%
X83160000Y-42000000D03*
%TD*%
D15*
%TO.P,SW3,1*%
%TO.N,INC_BTN*%
X75000000Y-50000000D03*
%TO.P,SW3,2*%
%TO.N,GND*%
X81500000Y-50000000D03*
%TD*%
D14*
%TO.P,R4,1*%
%TO.N,VCC*%
X88000000Y-42000000D03*
D11*
%TO.P,R4,2*%
%TO.N,Net-R4-1*%
X98160000Y-42000000D03*
%TD*%
D15*
%TO.P,SW4,1*%
%TO.N,CLOCK_RESET*%
X90000000Y-50000000D03*
%TO.P,SW4,2*%
%TO.N,GND*%
X96500000Y-50000000D03*
%TD*%
D14*
%TO.P,R5,1*%
%TO.N,LED_STATUS*%
X58000000Y-10000000D03*
D11*
%TO.P,R5,2*%
%TO.N,Net-D1-K*%
X68160000Y-10000000D03*
%TD*%
D15*
%TO.P,D1,1*%
%TO.N,Net-D1-K*%
X62000000Y-6000000D03*
%TO.P,D1,2*%
%TO.N,GND*%
X64540000Y-6000000D03*
%TD*%
D14*
%TO.P,R6,1*%
%TO.N,LED_TASK*%
X66000000Y-10000000D03*
D11*
%TO.P,R6,2*%
%TO.N,Net-D2-K*%
X76160000Y-10000000D03*
%TD*%
D15*
%TO.P,D2,1*%
%TO.N,Net-D2-K*%
X70000000Y-6000000D03*
%TO.P,D2,2*%
%TO.N,GND*%
X72540000Y-6000000D03*
%TD*%
D16*
%TO.P,J1,1*%
%TO.N,USART_TXD*%
X74000000Y-28000000D03*
D17*
%TO.P,J1,2*%
%TO.N,USART_RXD*%
X74000000Y-30540000D03*
%TD*%
D16*
%TO.P,J2,1*%
%TO.N,MOSI*%
X8000000Y-50000000D03*
D17*
%TO.P,J2,2*%
%TO.N,VCC*%
X10540000Y-50000000D03*
%TO.P,J2,3*%
%TO.N,N/C*%
X8000000Y-52540000D03*
%TO.P,J2,4*%
%TO.N,MISO*%
X10540000Y-52540000D03*
%TO.P,J2,5*%
%TO.N,~{RESET}*%
X8000000Y-55080000D03*
%TO.P,J2,6*%
%TO.N,SCK*%
X10540000Y-55080000D03*
%TD*%
M02*
