%TF.GenerationSoftware,KiCad,Pcbnew,10.0.3-10.0.3~ubuntu24.04.1*%
%TF.CreationDate,2026-06-16T10:42:01+03:00*%
%TF.ProjectId,ATmega32_Clock,41546d65-6761-4333-925f-436c6f636b2e,1.0*%
%TF.SameCoordinates,Original*%
%TF.FileFunction,Legend,Top*%
%TF.FilePolarity,Positive*%
%FSLAX46Y46*%
G04 Gerber Fmt 4.6, Leading zero omitted, Abs format (unit mm)*
G04 Created by KiCad (PCBNEW 10.0.3-10.0.3~ubuntu24.04.1) date 2026-06-16 10:42:01*
%MOMM*%
%LPD*%
G01*
G04 APERTURE LIST*
%ADD10C,0.200000*%
%ADD11C,0.150000*%
%ADD12C,0.120000*%
G04 APERTURE END LIST*
D10*
X26785715Y-3254957D02*
X27500001Y-3254957D01*
X26642858Y-3683528D02*
X27142858Y-2183528D01*
X27142858Y-2183528D02*
X27642858Y-3683528D01*
X27928572Y-2183528D02*
X28785715Y-2183528D01*
X28357143Y-3683528D02*
X28357143Y-2183528D01*
X29285714Y-3683528D02*
X29285714Y-2683528D01*
X29285714Y-2826385D02*
X29357143Y-2754957D01*
X29357143Y-2754957D02*
X29500000Y-2683528D01*
X29500000Y-2683528D02*
X29714286Y-2683528D01*
X29714286Y-2683528D02*
X29857143Y-2754957D01*
X29857143Y-2754957D02*
X29928572Y-2897814D01*
X29928572Y-2897814D02*
X29928572Y-3683528D01*
X29928572Y-2897814D02*
X30000000Y-2754957D01*
X30000000Y-2754957D02*
X30142857Y-2683528D01*
X30142857Y-2683528D02*
X30357143Y-2683528D01*
X30357143Y-2683528D02*
X30500000Y-2754957D01*
X30500000Y-2754957D02*
X30571429Y-2897814D01*
X30571429Y-2897814D02*
X30571429Y-3683528D01*
X31857143Y-3612100D02*
X31714286Y-3683528D01*
X31714286Y-3683528D02*
X31428572Y-3683528D01*
X31428572Y-3683528D02*
X31285714Y-3612100D01*
X31285714Y-3612100D02*
X31214286Y-3469242D01*
X31214286Y-3469242D02*
X31214286Y-2897814D01*
X31214286Y-2897814D02*
X31285714Y-2754957D01*
X31285714Y-2754957D02*
X31428572Y-2683528D01*
X31428572Y-2683528D02*
X31714286Y-2683528D01*
X31714286Y-2683528D02*
X31857143Y-2754957D01*
X31857143Y-2754957D02*
X31928572Y-2897814D01*
X31928572Y-2897814D02*
X31928572Y-3040671D01*
X31928572Y-3040671D02*
X31214286Y-3183528D01*
X33214286Y-2683528D02*
X33214286Y-3897814D01*
X33214286Y-3897814D02*
X33142857Y-4040671D01*
X33142857Y-4040671D02*
X33071428Y-4112100D01*
X33071428Y-4112100D02*
X32928571Y-4183528D01*
X32928571Y-4183528D02*
X32714286Y-4183528D01*
X32714286Y-4183528D02*
X32571428Y-4112100D01*
X33214286Y-3612100D02*
X33071428Y-3683528D01*
X33071428Y-3683528D02*
X32785714Y-3683528D01*
X32785714Y-3683528D02*
X32642857Y-3612100D01*
X32642857Y-3612100D02*
X32571428Y-3540671D01*
X32571428Y-3540671D02*
X32500000Y-3397814D01*
X32500000Y-3397814D02*
X32500000Y-2969242D01*
X32500000Y-2969242D02*
X32571428Y-2826385D01*
X32571428Y-2826385D02*
X32642857Y-2754957D01*
X32642857Y-2754957D02*
X32785714Y-2683528D01*
X32785714Y-2683528D02*
X33071428Y-2683528D01*
X33071428Y-2683528D02*
X33214286Y-2754957D01*
X34571429Y-3683528D02*
X34571429Y-2897814D01*
X34571429Y-2897814D02*
X34500000Y-2754957D01*
X34500000Y-2754957D02*
X34357143Y-2683528D01*
X34357143Y-2683528D02*
X34071429Y-2683528D01*
X34071429Y-2683528D02*
X33928571Y-2754957D01*
X34571429Y-3612100D02*
X34428571Y-3683528D01*
X34428571Y-3683528D02*
X34071429Y-3683528D01*
X34071429Y-3683528D02*
X33928571Y-3612100D01*
X33928571Y-3612100D02*
X33857143Y-3469242D01*
X33857143Y-3469242D02*
X33857143Y-3326385D01*
X33857143Y-3326385D02*
X33928571Y-3183528D01*
X33928571Y-3183528D02*
X34071429Y-3112100D01*
X34071429Y-3112100D02*
X34428571Y-3112100D01*
X34428571Y-3112100D02*
X34571429Y-3040671D01*
X35142857Y-2183528D02*
X36071429Y-2183528D01*
X36071429Y-2183528D02*
X35571429Y-2754957D01*
X35571429Y-2754957D02*
X35785714Y-2754957D01*
X35785714Y-2754957D02*
X35928572Y-2826385D01*
X35928572Y-2826385D02*
X36000000Y-2897814D01*
X36000000Y-2897814D02*
X36071429Y-3040671D01*
X36071429Y-3040671D02*
X36071429Y-3397814D01*
X36071429Y-3397814D02*
X36000000Y-3540671D01*
X36000000Y-3540671D02*
X35928572Y-3612100D01*
X35928572Y-3612100D02*
X35785714Y-3683528D01*
X35785714Y-3683528D02*
X35357143Y-3683528D01*
X35357143Y-3683528D02*
X35214286Y-3612100D01*
X35214286Y-3612100D02*
X35142857Y-3540671D01*
X36642857Y-2326385D02*
X36714285Y-2254957D01*
X36714285Y-2254957D02*
X36857143Y-2183528D01*
X36857143Y-2183528D02*
X37214285Y-2183528D01*
X37214285Y-2183528D02*
X37357143Y-2254957D01*
X37357143Y-2254957D02*
X37428571Y-2326385D01*
X37428571Y-2326385D02*
X37500000Y-2469242D01*
X37500000Y-2469242D02*
X37500000Y-2612100D01*
X37500000Y-2612100D02*
X37428571Y-2826385D01*
X37428571Y-2826385D02*
X36571428Y-3683528D01*
X36571428Y-3683528D02*
X37500000Y-3683528D01*
X39285713Y-3683528D02*
X39285713Y-2183528D01*
X39285713Y-2183528D02*
X39642856Y-2183528D01*
X39642856Y-2183528D02*
X39857142Y-2254957D01*
X39857142Y-2254957D02*
X39999999Y-2397814D01*
X39999999Y-2397814D02*
X40071428Y-2540671D01*
X40071428Y-2540671D02*
X40142856Y-2826385D01*
X40142856Y-2826385D02*
X40142856Y-3040671D01*
X40142856Y-3040671D02*
X40071428Y-3326385D01*
X40071428Y-3326385D02*
X39999999Y-3469242D01*
X39999999Y-3469242D02*
X39857142Y-3612100D01*
X39857142Y-3612100D02*
X39642856Y-3683528D01*
X39642856Y-3683528D02*
X39285713Y-3683528D01*
X40785713Y-3683528D02*
X40785713Y-2683528D01*
X40785713Y-2183528D02*
X40714285Y-2254957D01*
X40714285Y-2254957D02*
X40785713Y-2326385D01*
X40785713Y-2326385D02*
X40857142Y-2254957D01*
X40857142Y-2254957D02*
X40785713Y-2183528D01*
X40785713Y-2183528D02*
X40785713Y-2326385D01*
X42142857Y-2683528D02*
X42142857Y-3897814D01*
X42142857Y-3897814D02*
X42071428Y-4040671D01*
X42071428Y-4040671D02*
X41999999Y-4112100D01*
X41999999Y-4112100D02*
X41857142Y-4183528D01*
X41857142Y-4183528D02*
X41642857Y-4183528D01*
X41642857Y-4183528D02*
X41499999Y-4112100D01*
X42142857Y-3612100D02*
X41999999Y-3683528D01*
X41999999Y-3683528D02*
X41714285Y-3683528D01*
X41714285Y-3683528D02*
X41571428Y-3612100D01*
X41571428Y-3612100D02*
X41499999Y-3540671D01*
X41499999Y-3540671D02*
X41428571Y-3397814D01*
X41428571Y-3397814D02*
X41428571Y-2969242D01*
X41428571Y-2969242D02*
X41499999Y-2826385D01*
X41499999Y-2826385D02*
X41571428Y-2754957D01*
X41571428Y-2754957D02*
X41714285Y-2683528D01*
X41714285Y-2683528D02*
X41999999Y-2683528D01*
X41999999Y-2683528D02*
X42142857Y-2754957D01*
X42857142Y-3683528D02*
X42857142Y-2683528D01*
X42857142Y-2183528D02*
X42785714Y-2254957D01*
X42785714Y-2254957D02*
X42857142Y-2326385D01*
X42857142Y-2326385D02*
X42928571Y-2254957D01*
X42928571Y-2254957D02*
X42857142Y-2183528D01*
X42857142Y-2183528D02*
X42857142Y-2326385D01*
X43357143Y-2683528D02*
X43928571Y-2683528D01*
X43571428Y-2183528D02*
X43571428Y-3469242D01*
X43571428Y-3469242D02*
X43642857Y-3612100D01*
X43642857Y-3612100D02*
X43785714Y-3683528D01*
X43785714Y-3683528D02*
X43928571Y-3683528D01*
X45071429Y-3683528D02*
X45071429Y-2897814D01*
X45071429Y-2897814D02*
X45000000Y-2754957D01*
X45000000Y-2754957D02*
X44857143Y-2683528D01*
X44857143Y-2683528D02*
X44571429Y-2683528D01*
X44571429Y-2683528D02*
X44428571Y-2754957D01*
X45071429Y-3612100D02*
X44928571Y-3683528D01*
X44928571Y-3683528D02*
X44571429Y-3683528D01*
X44571429Y-3683528D02*
X44428571Y-3612100D01*
X44428571Y-3612100D02*
X44357143Y-3469242D01*
X44357143Y-3469242D02*
X44357143Y-3326385D01*
X44357143Y-3326385D02*
X44428571Y-3183528D01*
X44428571Y-3183528D02*
X44571429Y-3112100D01*
X44571429Y-3112100D02*
X44928571Y-3112100D01*
X44928571Y-3112100D02*
X45071429Y-3040671D01*
X46000000Y-3683528D02*
X45857143Y-3612100D01*
X45857143Y-3612100D02*
X45785714Y-3469242D01*
X45785714Y-3469242D02*
X45785714Y-2183528D01*
X48571428Y-3540671D02*
X48500000Y-3612100D01*
X48500000Y-3612100D02*
X48285714Y-3683528D01*
X48285714Y-3683528D02*
X48142857Y-3683528D01*
X48142857Y-3683528D02*
X47928571Y-3612100D01*
X47928571Y-3612100D02*
X47785714Y-3469242D01*
X47785714Y-3469242D02*
X47714285Y-3326385D01*
X47714285Y-3326385D02*
X47642857Y-3040671D01*
X47642857Y-3040671D02*
X47642857Y-2826385D01*
X47642857Y-2826385D02*
X47714285Y-2540671D01*
X47714285Y-2540671D02*
X47785714Y-2397814D01*
X47785714Y-2397814D02*
X47928571Y-2254957D01*
X47928571Y-2254957D02*
X48142857Y-2183528D01*
X48142857Y-2183528D02*
X48285714Y-2183528D01*
X48285714Y-2183528D02*
X48500000Y-2254957D01*
X48500000Y-2254957D02*
X48571428Y-2326385D01*
X49428571Y-3683528D02*
X49285714Y-3612100D01*
X49285714Y-3612100D02*
X49214285Y-3469242D01*
X49214285Y-3469242D02*
X49214285Y-2183528D01*
X50214285Y-3683528D02*
X50071428Y-3612100D01*
X50071428Y-3612100D02*
X49999999Y-3540671D01*
X49999999Y-3540671D02*
X49928571Y-3397814D01*
X49928571Y-3397814D02*
X49928571Y-2969242D01*
X49928571Y-2969242D02*
X49999999Y-2826385D01*
X49999999Y-2826385D02*
X50071428Y-2754957D01*
X50071428Y-2754957D02*
X50214285Y-2683528D01*
X50214285Y-2683528D02*
X50428571Y-2683528D01*
X50428571Y-2683528D02*
X50571428Y-2754957D01*
X50571428Y-2754957D02*
X50642857Y-2826385D01*
X50642857Y-2826385D02*
X50714285Y-2969242D01*
X50714285Y-2969242D02*
X50714285Y-3397814D01*
X50714285Y-3397814D02*
X50642857Y-3540671D01*
X50642857Y-3540671D02*
X50571428Y-3612100D01*
X50571428Y-3612100D02*
X50428571Y-3683528D01*
X50428571Y-3683528D02*
X50214285Y-3683528D01*
X52000000Y-3612100D02*
X51857142Y-3683528D01*
X51857142Y-3683528D02*
X51571428Y-3683528D01*
X51571428Y-3683528D02*
X51428571Y-3612100D01*
X51428571Y-3612100D02*
X51357142Y-3540671D01*
X51357142Y-3540671D02*
X51285714Y-3397814D01*
X51285714Y-3397814D02*
X51285714Y-2969242D01*
X51285714Y-2969242D02*
X51357142Y-2826385D01*
X51357142Y-2826385D02*
X51428571Y-2754957D01*
X51428571Y-2754957D02*
X51571428Y-2683528D01*
X51571428Y-2683528D02*
X51857142Y-2683528D01*
X51857142Y-2683528D02*
X52000000Y-2754957D01*
X52642856Y-3683528D02*
X52642856Y-2183528D01*
X52785714Y-3112100D02*
X53214285Y-3683528D01*
X53214285Y-2683528D02*
X52642856Y-3254957D01*
D11*
X29857143Y-29454819D02*
X29857143Y-30264342D01*
X29857143Y-30264342D02*
X29904762Y-30359580D01*
X29904762Y-30359580D02*
X29952381Y-30407200D01*
X29952381Y-30407200D02*
X30047619Y-30454819D01*
X30047619Y-30454819D02*
X30238095Y-30454819D01*
X30238095Y-30454819D02*
X30333333Y-30407200D01*
X30333333Y-30407200D02*
X30380952Y-30359580D01*
X30380952Y-30359580D02*
X30428571Y-30264342D01*
X30428571Y-30264342D02*
X30428571Y-29454819D01*
X31428571Y-30454819D02*
X30857143Y-30454819D01*
X31142857Y-30454819D02*
X31142857Y-29454819D01*
X31142857Y-29454819D02*
X31047619Y-29597676D01*
X31047619Y-29597676D02*
X30952381Y-29692914D01*
X30952381Y-29692914D02*
X30857143Y-29740533D01*
X31857143Y-30359580D02*
X31904762Y-30407200D01*
X31904762Y-30407200D02*
X31857143Y-30454819D01*
X31857143Y-30454819D02*
X31809524Y-30407200D01*
X31809524Y-30407200D02*
X31857143Y-30359580D01*
X31857143Y-30359580D02*
X31857143Y-30454819D01*
X31857143Y-29835771D02*
X31904762Y-29883390D01*
X31904762Y-29883390D02*
X31857143Y-29931009D01*
X31857143Y-29931009D02*
X31809524Y-29883390D01*
X31809524Y-29883390D02*
X31857143Y-29835771D01*
X31857143Y-29835771D02*
X31857143Y-29931009D01*
X33047619Y-30169104D02*
X33523809Y-30169104D01*
X32952381Y-30454819D02*
X33285714Y-29454819D01*
X33285714Y-29454819D02*
X33619047Y-30454819D01*
X33809524Y-29454819D02*
X34380952Y-29454819D01*
X34095238Y-30454819D02*
X34095238Y-29454819D01*
X34714286Y-30454819D02*
X34714286Y-29788152D01*
X34714286Y-29883390D02*
X34761905Y-29835771D01*
X34761905Y-29835771D02*
X34857143Y-29788152D01*
X34857143Y-29788152D02*
X35000000Y-29788152D01*
X35000000Y-29788152D02*
X35095238Y-29835771D01*
X35095238Y-29835771D02*
X35142857Y-29931009D01*
X35142857Y-29931009D02*
X35142857Y-30454819D01*
X35142857Y-29931009D02*
X35190476Y-29835771D01*
X35190476Y-29835771D02*
X35285714Y-29788152D01*
X35285714Y-29788152D02*
X35428571Y-29788152D01*
X35428571Y-29788152D02*
X35523810Y-29835771D01*
X35523810Y-29835771D02*
X35571429Y-29931009D01*
X35571429Y-29931009D02*
X35571429Y-30454819D01*
X36428571Y-30407200D02*
X36333333Y-30454819D01*
X36333333Y-30454819D02*
X36142857Y-30454819D01*
X36142857Y-30454819D02*
X36047619Y-30407200D01*
X36047619Y-30407200D02*
X36000000Y-30311961D01*
X36000000Y-30311961D02*
X36000000Y-29931009D01*
X36000000Y-29931009D02*
X36047619Y-29835771D01*
X36047619Y-29835771D02*
X36142857Y-29788152D01*
X36142857Y-29788152D02*
X36333333Y-29788152D01*
X36333333Y-29788152D02*
X36428571Y-29835771D01*
X36428571Y-29835771D02*
X36476190Y-29931009D01*
X36476190Y-29931009D02*
X36476190Y-30026247D01*
X36476190Y-30026247D02*
X36000000Y-30121485D01*
X37333333Y-29788152D02*
X37333333Y-30597676D01*
X37333333Y-30597676D02*
X37285714Y-30692914D01*
X37285714Y-30692914D02*
X37238095Y-30740533D01*
X37238095Y-30740533D02*
X37142857Y-30788152D01*
X37142857Y-30788152D02*
X37000000Y-30788152D01*
X37000000Y-30788152D02*
X36904762Y-30740533D01*
X37333333Y-30407200D02*
X37238095Y-30454819D01*
X37238095Y-30454819D02*
X37047619Y-30454819D01*
X37047619Y-30454819D02*
X36952381Y-30407200D01*
X36952381Y-30407200D02*
X36904762Y-30359580D01*
X36904762Y-30359580D02*
X36857143Y-30264342D01*
X36857143Y-30264342D02*
X36857143Y-29978628D01*
X36857143Y-29978628D02*
X36904762Y-29883390D01*
X36904762Y-29883390D02*
X36952381Y-29835771D01*
X36952381Y-29835771D02*
X37047619Y-29788152D01*
X37047619Y-29788152D02*
X37238095Y-29788152D01*
X37238095Y-29788152D02*
X37333333Y-29835771D01*
X38238095Y-30454819D02*
X38238095Y-29931009D01*
X38238095Y-29931009D02*
X38190476Y-29835771D01*
X38190476Y-29835771D02*
X38095238Y-29788152D01*
X38095238Y-29788152D02*
X37904762Y-29788152D01*
X37904762Y-29788152D02*
X37809524Y-29835771D01*
X38238095Y-30407200D02*
X38142857Y-30454819D01*
X38142857Y-30454819D02*
X37904762Y-30454819D01*
X37904762Y-30454819D02*
X37809524Y-30407200D01*
X37809524Y-30407200D02*
X37761905Y-30311961D01*
X37761905Y-30311961D02*
X37761905Y-30216723D01*
X37761905Y-30216723D02*
X37809524Y-30121485D01*
X37809524Y-30121485D02*
X37904762Y-30073866D01*
X37904762Y-30073866D02*
X38142857Y-30073866D01*
X38142857Y-30073866D02*
X38238095Y-30026247D01*
X38619048Y-29454819D02*
X39238095Y-29454819D01*
X39238095Y-29454819D02*
X38904762Y-29835771D01*
X38904762Y-29835771D02*
X39047619Y-29835771D01*
X39047619Y-29835771D02*
X39142857Y-29883390D01*
X39142857Y-29883390D02*
X39190476Y-29931009D01*
X39190476Y-29931009D02*
X39238095Y-30026247D01*
X39238095Y-30026247D02*
X39238095Y-30264342D01*
X39238095Y-30264342D02*
X39190476Y-30359580D01*
X39190476Y-30359580D02*
X39142857Y-30407200D01*
X39142857Y-30407200D02*
X39047619Y-30454819D01*
X39047619Y-30454819D02*
X38761905Y-30454819D01*
X38761905Y-30454819D02*
X38666667Y-30407200D01*
X38666667Y-30407200D02*
X38619048Y-30359580D01*
X39619048Y-29550057D02*
X39666667Y-29502438D01*
X39666667Y-29502438D02*
X39761905Y-29454819D01*
X39761905Y-29454819D02*
X40000000Y-29454819D01*
X40000000Y-29454819D02*
X40095238Y-29502438D01*
X40095238Y-29502438D02*
X40142857Y-29550057D01*
X40142857Y-29550057D02*
X40190476Y-29645295D01*
X40190476Y-29645295D02*
X40190476Y-29740533D01*
X40190476Y-29740533D02*
X40142857Y-29883390D01*
X40142857Y-29883390D02*
X39571429Y-30454819D01*
X39571429Y-30454819D02*
X40190476Y-30454819D01*
X14928571Y-21978628D02*
X14928571Y-22454819D01*
X14595238Y-21454819D02*
X14928571Y-21978628D01*
X14928571Y-21978628D02*
X15261904Y-21454819D01*
X16119047Y-22454819D02*
X15547619Y-22454819D01*
X15833333Y-22454819D02*
X15833333Y-21454819D01*
X15833333Y-21454819D02*
X15738095Y-21597676D01*
X15738095Y-21597676D02*
X15642857Y-21692914D01*
X15642857Y-21692914D02*
X15547619Y-21740533D01*
X16547619Y-22359580D02*
X16595238Y-22407200D01*
X16595238Y-22407200D02*
X16547619Y-22454819D01*
X16547619Y-22454819D02*
X16500000Y-22407200D01*
X16500000Y-22407200D02*
X16547619Y-22359580D01*
X16547619Y-22359580D02*
X16547619Y-22454819D01*
X16547619Y-21835771D02*
X16595238Y-21883390D01*
X16595238Y-21883390D02*
X16547619Y-21931009D01*
X16547619Y-21931009D02*
X16500000Y-21883390D01*
X16500000Y-21883390D02*
X16547619Y-21835771D01*
X16547619Y-21835771D02*
X16547619Y-21931009D01*
X17928571Y-21883390D02*
X17833333Y-21835771D01*
X17833333Y-21835771D02*
X17785714Y-21788152D01*
X17785714Y-21788152D02*
X17738095Y-21692914D01*
X17738095Y-21692914D02*
X17738095Y-21645295D01*
X17738095Y-21645295D02*
X17785714Y-21550057D01*
X17785714Y-21550057D02*
X17833333Y-21502438D01*
X17833333Y-21502438D02*
X17928571Y-21454819D01*
X17928571Y-21454819D02*
X18119047Y-21454819D01*
X18119047Y-21454819D02*
X18214285Y-21502438D01*
X18214285Y-21502438D02*
X18261904Y-21550057D01*
X18261904Y-21550057D02*
X18309523Y-21645295D01*
X18309523Y-21645295D02*
X18309523Y-21692914D01*
X18309523Y-21692914D02*
X18261904Y-21788152D01*
X18261904Y-21788152D02*
X18214285Y-21835771D01*
X18214285Y-21835771D02*
X18119047Y-21883390D01*
X18119047Y-21883390D02*
X17928571Y-21883390D01*
X17928571Y-21883390D02*
X17833333Y-21931009D01*
X17833333Y-21931009D02*
X17785714Y-21978628D01*
X17785714Y-21978628D02*
X17738095Y-22073866D01*
X17738095Y-22073866D02*
X17738095Y-22264342D01*
X17738095Y-22264342D02*
X17785714Y-22359580D01*
X17785714Y-22359580D02*
X17833333Y-22407200D01*
X17833333Y-22407200D02*
X17928571Y-22454819D01*
X17928571Y-22454819D02*
X18119047Y-22454819D01*
X18119047Y-22454819D02*
X18214285Y-22407200D01*
X18214285Y-22407200D02*
X18261904Y-22359580D01*
X18261904Y-22359580D02*
X18309523Y-22264342D01*
X18309523Y-22264342D02*
X18309523Y-22073866D01*
X18309523Y-22073866D02*
X18261904Y-21978628D01*
X18261904Y-21978628D02*
X18214285Y-21931009D01*
X18214285Y-21931009D02*
X18119047Y-21883390D01*
X18738095Y-22454819D02*
X18738095Y-21454819D01*
X18738095Y-21454819D02*
X19071428Y-22169104D01*
X19071428Y-22169104D02*
X19404761Y-21454819D01*
X19404761Y-21454819D02*
X19404761Y-22454819D01*
X19880952Y-22454819D02*
X19880952Y-21454819D01*
X19880952Y-21931009D02*
X20452380Y-21931009D01*
X20452380Y-22454819D02*
X20452380Y-21454819D01*
X20833333Y-21788152D02*
X21357142Y-21788152D01*
X21357142Y-21788152D02*
X20833333Y-22454819D01*
X20833333Y-22454819D02*
X21357142Y-22454819D01*
D12*
X11904762Y-28287664D02*
X11866666Y-28325760D01*
X11866666Y-28325760D02*
X11752381Y-28363855D01*
X11752381Y-28363855D02*
X11676190Y-28363855D01*
X11676190Y-28363855D02*
X11561904Y-28325760D01*
X11561904Y-28325760D02*
X11485714Y-28249569D01*
X11485714Y-28249569D02*
X11447619Y-28173379D01*
X11447619Y-28173379D02*
X11409523Y-28020998D01*
X11409523Y-28020998D02*
X11409523Y-27906712D01*
X11409523Y-27906712D02*
X11447619Y-27754331D01*
X11447619Y-27754331D02*
X11485714Y-27678140D01*
X11485714Y-27678140D02*
X11561904Y-27601950D01*
X11561904Y-27601950D02*
X11676190Y-27563855D01*
X11676190Y-27563855D02*
X11752381Y-27563855D01*
X11752381Y-27563855D02*
X11866666Y-27601950D01*
X11866666Y-27601950D02*
X11904762Y-27640045D01*
X12666666Y-28363855D02*
X12209523Y-28363855D01*
X12438095Y-28363855D02*
X12438095Y-27563855D01*
X12438095Y-27563855D02*
X12361904Y-27678140D01*
X12361904Y-27678140D02*
X12285714Y-27754331D01*
X12285714Y-27754331D02*
X12209523Y-27792426D01*
X13009524Y-28287664D02*
X13047619Y-28325760D01*
X13047619Y-28325760D02*
X13009524Y-28363855D01*
X13009524Y-28363855D02*
X12971428Y-28325760D01*
X12971428Y-28325760D02*
X13009524Y-28287664D01*
X13009524Y-28287664D02*
X13009524Y-28363855D01*
X13009524Y-27868617D02*
X13047619Y-27906712D01*
X13047619Y-27906712D02*
X13009524Y-27944807D01*
X13009524Y-27944807D02*
X12971428Y-27906712D01*
X12971428Y-27906712D02*
X13009524Y-27868617D01*
X13009524Y-27868617D02*
X13009524Y-27944807D01*
X13961904Y-27640045D02*
X14000000Y-27601950D01*
X14000000Y-27601950D02*
X14076190Y-27563855D01*
X14076190Y-27563855D02*
X14266666Y-27563855D01*
X14266666Y-27563855D02*
X14342857Y-27601950D01*
X14342857Y-27601950D02*
X14380952Y-27640045D01*
X14380952Y-27640045D02*
X14419047Y-27716236D01*
X14419047Y-27716236D02*
X14419047Y-27792426D01*
X14419047Y-27792426D02*
X14380952Y-27906712D01*
X14380952Y-27906712D02*
X13923809Y-28363855D01*
X13923809Y-28363855D02*
X14419047Y-28363855D01*
X14723809Y-27640045D02*
X14761905Y-27601950D01*
X14761905Y-27601950D02*
X14838095Y-27563855D01*
X14838095Y-27563855D02*
X15028571Y-27563855D01*
X15028571Y-27563855D02*
X15104762Y-27601950D01*
X15104762Y-27601950D02*
X15142857Y-27640045D01*
X15142857Y-27640045D02*
X15180952Y-27716236D01*
X15180952Y-27716236D02*
X15180952Y-27792426D01*
X15180952Y-27792426D02*
X15142857Y-27906712D01*
X15142857Y-27906712D02*
X14685714Y-28363855D01*
X14685714Y-28363855D02*
X15180952Y-28363855D01*
X15523810Y-27830521D02*
X15523810Y-28630521D01*
X15523810Y-27868617D02*
X15600000Y-27830521D01*
X15600000Y-27830521D02*
X15752381Y-27830521D01*
X15752381Y-27830521D02*
X15828572Y-27868617D01*
X15828572Y-27868617D02*
X15866667Y-27906712D01*
X15866667Y-27906712D02*
X15904762Y-27982902D01*
X15904762Y-27982902D02*
X15904762Y-28211474D01*
X15904762Y-28211474D02*
X15866667Y-28287664D01*
X15866667Y-28287664D02*
X15828572Y-28325760D01*
X15828572Y-28325760D02*
X15752381Y-28363855D01*
X15752381Y-28363855D02*
X15600000Y-28363855D01*
X15600000Y-28363855D02*
X15523810Y-28325760D01*
X16514286Y-27944807D02*
X16247620Y-27944807D01*
X16247620Y-28363855D02*
X16247620Y-27563855D01*
X16247620Y-27563855D02*
X16628572Y-27563855D01*
X19904762Y-28287664D02*
X19866666Y-28325760D01*
X19866666Y-28325760D02*
X19752381Y-28363855D01*
X19752381Y-28363855D02*
X19676190Y-28363855D01*
X19676190Y-28363855D02*
X19561904Y-28325760D01*
X19561904Y-28325760D02*
X19485714Y-28249569D01*
X19485714Y-28249569D02*
X19447619Y-28173379D01*
X19447619Y-28173379D02*
X19409523Y-28020998D01*
X19409523Y-28020998D02*
X19409523Y-27906712D01*
X19409523Y-27906712D02*
X19447619Y-27754331D01*
X19447619Y-27754331D02*
X19485714Y-27678140D01*
X19485714Y-27678140D02*
X19561904Y-27601950D01*
X19561904Y-27601950D02*
X19676190Y-27563855D01*
X19676190Y-27563855D02*
X19752381Y-27563855D01*
X19752381Y-27563855D02*
X19866666Y-27601950D01*
X19866666Y-27601950D02*
X19904762Y-27640045D01*
X20209523Y-27640045D02*
X20247619Y-27601950D01*
X20247619Y-27601950D02*
X20323809Y-27563855D01*
X20323809Y-27563855D02*
X20514285Y-27563855D01*
X20514285Y-27563855D02*
X20590476Y-27601950D01*
X20590476Y-27601950D02*
X20628571Y-27640045D01*
X20628571Y-27640045D02*
X20666666Y-27716236D01*
X20666666Y-27716236D02*
X20666666Y-27792426D01*
X20666666Y-27792426D02*
X20628571Y-27906712D01*
X20628571Y-27906712D02*
X20171428Y-28363855D01*
X20171428Y-28363855D02*
X20666666Y-28363855D01*
X21009524Y-28287664D02*
X21047619Y-28325760D01*
X21047619Y-28325760D02*
X21009524Y-28363855D01*
X21009524Y-28363855D02*
X20971428Y-28325760D01*
X20971428Y-28325760D02*
X21009524Y-28287664D01*
X21009524Y-28287664D02*
X21009524Y-28363855D01*
X21009524Y-27868617D02*
X21047619Y-27906712D01*
X21047619Y-27906712D02*
X21009524Y-27944807D01*
X21009524Y-27944807D02*
X20971428Y-27906712D01*
X20971428Y-27906712D02*
X21009524Y-27868617D01*
X21009524Y-27868617D02*
X21009524Y-27944807D01*
X21961904Y-27640045D02*
X22000000Y-27601950D01*
X22000000Y-27601950D02*
X22076190Y-27563855D01*
X22076190Y-27563855D02*
X22266666Y-27563855D01*
X22266666Y-27563855D02*
X22342857Y-27601950D01*
X22342857Y-27601950D02*
X22380952Y-27640045D01*
X22380952Y-27640045D02*
X22419047Y-27716236D01*
X22419047Y-27716236D02*
X22419047Y-27792426D01*
X22419047Y-27792426D02*
X22380952Y-27906712D01*
X22380952Y-27906712D02*
X21923809Y-28363855D01*
X21923809Y-28363855D02*
X22419047Y-28363855D01*
X22723809Y-27640045D02*
X22761905Y-27601950D01*
X22761905Y-27601950D02*
X22838095Y-27563855D01*
X22838095Y-27563855D02*
X23028571Y-27563855D01*
X23028571Y-27563855D02*
X23104762Y-27601950D01*
X23104762Y-27601950D02*
X23142857Y-27640045D01*
X23142857Y-27640045D02*
X23180952Y-27716236D01*
X23180952Y-27716236D02*
X23180952Y-27792426D01*
X23180952Y-27792426D02*
X23142857Y-27906712D01*
X23142857Y-27906712D02*
X22685714Y-28363855D01*
X22685714Y-28363855D02*
X23180952Y-28363855D01*
X23523810Y-27830521D02*
X23523810Y-28630521D01*
X23523810Y-27868617D02*
X23600000Y-27830521D01*
X23600000Y-27830521D02*
X23752381Y-27830521D01*
X23752381Y-27830521D02*
X23828572Y-27868617D01*
X23828572Y-27868617D02*
X23866667Y-27906712D01*
X23866667Y-27906712D02*
X23904762Y-27982902D01*
X23904762Y-27982902D02*
X23904762Y-28211474D01*
X23904762Y-28211474D02*
X23866667Y-28287664D01*
X23866667Y-28287664D02*
X23828572Y-28325760D01*
X23828572Y-28325760D02*
X23752381Y-28363855D01*
X23752381Y-28363855D02*
X23600000Y-28363855D01*
X23600000Y-28363855D02*
X23523810Y-28325760D01*
X24514286Y-27944807D02*
X24247620Y-27944807D01*
X24247620Y-28363855D02*
X24247620Y-27563855D01*
X24247620Y-27563855D02*
X24628572Y-27563855D01*
X24523809Y-14287664D02*
X24485713Y-14325760D01*
X24485713Y-14325760D02*
X24371428Y-14363855D01*
X24371428Y-14363855D02*
X24295237Y-14363855D01*
X24295237Y-14363855D02*
X24180951Y-14325760D01*
X24180951Y-14325760D02*
X24104761Y-14249569D01*
X24104761Y-14249569D02*
X24066666Y-14173379D01*
X24066666Y-14173379D02*
X24028570Y-14020998D01*
X24028570Y-14020998D02*
X24028570Y-13906712D01*
X24028570Y-13906712D02*
X24066666Y-13754331D01*
X24066666Y-13754331D02*
X24104761Y-13678140D01*
X24104761Y-13678140D02*
X24180951Y-13601950D01*
X24180951Y-13601950D02*
X24295237Y-13563855D01*
X24295237Y-13563855D02*
X24371428Y-13563855D01*
X24371428Y-13563855D02*
X24485713Y-13601950D01*
X24485713Y-13601950D02*
X24523809Y-13640045D01*
X24790475Y-13563855D02*
X25285713Y-13563855D01*
X25285713Y-13563855D02*
X25019047Y-13868617D01*
X25019047Y-13868617D02*
X25133332Y-13868617D01*
X25133332Y-13868617D02*
X25209523Y-13906712D01*
X25209523Y-13906712D02*
X25247618Y-13944807D01*
X25247618Y-13944807D02*
X25285713Y-14020998D01*
X25285713Y-14020998D02*
X25285713Y-14211474D01*
X25285713Y-14211474D02*
X25247618Y-14287664D01*
X25247618Y-14287664D02*
X25209523Y-14325760D01*
X25209523Y-14325760D02*
X25133332Y-14363855D01*
X25133332Y-14363855D02*
X24904761Y-14363855D01*
X24904761Y-14363855D02*
X24828570Y-14325760D01*
X24828570Y-14325760D02*
X24790475Y-14287664D01*
X25628571Y-14287664D02*
X25666666Y-14325760D01*
X25666666Y-14325760D02*
X25628571Y-14363855D01*
X25628571Y-14363855D02*
X25590475Y-14325760D01*
X25590475Y-14325760D02*
X25628571Y-14287664D01*
X25628571Y-14287664D02*
X25628571Y-14363855D01*
X25628571Y-13868617D02*
X25666666Y-13906712D01*
X25666666Y-13906712D02*
X25628571Y-13944807D01*
X25628571Y-13944807D02*
X25590475Y-13906712D01*
X25590475Y-13906712D02*
X25628571Y-13868617D01*
X25628571Y-13868617D02*
X25628571Y-13944807D01*
X27038094Y-14363855D02*
X26580951Y-14363855D01*
X26809523Y-14363855D02*
X26809523Y-13563855D01*
X26809523Y-13563855D02*
X26733332Y-13678140D01*
X26733332Y-13678140D02*
X26657142Y-13754331D01*
X26657142Y-13754331D02*
X26580951Y-13792426D01*
X27533333Y-13563855D02*
X27609523Y-13563855D01*
X27609523Y-13563855D02*
X27685714Y-13601950D01*
X27685714Y-13601950D02*
X27723809Y-13640045D01*
X27723809Y-13640045D02*
X27761904Y-13716236D01*
X27761904Y-13716236D02*
X27799999Y-13868617D01*
X27799999Y-13868617D02*
X27799999Y-14059093D01*
X27799999Y-14059093D02*
X27761904Y-14211474D01*
X27761904Y-14211474D02*
X27723809Y-14287664D01*
X27723809Y-14287664D02*
X27685714Y-14325760D01*
X27685714Y-14325760D02*
X27609523Y-14363855D01*
X27609523Y-14363855D02*
X27533333Y-14363855D01*
X27533333Y-14363855D02*
X27457142Y-14325760D01*
X27457142Y-14325760D02*
X27419047Y-14287664D01*
X27419047Y-14287664D02*
X27380952Y-14211474D01*
X27380952Y-14211474D02*
X27342856Y-14059093D01*
X27342856Y-14059093D02*
X27342856Y-13868617D01*
X27342856Y-13868617D02*
X27380952Y-13716236D01*
X27380952Y-13716236D02*
X27419047Y-13640045D01*
X27419047Y-13640045D02*
X27457142Y-13601950D01*
X27457142Y-13601950D02*
X27533333Y-13563855D01*
X28295238Y-13563855D02*
X28371428Y-13563855D01*
X28371428Y-13563855D02*
X28447619Y-13601950D01*
X28447619Y-13601950D02*
X28485714Y-13640045D01*
X28485714Y-13640045D02*
X28523809Y-13716236D01*
X28523809Y-13716236D02*
X28561904Y-13868617D01*
X28561904Y-13868617D02*
X28561904Y-14059093D01*
X28561904Y-14059093D02*
X28523809Y-14211474D01*
X28523809Y-14211474D02*
X28485714Y-14287664D01*
X28485714Y-14287664D02*
X28447619Y-14325760D01*
X28447619Y-14325760D02*
X28371428Y-14363855D01*
X28371428Y-14363855D02*
X28295238Y-14363855D01*
X28295238Y-14363855D02*
X28219047Y-14325760D01*
X28219047Y-14325760D02*
X28180952Y-14287664D01*
X28180952Y-14287664D02*
X28142857Y-14211474D01*
X28142857Y-14211474D02*
X28104761Y-14059093D01*
X28104761Y-14059093D02*
X28104761Y-13868617D01*
X28104761Y-13868617D02*
X28142857Y-13716236D01*
X28142857Y-13716236D02*
X28180952Y-13640045D01*
X28180952Y-13640045D02*
X28219047Y-13601950D01*
X28219047Y-13601950D02*
X28295238Y-13563855D01*
X28904762Y-13830521D02*
X28904762Y-14363855D01*
X28904762Y-13906712D02*
X28942857Y-13868617D01*
X28942857Y-13868617D02*
X29019047Y-13830521D01*
X29019047Y-13830521D02*
X29133333Y-13830521D01*
X29133333Y-13830521D02*
X29209524Y-13868617D01*
X29209524Y-13868617D02*
X29247619Y-13944807D01*
X29247619Y-13944807D02*
X29247619Y-14363855D01*
X29895238Y-13944807D02*
X29628572Y-13944807D01*
X29628572Y-14363855D02*
X29628572Y-13563855D01*
X29628572Y-13563855D02*
X30009524Y-13563855D01*
X39523809Y-14287664D02*
X39485713Y-14325760D01*
X39485713Y-14325760D02*
X39371428Y-14363855D01*
X39371428Y-14363855D02*
X39295237Y-14363855D01*
X39295237Y-14363855D02*
X39180951Y-14325760D01*
X39180951Y-14325760D02*
X39104761Y-14249569D01*
X39104761Y-14249569D02*
X39066666Y-14173379D01*
X39066666Y-14173379D02*
X39028570Y-14020998D01*
X39028570Y-14020998D02*
X39028570Y-13906712D01*
X39028570Y-13906712D02*
X39066666Y-13754331D01*
X39066666Y-13754331D02*
X39104761Y-13678140D01*
X39104761Y-13678140D02*
X39180951Y-13601950D01*
X39180951Y-13601950D02*
X39295237Y-13563855D01*
X39295237Y-13563855D02*
X39371428Y-13563855D01*
X39371428Y-13563855D02*
X39485713Y-13601950D01*
X39485713Y-13601950D02*
X39523809Y-13640045D01*
X40209523Y-13830521D02*
X40209523Y-14363855D01*
X40019047Y-13525760D02*
X39828570Y-14097188D01*
X39828570Y-14097188D02*
X40323809Y-14097188D01*
X40628571Y-14287664D02*
X40666666Y-14325760D01*
X40666666Y-14325760D02*
X40628571Y-14363855D01*
X40628571Y-14363855D02*
X40590475Y-14325760D01*
X40590475Y-14325760D02*
X40628571Y-14287664D01*
X40628571Y-14287664D02*
X40628571Y-14363855D01*
X40628571Y-13868617D02*
X40666666Y-13906712D01*
X40666666Y-13906712D02*
X40628571Y-13944807D01*
X40628571Y-13944807D02*
X40590475Y-13906712D01*
X40590475Y-13906712D02*
X40628571Y-13868617D01*
X40628571Y-13868617D02*
X40628571Y-13944807D01*
X42038094Y-14363855D02*
X41580951Y-14363855D01*
X41809523Y-14363855D02*
X41809523Y-13563855D01*
X41809523Y-13563855D02*
X41733332Y-13678140D01*
X41733332Y-13678140D02*
X41657142Y-13754331D01*
X41657142Y-13754331D02*
X41580951Y-13792426D01*
X42533333Y-13563855D02*
X42609523Y-13563855D01*
X42609523Y-13563855D02*
X42685714Y-13601950D01*
X42685714Y-13601950D02*
X42723809Y-13640045D01*
X42723809Y-13640045D02*
X42761904Y-13716236D01*
X42761904Y-13716236D02*
X42799999Y-13868617D01*
X42799999Y-13868617D02*
X42799999Y-14059093D01*
X42799999Y-14059093D02*
X42761904Y-14211474D01*
X42761904Y-14211474D02*
X42723809Y-14287664D01*
X42723809Y-14287664D02*
X42685714Y-14325760D01*
X42685714Y-14325760D02*
X42609523Y-14363855D01*
X42609523Y-14363855D02*
X42533333Y-14363855D01*
X42533333Y-14363855D02*
X42457142Y-14325760D01*
X42457142Y-14325760D02*
X42419047Y-14287664D01*
X42419047Y-14287664D02*
X42380952Y-14211474D01*
X42380952Y-14211474D02*
X42342856Y-14059093D01*
X42342856Y-14059093D02*
X42342856Y-13868617D01*
X42342856Y-13868617D02*
X42380952Y-13716236D01*
X42380952Y-13716236D02*
X42419047Y-13640045D01*
X42419047Y-13640045D02*
X42457142Y-13601950D01*
X42457142Y-13601950D02*
X42533333Y-13563855D01*
X43295238Y-13563855D02*
X43371428Y-13563855D01*
X43371428Y-13563855D02*
X43447619Y-13601950D01*
X43447619Y-13601950D02*
X43485714Y-13640045D01*
X43485714Y-13640045D02*
X43523809Y-13716236D01*
X43523809Y-13716236D02*
X43561904Y-13868617D01*
X43561904Y-13868617D02*
X43561904Y-14059093D01*
X43561904Y-14059093D02*
X43523809Y-14211474D01*
X43523809Y-14211474D02*
X43485714Y-14287664D01*
X43485714Y-14287664D02*
X43447619Y-14325760D01*
X43447619Y-14325760D02*
X43371428Y-14363855D01*
X43371428Y-14363855D02*
X43295238Y-14363855D01*
X43295238Y-14363855D02*
X43219047Y-14325760D01*
X43219047Y-14325760D02*
X43180952Y-14287664D01*
X43180952Y-14287664D02*
X43142857Y-14211474D01*
X43142857Y-14211474D02*
X43104761Y-14059093D01*
X43104761Y-14059093D02*
X43104761Y-13868617D01*
X43104761Y-13868617D02*
X43142857Y-13716236D01*
X43142857Y-13716236D02*
X43180952Y-13640045D01*
X43180952Y-13640045D02*
X43219047Y-13601950D01*
X43219047Y-13601950D02*
X43295238Y-13563855D01*
X43904762Y-13830521D02*
X43904762Y-14363855D01*
X43904762Y-13906712D02*
X43942857Y-13868617D01*
X43942857Y-13868617D02*
X44019047Y-13830521D01*
X44019047Y-13830521D02*
X44133333Y-13830521D01*
X44133333Y-13830521D02*
X44209524Y-13868617D01*
X44209524Y-13868617D02*
X44247619Y-13944807D01*
X44247619Y-13944807D02*
X44247619Y-14363855D01*
X44895238Y-13944807D02*
X44628572Y-13944807D01*
X44628572Y-14363855D02*
X44628572Y-13563855D01*
X44628572Y-13563855D02*
X45009524Y-13563855D01*
X8628570Y-38325760D02*
X8742856Y-38363855D01*
X8742856Y-38363855D02*
X8933332Y-38363855D01*
X8933332Y-38363855D02*
X9009523Y-38325760D01*
X9009523Y-38325760D02*
X9047618Y-38287664D01*
X9047618Y-38287664D02*
X9085713Y-38211474D01*
X9085713Y-38211474D02*
X9085713Y-38135283D01*
X9085713Y-38135283D02*
X9047618Y-38059093D01*
X9047618Y-38059093D02*
X9009523Y-38020998D01*
X9009523Y-38020998D02*
X8933332Y-37982902D01*
X8933332Y-37982902D02*
X8780951Y-37944807D01*
X8780951Y-37944807D02*
X8704761Y-37906712D01*
X8704761Y-37906712D02*
X8666666Y-37868617D01*
X8666666Y-37868617D02*
X8628570Y-37792426D01*
X8628570Y-37792426D02*
X8628570Y-37716236D01*
X8628570Y-37716236D02*
X8666666Y-37640045D01*
X8666666Y-37640045D02*
X8704761Y-37601950D01*
X8704761Y-37601950D02*
X8780951Y-37563855D01*
X8780951Y-37563855D02*
X8971428Y-37563855D01*
X8971428Y-37563855D02*
X9085713Y-37601950D01*
X9352380Y-37563855D02*
X9542856Y-38363855D01*
X9542856Y-38363855D02*
X9695237Y-37792426D01*
X9695237Y-37792426D02*
X9847618Y-38363855D01*
X9847618Y-38363855D02*
X10038095Y-37563855D01*
X10761904Y-38363855D02*
X10304761Y-38363855D01*
X10533333Y-38363855D02*
X10533333Y-37563855D01*
X10533333Y-37563855D02*
X10457142Y-37678140D01*
X10457142Y-37678140D02*
X10380952Y-37754331D01*
X10380952Y-37754331D02*
X10304761Y-37792426D01*
X11104762Y-38287664D02*
X11142857Y-38325760D01*
X11142857Y-38325760D02*
X11104762Y-38363855D01*
X11104762Y-38363855D02*
X11066666Y-38325760D01*
X11066666Y-38325760D02*
X11104762Y-38287664D01*
X11104762Y-38287664D02*
X11104762Y-38363855D01*
X11104762Y-37868617D02*
X11142857Y-37906712D01*
X11142857Y-37906712D02*
X11104762Y-37944807D01*
X11104762Y-37944807D02*
X11066666Y-37906712D01*
X11066666Y-37906712D02*
X11104762Y-37868617D01*
X11104762Y-37868617D02*
X11104762Y-37944807D01*
X12552381Y-38363855D02*
X12285714Y-37982902D01*
X12095238Y-38363855D02*
X12095238Y-37563855D01*
X12095238Y-37563855D02*
X12400000Y-37563855D01*
X12400000Y-37563855D02*
X12476190Y-37601950D01*
X12476190Y-37601950D02*
X12514285Y-37640045D01*
X12514285Y-37640045D02*
X12552381Y-37716236D01*
X12552381Y-37716236D02*
X12552381Y-37830521D01*
X12552381Y-37830521D02*
X12514285Y-37906712D01*
X12514285Y-37906712D02*
X12476190Y-37944807D01*
X12476190Y-37944807D02*
X12400000Y-37982902D01*
X12400000Y-37982902D02*
X12095238Y-37982902D01*
X12895238Y-37944807D02*
X13161904Y-37944807D01*
X13276190Y-38363855D02*
X12895238Y-38363855D01*
X12895238Y-38363855D02*
X12895238Y-37563855D01*
X12895238Y-37563855D02*
X13276190Y-37563855D01*
X13580952Y-38325760D02*
X13695238Y-38363855D01*
X13695238Y-38363855D02*
X13885714Y-38363855D01*
X13885714Y-38363855D02*
X13961905Y-38325760D01*
X13961905Y-38325760D02*
X14000000Y-38287664D01*
X14000000Y-38287664D02*
X14038095Y-38211474D01*
X14038095Y-38211474D02*
X14038095Y-38135283D01*
X14038095Y-38135283D02*
X14000000Y-38059093D01*
X14000000Y-38059093D02*
X13961905Y-38020998D01*
X13961905Y-38020998D02*
X13885714Y-37982902D01*
X13885714Y-37982902D02*
X13733333Y-37944807D01*
X13733333Y-37944807D02*
X13657143Y-37906712D01*
X13657143Y-37906712D02*
X13619048Y-37868617D01*
X13619048Y-37868617D02*
X13580952Y-37792426D01*
X13580952Y-37792426D02*
X13580952Y-37716236D01*
X13580952Y-37716236D02*
X13619048Y-37640045D01*
X13619048Y-37640045D02*
X13657143Y-37601950D01*
X13657143Y-37601950D02*
X13733333Y-37563855D01*
X13733333Y-37563855D02*
X13923810Y-37563855D01*
X13923810Y-37563855D02*
X14038095Y-37601950D01*
X14380953Y-37944807D02*
X14647619Y-37944807D01*
X14761905Y-38363855D02*
X14380953Y-38363855D01*
X14380953Y-38363855D02*
X14380953Y-37563855D01*
X14380953Y-37563855D02*
X14761905Y-37563855D01*
X14990477Y-37563855D02*
X15447620Y-37563855D01*
X15219048Y-38363855D02*
X15219048Y-37563855D01*
X57390475Y-48325760D02*
X57504761Y-48363855D01*
X57504761Y-48363855D02*
X57695237Y-48363855D01*
X57695237Y-48363855D02*
X57771428Y-48325760D01*
X57771428Y-48325760D02*
X57809523Y-48287664D01*
X57809523Y-48287664D02*
X57847618Y-48211474D01*
X57847618Y-48211474D02*
X57847618Y-48135283D01*
X57847618Y-48135283D02*
X57809523Y-48059093D01*
X57809523Y-48059093D02*
X57771428Y-48020998D01*
X57771428Y-48020998D02*
X57695237Y-47982902D01*
X57695237Y-47982902D02*
X57542856Y-47944807D01*
X57542856Y-47944807D02*
X57466666Y-47906712D01*
X57466666Y-47906712D02*
X57428571Y-47868617D01*
X57428571Y-47868617D02*
X57390475Y-47792426D01*
X57390475Y-47792426D02*
X57390475Y-47716236D01*
X57390475Y-47716236D02*
X57428571Y-47640045D01*
X57428571Y-47640045D02*
X57466666Y-47601950D01*
X57466666Y-47601950D02*
X57542856Y-47563855D01*
X57542856Y-47563855D02*
X57733333Y-47563855D01*
X57733333Y-47563855D02*
X57847618Y-47601950D01*
X58114285Y-47563855D02*
X58304761Y-48363855D01*
X58304761Y-48363855D02*
X58457142Y-47792426D01*
X58457142Y-47792426D02*
X58609523Y-48363855D01*
X58609523Y-48363855D02*
X58800000Y-47563855D01*
X59066666Y-47640045D02*
X59104762Y-47601950D01*
X59104762Y-47601950D02*
X59180952Y-47563855D01*
X59180952Y-47563855D02*
X59371428Y-47563855D01*
X59371428Y-47563855D02*
X59447619Y-47601950D01*
X59447619Y-47601950D02*
X59485714Y-47640045D01*
X59485714Y-47640045D02*
X59523809Y-47716236D01*
X59523809Y-47716236D02*
X59523809Y-47792426D01*
X59523809Y-47792426D02*
X59485714Y-47906712D01*
X59485714Y-47906712D02*
X59028571Y-48363855D01*
X59028571Y-48363855D02*
X59523809Y-48363855D01*
X59866667Y-48287664D02*
X59904762Y-48325760D01*
X59904762Y-48325760D02*
X59866667Y-48363855D01*
X59866667Y-48363855D02*
X59828571Y-48325760D01*
X59828571Y-48325760D02*
X59866667Y-48287664D01*
X59866667Y-48287664D02*
X59866667Y-48363855D01*
X59866667Y-47868617D02*
X59904762Y-47906712D01*
X59904762Y-47906712D02*
X59866667Y-47944807D01*
X59866667Y-47944807D02*
X59828571Y-47906712D01*
X59828571Y-47906712D02*
X59866667Y-47868617D01*
X59866667Y-47868617D02*
X59866667Y-47944807D01*
X60819047Y-48325760D02*
X60933333Y-48363855D01*
X60933333Y-48363855D02*
X61123809Y-48363855D01*
X61123809Y-48363855D02*
X61200000Y-48325760D01*
X61200000Y-48325760D02*
X61238095Y-48287664D01*
X61238095Y-48287664D02*
X61276190Y-48211474D01*
X61276190Y-48211474D02*
X61276190Y-48135283D01*
X61276190Y-48135283D02*
X61238095Y-48059093D01*
X61238095Y-48059093D02*
X61200000Y-48020998D01*
X61200000Y-48020998D02*
X61123809Y-47982902D01*
X61123809Y-47982902D02*
X60971428Y-47944807D01*
X60971428Y-47944807D02*
X60895238Y-47906712D01*
X60895238Y-47906712D02*
X60857143Y-47868617D01*
X60857143Y-47868617D02*
X60819047Y-47792426D01*
X60819047Y-47792426D02*
X60819047Y-47716236D01*
X60819047Y-47716236D02*
X60857143Y-47640045D01*
X60857143Y-47640045D02*
X60895238Y-47601950D01*
X60895238Y-47601950D02*
X60971428Y-47563855D01*
X60971428Y-47563855D02*
X61161905Y-47563855D01*
X61161905Y-47563855D02*
X61276190Y-47601950D01*
X61619048Y-47944807D02*
X61885714Y-47944807D01*
X62000000Y-48363855D02*
X61619048Y-48363855D01*
X61619048Y-48363855D02*
X61619048Y-47563855D01*
X61619048Y-47563855D02*
X62000000Y-47563855D01*
X62228572Y-47563855D02*
X62685715Y-47563855D01*
X62457143Y-48363855D02*
X62457143Y-47563855D01*
X64428571Y-48325760D02*
X64542857Y-48363855D01*
X64542857Y-48363855D02*
X64733333Y-48363855D01*
X64733333Y-48363855D02*
X64809524Y-48325760D01*
X64809524Y-48325760D02*
X64847619Y-48287664D01*
X64847619Y-48287664D02*
X64885714Y-48211474D01*
X64885714Y-48211474D02*
X64885714Y-48135283D01*
X64885714Y-48135283D02*
X64847619Y-48059093D01*
X64847619Y-48059093D02*
X64809524Y-48020998D01*
X64809524Y-48020998D02*
X64733333Y-47982902D01*
X64733333Y-47982902D02*
X64580952Y-47944807D01*
X64580952Y-47944807D02*
X64504762Y-47906712D01*
X64504762Y-47906712D02*
X64466667Y-47868617D01*
X64466667Y-47868617D02*
X64428571Y-47792426D01*
X64428571Y-47792426D02*
X64428571Y-47716236D01*
X64428571Y-47716236D02*
X64466667Y-47640045D01*
X64466667Y-47640045D02*
X64504762Y-47601950D01*
X64504762Y-47601950D02*
X64580952Y-47563855D01*
X64580952Y-47563855D02*
X64771429Y-47563855D01*
X64771429Y-47563855D02*
X64885714Y-47601950D01*
X65152381Y-47563855D02*
X65342857Y-48363855D01*
X65342857Y-48363855D02*
X65495238Y-47792426D01*
X65495238Y-47792426D02*
X65647619Y-48363855D01*
X65647619Y-48363855D02*
X65838096Y-47563855D01*
X66066667Y-47563855D02*
X66561905Y-47563855D01*
X66561905Y-47563855D02*
X66295239Y-47868617D01*
X66295239Y-47868617D02*
X66409524Y-47868617D01*
X66409524Y-47868617D02*
X66485715Y-47906712D01*
X66485715Y-47906712D02*
X66523810Y-47944807D01*
X66523810Y-47944807D02*
X66561905Y-48020998D01*
X66561905Y-48020998D02*
X66561905Y-48211474D01*
X66561905Y-48211474D02*
X66523810Y-48287664D01*
X66523810Y-48287664D02*
X66485715Y-48325760D01*
X66485715Y-48325760D02*
X66409524Y-48363855D01*
X66409524Y-48363855D02*
X66180953Y-48363855D01*
X66180953Y-48363855D02*
X66104762Y-48325760D01*
X66104762Y-48325760D02*
X66066667Y-48287664D01*
X66904763Y-48287664D02*
X66942858Y-48325760D01*
X66942858Y-48325760D02*
X66904763Y-48363855D01*
X66904763Y-48363855D02*
X66866667Y-48325760D01*
X66866667Y-48325760D02*
X66904763Y-48287664D01*
X66904763Y-48287664D02*
X66904763Y-48363855D01*
X66904763Y-47868617D02*
X66942858Y-47906712D01*
X66942858Y-47906712D02*
X66904763Y-47944807D01*
X66904763Y-47944807D02*
X66866667Y-47906712D01*
X66866667Y-47906712D02*
X66904763Y-47868617D01*
X66904763Y-47868617D02*
X66904763Y-47944807D01*
X67895239Y-48363855D02*
X67895239Y-47563855D01*
X68276191Y-48363855D02*
X68276191Y-47563855D01*
X68276191Y-47563855D02*
X68733334Y-48363855D01*
X68733334Y-48363855D02*
X68733334Y-47563855D01*
X69571429Y-48287664D02*
X69533333Y-48325760D01*
X69533333Y-48325760D02*
X69419048Y-48363855D01*
X69419048Y-48363855D02*
X69342857Y-48363855D01*
X69342857Y-48363855D02*
X69228571Y-48325760D01*
X69228571Y-48325760D02*
X69152381Y-48249569D01*
X69152381Y-48249569D02*
X69114286Y-48173379D01*
X69114286Y-48173379D02*
X69076190Y-48020998D01*
X69076190Y-48020998D02*
X69076190Y-47906712D01*
X69076190Y-47906712D02*
X69114286Y-47754331D01*
X69114286Y-47754331D02*
X69152381Y-47678140D01*
X69152381Y-47678140D02*
X69228571Y-47601950D01*
X69228571Y-47601950D02*
X69342857Y-47563855D01*
X69342857Y-47563855D02*
X69419048Y-47563855D01*
X69419048Y-47563855D02*
X69533333Y-47601950D01*
X69533333Y-47601950D02*
X69571429Y-47640045D01*
X71314285Y-48325760D02*
X71428571Y-48363855D01*
X71428571Y-48363855D02*
X71619047Y-48363855D01*
X71619047Y-48363855D02*
X71695238Y-48325760D01*
X71695238Y-48325760D02*
X71733333Y-48287664D01*
X71733333Y-48287664D02*
X71771428Y-48211474D01*
X71771428Y-48211474D02*
X71771428Y-48135283D01*
X71771428Y-48135283D02*
X71733333Y-48059093D01*
X71733333Y-48059093D02*
X71695238Y-48020998D01*
X71695238Y-48020998D02*
X71619047Y-47982902D01*
X71619047Y-47982902D02*
X71466666Y-47944807D01*
X71466666Y-47944807D02*
X71390476Y-47906712D01*
X71390476Y-47906712D02*
X71352381Y-47868617D01*
X71352381Y-47868617D02*
X71314285Y-47792426D01*
X71314285Y-47792426D02*
X71314285Y-47716236D01*
X71314285Y-47716236D02*
X71352381Y-47640045D01*
X71352381Y-47640045D02*
X71390476Y-47601950D01*
X71390476Y-47601950D02*
X71466666Y-47563855D01*
X71466666Y-47563855D02*
X71657143Y-47563855D01*
X71657143Y-47563855D02*
X71771428Y-47601950D01*
X72038095Y-47563855D02*
X72228571Y-48363855D01*
X72228571Y-48363855D02*
X72380952Y-47792426D01*
X72380952Y-47792426D02*
X72533333Y-48363855D01*
X72533333Y-48363855D02*
X72723810Y-47563855D01*
X73371429Y-47830521D02*
X73371429Y-48363855D01*
X73180953Y-47525760D02*
X72990476Y-48097188D01*
X72990476Y-48097188D02*
X73485715Y-48097188D01*
X73790477Y-48287664D02*
X73828572Y-48325760D01*
X73828572Y-48325760D02*
X73790477Y-48363855D01*
X73790477Y-48363855D02*
X73752381Y-48325760D01*
X73752381Y-48325760D02*
X73790477Y-48287664D01*
X73790477Y-48287664D02*
X73790477Y-48363855D01*
X73790477Y-47868617D02*
X73828572Y-47906712D01*
X73828572Y-47906712D02*
X73790477Y-47944807D01*
X73790477Y-47944807D02*
X73752381Y-47906712D01*
X73752381Y-47906712D02*
X73790477Y-47868617D01*
X73790477Y-47868617D02*
X73790477Y-47944807D01*
X75238096Y-48287664D02*
X75200000Y-48325760D01*
X75200000Y-48325760D02*
X75085715Y-48363855D01*
X75085715Y-48363855D02*
X75009524Y-48363855D01*
X75009524Y-48363855D02*
X74895238Y-48325760D01*
X74895238Y-48325760D02*
X74819048Y-48249569D01*
X74819048Y-48249569D02*
X74780953Y-48173379D01*
X74780953Y-48173379D02*
X74742857Y-48020998D01*
X74742857Y-48020998D02*
X74742857Y-47906712D01*
X74742857Y-47906712D02*
X74780953Y-47754331D01*
X74780953Y-47754331D02*
X74819048Y-47678140D01*
X74819048Y-47678140D02*
X74895238Y-47601950D01*
X74895238Y-47601950D02*
X75009524Y-47563855D01*
X75009524Y-47563855D02*
X75085715Y-47563855D01*
X75085715Y-47563855D02*
X75200000Y-47601950D01*
X75200000Y-47601950D02*
X75238096Y-47640045D01*
X75961905Y-48363855D02*
X75580953Y-48363855D01*
X75580953Y-48363855D02*
X75580953Y-47563855D01*
X76685715Y-48363855D02*
X76419048Y-47982902D01*
X76228572Y-48363855D02*
X76228572Y-47563855D01*
X76228572Y-47563855D02*
X76533334Y-47563855D01*
X76533334Y-47563855D02*
X76609524Y-47601950D01*
X76609524Y-47601950D02*
X76647619Y-47640045D01*
X76647619Y-47640045D02*
X76685715Y-47716236D01*
X76685715Y-47716236D02*
X76685715Y-47830521D01*
X76685715Y-47830521D02*
X76647619Y-47906712D01*
X76647619Y-47906712D02*
X76609524Y-47944807D01*
X76609524Y-47944807D02*
X76533334Y-47982902D01*
X76533334Y-47982902D02*
X76228572Y-47982902D01*
X58780952Y-8363855D02*
X58780952Y-7563855D01*
X58780952Y-7563855D02*
X58971428Y-7563855D01*
X58971428Y-7563855D02*
X59085714Y-7601950D01*
X59085714Y-7601950D02*
X59161904Y-7678140D01*
X59161904Y-7678140D02*
X59199999Y-7754331D01*
X59199999Y-7754331D02*
X59238095Y-7906712D01*
X59238095Y-7906712D02*
X59238095Y-8020998D01*
X59238095Y-8020998D02*
X59199999Y-8173379D01*
X59199999Y-8173379D02*
X59161904Y-8249569D01*
X59161904Y-8249569D02*
X59085714Y-8325760D01*
X59085714Y-8325760D02*
X58971428Y-8363855D01*
X58971428Y-8363855D02*
X58780952Y-8363855D01*
X59999999Y-8363855D02*
X59542856Y-8363855D01*
X59771428Y-8363855D02*
X59771428Y-7563855D01*
X59771428Y-7563855D02*
X59695237Y-7678140D01*
X59695237Y-7678140D02*
X59619047Y-7754331D01*
X59619047Y-7754331D02*
X59542856Y-7792426D01*
X60342857Y-8287664D02*
X60380952Y-8325760D01*
X60380952Y-8325760D02*
X60342857Y-8363855D01*
X60342857Y-8363855D02*
X60304761Y-8325760D01*
X60304761Y-8325760D02*
X60342857Y-8287664D01*
X60342857Y-8287664D02*
X60342857Y-8363855D01*
X60342857Y-7868617D02*
X60380952Y-7906712D01*
X60380952Y-7906712D02*
X60342857Y-7944807D01*
X60342857Y-7944807D02*
X60304761Y-7906712D01*
X60304761Y-7906712D02*
X60342857Y-7868617D01*
X60342857Y-7868617D02*
X60342857Y-7944807D01*
X61295237Y-8325760D02*
X61409523Y-8363855D01*
X61409523Y-8363855D02*
X61599999Y-8363855D01*
X61599999Y-8363855D02*
X61676190Y-8325760D01*
X61676190Y-8325760D02*
X61714285Y-8287664D01*
X61714285Y-8287664D02*
X61752380Y-8211474D01*
X61752380Y-8211474D02*
X61752380Y-8135283D01*
X61752380Y-8135283D02*
X61714285Y-8059093D01*
X61714285Y-8059093D02*
X61676190Y-8020998D01*
X61676190Y-8020998D02*
X61599999Y-7982902D01*
X61599999Y-7982902D02*
X61447618Y-7944807D01*
X61447618Y-7944807D02*
X61371428Y-7906712D01*
X61371428Y-7906712D02*
X61333333Y-7868617D01*
X61333333Y-7868617D02*
X61295237Y-7792426D01*
X61295237Y-7792426D02*
X61295237Y-7716236D01*
X61295237Y-7716236D02*
X61333333Y-7640045D01*
X61333333Y-7640045D02*
X61371428Y-7601950D01*
X61371428Y-7601950D02*
X61447618Y-7563855D01*
X61447618Y-7563855D02*
X61638095Y-7563855D01*
X61638095Y-7563855D02*
X61752380Y-7601950D01*
X61980952Y-7563855D02*
X62438095Y-7563855D01*
X62209523Y-8363855D02*
X62209523Y-7563855D01*
X62666666Y-8135283D02*
X63047619Y-8135283D01*
X62590476Y-8363855D02*
X62857143Y-7563855D01*
X62857143Y-7563855D02*
X63123809Y-8363855D01*
X63276190Y-7563855D02*
X63733333Y-7563855D01*
X63504761Y-8363855D02*
X63504761Y-7563855D01*
X64000000Y-7563855D02*
X64000000Y-8211474D01*
X64000000Y-8211474D02*
X64038095Y-8287664D01*
X64038095Y-8287664D02*
X64076190Y-8325760D01*
X64076190Y-8325760D02*
X64152381Y-8363855D01*
X64152381Y-8363855D02*
X64304762Y-8363855D01*
X64304762Y-8363855D02*
X64380952Y-8325760D01*
X64380952Y-8325760D02*
X64419047Y-8287664D01*
X64419047Y-8287664D02*
X64457143Y-8211474D01*
X64457143Y-8211474D02*
X64457143Y-7563855D01*
X64799999Y-8325760D02*
X64914285Y-8363855D01*
X64914285Y-8363855D02*
X65104761Y-8363855D01*
X65104761Y-8363855D02*
X65180952Y-8325760D01*
X65180952Y-8325760D02*
X65219047Y-8287664D01*
X65219047Y-8287664D02*
X65257142Y-8211474D01*
X65257142Y-8211474D02*
X65257142Y-8135283D01*
X65257142Y-8135283D02*
X65219047Y-8059093D01*
X65219047Y-8059093D02*
X65180952Y-8020998D01*
X65180952Y-8020998D02*
X65104761Y-7982902D01*
X65104761Y-7982902D02*
X64952380Y-7944807D01*
X64952380Y-7944807D02*
X64876190Y-7906712D01*
X64876190Y-7906712D02*
X64838095Y-7868617D01*
X64838095Y-7868617D02*
X64799999Y-7792426D01*
X64799999Y-7792426D02*
X64799999Y-7716236D01*
X64799999Y-7716236D02*
X64838095Y-7640045D01*
X64838095Y-7640045D02*
X64876190Y-7601950D01*
X64876190Y-7601950D02*
X64952380Y-7563855D01*
X64952380Y-7563855D02*
X65142857Y-7563855D01*
X65142857Y-7563855D02*
X65257142Y-7601950D01*
X67485714Y-8363855D02*
X67485714Y-7563855D01*
X67485714Y-7563855D02*
X67676190Y-7563855D01*
X67676190Y-7563855D02*
X67790476Y-7601950D01*
X67790476Y-7601950D02*
X67866666Y-7678140D01*
X67866666Y-7678140D02*
X67904761Y-7754331D01*
X67904761Y-7754331D02*
X67942857Y-7906712D01*
X67942857Y-7906712D02*
X67942857Y-8020998D01*
X67942857Y-8020998D02*
X67904761Y-8173379D01*
X67904761Y-8173379D02*
X67866666Y-8249569D01*
X67866666Y-8249569D02*
X67790476Y-8325760D01*
X67790476Y-8325760D02*
X67676190Y-8363855D01*
X67676190Y-8363855D02*
X67485714Y-8363855D01*
X68247618Y-7640045D02*
X68285714Y-7601950D01*
X68285714Y-7601950D02*
X68361904Y-7563855D01*
X68361904Y-7563855D02*
X68552380Y-7563855D01*
X68552380Y-7563855D02*
X68628571Y-7601950D01*
X68628571Y-7601950D02*
X68666666Y-7640045D01*
X68666666Y-7640045D02*
X68704761Y-7716236D01*
X68704761Y-7716236D02*
X68704761Y-7792426D01*
X68704761Y-7792426D02*
X68666666Y-7906712D01*
X68666666Y-7906712D02*
X68209523Y-8363855D01*
X68209523Y-8363855D02*
X68704761Y-8363855D01*
X69047619Y-8287664D02*
X69085714Y-8325760D01*
X69085714Y-8325760D02*
X69047619Y-8363855D01*
X69047619Y-8363855D02*
X69009523Y-8325760D01*
X69009523Y-8325760D02*
X69047619Y-8287664D01*
X69047619Y-8287664D02*
X69047619Y-8363855D01*
X69047619Y-7868617D02*
X69085714Y-7906712D01*
X69085714Y-7906712D02*
X69047619Y-7944807D01*
X69047619Y-7944807D02*
X69009523Y-7906712D01*
X69009523Y-7906712D02*
X69047619Y-7868617D01*
X69047619Y-7868617D02*
X69047619Y-7944807D01*
X69923809Y-7563855D02*
X70380952Y-7563855D01*
X70152380Y-8363855D02*
X70152380Y-7563855D01*
X70609523Y-8135283D02*
X70990476Y-8135283D01*
X70533333Y-8363855D02*
X70800000Y-7563855D01*
X70800000Y-7563855D02*
X71066666Y-8363855D01*
X71295237Y-8325760D02*
X71409523Y-8363855D01*
X71409523Y-8363855D02*
X71599999Y-8363855D01*
X71599999Y-8363855D02*
X71676190Y-8325760D01*
X71676190Y-8325760D02*
X71714285Y-8287664D01*
X71714285Y-8287664D02*
X71752380Y-8211474D01*
X71752380Y-8211474D02*
X71752380Y-8135283D01*
X71752380Y-8135283D02*
X71714285Y-8059093D01*
X71714285Y-8059093D02*
X71676190Y-8020998D01*
X71676190Y-8020998D02*
X71599999Y-7982902D01*
X71599999Y-7982902D02*
X71447618Y-7944807D01*
X71447618Y-7944807D02*
X71371428Y-7906712D01*
X71371428Y-7906712D02*
X71333333Y-7868617D01*
X71333333Y-7868617D02*
X71295237Y-7792426D01*
X71295237Y-7792426D02*
X71295237Y-7716236D01*
X71295237Y-7716236D02*
X71333333Y-7640045D01*
X71333333Y-7640045D02*
X71371428Y-7601950D01*
X71371428Y-7601950D02*
X71447618Y-7563855D01*
X71447618Y-7563855D02*
X71638095Y-7563855D01*
X71638095Y-7563855D02*
X71752380Y-7601950D01*
X72095238Y-8363855D02*
X72095238Y-7563855D01*
X72552381Y-8363855D02*
X72209523Y-7906712D01*
X72552381Y-7563855D02*
X72095238Y-8020998D01*
X69390476Y-29563855D02*
X69390476Y-30135283D01*
X69390476Y-30135283D02*
X69352381Y-30249569D01*
X69352381Y-30249569D02*
X69276190Y-30325760D01*
X69276190Y-30325760D02*
X69161905Y-30363855D01*
X69161905Y-30363855D02*
X69085714Y-30363855D01*
X70190476Y-30363855D02*
X69733333Y-30363855D01*
X69961905Y-30363855D02*
X69961905Y-29563855D01*
X69961905Y-29563855D02*
X69885714Y-29678140D01*
X69885714Y-29678140D02*
X69809524Y-29754331D01*
X69809524Y-29754331D02*
X69733333Y-29792426D01*
X70533334Y-30287664D02*
X70571429Y-30325760D01*
X70571429Y-30325760D02*
X70533334Y-30363855D01*
X70533334Y-30363855D02*
X70495238Y-30325760D01*
X70495238Y-30325760D02*
X70533334Y-30287664D01*
X70533334Y-30287664D02*
X70533334Y-30363855D01*
X70533334Y-29868617D02*
X70571429Y-29906712D01*
X70571429Y-29906712D02*
X70533334Y-29944807D01*
X70533334Y-29944807D02*
X70495238Y-29906712D01*
X70495238Y-29906712D02*
X70533334Y-29868617D01*
X70533334Y-29868617D02*
X70533334Y-29944807D01*
X71523810Y-29563855D02*
X71523810Y-30211474D01*
X71523810Y-30211474D02*
X71561905Y-30287664D01*
X71561905Y-30287664D02*
X71600000Y-30325760D01*
X71600000Y-30325760D02*
X71676191Y-30363855D01*
X71676191Y-30363855D02*
X71828572Y-30363855D01*
X71828572Y-30363855D02*
X71904762Y-30325760D01*
X71904762Y-30325760D02*
X71942857Y-30287664D01*
X71942857Y-30287664D02*
X71980953Y-30211474D01*
X71980953Y-30211474D02*
X71980953Y-29563855D01*
X72323809Y-30325760D02*
X72438095Y-30363855D01*
X72438095Y-30363855D02*
X72628571Y-30363855D01*
X72628571Y-30363855D02*
X72704762Y-30325760D01*
X72704762Y-30325760D02*
X72742857Y-30287664D01*
X72742857Y-30287664D02*
X72780952Y-30211474D01*
X72780952Y-30211474D02*
X72780952Y-30135283D01*
X72780952Y-30135283D02*
X72742857Y-30059093D01*
X72742857Y-30059093D02*
X72704762Y-30020998D01*
X72704762Y-30020998D02*
X72628571Y-29982902D01*
X72628571Y-29982902D02*
X72476190Y-29944807D01*
X72476190Y-29944807D02*
X72400000Y-29906712D01*
X72400000Y-29906712D02*
X72361905Y-29868617D01*
X72361905Y-29868617D02*
X72323809Y-29792426D01*
X72323809Y-29792426D02*
X72323809Y-29716236D01*
X72323809Y-29716236D02*
X72361905Y-29640045D01*
X72361905Y-29640045D02*
X72400000Y-29601950D01*
X72400000Y-29601950D02*
X72476190Y-29563855D01*
X72476190Y-29563855D02*
X72666667Y-29563855D01*
X72666667Y-29563855D02*
X72780952Y-29601950D01*
X73085714Y-30135283D02*
X73466667Y-30135283D01*
X73009524Y-30363855D02*
X73276191Y-29563855D01*
X73276191Y-29563855D02*
X73542857Y-30363855D01*
X74266667Y-30363855D02*
X74000000Y-29982902D01*
X73809524Y-30363855D02*
X73809524Y-29563855D01*
X73809524Y-29563855D02*
X74114286Y-29563855D01*
X74114286Y-29563855D02*
X74190476Y-29601950D01*
X74190476Y-29601950D02*
X74228571Y-29640045D01*
X74228571Y-29640045D02*
X74266667Y-29716236D01*
X74266667Y-29716236D02*
X74266667Y-29830521D01*
X74266667Y-29830521D02*
X74228571Y-29906712D01*
X74228571Y-29906712D02*
X74190476Y-29944807D01*
X74190476Y-29944807D02*
X74114286Y-29982902D01*
X74114286Y-29982902D02*
X73809524Y-29982902D01*
X74495238Y-29563855D02*
X74952381Y-29563855D01*
X74723809Y-30363855D02*
X74723809Y-29563855D01*
X6266666Y-47563855D02*
X6266666Y-48135283D01*
X6266666Y-48135283D02*
X6228571Y-48249569D01*
X6228571Y-48249569D02*
X6152380Y-48325760D01*
X6152380Y-48325760D02*
X6038095Y-48363855D01*
X6038095Y-48363855D02*
X5961904Y-48363855D01*
X6609523Y-47640045D02*
X6647619Y-47601950D01*
X6647619Y-47601950D02*
X6723809Y-47563855D01*
X6723809Y-47563855D02*
X6914285Y-47563855D01*
X6914285Y-47563855D02*
X6990476Y-47601950D01*
X6990476Y-47601950D02*
X7028571Y-47640045D01*
X7028571Y-47640045D02*
X7066666Y-47716236D01*
X7066666Y-47716236D02*
X7066666Y-47792426D01*
X7066666Y-47792426D02*
X7028571Y-47906712D01*
X7028571Y-47906712D02*
X6571428Y-48363855D01*
X6571428Y-48363855D02*
X7066666Y-48363855D01*
X7409524Y-48287664D02*
X7447619Y-48325760D01*
X7447619Y-48325760D02*
X7409524Y-48363855D01*
X7409524Y-48363855D02*
X7371428Y-48325760D01*
X7371428Y-48325760D02*
X7409524Y-48287664D01*
X7409524Y-48287664D02*
X7409524Y-48363855D01*
X7409524Y-47868617D02*
X7447619Y-47906712D01*
X7447619Y-47906712D02*
X7409524Y-47944807D01*
X7409524Y-47944807D02*
X7371428Y-47906712D01*
X7371428Y-47906712D02*
X7409524Y-47868617D01*
X7409524Y-47868617D02*
X7409524Y-47944807D01*
X8400000Y-48363855D02*
X8400000Y-47563855D01*
X8742856Y-48325760D02*
X8857142Y-48363855D01*
X8857142Y-48363855D02*
X9047618Y-48363855D01*
X9047618Y-48363855D02*
X9123809Y-48325760D01*
X9123809Y-48325760D02*
X9161904Y-48287664D01*
X9161904Y-48287664D02*
X9199999Y-48211474D01*
X9199999Y-48211474D02*
X9199999Y-48135283D01*
X9199999Y-48135283D02*
X9161904Y-48059093D01*
X9161904Y-48059093D02*
X9123809Y-48020998D01*
X9123809Y-48020998D02*
X9047618Y-47982902D01*
X9047618Y-47982902D02*
X8895237Y-47944807D01*
X8895237Y-47944807D02*
X8819047Y-47906712D01*
X8819047Y-47906712D02*
X8780952Y-47868617D01*
X8780952Y-47868617D02*
X8742856Y-47792426D01*
X8742856Y-47792426D02*
X8742856Y-47716236D01*
X8742856Y-47716236D02*
X8780952Y-47640045D01*
X8780952Y-47640045D02*
X8819047Y-47601950D01*
X8819047Y-47601950D02*
X8895237Y-47563855D01*
X8895237Y-47563855D02*
X9085714Y-47563855D01*
X9085714Y-47563855D02*
X9199999Y-47601950D01*
X9542857Y-48363855D02*
X9542857Y-47563855D01*
X9542857Y-47563855D02*
X9847619Y-47563855D01*
X9847619Y-47563855D02*
X9923809Y-47601950D01*
X9923809Y-47601950D02*
X9961904Y-47640045D01*
X9961904Y-47640045D02*
X10000000Y-47716236D01*
X10000000Y-47716236D02*
X10000000Y-47830521D01*
X10000000Y-47830521D02*
X9961904Y-47906712D01*
X9961904Y-47906712D02*
X9923809Y-47944807D01*
X9923809Y-47944807D02*
X9847619Y-47982902D01*
X9847619Y-47982902D02*
X9542857Y-47982902D01*
X6209524Y-33363855D02*
X5942857Y-32982902D01*
X5752381Y-33363855D02*
X5752381Y-32563855D01*
X5752381Y-32563855D02*
X6057143Y-32563855D01*
X6057143Y-32563855D02*
X6133333Y-32601950D01*
X6133333Y-32601950D02*
X6171428Y-32640045D01*
X6171428Y-32640045D02*
X6209524Y-32716236D01*
X6209524Y-32716236D02*
X6209524Y-32830521D01*
X6209524Y-32830521D02*
X6171428Y-32906712D01*
X6171428Y-32906712D02*
X6133333Y-32944807D01*
X6133333Y-32944807D02*
X6057143Y-32982902D01*
X6057143Y-32982902D02*
X5752381Y-32982902D01*
X6971428Y-33363855D02*
X6514285Y-33363855D01*
X6742857Y-33363855D02*
X6742857Y-32563855D01*
X6742857Y-32563855D02*
X6666666Y-32678140D01*
X6666666Y-32678140D02*
X6590476Y-32754331D01*
X6590476Y-32754331D02*
X6514285Y-32792426D01*
X7314286Y-33287664D02*
X7352381Y-33325760D01*
X7352381Y-33325760D02*
X7314286Y-33363855D01*
X7314286Y-33363855D02*
X7276190Y-33325760D01*
X7276190Y-33325760D02*
X7314286Y-33287664D01*
X7314286Y-33287664D02*
X7314286Y-33363855D01*
X7314286Y-32868617D02*
X7352381Y-32906712D01*
X7352381Y-32906712D02*
X7314286Y-32944807D01*
X7314286Y-32944807D02*
X7276190Y-32906712D01*
X7276190Y-32906712D02*
X7314286Y-32868617D01*
X7314286Y-32868617D02*
X7314286Y-32944807D01*
X8723809Y-33363855D02*
X8266666Y-33363855D01*
X8495238Y-33363855D02*
X8495238Y-32563855D01*
X8495238Y-32563855D02*
X8419047Y-32678140D01*
X8419047Y-32678140D02*
X8342857Y-32754331D01*
X8342857Y-32754331D02*
X8266666Y-32792426D01*
X9219048Y-32563855D02*
X9295238Y-32563855D01*
X9295238Y-32563855D02*
X9371429Y-32601950D01*
X9371429Y-32601950D02*
X9409524Y-32640045D01*
X9409524Y-32640045D02*
X9447619Y-32716236D01*
X9447619Y-32716236D02*
X9485714Y-32868617D01*
X9485714Y-32868617D02*
X9485714Y-33059093D01*
X9485714Y-33059093D02*
X9447619Y-33211474D01*
X9447619Y-33211474D02*
X9409524Y-33287664D01*
X9409524Y-33287664D02*
X9371429Y-33325760D01*
X9371429Y-33325760D02*
X9295238Y-33363855D01*
X9295238Y-33363855D02*
X9219048Y-33363855D01*
X9219048Y-33363855D02*
X9142857Y-33325760D01*
X9142857Y-33325760D02*
X9104762Y-33287664D01*
X9104762Y-33287664D02*
X9066667Y-33211474D01*
X9066667Y-33211474D02*
X9028571Y-33059093D01*
X9028571Y-33059093D02*
X9028571Y-32868617D01*
X9028571Y-32868617D02*
X9066667Y-32716236D01*
X9066667Y-32716236D02*
X9104762Y-32640045D01*
X9104762Y-32640045D02*
X9142857Y-32601950D01*
X9142857Y-32601950D02*
X9219048Y-32563855D01*
X9828572Y-33363855D02*
X9828572Y-32563855D01*
X10285715Y-33363855D02*
X9942857Y-32906712D01*
X10285715Y-32563855D02*
X9828572Y-33020998D01*
D11*
X33666667Y-7454819D02*
X34000000Y-8454819D01*
X34000000Y-8454819D02*
X34333333Y-7454819D01*
X35238095Y-8359580D02*
X35190476Y-8407200D01*
X35190476Y-8407200D02*
X35047619Y-8454819D01*
X35047619Y-8454819D02*
X34952381Y-8454819D01*
X34952381Y-8454819D02*
X34809524Y-8407200D01*
X34809524Y-8407200D02*
X34714286Y-8311961D01*
X34714286Y-8311961D02*
X34666667Y-8216723D01*
X34666667Y-8216723D02*
X34619048Y-8026247D01*
X34619048Y-8026247D02*
X34619048Y-7883390D01*
X34619048Y-7883390D02*
X34666667Y-7692914D01*
X34666667Y-7692914D02*
X34714286Y-7597676D01*
X34714286Y-7597676D02*
X34809524Y-7502438D01*
X34809524Y-7502438D02*
X34952381Y-7454819D01*
X34952381Y-7454819D02*
X35047619Y-7454819D01*
X35047619Y-7454819D02*
X35190476Y-7502438D01*
X35190476Y-7502438D02*
X35238095Y-7550057D01*
X36238095Y-8359580D02*
X36190476Y-8407200D01*
X36190476Y-8407200D02*
X36047619Y-8454819D01*
X36047619Y-8454819D02*
X35952381Y-8454819D01*
X35952381Y-8454819D02*
X35809524Y-8407200D01*
X35809524Y-8407200D02*
X35714286Y-8311961D01*
X35714286Y-8311961D02*
X35666667Y-8216723D01*
X35666667Y-8216723D02*
X35619048Y-8026247D01*
X35619048Y-8026247D02*
X35619048Y-7883390D01*
X35619048Y-7883390D02*
X35666667Y-7692914D01*
X35666667Y-7692914D02*
X35714286Y-7597676D01*
X35714286Y-7597676D02*
X35809524Y-7502438D01*
X35809524Y-7502438D02*
X35952381Y-7454819D01*
X35952381Y-7454819D02*
X36047619Y-7454819D01*
X36047619Y-7454819D02*
X36190476Y-7502438D01*
X36190476Y-7502438D02*
X36238095Y-7550057D01*
X34238095Y-51502438D02*
X34142857Y-51454819D01*
X34142857Y-51454819D02*
X34000000Y-51454819D01*
X34000000Y-51454819D02*
X33857143Y-51502438D01*
X33857143Y-51502438D02*
X33761905Y-51597676D01*
X33761905Y-51597676D02*
X33714286Y-51692914D01*
X33714286Y-51692914D02*
X33666667Y-51883390D01*
X33666667Y-51883390D02*
X33666667Y-52026247D01*
X33666667Y-52026247D02*
X33714286Y-52216723D01*
X33714286Y-52216723D02*
X33761905Y-52311961D01*
X33761905Y-52311961D02*
X33857143Y-52407200D01*
X33857143Y-52407200D02*
X34000000Y-52454819D01*
X34000000Y-52454819D02*
X34095238Y-52454819D01*
X34095238Y-52454819D02*
X34238095Y-52407200D01*
X34238095Y-52407200D02*
X34285714Y-52359580D01*
X34285714Y-52359580D02*
X34285714Y-52026247D01*
X34285714Y-52026247D02*
X34095238Y-52026247D01*
X34714286Y-52454819D02*
X34714286Y-51454819D01*
X34714286Y-51454819D02*
X35285714Y-52454819D01*
X35285714Y-52454819D02*
X35285714Y-51454819D01*
X35761905Y-52454819D02*
X35761905Y-51454819D01*
X35761905Y-51454819D02*
X36000000Y-51454819D01*
X36000000Y-51454819D02*
X36142857Y-51502438D01*
X36142857Y-51502438D02*
X36238095Y-51597676D01*
X36238095Y-51597676D02*
X36285714Y-51692914D01*
X36285714Y-51692914D02*
X36333333Y-51883390D01*
X36333333Y-51883390D02*
X36333333Y-52026247D01*
X36333333Y-52026247D02*
X36285714Y-52216723D01*
X36285714Y-52216723D02*
X36238095Y-52311961D01*
X36238095Y-52311961D02*
X36142857Y-52407200D01*
X36142857Y-52407200D02*
X36000000Y-52454819D01*
X36000000Y-52454819D02*
X35761905Y-52454819D01*
X41858095Y-28184819D02*
X41858095Y-28994342D01*
X41858095Y-28994342D02*
X41905714Y-29089580D01*
X41905714Y-29089580D02*
X41953333Y-29137200D01*
X41953333Y-29137200D02*
X42048571Y-29184819D01*
X42048571Y-29184819D02*
X42239047Y-29184819D01*
X42239047Y-29184819D02*
X42334285Y-29137200D01*
X42334285Y-29137200D02*
X42381904Y-29089580D01*
X42381904Y-29089580D02*
X42429523Y-28994342D01*
X42429523Y-28994342D02*
X42429523Y-28184819D01*
X43429523Y-29184819D02*
X42858095Y-29184819D01*
X43143809Y-29184819D02*
X43143809Y-28184819D01*
X43143809Y-28184819D02*
X43048571Y-28327676D01*
X43048571Y-28327676D02*
X42953333Y-28422914D01*
X42953333Y-28422914D02*
X42858095Y-28470533D01*
X17523809Y-20978628D02*
X17523809Y-21454819D01*
X17190476Y-20454819D02*
X17523809Y-20978628D01*
X17523809Y-20978628D02*
X17857142Y-20454819D01*
X18714285Y-21454819D02*
X18142857Y-21454819D01*
X18428571Y-21454819D02*
X18428571Y-20454819D01*
X18428571Y-20454819D02*
X18333333Y-20597676D01*
X18333333Y-20597676D02*
X18238095Y-20692914D01*
X18238095Y-20692914D02*
X18142857Y-20740533D01*
D12*
X15116667Y-26287664D02*
X15078571Y-26325760D01*
X15078571Y-26325760D02*
X14964286Y-26363855D01*
X14964286Y-26363855D02*
X14888095Y-26363855D01*
X14888095Y-26363855D02*
X14773809Y-26325760D01*
X14773809Y-26325760D02*
X14697619Y-26249569D01*
X14697619Y-26249569D02*
X14659524Y-26173379D01*
X14659524Y-26173379D02*
X14621428Y-26020998D01*
X14621428Y-26020998D02*
X14621428Y-25906712D01*
X14621428Y-25906712D02*
X14659524Y-25754331D01*
X14659524Y-25754331D02*
X14697619Y-25678140D01*
X14697619Y-25678140D02*
X14773809Y-25601950D01*
X14773809Y-25601950D02*
X14888095Y-25563855D01*
X14888095Y-25563855D02*
X14964286Y-25563855D01*
X14964286Y-25563855D02*
X15078571Y-25601950D01*
X15078571Y-25601950D02*
X15116667Y-25640045D01*
X15878571Y-26363855D02*
X15421428Y-26363855D01*
X15650000Y-26363855D02*
X15650000Y-25563855D01*
X15650000Y-25563855D02*
X15573809Y-25678140D01*
X15573809Y-25678140D02*
X15497619Y-25754331D01*
X15497619Y-25754331D02*
X15421428Y-25792426D01*
X23116667Y-26287664D02*
X23078571Y-26325760D01*
X23078571Y-26325760D02*
X22964286Y-26363855D01*
X22964286Y-26363855D02*
X22888095Y-26363855D01*
X22888095Y-26363855D02*
X22773809Y-26325760D01*
X22773809Y-26325760D02*
X22697619Y-26249569D01*
X22697619Y-26249569D02*
X22659524Y-26173379D01*
X22659524Y-26173379D02*
X22621428Y-26020998D01*
X22621428Y-26020998D02*
X22621428Y-25906712D01*
X22621428Y-25906712D02*
X22659524Y-25754331D01*
X22659524Y-25754331D02*
X22697619Y-25678140D01*
X22697619Y-25678140D02*
X22773809Y-25601950D01*
X22773809Y-25601950D02*
X22888095Y-25563855D01*
X22888095Y-25563855D02*
X22964286Y-25563855D01*
X22964286Y-25563855D02*
X23078571Y-25601950D01*
X23078571Y-25601950D02*
X23116667Y-25640045D01*
X23421428Y-25640045D02*
X23459524Y-25601950D01*
X23459524Y-25601950D02*
X23535714Y-25563855D01*
X23535714Y-25563855D02*
X23726190Y-25563855D01*
X23726190Y-25563855D02*
X23802381Y-25601950D01*
X23802381Y-25601950D02*
X23840476Y-25640045D01*
X23840476Y-25640045D02*
X23878571Y-25716236D01*
X23878571Y-25716236D02*
X23878571Y-25792426D01*
X23878571Y-25792426D02*
X23840476Y-25906712D01*
X23840476Y-25906712D02*
X23383333Y-26363855D01*
X23383333Y-26363855D02*
X23878571Y-26363855D01*
X28116667Y-12287664D02*
X28078571Y-12325760D01*
X28078571Y-12325760D02*
X27964286Y-12363855D01*
X27964286Y-12363855D02*
X27888095Y-12363855D01*
X27888095Y-12363855D02*
X27773809Y-12325760D01*
X27773809Y-12325760D02*
X27697619Y-12249569D01*
X27697619Y-12249569D02*
X27659524Y-12173379D01*
X27659524Y-12173379D02*
X27621428Y-12020998D01*
X27621428Y-12020998D02*
X27621428Y-11906712D01*
X27621428Y-11906712D02*
X27659524Y-11754331D01*
X27659524Y-11754331D02*
X27697619Y-11678140D01*
X27697619Y-11678140D02*
X27773809Y-11601950D01*
X27773809Y-11601950D02*
X27888095Y-11563855D01*
X27888095Y-11563855D02*
X27964286Y-11563855D01*
X27964286Y-11563855D02*
X28078571Y-11601950D01*
X28078571Y-11601950D02*
X28116667Y-11640045D01*
X28383333Y-11563855D02*
X28878571Y-11563855D01*
X28878571Y-11563855D02*
X28611905Y-11868617D01*
X28611905Y-11868617D02*
X28726190Y-11868617D01*
X28726190Y-11868617D02*
X28802381Y-11906712D01*
X28802381Y-11906712D02*
X28840476Y-11944807D01*
X28840476Y-11944807D02*
X28878571Y-12020998D01*
X28878571Y-12020998D02*
X28878571Y-12211474D01*
X28878571Y-12211474D02*
X28840476Y-12287664D01*
X28840476Y-12287664D02*
X28802381Y-12325760D01*
X28802381Y-12325760D02*
X28726190Y-12363855D01*
X28726190Y-12363855D02*
X28497619Y-12363855D01*
X28497619Y-12363855D02*
X28421428Y-12325760D01*
X28421428Y-12325760D02*
X28383333Y-12287664D01*
X43116667Y-12287664D02*
X43078571Y-12325760D01*
X43078571Y-12325760D02*
X42964286Y-12363855D01*
X42964286Y-12363855D02*
X42888095Y-12363855D01*
X42888095Y-12363855D02*
X42773809Y-12325760D01*
X42773809Y-12325760D02*
X42697619Y-12249569D01*
X42697619Y-12249569D02*
X42659524Y-12173379D01*
X42659524Y-12173379D02*
X42621428Y-12020998D01*
X42621428Y-12020998D02*
X42621428Y-11906712D01*
X42621428Y-11906712D02*
X42659524Y-11754331D01*
X42659524Y-11754331D02*
X42697619Y-11678140D01*
X42697619Y-11678140D02*
X42773809Y-11601950D01*
X42773809Y-11601950D02*
X42888095Y-11563855D01*
X42888095Y-11563855D02*
X42964286Y-11563855D01*
X42964286Y-11563855D02*
X43078571Y-11601950D01*
X43078571Y-11601950D02*
X43116667Y-11640045D01*
X43802381Y-11830521D02*
X43802381Y-12363855D01*
X43611905Y-11525760D02*
X43421428Y-12097188D01*
X43421428Y-12097188D02*
X43916667Y-12097188D01*
X14946667Y-32363855D02*
X14680000Y-31982902D01*
X14489524Y-32363855D02*
X14489524Y-31563855D01*
X14489524Y-31563855D02*
X14794286Y-31563855D01*
X14794286Y-31563855D02*
X14870476Y-31601950D01*
X14870476Y-31601950D02*
X14908571Y-31640045D01*
X14908571Y-31640045D02*
X14946667Y-31716236D01*
X14946667Y-31716236D02*
X14946667Y-31830521D01*
X14946667Y-31830521D02*
X14908571Y-31906712D01*
X14908571Y-31906712D02*
X14870476Y-31944807D01*
X14870476Y-31944807D02*
X14794286Y-31982902D01*
X14794286Y-31982902D02*
X14489524Y-31982902D01*
X15708571Y-32363855D02*
X15251428Y-32363855D01*
X15480000Y-32363855D02*
X15480000Y-31563855D01*
X15480000Y-31563855D02*
X15403809Y-31678140D01*
X15403809Y-31678140D02*
X15327619Y-31754331D01*
X15327619Y-31754331D02*
X15251428Y-31792426D01*
X13933332Y-36325760D02*
X14047618Y-36363855D01*
X14047618Y-36363855D02*
X14238094Y-36363855D01*
X14238094Y-36363855D02*
X14314285Y-36325760D01*
X14314285Y-36325760D02*
X14352380Y-36287664D01*
X14352380Y-36287664D02*
X14390475Y-36211474D01*
X14390475Y-36211474D02*
X14390475Y-36135283D01*
X14390475Y-36135283D02*
X14352380Y-36059093D01*
X14352380Y-36059093D02*
X14314285Y-36020998D01*
X14314285Y-36020998D02*
X14238094Y-35982902D01*
X14238094Y-35982902D02*
X14085713Y-35944807D01*
X14085713Y-35944807D02*
X14009523Y-35906712D01*
X14009523Y-35906712D02*
X13971428Y-35868617D01*
X13971428Y-35868617D02*
X13933332Y-35792426D01*
X13933332Y-35792426D02*
X13933332Y-35716236D01*
X13933332Y-35716236D02*
X13971428Y-35640045D01*
X13971428Y-35640045D02*
X14009523Y-35601950D01*
X14009523Y-35601950D02*
X14085713Y-35563855D01*
X14085713Y-35563855D02*
X14276190Y-35563855D01*
X14276190Y-35563855D02*
X14390475Y-35601950D01*
X14657142Y-35563855D02*
X14847618Y-36363855D01*
X14847618Y-36363855D02*
X14999999Y-35792426D01*
X14999999Y-35792426D02*
X15152380Y-36363855D01*
X15152380Y-36363855D02*
X15342857Y-35563855D01*
X16066666Y-36363855D02*
X15609523Y-36363855D01*
X15838095Y-36363855D02*
X15838095Y-35563855D01*
X15838095Y-35563855D02*
X15761904Y-35678140D01*
X15761904Y-35678140D02*
X15685714Y-35754331D01*
X15685714Y-35754331D02*
X15609523Y-35792426D01*
X60946667Y-40363855D02*
X60680000Y-39982902D01*
X60489524Y-40363855D02*
X60489524Y-39563855D01*
X60489524Y-39563855D02*
X60794286Y-39563855D01*
X60794286Y-39563855D02*
X60870476Y-39601950D01*
X60870476Y-39601950D02*
X60908571Y-39640045D01*
X60908571Y-39640045D02*
X60946667Y-39716236D01*
X60946667Y-39716236D02*
X60946667Y-39830521D01*
X60946667Y-39830521D02*
X60908571Y-39906712D01*
X60908571Y-39906712D02*
X60870476Y-39944807D01*
X60870476Y-39944807D02*
X60794286Y-39982902D01*
X60794286Y-39982902D02*
X60489524Y-39982902D01*
X61251428Y-39640045D02*
X61289524Y-39601950D01*
X61289524Y-39601950D02*
X61365714Y-39563855D01*
X61365714Y-39563855D02*
X61556190Y-39563855D01*
X61556190Y-39563855D02*
X61632381Y-39601950D01*
X61632381Y-39601950D02*
X61670476Y-39640045D01*
X61670476Y-39640045D02*
X61708571Y-39716236D01*
X61708571Y-39716236D02*
X61708571Y-39792426D01*
X61708571Y-39792426D02*
X61670476Y-39906712D01*
X61670476Y-39906712D02*
X61213333Y-40363855D01*
X61213333Y-40363855D02*
X61708571Y-40363855D01*
X59933332Y-46325760D02*
X60047618Y-46363855D01*
X60047618Y-46363855D02*
X60238094Y-46363855D01*
X60238094Y-46363855D02*
X60314285Y-46325760D01*
X60314285Y-46325760D02*
X60352380Y-46287664D01*
X60352380Y-46287664D02*
X60390475Y-46211474D01*
X60390475Y-46211474D02*
X60390475Y-46135283D01*
X60390475Y-46135283D02*
X60352380Y-46059093D01*
X60352380Y-46059093D02*
X60314285Y-46020998D01*
X60314285Y-46020998D02*
X60238094Y-45982902D01*
X60238094Y-45982902D02*
X60085713Y-45944807D01*
X60085713Y-45944807D02*
X60009523Y-45906712D01*
X60009523Y-45906712D02*
X59971428Y-45868617D01*
X59971428Y-45868617D02*
X59933332Y-45792426D01*
X59933332Y-45792426D02*
X59933332Y-45716236D01*
X59933332Y-45716236D02*
X59971428Y-45640045D01*
X59971428Y-45640045D02*
X60009523Y-45601950D01*
X60009523Y-45601950D02*
X60085713Y-45563855D01*
X60085713Y-45563855D02*
X60276190Y-45563855D01*
X60276190Y-45563855D02*
X60390475Y-45601950D01*
X60657142Y-45563855D02*
X60847618Y-46363855D01*
X60847618Y-46363855D02*
X60999999Y-45792426D01*
X60999999Y-45792426D02*
X61152380Y-46363855D01*
X61152380Y-46363855D02*
X61342857Y-45563855D01*
X61609523Y-45640045D02*
X61647619Y-45601950D01*
X61647619Y-45601950D02*
X61723809Y-45563855D01*
X61723809Y-45563855D02*
X61914285Y-45563855D01*
X61914285Y-45563855D02*
X61990476Y-45601950D01*
X61990476Y-45601950D02*
X62028571Y-45640045D01*
X62028571Y-45640045D02*
X62066666Y-45716236D01*
X62066666Y-45716236D02*
X62066666Y-45792426D01*
X62066666Y-45792426D02*
X62028571Y-45906712D01*
X62028571Y-45906712D02*
X61571428Y-46363855D01*
X61571428Y-46363855D02*
X62066666Y-46363855D01*
X77946667Y-40363855D02*
X77680000Y-39982902D01*
X77489524Y-40363855D02*
X77489524Y-39563855D01*
X77489524Y-39563855D02*
X77794286Y-39563855D01*
X77794286Y-39563855D02*
X77870476Y-39601950D01*
X77870476Y-39601950D02*
X77908571Y-39640045D01*
X77908571Y-39640045D02*
X77946667Y-39716236D01*
X77946667Y-39716236D02*
X77946667Y-39830521D01*
X77946667Y-39830521D02*
X77908571Y-39906712D01*
X77908571Y-39906712D02*
X77870476Y-39944807D01*
X77870476Y-39944807D02*
X77794286Y-39982902D01*
X77794286Y-39982902D02*
X77489524Y-39982902D01*
X78213333Y-39563855D02*
X78708571Y-39563855D01*
X78708571Y-39563855D02*
X78441905Y-39868617D01*
X78441905Y-39868617D02*
X78556190Y-39868617D01*
X78556190Y-39868617D02*
X78632381Y-39906712D01*
X78632381Y-39906712D02*
X78670476Y-39944807D01*
X78670476Y-39944807D02*
X78708571Y-40020998D01*
X78708571Y-40020998D02*
X78708571Y-40211474D01*
X78708571Y-40211474D02*
X78670476Y-40287664D01*
X78670476Y-40287664D02*
X78632381Y-40325760D01*
X78632381Y-40325760D02*
X78556190Y-40363855D01*
X78556190Y-40363855D02*
X78327619Y-40363855D01*
X78327619Y-40363855D02*
X78251428Y-40325760D01*
X78251428Y-40325760D02*
X78213333Y-40287664D01*
X76933332Y-46325760D02*
X77047618Y-46363855D01*
X77047618Y-46363855D02*
X77238094Y-46363855D01*
X77238094Y-46363855D02*
X77314285Y-46325760D01*
X77314285Y-46325760D02*
X77352380Y-46287664D01*
X77352380Y-46287664D02*
X77390475Y-46211474D01*
X77390475Y-46211474D02*
X77390475Y-46135283D01*
X77390475Y-46135283D02*
X77352380Y-46059093D01*
X77352380Y-46059093D02*
X77314285Y-46020998D01*
X77314285Y-46020998D02*
X77238094Y-45982902D01*
X77238094Y-45982902D02*
X77085713Y-45944807D01*
X77085713Y-45944807D02*
X77009523Y-45906712D01*
X77009523Y-45906712D02*
X76971428Y-45868617D01*
X76971428Y-45868617D02*
X76933332Y-45792426D01*
X76933332Y-45792426D02*
X76933332Y-45716236D01*
X76933332Y-45716236D02*
X76971428Y-45640045D01*
X76971428Y-45640045D02*
X77009523Y-45601950D01*
X77009523Y-45601950D02*
X77085713Y-45563855D01*
X77085713Y-45563855D02*
X77276190Y-45563855D01*
X77276190Y-45563855D02*
X77390475Y-45601950D01*
X77657142Y-45563855D02*
X77847618Y-46363855D01*
X77847618Y-46363855D02*
X77999999Y-45792426D01*
X77999999Y-45792426D02*
X78152380Y-46363855D01*
X78152380Y-46363855D02*
X78342857Y-45563855D01*
X78571428Y-45563855D02*
X79066666Y-45563855D01*
X79066666Y-45563855D02*
X78800000Y-45868617D01*
X78800000Y-45868617D02*
X78914285Y-45868617D01*
X78914285Y-45868617D02*
X78990476Y-45906712D01*
X78990476Y-45906712D02*
X79028571Y-45944807D01*
X79028571Y-45944807D02*
X79066666Y-46020998D01*
X79066666Y-46020998D02*
X79066666Y-46211474D01*
X79066666Y-46211474D02*
X79028571Y-46287664D01*
X79028571Y-46287664D02*
X78990476Y-46325760D01*
X78990476Y-46325760D02*
X78914285Y-46363855D01*
X78914285Y-46363855D02*
X78685714Y-46363855D01*
X78685714Y-46363855D02*
X78609523Y-46325760D01*
X78609523Y-46325760D02*
X78571428Y-46287664D01*
X92946667Y-40363855D02*
X92680000Y-39982902D01*
X92489524Y-40363855D02*
X92489524Y-39563855D01*
X92489524Y-39563855D02*
X92794286Y-39563855D01*
X92794286Y-39563855D02*
X92870476Y-39601950D01*
X92870476Y-39601950D02*
X92908571Y-39640045D01*
X92908571Y-39640045D02*
X92946667Y-39716236D01*
X92946667Y-39716236D02*
X92946667Y-39830521D01*
X92946667Y-39830521D02*
X92908571Y-39906712D01*
X92908571Y-39906712D02*
X92870476Y-39944807D01*
X92870476Y-39944807D02*
X92794286Y-39982902D01*
X92794286Y-39982902D02*
X92489524Y-39982902D01*
X93632381Y-39830521D02*
X93632381Y-40363855D01*
X93441905Y-39525760D02*
X93251428Y-40097188D01*
X93251428Y-40097188D02*
X93746667Y-40097188D01*
X91933332Y-46325760D02*
X92047618Y-46363855D01*
X92047618Y-46363855D02*
X92238094Y-46363855D01*
X92238094Y-46363855D02*
X92314285Y-46325760D01*
X92314285Y-46325760D02*
X92352380Y-46287664D01*
X92352380Y-46287664D02*
X92390475Y-46211474D01*
X92390475Y-46211474D02*
X92390475Y-46135283D01*
X92390475Y-46135283D02*
X92352380Y-46059093D01*
X92352380Y-46059093D02*
X92314285Y-46020998D01*
X92314285Y-46020998D02*
X92238094Y-45982902D01*
X92238094Y-45982902D02*
X92085713Y-45944807D01*
X92085713Y-45944807D02*
X92009523Y-45906712D01*
X92009523Y-45906712D02*
X91971428Y-45868617D01*
X91971428Y-45868617D02*
X91933332Y-45792426D01*
X91933332Y-45792426D02*
X91933332Y-45716236D01*
X91933332Y-45716236D02*
X91971428Y-45640045D01*
X91971428Y-45640045D02*
X92009523Y-45601950D01*
X92009523Y-45601950D02*
X92085713Y-45563855D01*
X92085713Y-45563855D02*
X92276190Y-45563855D01*
X92276190Y-45563855D02*
X92390475Y-45601950D01*
X92657142Y-45563855D02*
X92847618Y-46363855D01*
X92847618Y-46363855D02*
X92999999Y-45792426D01*
X92999999Y-45792426D02*
X93152380Y-46363855D01*
X93152380Y-46363855D02*
X93342857Y-45563855D01*
X93990476Y-45830521D02*
X93990476Y-46363855D01*
X93800000Y-45525760D02*
X93609523Y-46097188D01*
X93609523Y-46097188D02*
X94104762Y-46097188D01*
X62946667Y-8363855D02*
X62680000Y-7982902D01*
X62489524Y-8363855D02*
X62489524Y-7563855D01*
X62489524Y-7563855D02*
X62794286Y-7563855D01*
X62794286Y-7563855D02*
X62870476Y-7601950D01*
X62870476Y-7601950D02*
X62908571Y-7640045D01*
X62908571Y-7640045D02*
X62946667Y-7716236D01*
X62946667Y-7716236D02*
X62946667Y-7830521D01*
X62946667Y-7830521D02*
X62908571Y-7906712D01*
X62908571Y-7906712D02*
X62870476Y-7944807D01*
X62870476Y-7944807D02*
X62794286Y-7982902D01*
X62794286Y-7982902D02*
X62489524Y-7982902D01*
X63670476Y-7563855D02*
X63289524Y-7563855D01*
X63289524Y-7563855D02*
X63251428Y-7944807D01*
X63251428Y-7944807D02*
X63289524Y-7906712D01*
X63289524Y-7906712D02*
X63365714Y-7868617D01*
X63365714Y-7868617D02*
X63556190Y-7868617D01*
X63556190Y-7868617D02*
X63632381Y-7906712D01*
X63632381Y-7906712D02*
X63670476Y-7944807D01*
X63670476Y-7944807D02*
X63708571Y-8020998D01*
X63708571Y-8020998D02*
X63708571Y-8211474D01*
X63708571Y-8211474D02*
X63670476Y-8287664D01*
X63670476Y-8287664D02*
X63632381Y-8325760D01*
X63632381Y-8325760D02*
X63556190Y-8363855D01*
X63556190Y-8363855D02*
X63365714Y-8363855D01*
X63365714Y-8363855D02*
X63289524Y-8325760D01*
X63289524Y-8325760D02*
X63251428Y-8287664D01*
X61409524Y-3363855D02*
X61409524Y-2563855D01*
X61409524Y-2563855D02*
X61600000Y-2563855D01*
X61600000Y-2563855D02*
X61714286Y-2601950D01*
X61714286Y-2601950D02*
X61790476Y-2678140D01*
X61790476Y-2678140D02*
X61828571Y-2754331D01*
X61828571Y-2754331D02*
X61866667Y-2906712D01*
X61866667Y-2906712D02*
X61866667Y-3020998D01*
X61866667Y-3020998D02*
X61828571Y-3173379D01*
X61828571Y-3173379D02*
X61790476Y-3249569D01*
X61790476Y-3249569D02*
X61714286Y-3325760D01*
X61714286Y-3325760D02*
X61600000Y-3363855D01*
X61600000Y-3363855D02*
X61409524Y-3363855D01*
X62628571Y-3363855D02*
X62171428Y-3363855D01*
X62400000Y-3363855D02*
X62400000Y-2563855D01*
X62400000Y-2563855D02*
X62323809Y-2678140D01*
X62323809Y-2678140D02*
X62247619Y-2754331D01*
X62247619Y-2754331D02*
X62171428Y-2792426D01*
X70946667Y-8363855D02*
X70680000Y-7982902D01*
X70489524Y-8363855D02*
X70489524Y-7563855D01*
X70489524Y-7563855D02*
X70794286Y-7563855D01*
X70794286Y-7563855D02*
X70870476Y-7601950D01*
X70870476Y-7601950D02*
X70908571Y-7640045D01*
X70908571Y-7640045D02*
X70946667Y-7716236D01*
X70946667Y-7716236D02*
X70946667Y-7830521D01*
X70946667Y-7830521D02*
X70908571Y-7906712D01*
X70908571Y-7906712D02*
X70870476Y-7944807D01*
X70870476Y-7944807D02*
X70794286Y-7982902D01*
X70794286Y-7982902D02*
X70489524Y-7982902D01*
X71632381Y-7563855D02*
X71480000Y-7563855D01*
X71480000Y-7563855D02*
X71403809Y-7601950D01*
X71403809Y-7601950D02*
X71365714Y-7640045D01*
X71365714Y-7640045D02*
X71289524Y-7754331D01*
X71289524Y-7754331D02*
X71251428Y-7906712D01*
X71251428Y-7906712D02*
X71251428Y-8211474D01*
X71251428Y-8211474D02*
X71289524Y-8287664D01*
X71289524Y-8287664D02*
X71327619Y-8325760D01*
X71327619Y-8325760D02*
X71403809Y-8363855D01*
X71403809Y-8363855D02*
X71556190Y-8363855D01*
X71556190Y-8363855D02*
X71632381Y-8325760D01*
X71632381Y-8325760D02*
X71670476Y-8287664D01*
X71670476Y-8287664D02*
X71708571Y-8211474D01*
X71708571Y-8211474D02*
X71708571Y-8020998D01*
X71708571Y-8020998D02*
X71670476Y-7944807D01*
X71670476Y-7944807D02*
X71632381Y-7906712D01*
X71632381Y-7906712D02*
X71556190Y-7868617D01*
X71556190Y-7868617D02*
X71403809Y-7868617D01*
X71403809Y-7868617D02*
X71327619Y-7906712D01*
X71327619Y-7906712D02*
X71289524Y-7944807D01*
X71289524Y-7944807D02*
X71251428Y-8020998D01*
X69409524Y-3363855D02*
X69409524Y-2563855D01*
X69409524Y-2563855D02*
X69600000Y-2563855D01*
X69600000Y-2563855D02*
X69714286Y-2601950D01*
X69714286Y-2601950D02*
X69790476Y-2678140D01*
X69790476Y-2678140D02*
X69828571Y-2754331D01*
X69828571Y-2754331D02*
X69866667Y-2906712D01*
X69866667Y-2906712D02*
X69866667Y-3020998D01*
X69866667Y-3020998D02*
X69828571Y-3173379D01*
X69828571Y-3173379D02*
X69790476Y-3249569D01*
X69790476Y-3249569D02*
X69714286Y-3325760D01*
X69714286Y-3325760D02*
X69600000Y-3363855D01*
X69600000Y-3363855D02*
X69409524Y-3363855D01*
X70171428Y-2640045D02*
X70209524Y-2601950D01*
X70209524Y-2601950D02*
X70285714Y-2563855D01*
X70285714Y-2563855D02*
X70476190Y-2563855D01*
X70476190Y-2563855D02*
X70552381Y-2601950D01*
X70552381Y-2601950D02*
X70590476Y-2640045D01*
X70590476Y-2640045D02*
X70628571Y-2716236D01*
X70628571Y-2716236D02*
X70628571Y-2792426D01*
X70628571Y-2792426D02*
X70590476Y-2906712D01*
X70590476Y-2906712D02*
X70133333Y-3363855D01*
X70133333Y-3363855D02*
X70628571Y-3363855D01*
X73733333Y-24563855D02*
X73733333Y-25135283D01*
X73733333Y-25135283D02*
X73695238Y-25249569D01*
X73695238Y-25249569D02*
X73619047Y-25325760D01*
X73619047Y-25325760D02*
X73504762Y-25363855D01*
X73504762Y-25363855D02*
X73428571Y-25363855D01*
X74533333Y-25363855D02*
X74076190Y-25363855D01*
X74304762Y-25363855D02*
X74304762Y-24563855D01*
X74304762Y-24563855D02*
X74228571Y-24678140D01*
X74228571Y-24678140D02*
X74152381Y-24754331D01*
X74152381Y-24754331D02*
X74076190Y-24792426D01*
X9003333Y-46563855D02*
X9003333Y-47135283D01*
X9003333Y-47135283D02*
X8965238Y-47249569D01*
X8965238Y-47249569D02*
X8889047Y-47325760D01*
X8889047Y-47325760D02*
X8774762Y-47363855D01*
X8774762Y-47363855D02*
X8698571Y-47363855D01*
X9346190Y-46640045D02*
X9384286Y-46601950D01*
X9384286Y-46601950D02*
X9460476Y-46563855D01*
X9460476Y-46563855D02*
X9650952Y-46563855D01*
X9650952Y-46563855D02*
X9727143Y-46601950D01*
X9727143Y-46601950D02*
X9765238Y-46640045D01*
X9765238Y-46640045D02*
X9803333Y-46716236D01*
X9803333Y-46716236D02*
X9803333Y-46792426D01*
X9803333Y-46792426D02*
X9765238Y-46906712D01*
X9765238Y-46906712D02*
X9308095Y-47363855D01*
X9308095Y-47363855D02*
X9803333Y-47363855D01*
%TO.C,U1*%
X33730000Y-29365000D02*
X51510000Y-29365000D01*
X51510000Y-79530000D01*
X33730000Y-79530000D01*
X33730000Y-29365000D01*
X35500000Y-31270000D02*
G75*
G02*
X34500000Y-31270000I-500000J0D01*
G01*
X34500000Y-31270000D02*
G75*
G02*
X35500000Y-31270000I500000J0D01*
G01*
%TD*%
M02*
