%TF.GenerationSoftware,KiCad,Pcbnew,7.0.11+dfsg-1build4*%
%TF.CreationDate,2026-06-15T22:03:18+03:00*%
%TF.ProjectId,ATmega32_Clock,41546d65-6761-4333-925f-436c6f636b2e,1.0*%
%TF.SameCoordinates,Original*%
%TF.FileFunction,AssemblyDrawing,Top*%
%FSLAX46Y46*%
G04 Gerber Fmt 4.6, Leading zero omitted, Abs format (unit mm)*
G04 Created by KiCad (PCBNEW 7.0.11+dfsg-1build4) date 2026-06-15 22:03:18*
%MOMM*%
%LPD*%
G01*
G04 APERTURE LIST*
%ADD10C,0.150000*%
%ADD11C,0.120000*%
G04 APERTURE END LIST*
D10*
X36453333Y-81604104D02*
X36929523Y-81604104D01*
X36358095Y-81889819D02*
X36691428Y-80889819D01*
X36691428Y-80889819D02*
X37024761Y-81889819D01*
X37215238Y-80889819D02*
X37786666Y-80889819D01*
X37500952Y-81889819D02*
X37500952Y-80889819D01*
X38120000Y-81889819D02*
X38120000Y-81223152D01*
X38120000Y-81318390D02*
X38167619Y-81270771D01*
X38167619Y-81270771D02*
X38262857Y-81223152D01*
X38262857Y-81223152D02*
X38405714Y-81223152D01*
X38405714Y-81223152D02*
X38500952Y-81270771D01*
X38500952Y-81270771D02*
X38548571Y-81366009D01*
X38548571Y-81366009D02*
X38548571Y-81889819D01*
X38548571Y-81366009D02*
X38596190Y-81270771D01*
X38596190Y-81270771D02*
X38691428Y-81223152D01*
X38691428Y-81223152D02*
X38834285Y-81223152D01*
X38834285Y-81223152D02*
X38929524Y-81270771D01*
X38929524Y-81270771D02*
X38977143Y-81366009D01*
X38977143Y-81366009D02*
X38977143Y-81889819D01*
X39834285Y-81842200D02*
X39739047Y-81889819D01*
X39739047Y-81889819D02*
X39548571Y-81889819D01*
X39548571Y-81889819D02*
X39453333Y-81842200D01*
X39453333Y-81842200D02*
X39405714Y-81746961D01*
X39405714Y-81746961D02*
X39405714Y-81366009D01*
X39405714Y-81366009D02*
X39453333Y-81270771D01*
X39453333Y-81270771D02*
X39548571Y-81223152D01*
X39548571Y-81223152D02*
X39739047Y-81223152D01*
X39739047Y-81223152D02*
X39834285Y-81270771D01*
X39834285Y-81270771D02*
X39881904Y-81366009D01*
X39881904Y-81366009D02*
X39881904Y-81461247D01*
X39881904Y-81461247D02*
X39405714Y-81556485D01*
X40739047Y-81223152D02*
X40739047Y-82032676D01*
X40739047Y-82032676D02*
X40691428Y-82127914D01*
X40691428Y-82127914D02*
X40643809Y-82175533D01*
X40643809Y-82175533D02*
X40548571Y-82223152D01*
X40548571Y-82223152D02*
X40405714Y-82223152D01*
X40405714Y-82223152D02*
X40310476Y-82175533D01*
X40739047Y-81842200D02*
X40643809Y-81889819D01*
X40643809Y-81889819D02*
X40453333Y-81889819D01*
X40453333Y-81889819D02*
X40358095Y-81842200D01*
X40358095Y-81842200D02*
X40310476Y-81794580D01*
X40310476Y-81794580D02*
X40262857Y-81699342D01*
X40262857Y-81699342D02*
X40262857Y-81413628D01*
X40262857Y-81413628D02*
X40310476Y-81318390D01*
X40310476Y-81318390D02*
X40358095Y-81270771D01*
X40358095Y-81270771D02*
X40453333Y-81223152D01*
X40453333Y-81223152D02*
X40643809Y-81223152D01*
X40643809Y-81223152D02*
X40739047Y-81270771D01*
X41643809Y-81889819D02*
X41643809Y-81366009D01*
X41643809Y-81366009D02*
X41596190Y-81270771D01*
X41596190Y-81270771D02*
X41500952Y-81223152D01*
X41500952Y-81223152D02*
X41310476Y-81223152D01*
X41310476Y-81223152D02*
X41215238Y-81270771D01*
X41643809Y-81842200D02*
X41548571Y-81889819D01*
X41548571Y-81889819D02*
X41310476Y-81889819D01*
X41310476Y-81889819D02*
X41215238Y-81842200D01*
X41215238Y-81842200D02*
X41167619Y-81746961D01*
X41167619Y-81746961D02*
X41167619Y-81651723D01*
X41167619Y-81651723D02*
X41215238Y-81556485D01*
X41215238Y-81556485D02*
X41310476Y-81508866D01*
X41310476Y-81508866D02*
X41548571Y-81508866D01*
X41548571Y-81508866D02*
X41643809Y-81461247D01*
X42024762Y-80889819D02*
X42643809Y-80889819D01*
X42643809Y-80889819D02*
X42310476Y-81270771D01*
X42310476Y-81270771D02*
X42453333Y-81270771D01*
X42453333Y-81270771D02*
X42548571Y-81318390D01*
X42548571Y-81318390D02*
X42596190Y-81366009D01*
X42596190Y-81366009D02*
X42643809Y-81461247D01*
X42643809Y-81461247D02*
X42643809Y-81699342D01*
X42643809Y-81699342D02*
X42596190Y-81794580D01*
X42596190Y-81794580D02*
X42548571Y-81842200D01*
X42548571Y-81842200D02*
X42453333Y-81889819D01*
X42453333Y-81889819D02*
X42167619Y-81889819D01*
X42167619Y-81889819D02*
X42072381Y-81842200D01*
X42072381Y-81842200D02*
X42024762Y-81794580D01*
X43024762Y-80985057D02*
X43072381Y-80937438D01*
X43072381Y-80937438D02*
X43167619Y-80889819D01*
X43167619Y-80889819D02*
X43405714Y-80889819D01*
X43405714Y-80889819D02*
X43500952Y-80937438D01*
X43500952Y-80937438D02*
X43548571Y-80985057D01*
X43548571Y-80985057D02*
X43596190Y-81080295D01*
X43596190Y-81080295D02*
X43596190Y-81175533D01*
X43596190Y-81175533D02*
X43548571Y-81318390D01*
X43548571Y-81318390D02*
X42977143Y-81889819D01*
X42977143Y-81889819D02*
X43596190Y-81889819D01*
X44024762Y-81508866D02*
X44786667Y-81508866D01*
X45786666Y-81889819D02*
X45215238Y-81889819D01*
X45500952Y-81889819D02*
X45500952Y-80889819D01*
X45500952Y-80889819D02*
X45405714Y-81032676D01*
X45405714Y-81032676D02*
X45310476Y-81127914D01*
X45310476Y-81127914D02*
X45215238Y-81175533D01*
X46643809Y-80889819D02*
X46453333Y-80889819D01*
X46453333Y-80889819D02*
X46358095Y-80937438D01*
X46358095Y-80937438D02*
X46310476Y-80985057D01*
X46310476Y-80985057D02*
X46215238Y-81127914D01*
X46215238Y-81127914D02*
X46167619Y-81318390D01*
X46167619Y-81318390D02*
X46167619Y-81699342D01*
X46167619Y-81699342D02*
X46215238Y-81794580D01*
X46215238Y-81794580D02*
X46262857Y-81842200D01*
X46262857Y-81842200D02*
X46358095Y-81889819D01*
X46358095Y-81889819D02*
X46548571Y-81889819D01*
X46548571Y-81889819D02*
X46643809Y-81842200D01*
X46643809Y-81842200D02*
X46691428Y-81794580D01*
X46691428Y-81794580D02*
X46739047Y-81699342D01*
X46739047Y-81699342D02*
X46739047Y-81461247D01*
X46739047Y-81461247D02*
X46691428Y-81366009D01*
X46691428Y-81366009D02*
X46643809Y-81318390D01*
X46643809Y-81318390D02*
X46548571Y-81270771D01*
X46548571Y-81270771D02*
X46358095Y-81270771D01*
X46358095Y-81270771D02*
X46262857Y-81318390D01*
X46262857Y-81318390D02*
X46215238Y-81366009D01*
X46215238Y-81366009D02*
X46167619Y-81461247D01*
X47167619Y-81889819D02*
X47167619Y-80889819D01*
X47167619Y-80889819D02*
X47548571Y-80889819D01*
X47548571Y-80889819D02*
X47643809Y-80937438D01*
X47643809Y-80937438D02*
X47691428Y-80985057D01*
X47691428Y-80985057D02*
X47739047Y-81080295D01*
X47739047Y-81080295D02*
X47739047Y-81223152D01*
X47739047Y-81223152D02*
X47691428Y-81318390D01*
X47691428Y-81318390D02*
X47643809Y-81366009D01*
X47643809Y-81366009D02*
X47548571Y-81413628D01*
X47548571Y-81413628D02*
X47167619Y-81413628D01*
X48167619Y-80889819D02*
X48167619Y-81699342D01*
X48167619Y-81699342D02*
X48215238Y-81794580D01*
X48215238Y-81794580D02*
X48262857Y-81842200D01*
X48262857Y-81842200D02*
X48358095Y-81889819D01*
X48358095Y-81889819D02*
X48548571Y-81889819D01*
X48548571Y-81889819D02*
X48643809Y-81842200D01*
X48643809Y-81842200D02*
X48691428Y-81794580D01*
X48691428Y-81794580D02*
X48739047Y-81699342D01*
X48739047Y-81699342D02*
X48739047Y-80889819D01*
X16404762Y-26883390D02*
X16309524Y-26835771D01*
X16309524Y-26835771D02*
X16261905Y-26788152D01*
X16261905Y-26788152D02*
X16214286Y-26692914D01*
X16214286Y-26692914D02*
X16214286Y-26645295D01*
X16214286Y-26645295D02*
X16261905Y-26550057D01*
X16261905Y-26550057D02*
X16309524Y-26502438D01*
X16309524Y-26502438D02*
X16404762Y-26454819D01*
X16404762Y-26454819D02*
X16595238Y-26454819D01*
X16595238Y-26454819D02*
X16690476Y-26502438D01*
X16690476Y-26502438D02*
X16738095Y-26550057D01*
X16738095Y-26550057D02*
X16785714Y-26645295D01*
X16785714Y-26645295D02*
X16785714Y-26692914D01*
X16785714Y-26692914D02*
X16738095Y-26788152D01*
X16738095Y-26788152D02*
X16690476Y-26835771D01*
X16690476Y-26835771D02*
X16595238Y-26883390D01*
X16595238Y-26883390D02*
X16404762Y-26883390D01*
X16404762Y-26883390D02*
X16309524Y-26931009D01*
X16309524Y-26931009D02*
X16261905Y-26978628D01*
X16261905Y-26978628D02*
X16214286Y-27073866D01*
X16214286Y-27073866D02*
X16214286Y-27264342D01*
X16214286Y-27264342D02*
X16261905Y-27359580D01*
X16261905Y-27359580D02*
X16309524Y-27407200D01*
X16309524Y-27407200D02*
X16404762Y-27454819D01*
X16404762Y-27454819D02*
X16595238Y-27454819D01*
X16595238Y-27454819D02*
X16690476Y-27407200D01*
X16690476Y-27407200D02*
X16738095Y-27359580D01*
X16738095Y-27359580D02*
X16785714Y-27264342D01*
X16785714Y-27264342D02*
X16785714Y-27073866D01*
X16785714Y-27073866D02*
X16738095Y-26978628D01*
X16738095Y-26978628D02*
X16690476Y-26931009D01*
X16690476Y-26931009D02*
X16595238Y-26883390D01*
X17214286Y-27454819D02*
X17214286Y-26454819D01*
X17214286Y-26454819D02*
X17547619Y-27169104D01*
X17547619Y-27169104D02*
X17880952Y-26454819D01*
X17880952Y-26454819D02*
X17880952Y-27454819D01*
X18357143Y-27454819D02*
X18357143Y-26454819D01*
X18357143Y-26931009D02*
X18928571Y-26931009D01*
X18928571Y-27454819D02*
X18928571Y-26454819D01*
X19309524Y-26788152D02*
X19833333Y-26788152D01*
X19833333Y-26788152D02*
X19309524Y-27454819D01*
X19309524Y-27454819D02*
X19833333Y-27454819D01*
D11*
X13935713Y-29640045D02*
X13973809Y-29601950D01*
X13973809Y-29601950D02*
X14049999Y-29563855D01*
X14049999Y-29563855D02*
X14240475Y-29563855D01*
X14240475Y-29563855D02*
X14316666Y-29601950D01*
X14316666Y-29601950D02*
X14354761Y-29640045D01*
X14354761Y-29640045D02*
X14392856Y-29716236D01*
X14392856Y-29716236D02*
X14392856Y-29792426D01*
X14392856Y-29792426D02*
X14354761Y-29906712D01*
X14354761Y-29906712D02*
X13897618Y-30363855D01*
X13897618Y-30363855D02*
X14392856Y-30363855D01*
X14697618Y-29640045D02*
X14735714Y-29601950D01*
X14735714Y-29601950D02*
X14811904Y-29563855D01*
X14811904Y-29563855D02*
X15002380Y-29563855D01*
X15002380Y-29563855D02*
X15078571Y-29601950D01*
X15078571Y-29601950D02*
X15116666Y-29640045D01*
X15116666Y-29640045D02*
X15154761Y-29716236D01*
X15154761Y-29716236D02*
X15154761Y-29792426D01*
X15154761Y-29792426D02*
X15116666Y-29906712D01*
X15116666Y-29906712D02*
X14659523Y-30363855D01*
X14659523Y-30363855D02*
X15154761Y-30363855D01*
X15497619Y-29830521D02*
X15497619Y-30630521D01*
X15497619Y-29868617D02*
X15573809Y-29830521D01*
X15573809Y-29830521D02*
X15726190Y-29830521D01*
X15726190Y-29830521D02*
X15802381Y-29868617D01*
X15802381Y-29868617D02*
X15840476Y-29906712D01*
X15840476Y-29906712D02*
X15878571Y-29982902D01*
X15878571Y-29982902D02*
X15878571Y-30211474D01*
X15878571Y-30211474D02*
X15840476Y-30287664D01*
X15840476Y-30287664D02*
X15802381Y-30325760D01*
X15802381Y-30325760D02*
X15726190Y-30363855D01*
X15726190Y-30363855D02*
X15573809Y-30363855D01*
X15573809Y-30363855D02*
X15497619Y-30325760D01*
X16488095Y-29944807D02*
X16221429Y-29944807D01*
X16221429Y-30363855D02*
X16221429Y-29563855D01*
X16221429Y-29563855D02*
X16602381Y-29563855D01*
X21935713Y-29640045D02*
X21973809Y-29601950D01*
X21973809Y-29601950D02*
X22049999Y-29563855D01*
X22049999Y-29563855D02*
X22240475Y-29563855D01*
X22240475Y-29563855D02*
X22316666Y-29601950D01*
X22316666Y-29601950D02*
X22354761Y-29640045D01*
X22354761Y-29640045D02*
X22392856Y-29716236D01*
X22392856Y-29716236D02*
X22392856Y-29792426D01*
X22392856Y-29792426D02*
X22354761Y-29906712D01*
X22354761Y-29906712D02*
X21897618Y-30363855D01*
X21897618Y-30363855D02*
X22392856Y-30363855D01*
X22697618Y-29640045D02*
X22735714Y-29601950D01*
X22735714Y-29601950D02*
X22811904Y-29563855D01*
X22811904Y-29563855D02*
X23002380Y-29563855D01*
X23002380Y-29563855D02*
X23078571Y-29601950D01*
X23078571Y-29601950D02*
X23116666Y-29640045D01*
X23116666Y-29640045D02*
X23154761Y-29716236D01*
X23154761Y-29716236D02*
X23154761Y-29792426D01*
X23154761Y-29792426D02*
X23116666Y-29906712D01*
X23116666Y-29906712D02*
X22659523Y-30363855D01*
X22659523Y-30363855D02*
X23154761Y-30363855D01*
X23497619Y-29830521D02*
X23497619Y-30630521D01*
X23497619Y-29868617D02*
X23573809Y-29830521D01*
X23573809Y-29830521D02*
X23726190Y-29830521D01*
X23726190Y-29830521D02*
X23802381Y-29868617D01*
X23802381Y-29868617D02*
X23840476Y-29906712D01*
X23840476Y-29906712D02*
X23878571Y-29982902D01*
X23878571Y-29982902D02*
X23878571Y-30211474D01*
X23878571Y-30211474D02*
X23840476Y-30287664D01*
X23840476Y-30287664D02*
X23802381Y-30325760D01*
X23802381Y-30325760D02*
X23726190Y-30363855D01*
X23726190Y-30363855D02*
X23573809Y-30363855D01*
X23573809Y-30363855D02*
X23497619Y-30325760D01*
X24488095Y-29944807D02*
X24221429Y-29944807D01*
X24221429Y-30363855D02*
X24221429Y-29563855D01*
X24221429Y-29563855D02*
X24602381Y-29563855D01*
X27011904Y-16363855D02*
X26554761Y-16363855D01*
X26783333Y-16363855D02*
X26783333Y-15563855D01*
X26783333Y-15563855D02*
X26707142Y-15678140D01*
X26707142Y-15678140D02*
X26630952Y-15754331D01*
X26630952Y-15754331D02*
X26554761Y-15792426D01*
X27507143Y-15563855D02*
X27583333Y-15563855D01*
X27583333Y-15563855D02*
X27659524Y-15601950D01*
X27659524Y-15601950D02*
X27697619Y-15640045D01*
X27697619Y-15640045D02*
X27735714Y-15716236D01*
X27735714Y-15716236D02*
X27773809Y-15868617D01*
X27773809Y-15868617D02*
X27773809Y-16059093D01*
X27773809Y-16059093D02*
X27735714Y-16211474D01*
X27735714Y-16211474D02*
X27697619Y-16287664D01*
X27697619Y-16287664D02*
X27659524Y-16325760D01*
X27659524Y-16325760D02*
X27583333Y-16363855D01*
X27583333Y-16363855D02*
X27507143Y-16363855D01*
X27507143Y-16363855D02*
X27430952Y-16325760D01*
X27430952Y-16325760D02*
X27392857Y-16287664D01*
X27392857Y-16287664D02*
X27354762Y-16211474D01*
X27354762Y-16211474D02*
X27316666Y-16059093D01*
X27316666Y-16059093D02*
X27316666Y-15868617D01*
X27316666Y-15868617D02*
X27354762Y-15716236D01*
X27354762Y-15716236D02*
X27392857Y-15640045D01*
X27392857Y-15640045D02*
X27430952Y-15601950D01*
X27430952Y-15601950D02*
X27507143Y-15563855D01*
X28269048Y-15563855D02*
X28345238Y-15563855D01*
X28345238Y-15563855D02*
X28421429Y-15601950D01*
X28421429Y-15601950D02*
X28459524Y-15640045D01*
X28459524Y-15640045D02*
X28497619Y-15716236D01*
X28497619Y-15716236D02*
X28535714Y-15868617D01*
X28535714Y-15868617D02*
X28535714Y-16059093D01*
X28535714Y-16059093D02*
X28497619Y-16211474D01*
X28497619Y-16211474D02*
X28459524Y-16287664D01*
X28459524Y-16287664D02*
X28421429Y-16325760D01*
X28421429Y-16325760D02*
X28345238Y-16363855D01*
X28345238Y-16363855D02*
X28269048Y-16363855D01*
X28269048Y-16363855D02*
X28192857Y-16325760D01*
X28192857Y-16325760D02*
X28154762Y-16287664D01*
X28154762Y-16287664D02*
X28116667Y-16211474D01*
X28116667Y-16211474D02*
X28078571Y-16059093D01*
X28078571Y-16059093D02*
X28078571Y-15868617D01*
X28078571Y-15868617D02*
X28116667Y-15716236D01*
X28116667Y-15716236D02*
X28154762Y-15640045D01*
X28154762Y-15640045D02*
X28192857Y-15601950D01*
X28192857Y-15601950D02*
X28269048Y-15563855D01*
X28878572Y-15830521D02*
X28878572Y-16363855D01*
X28878572Y-15906712D02*
X28916667Y-15868617D01*
X28916667Y-15868617D02*
X28992857Y-15830521D01*
X28992857Y-15830521D02*
X29107143Y-15830521D01*
X29107143Y-15830521D02*
X29183334Y-15868617D01*
X29183334Y-15868617D02*
X29221429Y-15944807D01*
X29221429Y-15944807D02*
X29221429Y-16363855D01*
X29869048Y-15944807D02*
X29602382Y-15944807D01*
X29602382Y-16363855D02*
X29602382Y-15563855D01*
X29602382Y-15563855D02*
X29983334Y-15563855D01*
X42011904Y-16363855D02*
X41554761Y-16363855D01*
X41783333Y-16363855D02*
X41783333Y-15563855D01*
X41783333Y-15563855D02*
X41707142Y-15678140D01*
X41707142Y-15678140D02*
X41630952Y-15754331D01*
X41630952Y-15754331D02*
X41554761Y-15792426D01*
X42507143Y-15563855D02*
X42583333Y-15563855D01*
X42583333Y-15563855D02*
X42659524Y-15601950D01*
X42659524Y-15601950D02*
X42697619Y-15640045D01*
X42697619Y-15640045D02*
X42735714Y-15716236D01*
X42735714Y-15716236D02*
X42773809Y-15868617D01*
X42773809Y-15868617D02*
X42773809Y-16059093D01*
X42773809Y-16059093D02*
X42735714Y-16211474D01*
X42735714Y-16211474D02*
X42697619Y-16287664D01*
X42697619Y-16287664D02*
X42659524Y-16325760D01*
X42659524Y-16325760D02*
X42583333Y-16363855D01*
X42583333Y-16363855D02*
X42507143Y-16363855D01*
X42507143Y-16363855D02*
X42430952Y-16325760D01*
X42430952Y-16325760D02*
X42392857Y-16287664D01*
X42392857Y-16287664D02*
X42354762Y-16211474D01*
X42354762Y-16211474D02*
X42316666Y-16059093D01*
X42316666Y-16059093D02*
X42316666Y-15868617D01*
X42316666Y-15868617D02*
X42354762Y-15716236D01*
X42354762Y-15716236D02*
X42392857Y-15640045D01*
X42392857Y-15640045D02*
X42430952Y-15601950D01*
X42430952Y-15601950D02*
X42507143Y-15563855D01*
X43269048Y-15563855D02*
X43345238Y-15563855D01*
X43345238Y-15563855D02*
X43421429Y-15601950D01*
X43421429Y-15601950D02*
X43459524Y-15640045D01*
X43459524Y-15640045D02*
X43497619Y-15716236D01*
X43497619Y-15716236D02*
X43535714Y-15868617D01*
X43535714Y-15868617D02*
X43535714Y-16059093D01*
X43535714Y-16059093D02*
X43497619Y-16211474D01*
X43497619Y-16211474D02*
X43459524Y-16287664D01*
X43459524Y-16287664D02*
X43421429Y-16325760D01*
X43421429Y-16325760D02*
X43345238Y-16363855D01*
X43345238Y-16363855D02*
X43269048Y-16363855D01*
X43269048Y-16363855D02*
X43192857Y-16325760D01*
X43192857Y-16325760D02*
X43154762Y-16287664D01*
X43154762Y-16287664D02*
X43116667Y-16211474D01*
X43116667Y-16211474D02*
X43078571Y-16059093D01*
X43078571Y-16059093D02*
X43078571Y-15868617D01*
X43078571Y-15868617D02*
X43116667Y-15716236D01*
X43116667Y-15716236D02*
X43154762Y-15640045D01*
X43154762Y-15640045D02*
X43192857Y-15601950D01*
X43192857Y-15601950D02*
X43269048Y-15563855D01*
X43878572Y-15830521D02*
X43878572Y-16363855D01*
X43878572Y-15906712D02*
X43916667Y-15868617D01*
X43916667Y-15868617D02*
X43992857Y-15830521D01*
X43992857Y-15830521D02*
X44107143Y-15830521D01*
X44107143Y-15830521D02*
X44183334Y-15868617D01*
X44183334Y-15868617D02*
X44221429Y-15944807D01*
X44221429Y-15944807D02*
X44221429Y-16363855D01*
X44869048Y-15944807D02*
X44602382Y-15944807D01*
X44602382Y-16363855D02*
X44602382Y-15563855D01*
X44602382Y-15563855D02*
X44983334Y-15563855D01*
X14527618Y-36363855D02*
X14070475Y-36363855D01*
X14299047Y-36363855D02*
X14299047Y-35563855D01*
X14299047Y-35563855D02*
X14222856Y-35678140D01*
X14222856Y-35678140D02*
X14146666Y-35754331D01*
X14146666Y-35754331D02*
X14070475Y-35792426D01*
X15022857Y-35563855D02*
X15099047Y-35563855D01*
X15099047Y-35563855D02*
X15175238Y-35601950D01*
X15175238Y-35601950D02*
X15213333Y-35640045D01*
X15213333Y-35640045D02*
X15251428Y-35716236D01*
X15251428Y-35716236D02*
X15289523Y-35868617D01*
X15289523Y-35868617D02*
X15289523Y-36059093D01*
X15289523Y-36059093D02*
X15251428Y-36211474D01*
X15251428Y-36211474D02*
X15213333Y-36287664D01*
X15213333Y-36287664D02*
X15175238Y-36325760D01*
X15175238Y-36325760D02*
X15099047Y-36363855D01*
X15099047Y-36363855D02*
X15022857Y-36363855D01*
X15022857Y-36363855D02*
X14946666Y-36325760D01*
X14946666Y-36325760D02*
X14908571Y-36287664D01*
X14908571Y-36287664D02*
X14870476Y-36211474D01*
X14870476Y-36211474D02*
X14832380Y-36059093D01*
X14832380Y-36059093D02*
X14832380Y-35868617D01*
X14832380Y-35868617D02*
X14870476Y-35716236D01*
X14870476Y-35716236D02*
X14908571Y-35640045D01*
X14908571Y-35640045D02*
X14946666Y-35601950D01*
X14946666Y-35601950D02*
X15022857Y-35563855D01*
X15632381Y-36363855D02*
X15632381Y-35563855D01*
X16089524Y-36363855D02*
X15746666Y-35906712D01*
X16089524Y-35563855D02*
X15632381Y-36020998D01*
X13838095Y-44363855D02*
X13571428Y-43982902D01*
X13380952Y-44363855D02*
X13380952Y-43563855D01*
X13380952Y-43563855D02*
X13685714Y-43563855D01*
X13685714Y-43563855D02*
X13761904Y-43601950D01*
X13761904Y-43601950D02*
X13799999Y-43640045D01*
X13799999Y-43640045D02*
X13838095Y-43716236D01*
X13838095Y-43716236D02*
X13838095Y-43830521D01*
X13838095Y-43830521D02*
X13799999Y-43906712D01*
X13799999Y-43906712D02*
X13761904Y-43944807D01*
X13761904Y-43944807D02*
X13685714Y-43982902D01*
X13685714Y-43982902D02*
X13380952Y-43982902D01*
X14180952Y-43944807D02*
X14447618Y-43944807D01*
X14561904Y-44363855D02*
X14180952Y-44363855D01*
X14180952Y-44363855D02*
X14180952Y-43563855D01*
X14180952Y-43563855D02*
X14561904Y-43563855D01*
X14866666Y-44325760D02*
X14980952Y-44363855D01*
X14980952Y-44363855D02*
X15171428Y-44363855D01*
X15171428Y-44363855D02*
X15247619Y-44325760D01*
X15247619Y-44325760D02*
X15285714Y-44287664D01*
X15285714Y-44287664D02*
X15323809Y-44211474D01*
X15323809Y-44211474D02*
X15323809Y-44135283D01*
X15323809Y-44135283D02*
X15285714Y-44059093D01*
X15285714Y-44059093D02*
X15247619Y-44020998D01*
X15247619Y-44020998D02*
X15171428Y-43982902D01*
X15171428Y-43982902D02*
X15019047Y-43944807D01*
X15019047Y-43944807D02*
X14942857Y-43906712D01*
X14942857Y-43906712D02*
X14904762Y-43868617D01*
X14904762Y-43868617D02*
X14866666Y-43792426D01*
X14866666Y-43792426D02*
X14866666Y-43716236D01*
X14866666Y-43716236D02*
X14904762Y-43640045D01*
X14904762Y-43640045D02*
X14942857Y-43601950D01*
X14942857Y-43601950D02*
X15019047Y-43563855D01*
X15019047Y-43563855D02*
X15209524Y-43563855D01*
X15209524Y-43563855D02*
X15323809Y-43601950D01*
X15666667Y-43944807D02*
X15933333Y-43944807D01*
X16047619Y-44363855D02*
X15666667Y-44363855D01*
X15666667Y-44363855D02*
X15666667Y-43563855D01*
X15666667Y-43563855D02*
X16047619Y-43563855D01*
X16276191Y-43563855D02*
X16733334Y-43563855D01*
X16504762Y-44363855D02*
X16504762Y-43563855D01*
X60527618Y-44363855D02*
X60070475Y-44363855D01*
X60299047Y-44363855D02*
X60299047Y-43563855D01*
X60299047Y-43563855D02*
X60222856Y-43678140D01*
X60222856Y-43678140D02*
X60146666Y-43754331D01*
X60146666Y-43754331D02*
X60070475Y-43792426D01*
X61022857Y-43563855D02*
X61099047Y-43563855D01*
X61099047Y-43563855D02*
X61175238Y-43601950D01*
X61175238Y-43601950D02*
X61213333Y-43640045D01*
X61213333Y-43640045D02*
X61251428Y-43716236D01*
X61251428Y-43716236D02*
X61289523Y-43868617D01*
X61289523Y-43868617D02*
X61289523Y-44059093D01*
X61289523Y-44059093D02*
X61251428Y-44211474D01*
X61251428Y-44211474D02*
X61213333Y-44287664D01*
X61213333Y-44287664D02*
X61175238Y-44325760D01*
X61175238Y-44325760D02*
X61099047Y-44363855D01*
X61099047Y-44363855D02*
X61022857Y-44363855D01*
X61022857Y-44363855D02*
X60946666Y-44325760D01*
X60946666Y-44325760D02*
X60908571Y-44287664D01*
X60908571Y-44287664D02*
X60870476Y-44211474D01*
X60870476Y-44211474D02*
X60832380Y-44059093D01*
X60832380Y-44059093D02*
X60832380Y-43868617D01*
X60832380Y-43868617D02*
X60870476Y-43716236D01*
X60870476Y-43716236D02*
X60908571Y-43640045D01*
X60908571Y-43640045D02*
X60946666Y-43601950D01*
X60946666Y-43601950D02*
X61022857Y-43563855D01*
X61632381Y-44363855D02*
X61632381Y-43563855D01*
X62089524Y-44363855D02*
X61746666Y-43906712D01*
X62089524Y-43563855D02*
X61632381Y-44020998D01*
X60104761Y-54325760D02*
X60219047Y-54363855D01*
X60219047Y-54363855D02*
X60409523Y-54363855D01*
X60409523Y-54363855D02*
X60485714Y-54325760D01*
X60485714Y-54325760D02*
X60523809Y-54287664D01*
X60523809Y-54287664D02*
X60561904Y-54211474D01*
X60561904Y-54211474D02*
X60561904Y-54135283D01*
X60561904Y-54135283D02*
X60523809Y-54059093D01*
X60523809Y-54059093D02*
X60485714Y-54020998D01*
X60485714Y-54020998D02*
X60409523Y-53982902D01*
X60409523Y-53982902D02*
X60257142Y-53944807D01*
X60257142Y-53944807D02*
X60180952Y-53906712D01*
X60180952Y-53906712D02*
X60142857Y-53868617D01*
X60142857Y-53868617D02*
X60104761Y-53792426D01*
X60104761Y-53792426D02*
X60104761Y-53716236D01*
X60104761Y-53716236D02*
X60142857Y-53640045D01*
X60142857Y-53640045D02*
X60180952Y-53601950D01*
X60180952Y-53601950D02*
X60257142Y-53563855D01*
X60257142Y-53563855D02*
X60447619Y-53563855D01*
X60447619Y-53563855D02*
X60561904Y-53601950D01*
X60904762Y-53944807D02*
X61171428Y-53944807D01*
X61285714Y-54363855D02*
X60904762Y-54363855D01*
X60904762Y-54363855D02*
X60904762Y-53563855D01*
X60904762Y-53563855D02*
X61285714Y-53563855D01*
X61514286Y-53563855D02*
X61971429Y-53563855D01*
X61742857Y-54363855D02*
X61742857Y-53563855D01*
X67527618Y-44363855D02*
X67070475Y-44363855D01*
X67299047Y-44363855D02*
X67299047Y-43563855D01*
X67299047Y-43563855D02*
X67222856Y-43678140D01*
X67222856Y-43678140D02*
X67146666Y-43754331D01*
X67146666Y-43754331D02*
X67070475Y-43792426D01*
X68022857Y-43563855D02*
X68099047Y-43563855D01*
X68099047Y-43563855D02*
X68175238Y-43601950D01*
X68175238Y-43601950D02*
X68213333Y-43640045D01*
X68213333Y-43640045D02*
X68251428Y-43716236D01*
X68251428Y-43716236D02*
X68289523Y-43868617D01*
X68289523Y-43868617D02*
X68289523Y-44059093D01*
X68289523Y-44059093D02*
X68251428Y-44211474D01*
X68251428Y-44211474D02*
X68213333Y-44287664D01*
X68213333Y-44287664D02*
X68175238Y-44325760D01*
X68175238Y-44325760D02*
X68099047Y-44363855D01*
X68099047Y-44363855D02*
X68022857Y-44363855D01*
X68022857Y-44363855D02*
X67946666Y-44325760D01*
X67946666Y-44325760D02*
X67908571Y-44287664D01*
X67908571Y-44287664D02*
X67870476Y-44211474D01*
X67870476Y-44211474D02*
X67832380Y-44059093D01*
X67832380Y-44059093D02*
X67832380Y-43868617D01*
X67832380Y-43868617D02*
X67870476Y-43716236D01*
X67870476Y-43716236D02*
X67908571Y-43640045D01*
X67908571Y-43640045D02*
X67946666Y-43601950D01*
X67946666Y-43601950D02*
X68022857Y-43563855D01*
X68632381Y-44363855D02*
X68632381Y-43563855D01*
X69089524Y-44363855D02*
X68746666Y-43906712D01*
X69089524Y-43563855D02*
X68632381Y-44020998D01*
X64876190Y-54363855D02*
X64876190Y-53563855D01*
X65257142Y-54363855D02*
X65257142Y-53563855D01*
X65257142Y-53563855D02*
X65714285Y-54363855D01*
X65714285Y-54363855D02*
X65714285Y-53563855D01*
X66552380Y-54287664D02*
X66514284Y-54325760D01*
X66514284Y-54325760D02*
X66399999Y-54363855D01*
X66399999Y-54363855D02*
X66323808Y-54363855D01*
X66323808Y-54363855D02*
X66209522Y-54325760D01*
X66209522Y-54325760D02*
X66133332Y-54249569D01*
X66133332Y-54249569D02*
X66095237Y-54173379D01*
X66095237Y-54173379D02*
X66057141Y-54020998D01*
X66057141Y-54020998D02*
X66057141Y-53906712D01*
X66057141Y-53906712D02*
X66095237Y-53754331D01*
X66095237Y-53754331D02*
X66133332Y-53678140D01*
X66133332Y-53678140D02*
X66209522Y-53601950D01*
X66209522Y-53601950D02*
X66323808Y-53563855D01*
X66323808Y-53563855D02*
X66399999Y-53563855D01*
X66399999Y-53563855D02*
X66514284Y-53601950D01*
X66514284Y-53601950D02*
X66552380Y-53640045D01*
X67352380Y-54363855D02*
X67085713Y-53982902D01*
X66895237Y-54363855D02*
X66895237Y-53563855D01*
X66895237Y-53563855D02*
X67199999Y-53563855D01*
X67199999Y-53563855D02*
X67276189Y-53601950D01*
X67276189Y-53601950D02*
X67314284Y-53640045D01*
X67314284Y-53640045D02*
X67352380Y-53716236D01*
X67352380Y-53716236D02*
X67352380Y-53830521D01*
X67352380Y-53830521D02*
X67314284Y-53906712D01*
X67314284Y-53906712D02*
X67276189Y-53944807D01*
X67276189Y-53944807D02*
X67199999Y-53982902D01*
X67199999Y-53982902D02*
X66895237Y-53982902D01*
X67695237Y-53944807D02*
X67961903Y-53944807D01*
X68076189Y-54363855D02*
X67695237Y-54363855D01*
X67695237Y-54363855D02*
X67695237Y-53563855D01*
X67695237Y-53563855D02*
X68076189Y-53563855D01*
X68419047Y-54363855D02*
X68419047Y-53563855D01*
X68419047Y-53563855D02*
X68685713Y-54135283D01*
X68685713Y-54135283D02*
X68952380Y-53563855D01*
X68952380Y-53563855D02*
X68952380Y-54363855D01*
X69333333Y-53944807D02*
X69599999Y-53944807D01*
X69714285Y-54363855D02*
X69333333Y-54363855D01*
X69333333Y-54363855D02*
X69333333Y-53563855D01*
X69333333Y-53563855D02*
X69714285Y-53563855D01*
X70057143Y-54363855D02*
X70057143Y-53563855D01*
X70057143Y-53563855D02*
X70514286Y-54363855D01*
X70514286Y-54363855D02*
X70514286Y-53563855D01*
X70780952Y-53563855D02*
X71238095Y-53563855D01*
X71009523Y-54363855D02*
X71009523Y-53563855D01*
X74527618Y-44363855D02*
X74070475Y-44363855D01*
X74299047Y-44363855D02*
X74299047Y-43563855D01*
X74299047Y-43563855D02*
X74222856Y-43678140D01*
X74222856Y-43678140D02*
X74146666Y-43754331D01*
X74146666Y-43754331D02*
X74070475Y-43792426D01*
X75022857Y-43563855D02*
X75099047Y-43563855D01*
X75099047Y-43563855D02*
X75175238Y-43601950D01*
X75175238Y-43601950D02*
X75213333Y-43640045D01*
X75213333Y-43640045D02*
X75251428Y-43716236D01*
X75251428Y-43716236D02*
X75289523Y-43868617D01*
X75289523Y-43868617D02*
X75289523Y-44059093D01*
X75289523Y-44059093D02*
X75251428Y-44211474D01*
X75251428Y-44211474D02*
X75213333Y-44287664D01*
X75213333Y-44287664D02*
X75175238Y-44325760D01*
X75175238Y-44325760D02*
X75099047Y-44363855D01*
X75099047Y-44363855D02*
X75022857Y-44363855D01*
X75022857Y-44363855D02*
X74946666Y-44325760D01*
X74946666Y-44325760D02*
X74908571Y-44287664D01*
X74908571Y-44287664D02*
X74870476Y-44211474D01*
X74870476Y-44211474D02*
X74832380Y-44059093D01*
X74832380Y-44059093D02*
X74832380Y-43868617D01*
X74832380Y-43868617D02*
X74870476Y-43716236D01*
X74870476Y-43716236D02*
X74908571Y-43640045D01*
X74908571Y-43640045D02*
X74946666Y-43601950D01*
X74946666Y-43601950D02*
X75022857Y-43563855D01*
X75632381Y-44363855D02*
X75632381Y-43563855D01*
X76089524Y-44363855D02*
X75746666Y-43906712D01*
X76089524Y-43563855D02*
X75632381Y-44020998D01*
X71590476Y-54287664D02*
X71552380Y-54325760D01*
X71552380Y-54325760D02*
X71438095Y-54363855D01*
X71438095Y-54363855D02*
X71361904Y-54363855D01*
X71361904Y-54363855D02*
X71247618Y-54325760D01*
X71247618Y-54325760D02*
X71171428Y-54249569D01*
X71171428Y-54249569D02*
X71133333Y-54173379D01*
X71133333Y-54173379D02*
X71095237Y-54020998D01*
X71095237Y-54020998D02*
X71095237Y-53906712D01*
X71095237Y-53906712D02*
X71133333Y-53754331D01*
X71133333Y-53754331D02*
X71171428Y-53678140D01*
X71171428Y-53678140D02*
X71247618Y-53601950D01*
X71247618Y-53601950D02*
X71361904Y-53563855D01*
X71361904Y-53563855D02*
X71438095Y-53563855D01*
X71438095Y-53563855D02*
X71552380Y-53601950D01*
X71552380Y-53601950D02*
X71590476Y-53640045D01*
X72314285Y-54363855D02*
X71933333Y-54363855D01*
X71933333Y-54363855D02*
X71933333Y-53563855D01*
X72733333Y-53563855D02*
X72885714Y-53563855D01*
X72885714Y-53563855D02*
X72961904Y-53601950D01*
X72961904Y-53601950D02*
X73038095Y-53678140D01*
X73038095Y-53678140D02*
X73076190Y-53830521D01*
X73076190Y-53830521D02*
X73076190Y-54097188D01*
X73076190Y-54097188D02*
X73038095Y-54249569D01*
X73038095Y-54249569D02*
X72961904Y-54325760D01*
X72961904Y-54325760D02*
X72885714Y-54363855D01*
X72885714Y-54363855D02*
X72733333Y-54363855D01*
X72733333Y-54363855D02*
X72657142Y-54325760D01*
X72657142Y-54325760D02*
X72580952Y-54249569D01*
X72580952Y-54249569D02*
X72542856Y-54097188D01*
X72542856Y-54097188D02*
X72542856Y-53830521D01*
X72542856Y-53830521D02*
X72580952Y-53678140D01*
X72580952Y-53678140D02*
X72657142Y-53601950D01*
X72657142Y-53601950D02*
X72733333Y-53563855D01*
X73876190Y-54287664D02*
X73838094Y-54325760D01*
X73838094Y-54325760D02*
X73723809Y-54363855D01*
X73723809Y-54363855D02*
X73647618Y-54363855D01*
X73647618Y-54363855D02*
X73533332Y-54325760D01*
X73533332Y-54325760D02*
X73457142Y-54249569D01*
X73457142Y-54249569D02*
X73419047Y-54173379D01*
X73419047Y-54173379D02*
X73380951Y-54020998D01*
X73380951Y-54020998D02*
X73380951Y-53906712D01*
X73380951Y-53906712D02*
X73419047Y-53754331D01*
X73419047Y-53754331D02*
X73457142Y-53678140D01*
X73457142Y-53678140D02*
X73533332Y-53601950D01*
X73533332Y-53601950D02*
X73647618Y-53563855D01*
X73647618Y-53563855D02*
X73723809Y-53563855D01*
X73723809Y-53563855D02*
X73838094Y-53601950D01*
X73838094Y-53601950D02*
X73876190Y-53640045D01*
X74219047Y-54363855D02*
X74219047Y-53563855D01*
X74676190Y-54363855D02*
X74333332Y-53906712D01*
X74676190Y-53563855D02*
X74219047Y-54020998D01*
X74828571Y-54440045D02*
X75438094Y-54440045D01*
X76085714Y-54363855D02*
X75819047Y-53982902D01*
X75628571Y-54363855D02*
X75628571Y-53563855D01*
X75628571Y-53563855D02*
X75933333Y-53563855D01*
X75933333Y-53563855D02*
X76009523Y-53601950D01*
X76009523Y-53601950D02*
X76047618Y-53640045D01*
X76047618Y-53640045D02*
X76085714Y-53716236D01*
X76085714Y-53716236D02*
X76085714Y-53830521D01*
X76085714Y-53830521D02*
X76047618Y-53906712D01*
X76047618Y-53906712D02*
X76009523Y-53944807D01*
X76009523Y-53944807D02*
X75933333Y-53982902D01*
X75933333Y-53982902D02*
X75628571Y-53982902D01*
X76428571Y-53944807D02*
X76695237Y-53944807D01*
X76809523Y-54363855D02*
X76428571Y-54363855D01*
X76428571Y-54363855D02*
X76428571Y-53563855D01*
X76428571Y-53563855D02*
X76809523Y-53563855D01*
X77114285Y-54325760D02*
X77228571Y-54363855D01*
X77228571Y-54363855D02*
X77419047Y-54363855D01*
X77419047Y-54363855D02*
X77495238Y-54325760D01*
X77495238Y-54325760D02*
X77533333Y-54287664D01*
X77533333Y-54287664D02*
X77571428Y-54211474D01*
X77571428Y-54211474D02*
X77571428Y-54135283D01*
X77571428Y-54135283D02*
X77533333Y-54059093D01*
X77533333Y-54059093D02*
X77495238Y-54020998D01*
X77495238Y-54020998D02*
X77419047Y-53982902D01*
X77419047Y-53982902D02*
X77266666Y-53944807D01*
X77266666Y-53944807D02*
X77190476Y-53906712D01*
X77190476Y-53906712D02*
X77152381Y-53868617D01*
X77152381Y-53868617D02*
X77114285Y-53792426D01*
X77114285Y-53792426D02*
X77114285Y-53716236D01*
X77114285Y-53716236D02*
X77152381Y-53640045D01*
X77152381Y-53640045D02*
X77190476Y-53601950D01*
X77190476Y-53601950D02*
X77266666Y-53563855D01*
X77266666Y-53563855D02*
X77457143Y-53563855D01*
X77457143Y-53563855D02*
X77571428Y-53601950D01*
X77914286Y-53944807D02*
X78180952Y-53944807D01*
X78295238Y-54363855D02*
X77914286Y-54363855D01*
X77914286Y-54363855D02*
X77914286Y-53563855D01*
X77914286Y-53563855D02*
X78295238Y-53563855D01*
X78523810Y-53563855D02*
X78980953Y-53563855D01*
X78752381Y-54363855D02*
X78752381Y-53563855D01*
X61651428Y-11563855D02*
X62146666Y-11563855D01*
X62146666Y-11563855D02*
X61880000Y-11868617D01*
X61880000Y-11868617D02*
X61994285Y-11868617D01*
X61994285Y-11868617D02*
X62070476Y-11906712D01*
X62070476Y-11906712D02*
X62108571Y-11944807D01*
X62108571Y-11944807D02*
X62146666Y-12020998D01*
X62146666Y-12020998D02*
X62146666Y-12211474D01*
X62146666Y-12211474D02*
X62108571Y-12287664D01*
X62108571Y-12287664D02*
X62070476Y-12325760D01*
X62070476Y-12325760D02*
X61994285Y-12363855D01*
X61994285Y-12363855D02*
X61765714Y-12363855D01*
X61765714Y-12363855D02*
X61689523Y-12325760D01*
X61689523Y-12325760D02*
X61651428Y-12287664D01*
X62413333Y-11563855D02*
X62908571Y-11563855D01*
X62908571Y-11563855D02*
X62641905Y-11868617D01*
X62641905Y-11868617D02*
X62756190Y-11868617D01*
X62756190Y-11868617D02*
X62832381Y-11906712D01*
X62832381Y-11906712D02*
X62870476Y-11944807D01*
X62870476Y-11944807D02*
X62908571Y-12020998D01*
X62908571Y-12020998D02*
X62908571Y-12211474D01*
X62908571Y-12211474D02*
X62870476Y-12287664D01*
X62870476Y-12287664D02*
X62832381Y-12325760D01*
X62832381Y-12325760D02*
X62756190Y-12363855D01*
X62756190Y-12363855D02*
X62527619Y-12363855D01*
X62527619Y-12363855D02*
X62451428Y-12325760D01*
X62451428Y-12325760D02*
X62413333Y-12287664D01*
X63403810Y-11563855D02*
X63480000Y-11563855D01*
X63480000Y-11563855D02*
X63556191Y-11601950D01*
X63556191Y-11601950D02*
X63594286Y-11640045D01*
X63594286Y-11640045D02*
X63632381Y-11716236D01*
X63632381Y-11716236D02*
X63670476Y-11868617D01*
X63670476Y-11868617D02*
X63670476Y-12059093D01*
X63670476Y-12059093D02*
X63632381Y-12211474D01*
X63632381Y-12211474D02*
X63594286Y-12287664D01*
X63594286Y-12287664D02*
X63556191Y-12325760D01*
X63556191Y-12325760D02*
X63480000Y-12363855D01*
X63480000Y-12363855D02*
X63403810Y-12363855D01*
X63403810Y-12363855D02*
X63327619Y-12325760D01*
X63327619Y-12325760D02*
X63289524Y-12287664D01*
X63289524Y-12287664D02*
X63251429Y-12211474D01*
X63251429Y-12211474D02*
X63213333Y-12059093D01*
X63213333Y-12059093D02*
X63213333Y-11868617D01*
X63213333Y-11868617D02*
X63251429Y-11716236D01*
X63251429Y-11716236D02*
X63289524Y-11640045D01*
X63289524Y-11640045D02*
X63327619Y-11601950D01*
X63327619Y-11601950D02*
X63403810Y-11563855D01*
X64470477Y-12363855D02*
X64203810Y-11982902D01*
X64013334Y-12363855D02*
X64013334Y-11563855D01*
X64013334Y-11563855D02*
X64318096Y-11563855D01*
X64318096Y-11563855D02*
X64394286Y-11601950D01*
X64394286Y-11601950D02*
X64432381Y-11640045D01*
X64432381Y-11640045D02*
X64470477Y-11716236D01*
X64470477Y-11716236D02*
X64470477Y-11830521D01*
X64470477Y-11830521D02*
X64432381Y-11906712D01*
X64432381Y-11906712D02*
X64394286Y-11944807D01*
X64394286Y-11944807D02*
X64318096Y-11982902D01*
X64318096Y-11982902D02*
X64013334Y-11982902D01*
X59047618Y-9363855D02*
X58666666Y-9363855D01*
X58666666Y-9363855D02*
X58666666Y-8563855D01*
X59314285Y-8944807D02*
X59580951Y-8944807D01*
X59695237Y-9363855D02*
X59314285Y-9363855D01*
X59314285Y-9363855D02*
X59314285Y-8563855D01*
X59314285Y-8563855D02*
X59695237Y-8563855D01*
X60038095Y-9363855D02*
X60038095Y-8563855D01*
X60038095Y-8563855D02*
X60228571Y-8563855D01*
X60228571Y-8563855D02*
X60342857Y-8601950D01*
X60342857Y-8601950D02*
X60419047Y-8678140D01*
X60419047Y-8678140D02*
X60457142Y-8754331D01*
X60457142Y-8754331D02*
X60495238Y-8906712D01*
X60495238Y-8906712D02*
X60495238Y-9020998D01*
X60495238Y-9020998D02*
X60457142Y-9173379D01*
X60457142Y-9173379D02*
X60419047Y-9249569D01*
X60419047Y-9249569D02*
X60342857Y-9325760D01*
X60342857Y-9325760D02*
X60228571Y-9363855D01*
X60228571Y-9363855D02*
X60038095Y-9363855D01*
X60647619Y-9440045D02*
X61257142Y-9440045D01*
X61409523Y-9325760D02*
X61523809Y-9363855D01*
X61523809Y-9363855D02*
X61714285Y-9363855D01*
X61714285Y-9363855D02*
X61790476Y-9325760D01*
X61790476Y-9325760D02*
X61828571Y-9287664D01*
X61828571Y-9287664D02*
X61866666Y-9211474D01*
X61866666Y-9211474D02*
X61866666Y-9135283D01*
X61866666Y-9135283D02*
X61828571Y-9059093D01*
X61828571Y-9059093D02*
X61790476Y-9020998D01*
X61790476Y-9020998D02*
X61714285Y-8982902D01*
X61714285Y-8982902D02*
X61561904Y-8944807D01*
X61561904Y-8944807D02*
X61485714Y-8906712D01*
X61485714Y-8906712D02*
X61447619Y-8868617D01*
X61447619Y-8868617D02*
X61409523Y-8792426D01*
X61409523Y-8792426D02*
X61409523Y-8716236D01*
X61409523Y-8716236D02*
X61447619Y-8640045D01*
X61447619Y-8640045D02*
X61485714Y-8601950D01*
X61485714Y-8601950D02*
X61561904Y-8563855D01*
X61561904Y-8563855D02*
X61752381Y-8563855D01*
X61752381Y-8563855D02*
X61866666Y-8601950D01*
X62095238Y-8563855D02*
X62552381Y-8563855D01*
X62323809Y-9363855D02*
X62323809Y-8563855D01*
X62780952Y-9135283D02*
X63161905Y-9135283D01*
X62704762Y-9363855D02*
X62971429Y-8563855D01*
X62971429Y-8563855D02*
X63238095Y-9363855D01*
X63390476Y-8563855D02*
X63847619Y-8563855D01*
X63619047Y-9363855D02*
X63619047Y-8563855D01*
X64114286Y-8563855D02*
X64114286Y-9211474D01*
X64114286Y-9211474D02*
X64152381Y-9287664D01*
X64152381Y-9287664D02*
X64190476Y-9325760D01*
X64190476Y-9325760D02*
X64266667Y-9363855D01*
X64266667Y-9363855D02*
X64419048Y-9363855D01*
X64419048Y-9363855D02*
X64495238Y-9325760D01*
X64495238Y-9325760D02*
X64533333Y-9287664D01*
X64533333Y-9287664D02*
X64571429Y-9211474D01*
X64571429Y-9211474D02*
X64571429Y-8563855D01*
X64914285Y-9325760D02*
X65028571Y-9363855D01*
X65028571Y-9363855D02*
X65219047Y-9363855D01*
X65219047Y-9363855D02*
X65295238Y-9325760D01*
X65295238Y-9325760D02*
X65333333Y-9287664D01*
X65333333Y-9287664D02*
X65371428Y-9211474D01*
X65371428Y-9211474D02*
X65371428Y-9135283D01*
X65371428Y-9135283D02*
X65333333Y-9059093D01*
X65333333Y-9059093D02*
X65295238Y-9020998D01*
X65295238Y-9020998D02*
X65219047Y-8982902D01*
X65219047Y-8982902D02*
X65066666Y-8944807D01*
X65066666Y-8944807D02*
X64990476Y-8906712D01*
X64990476Y-8906712D02*
X64952381Y-8868617D01*
X64952381Y-8868617D02*
X64914285Y-8792426D01*
X64914285Y-8792426D02*
X64914285Y-8716236D01*
X64914285Y-8716236D02*
X64952381Y-8640045D01*
X64952381Y-8640045D02*
X64990476Y-8601950D01*
X64990476Y-8601950D02*
X65066666Y-8563855D01*
X65066666Y-8563855D02*
X65257143Y-8563855D01*
X65257143Y-8563855D02*
X65371428Y-8601950D01*
X69651428Y-11563855D02*
X70146666Y-11563855D01*
X70146666Y-11563855D02*
X69880000Y-11868617D01*
X69880000Y-11868617D02*
X69994285Y-11868617D01*
X69994285Y-11868617D02*
X70070476Y-11906712D01*
X70070476Y-11906712D02*
X70108571Y-11944807D01*
X70108571Y-11944807D02*
X70146666Y-12020998D01*
X70146666Y-12020998D02*
X70146666Y-12211474D01*
X70146666Y-12211474D02*
X70108571Y-12287664D01*
X70108571Y-12287664D02*
X70070476Y-12325760D01*
X70070476Y-12325760D02*
X69994285Y-12363855D01*
X69994285Y-12363855D02*
X69765714Y-12363855D01*
X69765714Y-12363855D02*
X69689523Y-12325760D01*
X69689523Y-12325760D02*
X69651428Y-12287664D01*
X70413333Y-11563855D02*
X70908571Y-11563855D01*
X70908571Y-11563855D02*
X70641905Y-11868617D01*
X70641905Y-11868617D02*
X70756190Y-11868617D01*
X70756190Y-11868617D02*
X70832381Y-11906712D01*
X70832381Y-11906712D02*
X70870476Y-11944807D01*
X70870476Y-11944807D02*
X70908571Y-12020998D01*
X70908571Y-12020998D02*
X70908571Y-12211474D01*
X70908571Y-12211474D02*
X70870476Y-12287664D01*
X70870476Y-12287664D02*
X70832381Y-12325760D01*
X70832381Y-12325760D02*
X70756190Y-12363855D01*
X70756190Y-12363855D02*
X70527619Y-12363855D01*
X70527619Y-12363855D02*
X70451428Y-12325760D01*
X70451428Y-12325760D02*
X70413333Y-12287664D01*
X71403810Y-11563855D02*
X71480000Y-11563855D01*
X71480000Y-11563855D02*
X71556191Y-11601950D01*
X71556191Y-11601950D02*
X71594286Y-11640045D01*
X71594286Y-11640045D02*
X71632381Y-11716236D01*
X71632381Y-11716236D02*
X71670476Y-11868617D01*
X71670476Y-11868617D02*
X71670476Y-12059093D01*
X71670476Y-12059093D02*
X71632381Y-12211474D01*
X71632381Y-12211474D02*
X71594286Y-12287664D01*
X71594286Y-12287664D02*
X71556191Y-12325760D01*
X71556191Y-12325760D02*
X71480000Y-12363855D01*
X71480000Y-12363855D02*
X71403810Y-12363855D01*
X71403810Y-12363855D02*
X71327619Y-12325760D01*
X71327619Y-12325760D02*
X71289524Y-12287664D01*
X71289524Y-12287664D02*
X71251429Y-12211474D01*
X71251429Y-12211474D02*
X71213333Y-12059093D01*
X71213333Y-12059093D02*
X71213333Y-11868617D01*
X71213333Y-11868617D02*
X71251429Y-11716236D01*
X71251429Y-11716236D02*
X71289524Y-11640045D01*
X71289524Y-11640045D02*
X71327619Y-11601950D01*
X71327619Y-11601950D02*
X71403810Y-11563855D01*
X72470477Y-12363855D02*
X72203810Y-11982902D01*
X72013334Y-12363855D02*
X72013334Y-11563855D01*
X72013334Y-11563855D02*
X72318096Y-11563855D01*
X72318096Y-11563855D02*
X72394286Y-11601950D01*
X72394286Y-11601950D02*
X72432381Y-11640045D01*
X72432381Y-11640045D02*
X72470477Y-11716236D01*
X72470477Y-11716236D02*
X72470477Y-11830521D01*
X72470477Y-11830521D02*
X72432381Y-11906712D01*
X72432381Y-11906712D02*
X72394286Y-11944807D01*
X72394286Y-11944807D02*
X72318096Y-11982902D01*
X72318096Y-11982902D02*
X72013334Y-11982902D01*
X67752380Y-9363855D02*
X67371428Y-9363855D01*
X67371428Y-9363855D02*
X67371428Y-8563855D01*
X68019047Y-8944807D02*
X68285713Y-8944807D01*
X68399999Y-9363855D02*
X68019047Y-9363855D01*
X68019047Y-9363855D02*
X68019047Y-8563855D01*
X68019047Y-8563855D02*
X68399999Y-8563855D01*
X68742857Y-9363855D02*
X68742857Y-8563855D01*
X68742857Y-8563855D02*
X68933333Y-8563855D01*
X68933333Y-8563855D02*
X69047619Y-8601950D01*
X69047619Y-8601950D02*
X69123809Y-8678140D01*
X69123809Y-8678140D02*
X69161904Y-8754331D01*
X69161904Y-8754331D02*
X69200000Y-8906712D01*
X69200000Y-8906712D02*
X69200000Y-9020998D01*
X69200000Y-9020998D02*
X69161904Y-9173379D01*
X69161904Y-9173379D02*
X69123809Y-9249569D01*
X69123809Y-9249569D02*
X69047619Y-9325760D01*
X69047619Y-9325760D02*
X68933333Y-9363855D01*
X68933333Y-9363855D02*
X68742857Y-9363855D01*
X69352381Y-9440045D02*
X69961904Y-9440045D01*
X70038095Y-8563855D02*
X70495238Y-8563855D01*
X70266666Y-9363855D02*
X70266666Y-8563855D01*
X70723809Y-9135283D02*
X71104762Y-9135283D01*
X70647619Y-9363855D02*
X70914286Y-8563855D01*
X70914286Y-8563855D02*
X71180952Y-9363855D01*
X71409523Y-9325760D02*
X71523809Y-9363855D01*
X71523809Y-9363855D02*
X71714285Y-9363855D01*
X71714285Y-9363855D02*
X71790476Y-9325760D01*
X71790476Y-9325760D02*
X71828571Y-9287664D01*
X71828571Y-9287664D02*
X71866666Y-9211474D01*
X71866666Y-9211474D02*
X71866666Y-9135283D01*
X71866666Y-9135283D02*
X71828571Y-9059093D01*
X71828571Y-9059093D02*
X71790476Y-9020998D01*
X71790476Y-9020998D02*
X71714285Y-8982902D01*
X71714285Y-8982902D02*
X71561904Y-8944807D01*
X71561904Y-8944807D02*
X71485714Y-8906712D01*
X71485714Y-8906712D02*
X71447619Y-8868617D01*
X71447619Y-8868617D02*
X71409523Y-8792426D01*
X71409523Y-8792426D02*
X71409523Y-8716236D01*
X71409523Y-8716236D02*
X71447619Y-8640045D01*
X71447619Y-8640045D02*
X71485714Y-8601950D01*
X71485714Y-8601950D02*
X71561904Y-8563855D01*
X71561904Y-8563855D02*
X71752381Y-8563855D01*
X71752381Y-8563855D02*
X71866666Y-8601950D01*
X72209524Y-9363855D02*
X72209524Y-8563855D01*
X72666667Y-9363855D02*
X72323809Y-8906712D01*
X72666667Y-8563855D02*
X72209524Y-9020998D01*
X72342857Y-32563855D02*
X72342857Y-33211474D01*
X72342857Y-33211474D02*
X72380952Y-33287664D01*
X72380952Y-33287664D02*
X72419047Y-33325760D01*
X72419047Y-33325760D02*
X72495238Y-33363855D01*
X72495238Y-33363855D02*
X72647619Y-33363855D01*
X72647619Y-33363855D02*
X72723809Y-33325760D01*
X72723809Y-33325760D02*
X72761904Y-33287664D01*
X72761904Y-33287664D02*
X72800000Y-33211474D01*
X72800000Y-33211474D02*
X72800000Y-32563855D01*
X73142856Y-33325760D02*
X73257142Y-33363855D01*
X73257142Y-33363855D02*
X73447618Y-33363855D01*
X73447618Y-33363855D02*
X73523809Y-33325760D01*
X73523809Y-33325760D02*
X73561904Y-33287664D01*
X73561904Y-33287664D02*
X73599999Y-33211474D01*
X73599999Y-33211474D02*
X73599999Y-33135283D01*
X73599999Y-33135283D02*
X73561904Y-33059093D01*
X73561904Y-33059093D02*
X73523809Y-33020998D01*
X73523809Y-33020998D02*
X73447618Y-32982902D01*
X73447618Y-32982902D02*
X73295237Y-32944807D01*
X73295237Y-32944807D02*
X73219047Y-32906712D01*
X73219047Y-32906712D02*
X73180952Y-32868617D01*
X73180952Y-32868617D02*
X73142856Y-32792426D01*
X73142856Y-32792426D02*
X73142856Y-32716236D01*
X73142856Y-32716236D02*
X73180952Y-32640045D01*
X73180952Y-32640045D02*
X73219047Y-32601950D01*
X73219047Y-32601950D02*
X73295237Y-32563855D01*
X73295237Y-32563855D02*
X73485714Y-32563855D01*
X73485714Y-32563855D02*
X73599999Y-32601950D01*
X73904761Y-33135283D02*
X74285714Y-33135283D01*
X73828571Y-33363855D02*
X74095238Y-32563855D01*
X74095238Y-32563855D02*
X74361904Y-33363855D01*
X75085714Y-33363855D02*
X74819047Y-32982902D01*
X74628571Y-33363855D02*
X74628571Y-32563855D01*
X74628571Y-32563855D02*
X74933333Y-32563855D01*
X74933333Y-32563855D02*
X75009523Y-32601950D01*
X75009523Y-32601950D02*
X75047618Y-32640045D01*
X75047618Y-32640045D02*
X75085714Y-32716236D01*
X75085714Y-32716236D02*
X75085714Y-32830521D01*
X75085714Y-32830521D02*
X75047618Y-32906712D01*
X75047618Y-32906712D02*
X75009523Y-32944807D01*
X75009523Y-32944807D02*
X74933333Y-32982902D01*
X74933333Y-32982902D02*
X74628571Y-32982902D01*
X75314285Y-32563855D02*
X75771428Y-32563855D01*
X75542856Y-33363855D02*
X75542856Y-32563855D01*
X8489048Y-58363855D02*
X8489048Y-57563855D01*
X8831904Y-58325760D02*
X8946190Y-58363855D01*
X8946190Y-58363855D02*
X9136666Y-58363855D01*
X9136666Y-58363855D02*
X9212857Y-58325760D01*
X9212857Y-58325760D02*
X9250952Y-58287664D01*
X9250952Y-58287664D02*
X9289047Y-58211474D01*
X9289047Y-58211474D02*
X9289047Y-58135283D01*
X9289047Y-58135283D02*
X9250952Y-58059093D01*
X9250952Y-58059093D02*
X9212857Y-58020998D01*
X9212857Y-58020998D02*
X9136666Y-57982902D01*
X9136666Y-57982902D02*
X8984285Y-57944807D01*
X8984285Y-57944807D02*
X8908095Y-57906712D01*
X8908095Y-57906712D02*
X8870000Y-57868617D01*
X8870000Y-57868617D02*
X8831904Y-57792426D01*
X8831904Y-57792426D02*
X8831904Y-57716236D01*
X8831904Y-57716236D02*
X8870000Y-57640045D01*
X8870000Y-57640045D02*
X8908095Y-57601950D01*
X8908095Y-57601950D02*
X8984285Y-57563855D01*
X8984285Y-57563855D02*
X9174762Y-57563855D01*
X9174762Y-57563855D02*
X9289047Y-57601950D01*
X9631905Y-58363855D02*
X9631905Y-57563855D01*
X9631905Y-57563855D02*
X9936667Y-57563855D01*
X9936667Y-57563855D02*
X10012857Y-57601950D01*
X10012857Y-57601950D02*
X10050952Y-57640045D01*
X10050952Y-57640045D02*
X10089048Y-57716236D01*
X10089048Y-57716236D02*
X10089048Y-57830521D01*
X10089048Y-57830521D02*
X10050952Y-57906712D01*
X10050952Y-57906712D02*
X10012857Y-57944807D01*
X10012857Y-57944807D02*
X9936667Y-57982902D01*
X9936667Y-57982902D02*
X9631905Y-57982902D01*
M02*
